%TF.GenerationSoftware,KiCad,Pcbnew,(5.1.6)-1*%
%TF.CreationDate,2021-03-15T21:03:39-07:00*%
%TF.ProjectId,ECUOutputs,4543554f-7574-4707-9574-732e6b696361,rev?*%
%TF.SameCoordinates,Original*%
%TF.FileFunction,Legend,Top*%
%TF.FilePolarity,Positive*%
%FSLAX46Y46*%
G04 Gerber Fmt 4.6, Leading zero omitted, Abs format (unit mm)*
G04 Created by KiCad (PCBNEW (5.1.6)-1) date 2021-03-15 21:03:39*
%MOMM*%
%LPD*%
G01*
G04 APERTURE LIST*
%ADD10C,0.150000*%
%ADD11C,0.120000*%
G04 APERTURE END LIST*
D10*
X137452380Y-84642857D02*
X136452380Y-84642857D01*
X136452380Y-84404761D01*
X136500000Y-84261904D01*
X136595238Y-84166666D01*
X136690476Y-84119047D01*
X136880952Y-84071428D01*
X137023809Y-84071428D01*
X137214285Y-84119047D01*
X137309523Y-84166666D01*
X137404761Y-84261904D01*
X137452380Y-84404761D01*
X137452380Y-84642857D01*
X136452380Y-83357142D02*
X137166666Y-83357142D01*
X137309523Y-83404761D01*
X137404761Y-83500000D01*
X137452380Y-83642857D01*
X137452380Y-83738095D01*
X136928571Y-82880952D02*
X136928571Y-82547619D01*
X137452380Y-82404761D02*
X137452380Y-82880952D01*
X136452380Y-82880952D01*
X136452380Y-82404761D01*
X136452380Y-82119047D02*
X136452380Y-81547619D01*
X137452380Y-81833333D02*
X136452380Y-81833333D01*
X136928571Y-80452380D02*
X136928571Y-80119047D01*
X137452380Y-79976190D02*
X137452380Y-80452380D01*
X136452380Y-80452380D01*
X136452380Y-79976190D01*
X137357142Y-78976190D02*
X137404761Y-79023809D01*
X137452380Y-79166666D01*
X137452380Y-79261904D01*
X137404761Y-79404761D01*
X137309523Y-79500000D01*
X137214285Y-79547619D01*
X137023809Y-79595238D01*
X136880952Y-79595238D01*
X136690476Y-79547619D01*
X136595238Y-79500000D01*
X136500000Y-79404761D01*
X136452380Y-79261904D01*
X136452380Y-79166666D01*
X136500000Y-79023809D01*
X136547619Y-78976190D01*
X136452380Y-78547619D02*
X137261904Y-78547619D01*
X137357142Y-78500000D01*
X137404761Y-78452380D01*
X137452380Y-78357142D01*
X137452380Y-78166666D01*
X137404761Y-78071428D01*
X137357142Y-78023809D01*
X137261904Y-77976190D01*
X136452380Y-77976190D01*
X137452380Y-76738095D02*
X136452380Y-76738095D01*
X137452380Y-76261904D02*
X136452380Y-76261904D01*
X137452380Y-75690476D01*
X136452380Y-75690476D01*
X137452380Y-75214285D02*
X136452380Y-75214285D01*
X136452380Y-74833333D01*
X136500000Y-74738095D01*
X136547619Y-74690476D01*
X136642857Y-74642857D01*
X136785714Y-74642857D01*
X136880952Y-74690476D01*
X136928571Y-74738095D01*
X136976190Y-74833333D01*
X136976190Y-75214285D01*
X136452380Y-74214285D02*
X137261904Y-74214285D01*
X137357142Y-74166666D01*
X137404761Y-74119047D01*
X137452380Y-74023809D01*
X137452380Y-73833333D01*
X137404761Y-73738095D01*
X137357142Y-73690476D01*
X137261904Y-73642857D01*
X136452380Y-73642857D01*
X136452380Y-73309523D02*
X136452380Y-72738095D01*
X137452380Y-73023809D02*
X136452380Y-73023809D01*
X137404761Y-72452380D02*
X137452380Y-72309523D01*
X137452380Y-72071428D01*
X137404761Y-71976190D01*
X137357142Y-71928571D01*
X137261904Y-71880952D01*
X137166666Y-71880952D01*
X137071428Y-71928571D01*
X137023809Y-71976190D01*
X136976190Y-72071428D01*
X136928571Y-72261904D01*
X136880952Y-72357142D01*
X136833333Y-72404761D01*
X136738095Y-72452380D01*
X136642857Y-72452380D01*
X136547619Y-72404761D01*
X136500000Y-72357142D01*
X136452380Y-72261904D01*
X136452380Y-72023809D01*
X136500000Y-71880952D01*
X136452380Y-70833333D02*
X137452380Y-70500000D01*
X136452380Y-70166666D01*
X137452380Y-69309523D02*
X137452380Y-69880952D01*
X137452380Y-69595238D02*
X136452380Y-69595238D01*
X136595238Y-69690476D01*
X136690476Y-69785714D01*
X136738095Y-69880952D01*
D11*
%TO.C,J4*%
X112376000Y-103386000D02*
X111376000Y-103886000D01*
X112376000Y-104386000D02*
X112376000Y-103386000D01*
X111376000Y-103886000D02*
X112376000Y-104386000D01*
X109676000Y-86596000D02*
X110986000Y-86596000D01*
X109676000Y-86596000D02*
X109676000Y-86596000D01*
X109676000Y-69496000D02*
X109676000Y-86596000D01*
X103176000Y-69496000D02*
X109676000Y-69496000D01*
X103176000Y-107796000D02*
X103176000Y-69496000D01*
X109676000Y-107796000D02*
X103176000Y-107796000D01*
X109676000Y-90696000D02*
X109676000Y-107796000D01*
X110986000Y-90696000D02*
X109676000Y-90696000D01*
X110986000Y-68196000D02*
X110986000Y-109096000D01*
X101866000Y-68196000D02*
X110986000Y-68196000D01*
X101866000Y-109096000D02*
X101866000Y-68196000D01*
X110986000Y-109096000D02*
X101866000Y-109096000D01*
%TO.C,R39*%
X113103922Y-80720000D02*
X113621078Y-80720000D01*
X113103922Y-79300000D02*
X113621078Y-79300000D01*
%TO.C,R38*%
X131996922Y-72846000D02*
X132514078Y-72846000D01*
X131996922Y-71426000D02*
X132514078Y-71426000D01*
%TO.C,R37*%
X129361000Y-69679078D02*
X129361000Y-69161922D01*
X127941000Y-69679078D02*
X127941000Y-69161922D01*
%TO.C,R36*%
X114129078Y-107875000D02*
X113611922Y-107875000D01*
X114129078Y-109295000D02*
X113611922Y-109295000D01*
%TO.C,R35*%
X118788922Y-69544000D02*
X119306078Y-69544000D01*
X118788922Y-68124000D02*
X119306078Y-68124000D01*
%TO.C,R34*%
X131528078Y-81205000D02*
X131010922Y-81205000D01*
X131528078Y-82625000D02*
X131010922Y-82625000D01*
%TO.C,R33*%
X131498078Y-79173000D02*
X130980922Y-79173000D01*
X131498078Y-80593000D02*
X130980922Y-80593000D01*
%TO.C,R32*%
X121836922Y-71957000D02*
X122354078Y-71957000D01*
X121836922Y-70537000D02*
X122354078Y-70537000D01*
%TO.C,R31*%
X131996922Y-74878000D02*
X132514078Y-74878000D01*
X131996922Y-73458000D02*
X132514078Y-73458000D01*
%TO.C,R30*%
X119582000Y-74856078D02*
X119582000Y-74338922D01*
X118162000Y-74856078D02*
X118162000Y-74338922D01*
%TO.C,R29*%
X126163000Y-76751922D02*
X126163000Y-77269078D01*
X127583000Y-76751922D02*
X127583000Y-77269078D01*
%TO.C,R28*%
X127972078Y-79173000D02*
X127454922Y-79173000D01*
X127972078Y-80593000D02*
X127454922Y-80593000D01*
%TO.C,R27*%
X116288078Y-82094000D02*
X115770922Y-82094000D01*
X116288078Y-83514000D02*
X115770922Y-83514000D01*
%TO.C,R26*%
X113200922Y-72084000D02*
X113718078Y-72084000D01*
X113200922Y-70664000D02*
X113718078Y-70664000D01*
%TO.C,R25*%
X136092000Y-97970078D02*
X136092000Y-97452922D01*
X134672000Y-97970078D02*
X134672000Y-97452922D01*
%TO.C,R24*%
X113152422Y-102056000D02*
X113669578Y-102056000D01*
X113152422Y-100636000D02*
X113669578Y-100636000D01*
%TO.C,R23*%
X138434578Y-96191000D02*
X137917422Y-96191000D01*
X138434578Y-97611000D02*
X137917422Y-97611000D01*
%TO.C,R22*%
X132885922Y-93420000D02*
X133403078Y-93420000D01*
X132885922Y-92000000D02*
X133403078Y-92000000D01*
%TO.C,R21*%
X132964422Y-95579000D02*
X133481578Y-95579000D01*
X132964422Y-94159000D02*
X133481578Y-94159000D01*
%TO.C,R20*%
X113542578Y-95175000D02*
X113025422Y-95175000D01*
X113542578Y-96595000D02*
X113025422Y-96595000D01*
%TO.C,R19*%
X113591078Y-97334000D02*
X113073922Y-97334000D01*
X113591078Y-98754000D02*
X113073922Y-98754000D01*
%TO.C,R18*%
X113591078Y-93016000D02*
X113073922Y-93016000D01*
X113591078Y-94436000D02*
X113073922Y-94436000D01*
%TO.C,R17*%
X113591078Y-90730000D02*
X113073922Y-90730000D01*
X113591078Y-92150000D02*
X113073922Y-92150000D01*
%TO.C,R16*%
X128449000Y-93896922D02*
X128449000Y-94414078D01*
X129869000Y-93896922D02*
X129869000Y-94414078D01*
%TO.C,R15*%
X131751000Y-88211922D02*
X131751000Y-88729078D01*
X133171000Y-88211922D02*
X133171000Y-88729078D01*
%TO.C,R14*%
X126037078Y-82602000D02*
X125519922Y-82602000D01*
X126037078Y-84022000D02*
X125519922Y-84022000D01*
%TO.C,R13*%
X128449000Y-90213922D02*
X128449000Y-90731078D01*
X129869000Y-90213922D02*
X129869000Y-90731078D01*
%TO.C,R12*%
X133179078Y-84888000D02*
X132661922Y-84888000D01*
X133179078Y-86308000D02*
X132661922Y-86308000D01*
%TO.C,R11*%
X117147078Y-85269000D02*
X116629922Y-85269000D01*
X117147078Y-86689000D02*
X116629922Y-86689000D01*
%TO.C,R10*%
X117177078Y-87428000D02*
X116659922Y-87428000D01*
X117177078Y-88848000D02*
X116659922Y-88848000D01*
%TO.C,R9*%
X113591078Y-87428000D02*
X113073922Y-87428000D01*
X113591078Y-88848000D02*
X113073922Y-88848000D01*
%TO.C,R8*%
X113591078Y-85269000D02*
X113073922Y-85269000D01*
X113591078Y-86689000D02*
X113073922Y-86689000D01*
%TO.C,R7*%
X128440922Y-104977000D02*
X128958078Y-104977000D01*
X128440922Y-103557000D02*
X128958078Y-103557000D01*
%TO.C,R6*%
X124893000Y-101643922D02*
X124893000Y-102161078D01*
X126313000Y-101643922D02*
X126313000Y-102161078D01*
%TO.C,R5*%
X128440922Y-107136000D02*
X128958078Y-107136000D01*
X128440922Y-105716000D02*
X128958078Y-105716000D01*
%TO.C,R4*%
X113660422Y-107136000D02*
X114177578Y-107136000D01*
X113660422Y-105716000D02*
X114177578Y-105716000D01*
%TO.C,R3*%
X117860578Y-105716000D02*
X117343422Y-105716000D01*
X117860578Y-107136000D02*
X117343422Y-107136000D01*
%TO.C,R2*%
X122296422Y-104977000D02*
X122813578Y-104977000D01*
X122296422Y-103557000D02*
X122813578Y-103557000D01*
%TO.C,R1*%
X120947922Y-107136000D02*
X121465078Y-107136000D01*
X120947922Y-105716000D02*
X121465078Y-105716000D01*
%TO.C,Q8*%
X126474000Y-71115000D02*
X125014000Y-71115000D01*
X126474000Y-67955000D02*
X124314000Y-67955000D01*
X126474000Y-67955000D02*
X126474000Y-68885000D01*
X126474000Y-71115000D02*
X126474000Y-70185000D01*
%TO.C,Q7*%
X118115000Y-82786000D02*
X118115000Y-81326000D01*
X121275000Y-82786000D02*
X121275000Y-80626000D01*
X121275000Y-82786000D02*
X120345000Y-82786000D01*
X118115000Y-82786000D02*
X119045000Y-82786000D01*
%TO.C,Q6*%
X120505000Y-79878000D02*
X119045000Y-79878000D01*
X120505000Y-76718000D02*
X118345000Y-76718000D01*
X120505000Y-76718000D02*
X120505000Y-77648000D01*
X120505000Y-79878000D02*
X120505000Y-78948000D01*
%TO.C,Q5*%
X132710000Y-97046000D02*
X132710000Y-98506000D01*
X129550000Y-97046000D02*
X129550000Y-99206000D01*
X129550000Y-97046000D02*
X130480000Y-97046000D01*
X132710000Y-97046000D02*
X131780000Y-97046000D01*
%TO.C,Q4*%
X123073000Y-98534000D02*
X123073000Y-97074000D01*
X126233000Y-98534000D02*
X126233000Y-96374000D01*
X126233000Y-98534000D02*
X125303000Y-98534000D01*
X123073000Y-98534000D02*
X124003000Y-98534000D01*
%TO.C,Q3*%
X126982000Y-95748000D02*
X125522000Y-95748000D01*
X126982000Y-92588000D02*
X124822000Y-92588000D01*
X126982000Y-92588000D02*
X126982000Y-93518000D01*
X126982000Y-95748000D02*
X126982000Y-94818000D01*
%TO.C,Q2*%
X126982000Y-92065000D02*
X125522000Y-92065000D01*
X126982000Y-88905000D02*
X124822000Y-88905000D01*
X126982000Y-88905000D02*
X126982000Y-89835000D01*
X126982000Y-92065000D02*
X126982000Y-91135000D01*
%TO.C,Q1*%
X125728000Y-108768000D02*
X124268000Y-108768000D01*
X125728000Y-105608000D02*
X123568000Y-105608000D01*
X125728000Y-105608000D02*
X125728000Y-106538000D01*
X125728000Y-108768000D02*
X125728000Y-107838000D01*
%TO.C,D12*%
X111795000Y-74184000D02*
X115695000Y-74184000D01*
X111795000Y-76184000D02*
X115695000Y-76184000D01*
X111795000Y-74184000D02*
X111795000Y-76184000D01*
%TO.C,D11*%
X111795000Y-76724000D02*
X115695000Y-76724000D01*
X111795000Y-78724000D02*
X115695000Y-78724000D01*
X111795000Y-76724000D02*
X111795000Y-78724000D01*
%TO.C,D10*%
X122063000Y-79974000D02*
X122063000Y-76074000D01*
X124063000Y-79974000D02*
X124063000Y-76074000D01*
X122063000Y-79974000D02*
X124063000Y-79974000D01*
%TO.C,D9*%
X122084000Y-73041000D02*
X125984000Y-73041000D01*
X122084000Y-75041000D02*
X125984000Y-75041000D01*
X122084000Y-73041000D02*
X122084000Y-75041000D01*
%TO.C,D8*%
X119980000Y-72120000D02*
X116080000Y-72120000D01*
X119980000Y-70120000D02*
X116080000Y-70120000D01*
X119980000Y-72120000D02*
X119980000Y-70120000D01*
%TO.C,D7*%
X122647000Y-96758000D02*
X118747000Y-96758000D01*
X122647000Y-94758000D02*
X118747000Y-94758000D01*
X122647000Y-96758000D02*
X122647000Y-94758000D01*
%TO.C,D6*%
X124170000Y-92186000D02*
X120270000Y-92186000D01*
X124170000Y-90186000D02*
X120270000Y-90186000D01*
X124170000Y-92186000D02*
X124170000Y-90186000D01*
%TO.C,D5*%
X127346000Y-86598000D02*
X123446000Y-86598000D01*
X127346000Y-84598000D02*
X123446000Y-84598000D01*
X127346000Y-86598000D02*
X127346000Y-84598000D01*
%TO.C,D4*%
X120412000Y-88990000D02*
X120412000Y-85090000D01*
X122412000Y-88990000D02*
X122412000Y-85090000D01*
X120412000Y-88990000D02*
X122412000Y-88990000D01*
%TO.C,D3*%
X132826000Y-100621000D02*
X132826000Y-104521000D01*
X130826000Y-100621000D02*
X130826000Y-104521000D01*
X132826000Y-100621000D02*
X130826000Y-100621000D01*
%TO.C,D2*%
X124298000Y-101838000D02*
X120398000Y-101838000D01*
X124298000Y-99838000D02*
X120398000Y-99838000D01*
X124298000Y-101838000D02*
X124298000Y-99838000D01*
%TO.C,D1*%
X120487000Y-105140000D02*
X116587000Y-105140000D01*
X120487000Y-103140000D02*
X116587000Y-103140000D01*
X120487000Y-105140000D02*
X120487000Y-103140000D01*
%TO.C,C3*%
X128440922Y-74878000D02*
X128958078Y-74878000D01*
X128440922Y-73458000D02*
X128958078Y-73458000D01*
%TO.C,C2*%
X137965922Y-95452000D02*
X138483078Y-95452000D01*
X137965922Y-94032000D02*
X138483078Y-94032000D01*
%TO.C,C1*%
X129623078Y-84888000D02*
X129105922Y-84888000D01*
X129623078Y-86308000D02*
X129105922Y-86308000D01*
%TO.C,J4*%
D10*
X106092666Y-109438380D02*
X106092666Y-110152666D01*
X106045047Y-110295523D01*
X105949809Y-110390761D01*
X105806952Y-110438380D01*
X105711714Y-110438380D01*
X106997428Y-109771714D02*
X106997428Y-110438380D01*
X106759333Y-109390761D02*
X106521238Y-110105047D01*
X107140285Y-110105047D01*
%TO.C,R39*%
X116276380Y-81033857D02*
X115800190Y-81367190D01*
X116276380Y-81605285D02*
X115276380Y-81605285D01*
X115276380Y-81224333D01*
X115324000Y-81129095D01*
X115371619Y-81081476D01*
X115466857Y-81033857D01*
X115609714Y-81033857D01*
X115704952Y-81081476D01*
X115752571Y-81129095D01*
X115800190Y-81224333D01*
X115800190Y-81605285D01*
X115276380Y-80700523D02*
X115276380Y-80081476D01*
X115657333Y-80414809D01*
X115657333Y-80271952D01*
X115704952Y-80176714D01*
X115752571Y-80129095D01*
X115847809Y-80081476D01*
X116085904Y-80081476D01*
X116181142Y-80129095D01*
X116228761Y-80176714D01*
X116276380Y-80271952D01*
X116276380Y-80557666D01*
X116228761Y-80652904D01*
X116181142Y-80700523D01*
X116276380Y-79605285D02*
X116276380Y-79414809D01*
X116228761Y-79319571D01*
X116181142Y-79271952D01*
X116038285Y-79176714D01*
X115847809Y-79129095D01*
X115466857Y-79129095D01*
X115371619Y-79176714D01*
X115324000Y-79224333D01*
X115276380Y-79319571D01*
X115276380Y-79510047D01*
X115324000Y-79605285D01*
X115371619Y-79652904D01*
X115466857Y-79700523D01*
X115704952Y-79700523D01*
X115800190Y-79652904D01*
X115847809Y-79605285D01*
X115895428Y-79510047D01*
X115895428Y-79319571D01*
X115847809Y-79224333D01*
X115800190Y-79176714D01*
X115704952Y-79129095D01*
%TO.C,R38*%
X131612642Y-70938380D02*
X131279309Y-70462190D01*
X131041214Y-70938380D02*
X131041214Y-69938380D01*
X131422166Y-69938380D01*
X131517404Y-69986000D01*
X131565023Y-70033619D01*
X131612642Y-70128857D01*
X131612642Y-70271714D01*
X131565023Y-70366952D01*
X131517404Y-70414571D01*
X131422166Y-70462190D01*
X131041214Y-70462190D01*
X131945976Y-69938380D02*
X132565023Y-69938380D01*
X132231690Y-70319333D01*
X132374547Y-70319333D01*
X132469785Y-70366952D01*
X132517404Y-70414571D01*
X132565023Y-70509809D01*
X132565023Y-70747904D01*
X132517404Y-70843142D01*
X132469785Y-70890761D01*
X132374547Y-70938380D01*
X132088833Y-70938380D01*
X131993595Y-70890761D01*
X131945976Y-70843142D01*
X133136452Y-70366952D02*
X133041214Y-70319333D01*
X132993595Y-70271714D01*
X132945976Y-70176476D01*
X132945976Y-70128857D01*
X132993595Y-70033619D01*
X133041214Y-69986000D01*
X133136452Y-69938380D01*
X133326928Y-69938380D01*
X133422166Y-69986000D01*
X133469785Y-70033619D01*
X133517404Y-70128857D01*
X133517404Y-70176476D01*
X133469785Y-70271714D01*
X133422166Y-70319333D01*
X133326928Y-70366952D01*
X133136452Y-70366952D01*
X133041214Y-70414571D01*
X132993595Y-70462190D01*
X132945976Y-70557428D01*
X132945976Y-70747904D01*
X132993595Y-70843142D01*
X133041214Y-70890761D01*
X133136452Y-70938380D01*
X133326928Y-70938380D01*
X133422166Y-70890761D01*
X133469785Y-70843142D01*
X133517404Y-70747904D01*
X133517404Y-70557428D01*
X133469785Y-70462190D01*
X133422166Y-70414571D01*
X133326928Y-70366952D01*
%TO.C,R37*%
X130881380Y-69730857D02*
X130405190Y-70064190D01*
X130881380Y-70302285D02*
X129881380Y-70302285D01*
X129881380Y-69921333D01*
X129929000Y-69826095D01*
X129976619Y-69778476D01*
X130071857Y-69730857D01*
X130214714Y-69730857D01*
X130309952Y-69778476D01*
X130357571Y-69826095D01*
X130405190Y-69921333D01*
X130405190Y-70302285D01*
X129881380Y-69397523D02*
X129881380Y-68778476D01*
X130262333Y-69111809D01*
X130262333Y-68968952D01*
X130309952Y-68873714D01*
X130357571Y-68826095D01*
X130452809Y-68778476D01*
X130690904Y-68778476D01*
X130786142Y-68826095D01*
X130833761Y-68873714D01*
X130881380Y-68968952D01*
X130881380Y-69254666D01*
X130833761Y-69349904D01*
X130786142Y-69397523D01*
X129881380Y-68445142D02*
X129881380Y-67778476D01*
X130881380Y-68207047D01*
%TO.C,R36*%
X113227642Y-110687380D02*
X112894309Y-110211190D01*
X112656214Y-110687380D02*
X112656214Y-109687380D01*
X113037166Y-109687380D01*
X113132404Y-109735000D01*
X113180023Y-109782619D01*
X113227642Y-109877857D01*
X113227642Y-110020714D01*
X113180023Y-110115952D01*
X113132404Y-110163571D01*
X113037166Y-110211190D01*
X112656214Y-110211190D01*
X113560976Y-109687380D02*
X114180023Y-109687380D01*
X113846690Y-110068333D01*
X113989547Y-110068333D01*
X114084785Y-110115952D01*
X114132404Y-110163571D01*
X114180023Y-110258809D01*
X114180023Y-110496904D01*
X114132404Y-110592142D01*
X114084785Y-110639761D01*
X113989547Y-110687380D01*
X113703833Y-110687380D01*
X113608595Y-110639761D01*
X113560976Y-110592142D01*
X115037166Y-109687380D02*
X114846690Y-109687380D01*
X114751452Y-109735000D01*
X114703833Y-109782619D01*
X114608595Y-109925476D01*
X114560976Y-110115952D01*
X114560976Y-110496904D01*
X114608595Y-110592142D01*
X114656214Y-110639761D01*
X114751452Y-110687380D01*
X114941928Y-110687380D01*
X115037166Y-110639761D01*
X115084785Y-110592142D01*
X115132404Y-110496904D01*
X115132404Y-110258809D01*
X115084785Y-110163571D01*
X115037166Y-110115952D01*
X114941928Y-110068333D01*
X114751452Y-110068333D01*
X114656214Y-110115952D01*
X114608595Y-110163571D01*
X114560976Y-110258809D01*
%TO.C,R35*%
X118404642Y-67636380D02*
X118071309Y-67160190D01*
X117833214Y-67636380D02*
X117833214Y-66636380D01*
X118214166Y-66636380D01*
X118309404Y-66684000D01*
X118357023Y-66731619D01*
X118404642Y-66826857D01*
X118404642Y-66969714D01*
X118357023Y-67064952D01*
X118309404Y-67112571D01*
X118214166Y-67160190D01*
X117833214Y-67160190D01*
X118737976Y-66636380D02*
X119357023Y-66636380D01*
X119023690Y-67017333D01*
X119166547Y-67017333D01*
X119261785Y-67064952D01*
X119309404Y-67112571D01*
X119357023Y-67207809D01*
X119357023Y-67445904D01*
X119309404Y-67541142D01*
X119261785Y-67588761D01*
X119166547Y-67636380D01*
X118880833Y-67636380D01*
X118785595Y-67588761D01*
X118737976Y-67541142D01*
X120261785Y-66636380D02*
X119785595Y-66636380D01*
X119737976Y-67112571D01*
X119785595Y-67064952D01*
X119880833Y-67017333D01*
X120118928Y-67017333D01*
X120214166Y-67064952D01*
X120261785Y-67112571D01*
X120309404Y-67207809D01*
X120309404Y-67445904D01*
X120261785Y-67541142D01*
X120214166Y-67588761D01*
X120118928Y-67636380D01*
X119880833Y-67636380D01*
X119785595Y-67588761D01*
X119737976Y-67541142D01*
%TO.C,R34*%
X130626642Y-84017380D02*
X130293309Y-83541190D01*
X130055214Y-84017380D02*
X130055214Y-83017380D01*
X130436166Y-83017380D01*
X130531404Y-83065000D01*
X130579023Y-83112619D01*
X130626642Y-83207857D01*
X130626642Y-83350714D01*
X130579023Y-83445952D01*
X130531404Y-83493571D01*
X130436166Y-83541190D01*
X130055214Y-83541190D01*
X130959976Y-83017380D02*
X131579023Y-83017380D01*
X131245690Y-83398333D01*
X131388547Y-83398333D01*
X131483785Y-83445952D01*
X131531404Y-83493571D01*
X131579023Y-83588809D01*
X131579023Y-83826904D01*
X131531404Y-83922142D01*
X131483785Y-83969761D01*
X131388547Y-84017380D01*
X131102833Y-84017380D01*
X131007595Y-83969761D01*
X130959976Y-83922142D01*
X132436166Y-83350714D02*
X132436166Y-84017380D01*
X132198071Y-82969761D02*
X131959976Y-83684047D01*
X132579023Y-83684047D01*
%TO.C,R33*%
X134183380Y-80144857D02*
X133707190Y-80478190D01*
X134183380Y-80716285D02*
X133183380Y-80716285D01*
X133183380Y-80335333D01*
X133231000Y-80240095D01*
X133278619Y-80192476D01*
X133373857Y-80144857D01*
X133516714Y-80144857D01*
X133611952Y-80192476D01*
X133659571Y-80240095D01*
X133707190Y-80335333D01*
X133707190Y-80716285D01*
X133183380Y-79811523D02*
X133183380Y-79192476D01*
X133564333Y-79525809D01*
X133564333Y-79382952D01*
X133611952Y-79287714D01*
X133659571Y-79240095D01*
X133754809Y-79192476D01*
X133992904Y-79192476D01*
X134088142Y-79240095D01*
X134135761Y-79287714D01*
X134183380Y-79382952D01*
X134183380Y-79668666D01*
X134135761Y-79763904D01*
X134088142Y-79811523D01*
X133183380Y-78859142D02*
X133183380Y-78240095D01*
X133564333Y-78573428D01*
X133564333Y-78430571D01*
X133611952Y-78335333D01*
X133659571Y-78287714D01*
X133754809Y-78240095D01*
X133992904Y-78240095D01*
X134088142Y-78287714D01*
X134135761Y-78335333D01*
X134183380Y-78430571D01*
X134183380Y-78716285D01*
X134135761Y-78811523D01*
X134088142Y-78859142D01*
%TO.C,R32*%
X121452642Y-70049380D02*
X121119309Y-69573190D01*
X120881214Y-70049380D02*
X120881214Y-69049380D01*
X121262166Y-69049380D01*
X121357404Y-69097000D01*
X121405023Y-69144619D01*
X121452642Y-69239857D01*
X121452642Y-69382714D01*
X121405023Y-69477952D01*
X121357404Y-69525571D01*
X121262166Y-69573190D01*
X120881214Y-69573190D01*
X121785976Y-69049380D02*
X122405023Y-69049380D01*
X122071690Y-69430333D01*
X122214547Y-69430333D01*
X122309785Y-69477952D01*
X122357404Y-69525571D01*
X122405023Y-69620809D01*
X122405023Y-69858904D01*
X122357404Y-69954142D01*
X122309785Y-70001761D01*
X122214547Y-70049380D01*
X121928833Y-70049380D01*
X121833595Y-70001761D01*
X121785976Y-69954142D01*
X122785976Y-69144619D02*
X122833595Y-69097000D01*
X122928833Y-69049380D01*
X123166928Y-69049380D01*
X123262166Y-69097000D01*
X123309785Y-69144619D01*
X123357404Y-69239857D01*
X123357404Y-69335095D01*
X123309785Y-69477952D01*
X122738357Y-70049380D01*
X123357404Y-70049380D01*
%TO.C,R31*%
X135199380Y-75064857D02*
X134723190Y-75398190D01*
X135199380Y-75636285D02*
X134199380Y-75636285D01*
X134199380Y-75255333D01*
X134247000Y-75160095D01*
X134294619Y-75112476D01*
X134389857Y-75064857D01*
X134532714Y-75064857D01*
X134627952Y-75112476D01*
X134675571Y-75160095D01*
X134723190Y-75255333D01*
X134723190Y-75636285D01*
X134199380Y-74731523D02*
X134199380Y-74112476D01*
X134580333Y-74445809D01*
X134580333Y-74302952D01*
X134627952Y-74207714D01*
X134675571Y-74160095D01*
X134770809Y-74112476D01*
X135008904Y-74112476D01*
X135104142Y-74160095D01*
X135151761Y-74207714D01*
X135199380Y-74302952D01*
X135199380Y-74588666D01*
X135151761Y-74683904D01*
X135104142Y-74731523D01*
X135199380Y-73160095D02*
X135199380Y-73731523D01*
X135199380Y-73445809D02*
X134199380Y-73445809D01*
X134342238Y-73541047D01*
X134437476Y-73636285D01*
X134485095Y-73731523D01*
%TO.C,R30*%
X117674380Y-75240357D02*
X117198190Y-75573690D01*
X117674380Y-75811785D02*
X116674380Y-75811785D01*
X116674380Y-75430833D01*
X116722000Y-75335595D01*
X116769619Y-75287976D01*
X116864857Y-75240357D01*
X117007714Y-75240357D01*
X117102952Y-75287976D01*
X117150571Y-75335595D01*
X117198190Y-75430833D01*
X117198190Y-75811785D01*
X116674380Y-74907023D02*
X116674380Y-74287976D01*
X117055333Y-74621309D01*
X117055333Y-74478452D01*
X117102952Y-74383214D01*
X117150571Y-74335595D01*
X117245809Y-74287976D01*
X117483904Y-74287976D01*
X117579142Y-74335595D01*
X117626761Y-74383214D01*
X117674380Y-74478452D01*
X117674380Y-74764166D01*
X117626761Y-74859404D01*
X117579142Y-74907023D01*
X116674380Y-73668928D02*
X116674380Y-73573690D01*
X116722000Y-73478452D01*
X116769619Y-73430833D01*
X116864857Y-73383214D01*
X117055333Y-73335595D01*
X117293428Y-73335595D01*
X117483904Y-73383214D01*
X117579142Y-73430833D01*
X117626761Y-73478452D01*
X117674380Y-73573690D01*
X117674380Y-73668928D01*
X117626761Y-73764166D01*
X117579142Y-73811785D01*
X117483904Y-73859404D01*
X117293428Y-73907023D01*
X117055333Y-73907023D01*
X116864857Y-73859404D01*
X116769619Y-73811785D01*
X116722000Y-73764166D01*
X116674380Y-73668928D01*
%TO.C,R29*%
X128975380Y-77653357D02*
X128499190Y-77986690D01*
X128975380Y-78224785D02*
X127975380Y-78224785D01*
X127975380Y-77843833D01*
X128023000Y-77748595D01*
X128070619Y-77700976D01*
X128165857Y-77653357D01*
X128308714Y-77653357D01*
X128403952Y-77700976D01*
X128451571Y-77748595D01*
X128499190Y-77843833D01*
X128499190Y-78224785D01*
X128070619Y-77272404D02*
X128023000Y-77224785D01*
X127975380Y-77129547D01*
X127975380Y-76891452D01*
X128023000Y-76796214D01*
X128070619Y-76748595D01*
X128165857Y-76700976D01*
X128261095Y-76700976D01*
X128403952Y-76748595D01*
X128975380Y-77320023D01*
X128975380Y-76700976D01*
X128975380Y-76224785D02*
X128975380Y-76034309D01*
X128927761Y-75939071D01*
X128880142Y-75891452D01*
X128737285Y-75796214D01*
X128546809Y-75748595D01*
X128165857Y-75748595D01*
X128070619Y-75796214D01*
X128023000Y-75843833D01*
X127975380Y-75939071D01*
X127975380Y-76129547D01*
X128023000Y-76224785D01*
X128070619Y-76272404D01*
X128165857Y-76320023D01*
X128403952Y-76320023D01*
X128499190Y-76272404D01*
X128546809Y-76224785D01*
X128594428Y-76129547D01*
X128594428Y-75939071D01*
X128546809Y-75843833D01*
X128499190Y-75796214D01*
X128403952Y-75748595D01*
%TO.C,R28*%
X127070642Y-81985380D02*
X126737309Y-81509190D01*
X126499214Y-81985380D02*
X126499214Y-80985380D01*
X126880166Y-80985380D01*
X126975404Y-81033000D01*
X127023023Y-81080619D01*
X127070642Y-81175857D01*
X127070642Y-81318714D01*
X127023023Y-81413952D01*
X126975404Y-81461571D01*
X126880166Y-81509190D01*
X126499214Y-81509190D01*
X127451595Y-81080619D02*
X127499214Y-81033000D01*
X127594452Y-80985380D01*
X127832547Y-80985380D01*
X127927785Y-81033000D01*
X127975404Y-81080619D01*
X128023023Y-81175857D01*
X128023023Y-81271095D01*
X127975404Y-81413952D01*
X127403976Y-81985380D01*
X128023023Y-81985380D01*
X128594452Y-81413952D02*
X128499214Y-81366333D01*
X128451595Y-81318714D01*
X128403976Y-81223476D01*
X128403976Y-81175857D01*
X128451595Y-81080619D01*
X128499214Y-81033000D01*
X128594452Y-80985380D01*
X128784928Y-80985380D01*
X128880166Y-81033000D01*
X128927785Y-81080619D01*
X128975404Y-81175857D01*
X128975404Y-81223476D01*
X128927785Y-81318714D01*
X128880166Y-81366333D01*
X128784928Y-81413952D01*
X128594452Y-81413952D01*
X128499214Y-81461571D01*
X128451595Y-81509190D01*
X128403976Y-81604428D01*
X128403976Y-81794904D01*
X128451595Y-81890142D01*
X128499214Y-81937761D01*
X128594452Y-81985380D01*
X128784928Y-81985380D01*
X128880166Y-81937761D01*
X128927785Y-81890142D01*
X128975404Y-81794904D01*
X128975404Y-81604428D01*
X128927785Y-81509190D01*
X128880166Y-81461571D01*
X128784928Y-81413952D01*
%TO.C,R27*%
X115386642Y-84906380D02*
X115053309Y-84430190D01*
X114815214Y-84906380D02*
X114815214Y-83906380D01*
X115196166Y-83906380D01*
X115291404Y-83954000D01*
X115339023Y-84001619D01*
X115386642Y-84096857D01*
X115386642Y-84239714D01*
X115339023Y-84334952D01*
X115291404Y-84382571D01*
X115196166Y-84430190D01*
X114815214Y-84430190D01*
X115767595Y-84001619D02*
X115815214Y-83954000D01*
X115910452Y-83906380D01*
X116148547Y-83906380D01*
X116243785Y-83954000D01*
X116291404Y-84001619D01*
X116339023Y-84096857D01*
X116339023Y-84192095D01*
X116291404Y-84334952D01*
X115719976Y-84906380D01*
X116339023Y-84906380D01*
X116672357Y-83906380D02*
X117339023Y-83906380D01*
X116910452Y-84906380D01*
%TO.C,R26*%
X112816642Y-70176380D02*
X112483309Y-69700190D01*
X112245214Y-70176380D02*
X112245214Y-69176380D01*
X112626166Y-69176380D01*
X112721404Y-69224000D01*
X112769023Y-69271619D01*
X112816642Y-69366857D01*
X112816642Y-69509714D01*
X112769023Y-69604952D01*
X112721404Y-69652571D01*
X112626166Y-69700190D01*
X112245214Y-69700190D01*
X113197595Y-69271619D02*
X113245214Y-69224000D01*
X113340452Y-69176380D01*
X113578547Y-69176380D01*
X113673785Y-69224000D01*
X113721404Y-69271619D01*
X113769023Y-69366857D01*
X113769023Y-69462095D01*
X113721404Y-69604952D01*
X113149976Y-70176380D01*
X113769023Y-70176380D01*
X114626166Y-69176380D02*
X114435690Y-69176380D01*
X114340452Y-69224000D01*
X114292833Y-69271619D01*
X114197595Y-69414476D01*
X114149976Y-69604952D01*
X114149976Y-69985904D01*
X114197595Y-70081142D01*
X114245214Y-70128761D01*
X114340452Y-70176380D01*
X114530928Y-70176380D01*
X114626166Y-70128761D01*
X114673785Y-70081142D01*
X114721404Y-69985904D01*
X114721404Y-69747809D01*
X114673785Y-69652571D01*
X114626166Y-69604952D01*
X114530928Y-69557333D01*
X114340452Y-69557333D01*
X114245214Y-69604952D01*
X114197595Y-69652571D01*
X114149976Y-69747809D01*
%TO.C,R25*%
X134184380Y-98354357D02*
X133708190Y-98687690D01*
X134184380Y-98925785D02*
X133184380Y-98925785D01*
X133184380Y-98544833D01*
X133232000Y-98449595D01*
X133279619Y-98401976D01*
X133374857Y-98354357D01*
X133517714Y-98354357D01*
X133612952Y-98401976D01*
X133660571Y-98449595D01*
X133708190Y-98544833D01*
X133708190Y-98925785D01*
X133279619Y-97973404D02*
X133232000Y-97925785D01*
X133184380Y-97830547D01*
X133184380Y-97592452D01*
X133232000Y-97497214D01*
X133279619Y-97449595D01*
X133374857Y-97401976D01*
X133470095Y-97401976D01*
X133612952Y-97449595D01*
X134184380Y-98021023D01*
X134184380Y-97401976D01*
X133184380Y-96497214D02*
X133184380Y-96973404D01*
X133660571Y-97021023D01*
X133612952Y-96973404D01*
X133565333Y-96878166D01*
X133565333Y-96640071D01*
X133612952Y-96544833D01*
X133660571Y-96497214D01*
X133755809Y-96449595D01*
X133993904Y-96449595D01*
X134089142Y-96497214D01*
X134136761Y-96544833D01*
X134184380Y-96640071D01*
X134184380Y-96878166D01*
X134136761Y-96973404D01*
X134089142Y-97021023D01*
%TO.C,R24*%
X116276380Y-101607857D02*
X115800190Y-101941190D01*
X116276380Y-102179285D02*
X115276380Y-102179285D01*
X115276380Y-101798333D01*
X115324000Y-101703095D01*
X115371619Y-101655476D01*
X115466857Y-101607857D01*
X115609714Y-101607857D01*
X115704952Y-101655476D01*
X115752571Y-101703095D01*
X115800190Y-101798333D01*
X115800190Y-102179285D01*
X115371619Y-101226904D02*
X115324000Y-101179285D01*
X115276380Y-101084047D01*
X115276380Y-100845952D01*
X115324000Y-100750714D01*
X115371619Y-100703095D01*
X115466857Y-100655476D01*
X115562095Y-100655476D01*
X115704952Y-100703095D01*
X116276380Y-101274523D01*
X116276380Y-100655476D01*
X115609714Y-99798333D02*
X116276380Y-99798333D01*
X115228761Y-100036428D02*
X115943047Y-100274523D01*
X115943047Y-99655476D01*
%TO.C,R23*%
X137533142Y-99003380D02*
X137199809Y-98527190D01*
X136961714Y-99003380D02*
X136961714Y-98003380D01*
X137342666Y-98003380D01*
X137437904Y-98051000D01*
X137485523Y-98098619D01*
X137533142Y-98193857D01*
X137533142Y-98336714D01*
X137485523Y-98431952D01*
X137437904Y-98479571D01*
X137342666Y-98527190D01*
X136961714Y-98527190D01*
X137914095Y-98098619D02*
X137961714Y-98051000D01*
X138056952Y-98003380D01*
X138295047Y-98003380D01*
X138390285Y-98051000D01*
X138437904Y-98098619D01*
X138485523Y-98193857D01*
X138485523Y-98289095D01*
X138437904Y-98431952D01*
X137866476Y-99003380D01*
X138485523Y-99003380D01*
X138818857Y-98003380D02*
X139437904Y-98003380D01*
X139104571Y-98384333D01*
X139247428Y-98384333D01*
X139342666Y-98431952D01*
X139390285Y-98479571D01*
X139437904Y-98574809D01*
X139437904Y-98812904D01*
X139390285Y-98908142D01*
X139342666Y-98955761D01*
X139247428Y-99003380D01*
X138961714Y-99003380D01*
X138866476Y-98955761D01*
X138818857Y-98908142D01*
%TO.C,R22*%
X132501642Y-91512380D02*
X132168309Y-91036190D01*
X131930214Y-91512380D02*
X131930214Y-90512380D01*
X132311166Y-90512380D01*
X132406404Y-90560000D01*
X132454023Y-90607619D01*
X132501642Y-90702857D01*
X132501642Y-90845714D01*
X132454023Y-90940952D01*
X132406404Y-90988571D01*
X132311166Y-91036190D01*
X131930214Y-91036190D01*
X132882595Y-90607619D02*
X132930214Y-90560000D01*
X133025452Y-90512380D01*
X133263547Y-90512380D01*
X133358785Y-90560000D01*
X133406404Y-90607619D01*
X133454023Y-90702857D01*
X133454023Y-90798095D01*
X133406404Y-90940952D01*
X132834976Y-91512380D01*
X133454023Y-91512380D01*
X133834976Y-90607619D02*
X133882595Y-90560000D01*
X133977833Y-90512380D01*
X134215928Y-90512380D01*
X134311166Y-90560000D01*
X134358785Y-90607619D01*
X134406404Y-90702857D01*
X134406404Y-90798095D01*
X134358785Y-90940952D01*
X133787357Y-91512380D01*
X134406404Y-91512380D01*
%TO.C,R21*%
X136215380Y-95130857D02*
X135739190Y-95464190D01*
X136215380Y-95702285D02*
X135215380Y-95702285D01*
X135215380Y-95321333D01*
X135263000Y-95226095D01*
X135310619Y-95178476D01*
X135405857Y-95130857D01*
X135548714Y-95130857D01*
X135643952Y-95178476D01*
X135691571Y-95226095D01*
X135739190Y-95321333D01*
X135739190Y-95702285D01*
X135310619Y-94749904D02*
X135263000Y-94702285D01*
X135215380Y-94607047D01*
X135215380Y-94368952D01*
X135263000Y-94273714D01*
X135310619Y-94226095D01*
X135405857Y-94178476D01*
X135501095Y-94178476D01*
X135643952Y-94226095D01*
X136215380Y-94797523D01*
X136215380Y-94178476D01*
X136215380Y-93226095D02*
X136215380Y-93797523D01*
X136215380Y-93511809D02*
X135215380Y-93511809D01*
X135358238Y-93607047D01*
X135453476Y-93702285D01*
X135501095Y-93797523D01*
%TO.C,R20*%
X115816142Y-96464380D02*
X115482809Y-95988190D01*
X115244714Y-96464380D02*
X115244714Y-95464380D01*
X115625666Y-95464380D01*
X115720904Y-95512000D01*
X115768523Y-95559619D01*
X115816142Y-95654857D01*
X115816142Y-95797714D01*
X115768523Y-95892952D01*
X115720904Y-95940571D01*
X115625666Y-95988190D01*
X115244714Y-95988190D01*
X116197095Y-95559619D02*
X116244714Y-95512000D01*
X116339952Y-95464380D01*
X116578047Y-95464380D01*
X116673285Y-95512000D01*
X116720904Y-95559619D01*
X116768523Y-95654857D01*
X116768523Y-95750095D01*
X116720904Y-95892952D01*
X116149476Y-96464380D01*
X116768523Y-96464380D01*
X117387571Y-95464380D02*
X117482809Y-95464380D01*
X117578047Y-95512000D01*
X117625666Y-95559619D01*
X117673285Y-95654857D01*
X117720904Y-95845333D01*
X117720904Y-96083428D01*
X117673285Y-96273904D01*
X117625666Y-96369142D01*
X117578047Y-96416761D01*
X117482809Y-96464380D01*
X117387571Y-96464380D01*
X117292333Y-96416761D01*
X117244714Y-96369142D01*
X117197095Y-96273904D01*
X117149476Y-96083428D01*
X117149476Y-95845333D01*
X117197095Y-95654857D01*
X117244714Y-95559619D01*
X117292333Y-95512000D01*
X117387571Y-95464380D01*
%TO.C,R19*%
X112689642Y-100146380D02*
X112356309Y-99670190D01*
X112118214Y-100146380D02*
X112118214Y-99146380D01*
X112499166Y-99146380D01*
X112594404Y-99194000D01*
X112642023Y-99241619D01*
X112689642Y-99336857D01*
X112689642Y-99479714D01*
X112642023Y-99574952D01*
X112594404Y-99622571D01*
X112499166Y-99670190D01*
X112118214Y-99670190D01*
X113642023Y-100146380D02*
X113070595Y-100146380D01*
X113356309Y-100146380D02*
X113356309Y-99146380D01*
X113261071Y-99289238D01*
X113165833Y-99384476D01*
X113070595Y-99432095D01*
X114118214Y-100146380D02*
X114308690Y-100146380D01*
X114403928Y-100098761D01*
X114451547Y-100051142D01*
X114546785Y-99908285D01*
X114594404Y-99717809D01*
X114594404Y-99336857D01*
X114546785Y-99241619D01*
X114499166Y-99194000D01*
X114403928Y-99146380D01*
X114213452Y-99146380D01*
X114118214Y-99194000D01*
X114070595Y-99241619D01*
X114022976Y-99336857D01*
X114022976Y-99574952D01*
X114070595Y-99670190D01*
X114118214Y-99717809D01*
X114213452Y-99765428D01*
X114403928Y-99765428D01*
X114499166Y-99717809D01*
X114546785Y-99670190D01*
X114594404Y-99574952D01*
%TO.C,R18*%
X115816142Y-94178380D02*
X115482809Y-93702190D01*
X115244714Y-94178380D02*
X115244714Y-93178380D01*
X115625666Y-93178380D01*
X115720904Y-93226000D01*
X115768523Y-93273619D01*
X115816142Y-93368857D01*
X115816142Y-93511714D01*
X115768523Y-93606952D01*
X115720904Y-93654571D01*
X115625666Y-93702190D01*
X115244714Y-93702190D01*
X116768523Y-94178380D02*
X116197095Y-94178380D01*
X116482809Y-94178380D02*
X116482809Y-93178380D01*
X116387571Y-93321238D01*
X116292333Y-93416476D01*
X116197095Y-93464095D01*
X117339952Y-93606952D02*
X117244714Y-93559333D01*
X117197095Y-93511714D01*
X117149476Y-93416476D01*
X117149476Y-93368857D01*
X117197095Y-93273619D01*
X117244714Y-93226000D01*
X117339952Y-93178380D01*
X117530428Y-93178380D01*
X117625666Y-93226000D01*
X117673285Y-93273619D01*
X117720904Y-93368857D01*
X117720904Y-93416476D01*
X117673285Y-93511714D01*
X117625666Y-93559333D01*
X117530428Y-93606952D01*
X117339952Y-93606952D01*
X117244714Y-93654571D01*
X117197095Y-93702190D01*
X117149476Y-93797428D01*
X117149476Y-93987904D01*
X117197095Y-94083142D01*
X117244714Y-94130761D01*
X117339952Y-94178380D01*
X117530428Y-94178380D01*
X117625666Y-94130761D01*
X117673285Y-94083142D01*
X117720904Y-93987904D01*
X117720904Y-93797428D01*
X117673285Y-93702190D01*
X117625666Y-93654571D01*
X117530428Y-93606952D01*
%TO.C,R17*%
X115943142Y-92273380D02*
X115609809Y-91797190D01*
X115371714Y-92273380D02*
X115371714Y-91273380D01*
X115752666Y-91273380D01*
X115847904Y-91321000D01*
X115895523Y-91368619D01*
X115943142Y-91463857D01*
X115943142Y-91606714D01*
X115895523Y-91701952D01*
X115847904Y-91749571D01*
X115752666Y-91797190D01*
X115371714Y-91797190D01*
X116895523Y-92273380D02*
X116324095Y-92273380D01*
X116609809Y-92273380D02*
X116609809Y-91273380D01*
X116514571Y-91416238D01*
X116419333Y-91511476D01*
X116324095Y-91559095D01*
X117228857Y-91273380D02*
X117895523Y-91273380D01*
X117466952Y-92273380D01*
%TO.C,R16*%
X131261380Y-94798357D02*
X130785190Y-95131690D01*
X131261380Y-95369785D02*
X130261380Y-95369785D01*
X130261380Y-94988833D01*
X130309000Y-94893595D01*
X130356619Y-94845976D01*
X130451857Y-94798357D01*
X130594714Y-94798357D01*
X130689952Y-94845976D01*
X130737571Y-94893595D01*
X130785190Y-94988833D01*
X130785190Y-95369785D01*
X131261380Y-93845976D02*
X131261380Y-94417404D01*
X131261380Y-94131690D02*
X130261380Y-94131690D01*
X130404238Y-94226928D01*
X130499476Y-94322166D01*
X130547095Y-94417404D01*
X130261380Y-92988833D02*
X130261380Y-93179309D01*
X130309000Y-93274547D01*
X130356619Y-93322166D01*
X130499476Y-93417404D01*
X130689952Y-93465023D01*
X131070904Y-93465023D01*
X131166142Y-93417404D01*
X131213761Y-93369785D01*
X131261380Y-93274547D01*
X131261380Y-93084071D01*
X131213761Y-92988833D01*
X131166142Y-92941214D01*
X131070904Y-92893595D01*
X130832809Y-92893595D01*
X130737571Y-92941214D01*
X130689952Y-92988833D01*
X130642333Y-93084071D01*
X130642333Y-93274547D01*
X130689952Y-93369785D01*
X130737571Y-93417404D01*
X130832809Y-93465023D01*
%TO.C,R15*%
X134563380Y-89113357D02*
X134087190Y-89446690D01*
X134563380Y-89684785D02*
X133563380Y-89684785D01*
X133563380Y-89303833D01*
X133611000Y-89208595D01*
X133658619Y-89160976D01*
X133753857Y-89113357D01*
X133896714Y-89113357D01*
X133991952Y-89160976D01*
X134039571Y-89208595D01*
X134087190Y-89303833D01*
X134087190Y-89684785D01*
X134563380Y-88160976D02*
X134563380Y-88732404D01*
X134563380Y-88446690D02*
X133563380Y-88446690D01*
X133706238Y-88541928D01*
X133801476Y-88637166D01*
X133849095Y-88732404D01*
X133563380Y-87256214D02*
X133563380Y-87732404D01*
X134039571Y-87780023D01*
X133991952Y-87732404D01*
X133944333Y-87637166D01*
X133944333Y-87399071D01*
X133991952Y-87303833D01*
X134039571Y-87256214D01*
X134134809Y-87208595D01*
X134372904Y-87208595D01*
X134468142Y-87256214D01*
X134515761Y-87303833D01*
X134563380Y-87399071D01*
X134563380Y-87637166D01*
X134515761Y-87732404D01*
X134468142Y-87780023D01*
%TO.C,R14*%
X124071142Y-82240380D02*
X123737809Y-81764190D01*
X123499714Y-82240380D02*
X123499714Y-81240380D01*
X123880666Y-81240380D01*
X123975904Y-81288000D01*
X124023523Y-81335619D01*
X124071142Y-81430857D01*
X124071142Y-81573714D01*
X124023523Y-81668952D01*
X123975904Y-81716571D01*
X123880666Y-81764190D01*
X123499714Y-81764190D01*
X125023523Y-82240380D02*
X124452095Y-82240380D01*
X124737809Y-82240380D02*
X124737809Y-81240380D01*
X124642571Y-81383238D01*
X124547333Y-81478476D01*
X124452095Y-81526095D01*
X125880666Y-81573714D02*
X125880666Y-82240380D01*
X125642571Y-81192761D02*
X125404476Y-81907047D01*
X126023523Y-81907047D01*
%TO.C,R13*%
X131261380Y-91115357D02*
X130785190Y-91448690D01*
X131261380Y-91686785D02*
X130261380Y-91686785D01*
X130261380Y-91305833D01*
X130309000Y-91210595D01*
X130356619Y-91162976D01*
X130451857Y-91115357D01*
X130594714Y-91115357D01*
X130689952Y-91162976D01*
X130737571Y-91210595D01*
X130785190Y-91305833D01*
X130785190Y-91686785D01*
X131261380Y-90162976D02*
X131261380Y-90734404D01*
X131261380Y-90448690D02*
X130261380Y-90448690D01*
X130404238Y-90543928D01*
X130499476Y-90639166D01*
X130547095Y-90734404D01*
X130261380Y-89829642D02*
X130261380Y-89210595D01*
X130642333Y-89543928D01*
X130642333Y-89401071D01*
X130689952Y-89305833D01*
X130737571Y-89258214D01*
X130832809Y-89210595D01*
X131070904Y-89210595D01*
X131166142Y-89258214D01*
X131213761Y-89305833D01*
X131261380Y-89401071D01*
X131261380Y-89686785D01*
X131213761Y-89782023D01*
X131166142Y-89829642D01*
%TO.C,R12*%
X133596142Y-84399380D02*
X133262809Y-83923190D01*
X133024714Y-84399380D02*
X133024714Y-83399380D01*
X133405666Y-83399380D01*
X133500904Y-83447000D01*
X133548523Y-83494619D01*
X133596142Y-83589857D01*
X133596142Y-83732714D01*
X133548523Y-83827952D01*
X133500904Y-83875571D01*
X133405666Y-83923190D01*
X133024714Y-83923190D01*
X134548523Y-84399380D02*
X133977095Y-84399380D01*
X134262809Y-84399380D02*
X134262809Y-83399380D01*
X134167571Y-83542238D01*
X134072333Y-83637476D01*
X133977095Y-83685095D01*
X134929476Y-83494619D02*
X134977095Y-83447000D01*
X135072333Y-83399380D01*
X135310428Y-83399380D01*
X135405666Y-83447000D01*
X135453285Y-83494619D01*
X135500904Y-83589857D01*
X135500904Y-83685095D01*
X135453285Y-83827952D01*
X134881857Y-84399380D01*
X135500904Y-84399380D01*
%TO.C,R11*%
X119959380Y-86240857D02*
X119483190Y-86574190D01*
X119959380Y-86812285D02*
X118959380Y-86812285D01*
X118959380Y-86431333D01*
X119007000Y-86336095D01*
X119054619Y-86288476D01*
X119149857Y-86240857D01*
X119292714Y-86240857D01*
X119387952Y-86288476D01*
X119435571Y-86336095D01*
X119483190Y-86431333D01*
X119483190Y-86812285D01*
X119959380Y-85288476D02*
X119959380Y-85859904D01*
X119959380Y-85574190D02*
X118959380Y-85574190D01*
X119102238Y-85669428D01*
X119197476Y-85764666D01*
X119245095Y-85859904D01*
X119959380Y-84336095D02*
X119959380Y-84907523D01*
X119959380Y-84621809D02*
X118959380Y-84621809D01*
X119102238Y-84717047D01*
X119197476Y-84812285D01*
X119245095Y-84907523D01*
%TO.C,R10*%
X116275642Y-90240380D02*
X115942309Y-89764190D01*
X115704214Y-90240380D02*
X115704214Y-89240380D01*
X116085166Y-89240380D01*
X116180404Y-89288000D01*
X116228023Y-89335619D01*
X116275642Y-89430857D01*
X116275642Y-89573714D01*
X116228023Y-89668952D01*
X116180404Y-89716571D01*
X116085166Y-89764190D01*
X115704214Y-89764190D01*
X117228023Y-90240380D02*
X116656595Y-90240380D01*
X116942309Y-90240380D02*
X116942309Y-89240380D01*
X116847071Y-89383238D01*
X116751833Y-89478476D01*
X116656595Y-89526095D01*
X117847071Y-89240380D02*
X117942309Y-89240380D01*
X118037547Y-89288000D01*
X118085166Y-89335619D01*
X118132785Y-89430857D01*
X118180404Y-89621333D01*
X118180404Y-89859428D01*
X118132785Y-90049904D01*
X118085166Y-90145142D01*
X118037547Y-90192761D01*
X117942309Y-90240380D01*
X117847071Y-90240380D01*
X117751833Y-90192761D01*
X117704214Y-90145142D01*
X117656595Y-90049904D01*
X117608976Y-89859428D01*
X117608976Y-89621333D01*
X117656595Y-89430857D01*
X117704214Y-89335619D01*
X117751833Y-89288000D01*
X117847071Y-89240380D01*
%TO.C,R9*%
X113165833Y-90240380D02*
X112832500Y-89764190D01*
X112594404Y-90240380D02*
X112594404Y-89240380D01*
X112975357Y-89240380D01*
X113070595Y-89288000D01*
X113118214Y-89335619D01*
X113165833Y-89430857D01*
X113165833Y-89573714D01*
X113118214Y-89668952D01*
X113070595Y-89716571D01*
X112975357Y-89764190D01*
X112594404Y-89764190D01*
X113642023Y-90240380D02*
X113832500Y-90240380D01*
X113927738Y-90192761D01*
X113975357Y-90145142D01*
X114070595Y-90002285D01*
X114118214Y-89811809D01*
X114118214Y-89430857D01*
X114070595Y-89335619D01*
X114022976Y-89288000D01*
X113927738Y-89240380D01*
X113737261Y-89240380D01*
X113642023Y-89288000D01*
X113594404Y-89335619D01*
X113546785Y-89430857D01*
X113546785Y-89668952D01*
X113594404Y-89764190D01*
X113642023Y-89811809D01*
X113737261Y-89859428D01*
X113927738Y-89859428D01*
X114022976Y-89811809D01*
X114070595Y-89764190D01*
X114118214Y-89668952D01*
%TO.C,R8*%
X112482333Y-84907380D02*
X112149000Y-84431190D01*
X111910904Y-84907380D02*
X111910904Y-83907380D01*
X112291857Y-83907380D01*
X112387095Y-83955000D01*
X112434714Y-84002619D01*
X112482333Y-84097857D01*
X112482333Y-84240714D01*
X112434714Y-84335952D01*
X112387095Y-84383571D01*
X112291857Y-84431190D01*
X111910904Y-84431190D01*
X113053761Y-84335952D02*
X112958523Y-84288333D01*
X112910904Y-84240714D01*
X112863285Y-84145476D01*
X112863285Y-84097857D01*
X112910904Y-84002619D01*
X112958523Y-83955000D01*
X113053761Y-83907380D01*
X113244238Y-83907380D01*
X113339476Y-83955000D01*
X113387095Y-84002619D01*
X113434714Y-84097857D01*
X113434714Y-84145476D01*
X113387095Y-84240714D01*
X113339476Y-84288333D01*
X113244238Y-84335952D01*
X113053761Y-84335952D01*
X112958523Y-84383571D01*
X112910904Y-84431190D01*
X112863285Y-84526428D01*
X112863285Y-84716904D01*
X112910904Y-84812142D01*
X112958523Y-84859761D01*
X113053761Y-84907380D01*
X113244238Y-84907380D01*
X113339476Y-84859761D01*
X113387095Y-84812142D01*
X113434714Y-84716904D01*
X113434714Y-84526428D01*
X113387095Y-84431190D01*
X113339476Y-84383571D01*
X113244238Y-84335952D01*
%TO.C,R7*%
X128532833Y-103069380D02*
X128199500Y-102593190D01*
X127961404Y-103069380D02*
X127961404Y-102069380D01*
X128342357Y-102069380D01*
X128437595Y-102117000D01*
X128485214Y-102164619D01*
X128532833Y-102259857D01*
X128532833Y-102402714D01*
X128485214Y-102497952D01*
X128437595Y-102545571D01*
X128342357Y-102593190D01*
X127961404Y-102593190D01*
X128866166Y-102069380D02*
X129532833Y-102069380D01*
X129104261Y-103069380D01*
%TO.C,R6*%
X127705380Y-101258666D02*
X127229190Y-101592000D01*
X127705380Y-101830095D02*
X126705380Y-101830095D01*
X126705380Y-101449142D01*
X126753000Y-101353904D01*
X126800619Y-101306285D01*
X126895857Y-101258666D01*
X127038714Y-101258666D01*
X127133952Y-101306285D01*
X127181571Y-101353904D01*
X127229190Y-101449142D01*
X127229190Y-101830095D01*
X126705380Y-100401523D02*
X126705380Y-100592000D01*
X126753000Y-100687238D01*
X126800619Y-100734857D01*
X126943476Y-100830095D01*
X127133952Y-100877714D01*
X127514904Y-100877714D01*
X127610142Y-100830095D01*
X127657761Y-100782476D01*
X127705380Y-100687238D01*
X127705380Y-100496761D01*
X127657761Y-100401523D01*
X127610142Y-100353904D01*
X127514904Y-100306285D01*
X127276809Y-100306285D01*
X127181571Y-100353904D01*
X127133952Y-100401523D01*
X127086333Y-100496761D01*
X127086333Y-100687238D01*
X127133952Y-100782476D01*
X127181571Y-100830095D01*
X127276809Y-100877714D01*
%TO.C,R5*%
X128611333Y-108656380D02*
X128278000Y-108180190D01*
X128039904Y-108656380D02*
X128039904Y-107656380D01*
X128420857Y-107656380D01*
X128516095Y-107704000D01*
X128563714Y-107751619D01*
X128611333Y-107846857D01*
X128611333Y-107989714D01*
X128563714Y-108084952D01*
X128516095Y-108132571D01*
X128420857Y-108180190D01*
X128039904Y-108180190D01*
X129516095Y-107656380D02*
X129039904Y-107656380D01*
X128992285Y-108132571D01*
X129039904Y-108084952D01*
X129135142Y-108037333D01*
X129373238Y-108037333D01*
X129468476Y-108084952D01*
X129516095Y-108132571D01*
X129563714Y-108227809D01*
X129563714Y-108465904D01*
X129516095Y-108561142D01*
X129468476Y-108608761D01*
X129373238Y-108656380D01*
X129135142Y-108656380D01*
X129039904Y-108608761D01*
X128992285Y-108561142D01*
%TO.C,R4*%
X113371333Y-105228380D02*
X113038000Y-104752190D01*
X112799904Y-105228380D02*
X112799904Y-104228380D01*
X113180857Y-104228380D01*
X113276095Y-104276000D01*
X113323714Y-104323619D01*
X113371333Y-104418857D01*
X113371333Y-104561714D01*
X113323714Y-104656952D01*
X113276095Y-104704571D01*
X113180857Y-104752190D01*
X112799904Y-104752190D01*
X114228476Y-104561714D02*
X114228476Y-105228380D01*
X113990380Y-104180761D02*
X113752285Y-104895047D01*
X114371333Y-104895047D01*
%TO.C,R3*%
X117435333Y-108528380D02*
X117102000Y-108052190D01*
X116863904Y-108528380D02*
X116863904Y-107528380D01*
X117244857Y-107528380D01*
X117340095Y-107576000D01*
X117387714Y-107623619D01*
X117435333Y-107718857D01*
X117435333Y-107861714D01*
X117387714Y-107956952D01*
X117340095Y-108004571D01*
X117244857Y-108052190D01*
X116863904Y-108052190D01*
X117768666Y-107528380D02*
X118387714Y-107528380D01*
X118054380Y-107909333D01*
X118197238Y-107909333D01*
X118292476Y-107956952D01*
X118340095Y-108004571D01*
X118387714Y-108099809D01*
X118387714Y-108337904D01*
X118340095Y-108433142D01*
X118292476Y-108480761D01*
X118197238Y-108528380D01*
X117911523Y-108528380D01*
X117816285Y-108480761D01*
X117768666Y-108433142D01*
%TO.C,R2*%
X122388333Y-103069380D02*
X122055000Y-102593190D01*
X121816904Y-103069380D02*
X121816904Y-102069380D01*
X122197857Y-102069380D01*
X122293095Y-102117000D01*
X122340714Y-102164619D01*
X122388333Y-102259857D01*
X122388333Y-102402714D01*
X122340714Y-102497952D01*
X122293095Y-102545571D01*
X122197857Y-102593190D01*
X121816904Y-102593190D01*
X122769285Y-102164619D02*
X122816904Y-102117000D01*
X122912142Y-102069380D01*
X123150238Y-102069380D01*
X123245476Y-102117000D01*
X123293095Y-102164619D01*
X123340714Y-102259857D01*
X123340714Y-102355095D01*
X123293095Y-102497952D01*
X122721666Y-103069380D01*
X123340714Y-103069380D01*
%TO.C,R1*%
X121039833Y-108529380D02*
X120706500Y-108053190D01*
X120468404Y-108529380D02*
X120468404Y-107529380D01*
X120849357Y-107529380D01*
X120944595Y-107577000D01*
X120992214Y-107624619D01*
X121039833Y-107719857D01*
X121039833Y-107862714D01*
X120992214Y-107957952D01*
X120944595Y-108005571D01*
X120849357Y-108053190D01*
X120468404Y-108053190D01*
X121992214Y-108529380D02*
X121420785Y-108529380D01*
X121706500Y-108529380D02*
X121706500Y-107529380D01*
X121611261Y-107672238D01*
X121516023Y-107767476D01*
X121420785Y-107815095D01*
%TO.C,Q8*%
X125618761Y-67582619D02*
X125523523Y-67535000D01*
X125428285Y-67439761D01*
X125285428Y-67296904D01*
X125190190Y-67249285D01*
X125094952Y-67249285D01*
X125142571Y-67487380D02*
X125047333Y-67439761D01*
X124952095Y-67344523D01*
X124904476Y-67154047D01*
X124904476Y-66820714D01*
X124952095Y-66630238D01*
X125047333Y-66535000D01*
X125142571Y-66487380D01*
X125333047Y-66487380D01*
X125428285Y-66535000D01*
X125523523Y-66630238D01*
X125571142Y-66820714D01*
X125571142Y-67154047D01*
X125523523Y-67344523D01*
X125428285Y-67439761D01*
X125333047Y-67487380D01*
X125142571Y-67487380D01*
X126142571Y-66915952D02*
X126047333Y-66868333D01*
X125999714Y-66820714D01*
X125952095Y-66725476D01*
X125952095Y-66677857D01*
X125999714Y-66582619D01*
X126047333Y-66535000D01*
X126142571Y-66487380D01*
X126333047Y-66487380D01*
X126428285Y-66535000D01*
X126475904Y-66582619D01*
X126523523Y-66677857D01*
X126523523Y-66725476D01*
X126475904Y-66820714D01*
X126428285Y-66868333D01*
X126333047Y-66915952D01*
X126142571Y-66915952D01*
X126047333Y-66963571D01*
X125999714Y-67011190D01*
X125952095Y-67106428D01*
X125952095Y-67296904D01*
X125999714Y-67392142D01*
X126047333Y-67439761D01*
X126142571Y-67487380D01*
X126333047Y-67487380D01*
X126428285Y-67439761D01*
X126475904Y-67392142D01*
X126523523Y-67296904D01*
X126523523Y-67106428D01*
X126475904Y-67011190D01*
X126428285Y-66963571D01*
X126333047Y-66915952D01*
%TO.C,Q7*%
X122742619Y-82121238D02*
X122695000Y-82216476D01*
X122599761Y-82311714D01*
X122456904Y-82454571D01*
X122409285Y-82549809D01*
X122409285Y-82645047D01*
X122647380Y-82597428D02*
X122599761Y-82692666D01*
X122504523Y-82787904D01*
X122314047Y-82835523D01*
X121980714Y-82835523D01*
X121790238Y-82787904D01*
X121695000Y-82692666D01*
X121647380Y-82597428D01*
X121647380Y-82406952D01*
X121695000Y-82311714D01*
X121790238Y-82216476D01*
X121980714Y-82168857D01*
X122314047Y-82168857D01*
X122504523Y-82216476D01*
X122599761Y-82311714D01*
X122647380Y-82406952D01*
X122647380Y-82597428D01*
X121647380Y-81835523D02*
X121647380Y-81168857D01*
X122647380Y-81597428D01*
%TO.C,Q6*%
X120808761Y-76345619D02*
X120713523Y-76298000D01*
X120618285Y-76202761D01*
X120475428Y-76059904D01*
X120380190Y-76012285D01*
X120284952Y-76012285D01*
X120332571Y-76250380D02*
X120237333Y-76202761D01*
X120142095Y-76107523D01*
X120094476Y-75917047D01*
X120094476Y-75583714D01*
X120142095Y-75393238D01*
X120237333Y-75298000D01*
X120332571Y-75250380D01*
X120523047Y-75250380D01*
X120618285Y-75298000D01*
X120713523Y-75393238D01*
X120761142Y-75583714D01*
X120761142Y-75917047D01*
X120713523Y-76107523D01*
X120618285Y-76202761D01*
X120523047Y-76250380D01*
X120332571Y-76250380D01*
X121618285Y-75250380D02*
X121427809Y-75250380D01*
X121332571Y-75298000D01*
X121284952Y-75345619D01*
X121189714Y-75488476D01*
X121142095Y-75678952D01*
X121142095Y-76059904D01*
X121189714Y-76155142D01*
X121237333Y-76202761D01*
X121332571Y-76250380D01*
X121523047Y-76250380D01*
X121618285Y-76202761D01*
X121665904Y-76155142D01*
X121713523Y-76059904D01*
X121713523Y-75821809D01*
X121665904Y-75726571D01*
X121618285Y-75678952D01*
X121523047Y-75631333D01*
X121332571Y-75631333D01*
X121237333Y-75678952D01*
X121189714Y-75726571D01*
X121142095Y-75821809D01*
%TO.C,Q5*%
X129177619Y-97901238D02*
X129130000Y-97996476D01*
X129034761Y-98091714D01*
X128891904Y-98234571D01*
X128844285Y-98329809D01*
X128844285Y-98425047D01*
X129082380Y-98377428D02*
X129034761Y-98472666D01*
X128939523Y-98567904D01*
X128749047Y-98615523D01*
X128415714Y-98615523D01*
X128225238Y-98567904D01*
X128130000Y-98472666D01*
X128082380Y-98377428D01*
X128082380Y-98186952D01*
X128130000Y-98091714D01*
X128225238Y-97996476D01*
X128415714Y-97948857D01*
X128749047Y-97948857D01*
X128939523Y-97996476D01*
X129034761Y-98091714D01*
X129082380Y-98186952D01*
X129082380Y-98377428D01*
X128082380Y-97044095D02*
X128082380Y-97520285D01*
X128558571Y-97567904D01*
X128510952Y-97520285D01*
X128463333Y-97425047D01*
X128463333Y-97186952D01*
X128510952Y-97091714D01*
X128558571Y-97044095D01*
X128653809Y-96996476D01*
X128891904Y-96996476D01*
X128987142Y-97044095D01*
X129034761Y-97091714D01*
X129082380Y-97186952D01*
X129082380Y-97425047D01*
X129034761Y-97520285D01*
X128987142Y-97567904D01*
%TO.C,Q4*%
X127700619Y-97869238D02*
X127653000Y-97964476D01*
X127557761Y-98059714D01*
X127414904Y-98202571D01*
X127367285Y-98297809D01*
X127367285Y-98393047D01*
X127605380Y-98345428D02*
X127557761Y-98440666D01*
X127462523Y-98535904D01*
X127272047Y-98583523D01*
X126938714Y-98583523D01*
X126748238Y-98535904D01*
X126653000Y-98440666D01*
X126605380Y-98345428D01*
X126605380Y-98154952D01*
X126653000Y-98059714D01*
X126748238Y-97964476D01*
X126938714Y-97916857D01*
X127272047Y-97916857D01*
X127462523Y-97964476D01*
X127557761Y-98059714D01*
X127605380Y-98154952D01*
X127605380Y-98345428D01*
X126938714Y-97059714D02*
X127605380Y-97059714D01*
X126557761Y-97297809D02*
X127272047Y-97535904D01*
X127272047Y-96916857D01*
%TO.C,Q3*%
X123348761Y-93892619D02*
X123253523Y-93845000D01*
X123158285Y-93749761D01*
X123015428Y-93606904D01*
X122920190Y-93559285D01*
X122824952Y-93559285D01*
X122872571Y-93797380D02*
X122777333Y-93749761D01*
X122682095Y-93654523D01*
X122634476Y-93464047D01*
X122634476Y-93130714D01*
X122682095Y-92940238D01*
X122777333Y-92845000D01*
X122872571Y-92797380D01*
X123063047Y-92797380D01*
X123158285Y-92845000D01*
X123253523Y-92940238D01*
X123301142Y-93130714D01*
X123301142Y-93464047D01*
X123253523Y-93654523D01*
X123158285Y-93749761D01*
X123063047Y-93797380D01*
X122872571Y-93797380D01*
X123634476Y-92797380D02*
X124253523Y-92797380D01*
X123920190Y-93178333D01*
X124063047Y-93178333D01*
X124158285Y-93225952D01*
X124205904Y-93273571D01*
X124253523Y-93368809D01*
X124253523Y-93606904D01*
X124205904Y-93702142D01*
X124158285Y-93749761D01*
X124063047Y-93797380D01*
X123777333Y-93797380D01*
X123682095Y-93749761D01*
X123634476Y-93702142D01*
%TO.C,Q2*%
X127158761Y-88558619D02*
X127063523Y-88511000D01*
X126968285Y-88415761D01*
X126825428Y-88272904D01*
X126730190Y-88225285D01*
X126634952Y-88225285D01*
X126682571Y-88463380D02*
X126587333Y-88415761D01*
X126492095Y-88320523D01*
X126444476Y-88130047D01*
X126444476Y-87796714D01*
X126492095Y-87606238D01*
X126587333Y-87511000D01*
X126682571Y-87463380D01*
X126873047Y-87463380D01*
X126968285Y-87511000D01*
X127063523Y-87606238D01*
X127111142Y-87796714D01*
X127111142Y-88130047D01*
X127063523Y-88320523D01*
X126968285Y-88415761D01*
X126873047Y-88463380D01*
X126682571Y-88463380D01*
X127492095Y-87558619D02*
X127539714Y-87511000D01*
X127634952Y-87463380D01*
X127873047Y-87463380D01*
X127968285Y-87511000D01*
X128015904Y-87558619D01*
X128063523Y-87653857D01*
X128063523Y-87749095D01*
X128015904Y-87891952D01*
X127444476Y-88463380D01*
X128063523Y-88463380D01*
%TO.C,Q1*%
X125380761Y-105235619D02*
X125285523Y-105188000D01*
X125190285Y-105092761D01*
X125047428Y-104949904D01*
X124952190Y-104902285D01*
X124856952Y-104902285D01*
X124904571Y-105140380D02*
X124809333Y-105092761D01*
X124714095Y-104997523D01*
X124666476Y-104807047D01*
X124666476Y-104473714D01*
X124714095Y-104283238D01*
X124809333Y-104188000D01*
X124904571Y-104140380D01*
X125095047Y-104140380D01*
X125190285Y-104188000D01*
X125285523Y-104283238D01*
X125333142Y-104473714D01*
X125333142Y-104807047D01*
X125285523Y-104997523D01*
X125190285Y-105092761D01*
X125095047Y-105140380D01*
X124904571Y-105140380D01*
X126285523Y-105140380D02*
X125714095Y-105140380D01*
X125999809Y-105140380D02*
X125999809Y-104140380D01*
X125904571Y-104283238D01*
X125809333Y-104378476D01*
X125714095Y-104426095D01*
%TO.C,D12*%
X112830714Y-73636380D02*
X112830714Y-72636380D01*
X113068809Y-72636380D01*
X113211666Y-72684000D01*
X113306904Y-72779238D01*
X113354523Y-72874476D01*
X113402142Y-73064952D01*
X113402142Y-73207809D01*
X113354523Y-73398285D01*
X113306904Y-73493523D01*
X113211666Y-73588761D01*
X113068809Y-73636380D01*
X112830714Y-73636380D01*
X114354523Y-73636380D02*
X113783095Y-73636380D01*
X114068809Y-73636380D02*
X114068809Y-72636380D01*
X113973571Y-72779238D01*
X113878333Y-72874476D01*
X113783095Y-72922095D01*
X114735476Y-72731619D02*
X114783095Y-72684000D01*
X114878333Y-72636380D01*
X115116428Y-72636380D01*
X115211666Y-72684000D01*
X115259285Y-72731619D01*
X115306904Y-72826857D01*
X115306904Y-72922095D01*
X115259285Y-73064952D01*
X114687857Y-73636380D01*
X115306904Y-73636380D01*
%TO.C,D11*%
X117673380Y-78938285D02*
X116673380Y-78938285D01*
X116673380Y-78700190D01*
X116721000Y-78557333D01*
X116816238Y-78462095D01*
X116911476Y-78414476D01*
X117101952Y-78366857D01*
X117244809Y-78366857D01*
X117435285Y-78414476D01*
X117530523Y-78462095D01*
X117625761Y-78557333D01*
X117673380Y-78700190D01*
X117673380Y-78938285D01*
X117673380Y-77414476D02*
X117673380Y-77985904D01*
X117673380Y-77700190D02*
X116673380Y-77700190D01*
X116816238Y-77795428D01*
X116911476Y-77890666D01*
X116959095Y-77985904D01*
X117673380Y-76462095D02*
X117673380Y-77033523D01*
X117673380Y-76747809D02*
X116673380Y-76747809D01*
X116816238Y-76843047D01*
X116911476Y-76938285D01*
X116959095Y-77033523D01*
%TO.C,D10*%
X125547380Y-79954285D02*
X124547380Y-79954285D01*
X124547380Y-79716190D01*
X124595000Y-79573333D01*
X124690238Y-79478095D01*
X124785476Y-79430476D01*
X124975952Y-79382857D01*
X125118809Y-79382857D01*
X125309285Y-79430476D01*
X125404523Y-79478095D01*
X125499761Y-79573333D01*
X125547380Y-79716190D01*
X125547380Y-79954285D01*
X125547380Y-78430476D02*
X125547380Y-79001904D01*
X125547380Y-78716190D02*
X124547380Y-78716190D01*
X124690238Y-78811428D01*
X124785476Y-78906666D01*
X124833095Y-79001904D01*
X124547380Y-77811428D02*
X124547380Y-77716190D01*
X124595000Y-77620952D01*
X124642619Y-77573333D01*
X124737857Y-77525714D01*
X124928333Y-77478095D01*
X125166428Y-77478095D01*
X125356904Y-77525714D01*
X125452142Y-77573333D01*
X125499761Y-77620952D01*
X125547380Y-77716190D01*
X125547380Y-77811428D01*
X125499761Y-77906666D01*
X125452142Y-77954285D01*
X125356904Y-78001904D01*
X125166428Y-78049523D01*
X124928333Y-78049523D01*
X124737857Y-78001904D01*
X124642619Y-77954285D01*
X124595000Y-77906666D01*
X124547380Y-77811428D01*
%TO.C,D9*%
X124229904Y-72588380D02*
X124229904Y-71588380D01*
X124468000Y-71588380D01*
X124610857Y-71636000D01*
X124706095Y-71731238D01*
X124753714Y-71826476D01*
X124801333Y-72016952D01*
X124801333Y-72159809D01*
X124753714Y-72350285D01*
X124706095Y-72445523D01*
X124610857Y-72540761D01*
X124468000Y-72588380D01*
X124229904Y-72588380D01*
X125277523Y-72588380D02*
X125468000Y-72588380D01*
X125563238Y-72540761D01*
X125610857Y-72493142D01*
X125706095Y-72350285D01*
X125753714Y-72159809D01*
X125753714Y-71778857D01*
X125706095Y-71683619D01*
X125658476Y-71636000D01*
X125563238Y-71588380D01*
X125372761Y-71588380D01*
X125277523Y-71636000D01*
X125229904Y-71683619D01*
X125182285Y-71778857D01*
X125182285Y-72016952D01*
X125229904Y-72112190D01*
X125277523Y-72159809D01*
X125372761Y-72207428D01*
X125563238Y-72207428D01*
X125658476Y-72159809D01*
X125706095Y-72112190D01*
X125753714Y-72016952D01*
%TO.C,D8*%
X115466904Y-69794380D02*
X115466904Y-68794380D01*
X115705000Y-68794380D01*
X115847857Y-68842000D01*
X115943095Y-68937238D01*
X115990714Y-69032476D01*
X116038333Y-69222952D01*
X116038333Y-69365809D01*
X115990714Y-69556285D01*
X115943095Y-69651523D01*
X115847857Y-69746761D01*
X115705000Y-69794380D01*
X115466904Y-69794380D01*
X116609761Y-69222952D02*
X116514523Y-69175333D01*
X116466904Y-69127714D01*
X116419285Y-69032476D01*
X116419285Y-68984857D01*
X116466904Y-68889619D01*
X116514523Y-68842000D01*
X116609761Y-68794380D01*
X116800238Y-68794380D01*
X116895476Y-68842000D01*
X116943095Y-68889619D01*
X116990714Y-68984857D01*
X116990714Y-69032476D01*
X116943095Y-69127714D01*
X116895476Y-69175333D01*
X116800238Y-69222952D01*
X116609761Y-69222952D01*
X116514523Y-69270571D01*
X116466904Y-69318190D01*
X116419285Y-69413428D01*
X116419285Y-69603904D01*
X116466904Y-69699142D01*
X116514523Y-69746761D01*
X116609761Y-69794380D01*
X116800238Y-69794380D01*
X116895476Y-69746761D01*
X116943095Y-69699142D01*
X116990714Y-69603904D01*
X116990714Y-69413428D01*
X116943095Y-69318190D01*
X116895476Y-69270571D01*
X116800238Y-69222952D01*
%TO.C,D7*%
X119658904Y-98210380D02*
X119658904Y-97210380D01*
X119897000Y-97210380D01*
X120039857Y-97258000D01*
X120135095Y-97353238D01*
X120182714Y-97448476D01*
X120230333Y-97638952D01*
X120230333Y-97781809D01*
X120182714Y-97972285D01*
X120135095Y-98067523D01*
X120039857Y-98162761D01*
X119897000Y-98210380D01*
X119658904Y-98210380D01*
X120563666Y-97210380D02*
X121230333Y-97210380D01*
X120801761Y-98210380D01*
%TO.C,D6*%
X119197380Y-92051095D02*
X118197380Y-92051095D01*
X118197380Y-91813000D01*
X118245000Y-91670142D01*
X118340238Y-91574904D01*
X118435476Y-91527285D01*
X118625952Y-91479666D01*
X118768809Y-91479666D01*
X118959285Y-91527285D01*
X119054523Y-91574904D01*
X119149761Y-91670142D01*
X119197380Y-91813000D01*
X119197380Y-92051095D01*
X118197380Y-90622523D02*
X118197380Y-90813000D01*
X118245000Y-90908238D01*
X118292619Y-90955857D01*
X118435476Y-91051095D01*
X118625952Y-91098714D01*
X119006904Y-91098714D01*
X119102142Y-91051095D01*
X119149761Y-91003476D01*
X119197380Y-90908238D01*
X119197380Y-90717761D01*
X119149761Y-90622523D01*
X119102142Y-90574904D01*
X119006904Y-90527285D01*
X118768809Y-90527285D01*
X118673571Y-90574904D01*
X118625952Y-90622523D01*
X118578333Y-90717761D01*
X118578333Y-90908238D01*
X118625952Y-91003476D01*
X118673571Y-91051095D01*
X118768809Y-91098714D01*
%TO.C,D5*%
X124357904Y-88050380D02*
X124357904Y-87050380D01*
X124596000Y-87050380D01*
X124738857Y-87098000D01*
X124834095Y-87193238D01*
X124881714Y-87288476D01*
X124929333Y-87478952D01*
X124929333Y-87621809D01*
X124881714Y-87812285D01*
X124834095Y-87907523D01*
X124738857Y-88002761D01*
X124596000Y-88050380D01*
X124357904Y-88050380D01*
X125834095Y-87050380D02*
X125357904Y-87050380D01*
X125310285Y-87526571D01*
X125357904Y-87478952D01*
X125453142Y-87431333D01*
X125691238Y-87431333D01*
X125786476Y-87478952D01*
X125834095Y-87526571D01*
X125881714Y-87621809D01*
X125881714Y-87859904D01*
X125834095Y-87955142D01*
X125786476Y-88002761D01*
X125691238Y-88050380D01*
X125453142Y-88050380D01*
X125357904Y-88002761D01*
X125310285Y-87955142D01*
%TO.C,D4*%
X120086380Y-89003095D02*
X119086380Y-89003095D01*
X119086380Y-88765000D01*
X119134000Y-88622142D01*
X119229238Y-88526904D01*
X119324476Y-88479285D01*
X119514952Y-88431666D01*
X119657809Y-88431666D01*
X119848285Y-88479285D01*
X119943523Y-88526904D01*
X120038761Y-88622142D01*
X120086380Y-88765000D01*
X120086380Y-89003095D01*
X119419714Y-87574523D02*
X120086380Y-87574523D01*
X119038761Y-87812619D02*
X119753047Y-88050714D01*
X119753047Y-87431666D01*
%TO.C,D3*%
X134278380Y-103609095D02*
X133278380Y-103609095D01*
X133278380Y-103371000D01*
X133326000Y-103228142D01*
X133421238Y-103132904D01*
X133516476Y-103085285D01*
X133706952Y-103037666D01*
X133849809Y-103037666D01*
X134040285Y-103085285D01*
X134135523Y-103132904D01*
X134230761Y-103228142D01*
X134278380Y-103371000D01*
X134278380Y-103609095D01*
X133278380Y-102704333D02*
X133278380Y-102085285D01*
X133659333Y-102418619D01*
X133659333Y-102275761D01*
X133706952Y-102180523D01*
X133754571Y-102132904D01*
X133849809Y-102085285D01*
X134087904Y-102085285D01*
X134183142Y-102132904D01*
X134230761Y-102180523D01*
X134278380Y-102275761D01*
X134278380Y-102561476D01*
X134230761Y-102656714D01*
X134183142Y-102704333D01*
%TO.C,D2*%
X119451380Y-101703095D02*
X118451380Y-101703095D01*
X118451380Y-101465000D01*
X118499000Y-101322142D01*
X118594238Y-101226904D01*
X118689476Y-101179285D01*
X118879952Y-101131666D01*
X119022809Y-101131666D01*
X119213285Y-101179285D01*
X119308523Y-101226904D01*
X119403761Y-101322142D01*
X119451380Y-101465000D01*
X119451380Y-101703095D01*
X118546619Y-100750714D02*
X118499000Y-100703095D01*
X118451380Y-100607857D01*
X118451380Y-100369761D01*
X118499000Y-100274523D01*
X118546619Y-100226904D01*
X118641857Y-100179285D01*
X118737095Y-100179285D01*
X118879952Y-100226904D01*
X119451380Y-100798333D01*
X119451380Y-100179285D01*
%TO.C,D1*%
X115641380Y-104497095D02*
X114641380Y-104497095D01*
X114641380Y-104259000D01*
X114689000Y-104116142D01*
X114784238Y-104020904D01*
X114879476Y-103973285D01*
X115069952Y-103925666D01*
X115212809Y-103925666D01*
X115403285Y-103973285D01*
X115498523Y-104020904D01*
X115593761Y-104116142D01*
X115641380Y-104259000D01*
X115641380Y-104497095D01*
X115641380Y-102973285D02*
X115641380Y-103544714D01*
X115641380Y-103259000D02*
X114641380Y-103259000D01*
X114784238Y-103354238D01*
X114879476Y-103449476D01*
X114927095Y-103544714D01*
%TO.C,C3*%
X128532833Y-72875142D02*
X128485214Y-72922761D01*
X128342357Y-72970380D01*
X128247119Y-72970380D01*
X128104261Y-72922761D01*
X128009023Y-72827523D01*
X127961404Y-72732285D01*
X127913785Y-72541809D01*
X127913785Y-72398952D01*
X127961404Y-72208476D01*
X128009023Y-72113238D01*
X128104261Y-72018000D01*
X128247119Y-71970380D01*
X128342357Y-71970380D01*
X128485214Y-72018000D01*
X128532833Y-72065619D01*
X128866166Y-71970380D02*
X129485214Y-71970380D01*
X129151880Y-72351333D01*
X129294738Y-72351333D01*
X129389976Y-72398952D01*
X129437595Y-72446571D01*
X129485214Y-72541809D01*
X129485214Y-72779904D01*
X129437595Y-72875142D01*
X129389976Y-72922761D01*
X129294738Y-72970380D01*
X129009023Y-72970380D01*
X128913785Y-72922761D01*
X128866166Y-72875142D01*
%TO.C,C2*%
X138057833Y-93449142D02*
X138010214Y-93496761D01*
X137867357Y-93544380D01*
X137772119Y-93544380D01*
X137629261Y-93496761D01*
X137534023Y-93401523D01*
X137486404Y-93306285D01*
X137438785Y-93115809D01*
X137438785Y-92972952D01*
X137486404Y-92782476D01*
X137534023Y-92687238D01*
X137629261Y-92592000D01*
X137772119Y-92544380D01*
X137867357Y-92544380D01*
X138010214Y-92592000D01*
X138057833Y-92639619D01*
X138438785Y-92639619D02*
X138486404Y-92592000D01*
X138581642Y-92544380D01*
X138819738Y-92544380D01*
X138914976Y-92592000D01*
X138962595Y-92639619D01*
X139010214Y-92734857D01*
X139010214Y-92830095D01*
X138962595Y-92972952D01*
X138391166Y-93544380D01*
X139010214Y-93544380D01*
%TO.C,C1*%
X129197833Y-87605142D02*
X129150214Y-87652761D01*
X129007357Y-87700380D01*
X128912119Y-87700380D01*
X128769261Y-87652761D01*
X128674023Y-87557523D01*
X128626404Y-87462285D01*
X128578785Y-87271809D01*
X128578785Y-87128952D01*
X128626404Y-86938476D01*
X128674023Y-86843238D01*
X128769261Y-86748000D01*
X128912119Y-86700380D01*
X129007357Y-86700380D01*
X129150214Y-86748000D01*
X129197833Y-86795619D01*
X130150214Y-87700380D02*
X129578785Y-87700380D01*
X129864500Y-87700380D02*
X129864500Y-86700380D01*
X129769261Y-86843238D01*
X129674023Y-86938476D01*
X129578785Y-86986095D01*
%TD*%
M02*
