%TF.GenerationSoftware,KiCad,Pcbnew,(5.1.6)-1*%
%TF.CreationDate,2021-03-15T21:03:39-07:00*%
%TF.ProjectId,ECUOutputs,4543554f-7574-4707-9574-732e6b696361,rev?*%
%TF.SameCoordinates,Original*%
%TF.FileFunction,Copper,L2,Bot*%
%TF.FilePolarity,Positive*%
%FSLAX46Y46*%
G04 Gerber Fmt 4.6, Leading zero omitted, Abs format (unit mm)*
G04 Created by KiCad (PCBNEW (5.1.6)-1) date 2021-03-15 21:03:39*
%MOMM*%
%LPD*%
G01*
G04 APERTURE LIST*
%TA.AperFunction,ComponentPad*%
%ADD10C,1.700000*%
%TD*%
%TA.AperFunction,ViaPad*%
%ADD11C,0.800000*%
%TD*%
%TA.AperFunction,Conductor*%
%ADD12C,0.152400*%
%TD*%
%TA.AperFunction,Conductor*%
%ADD13C,0.254000*%
%TD*%
G04 APERTURE END LIST*
D10*
%TO.P,J4,26*%
%TO.N,Net-(J4-Pad26)*%
X105156000Y-73406000D03*
%TO.P,J4,24*%
%TO.N,+12V*%
X105156000Y-75946000D03*
%TO.P,J4,22*%
%TO.N,/ECU_TRIGGERGROUP3*%
X105156000Y-78486000D03*
%TO.P,J4,20*%
%TO.N,/ECU_TPSACCEL2*%
X105156000Y-81026000D03*
%TO.P,J4,18*%
%TO.N,/ECU_COLDSTARTRELAY*%
X105156000Y-83566000D03*
%TO.P,J4,16*%
%TO.N,+12V*%
X105156000Y-86106000D03*
%TO.P,J4,14*%
%TO.N,/ECU_TRIGGERGROUP4*%
X105156000Y-88646000D03*
%TO.P,J4,12*%
%TO.N,GND*%
X105156000Y-91186000D03*
%TO.P,J4,10*%
%TO.N,Net-(J4-Pad10)*%
X105156000Y-93726000D03*
%TO.P,J4,8*%
%TO.N,Net-(J4-Pad8)*%
X105156000Y-96266000D03*
%TO.P,J4,6*%
%TO.N,Net-(J4-Pad6)*%
X105156000Y-98806000D03*
%TO.P,J4,4*%
%TO.N,Net-(J4-Pad4)*%
X105156000Y-101346000D03*
%TO.P,J4,2*%
%TO.N,/ECU_TPSWOT*%
X105156000Y-103886000D03*
%TO.P,J4,25*%
%TO.N,Net-(J4-Pad25)*%
X107696000Y-73406000D03*
%TO.P,J4,23*%
%TO.N,/ECU_COOLANTTEMP*%
X107696000Y-75946000D03*
%TO.P,J4,21*%
%TO.N,/ECU_TRIGGERGROUP1*%
X107696000Y-78486000D03*
%TO.P,J4,19*%
%TO.N,Net-(J4-Pad19)*%
X107696000Y-81026000D03*
%TO.P,J4,17*%
%TO.N,/ECU_TPSIDLE*%
X107696000Y-83566000D03*
%TO.P,J4,15*%
%TO.N,Net-(J4-Pad15)*%
X107696000Y-86106000D03*
%TO.P,J4,13*%
%TO.N,/ECU_TRIGGERGROUP2*%
X107696000Y-88646000D03*
%TO.P,J4,11*%
%TO.N,GND*%
X107696000Y-91186000D03*
%TO.P,J4,9*%
%TO.N,/ECU_TPSACCEL1*%
X107696000Y-93726000D03*
%TO.P,J4,7*%
%TO.N,Net-(J4-Pad7)*%
X107696000Y-96266000D03*
%TO.P,J4,5*%
%TO.N,Net-(J4-Pad5)*%
X107696000Y-98806000D03*
%TO.P,J4,3*%
%TO.N,Net-(J4-Pad3)*%
X107696000Y-101346000D03*
%TO.P,J4,1*%
%TO.N,/ECU_AIRTEMP*%
%TA.AperFunction,ComponentPad*%
G36*
G01*
X108546000Y-103286000D02*
X108546000Y-104486000D01*
G75*
G02*
X108296000Y-104736000I-250000J0D01*
G01*
X107096000Y-104736000D01*
G75*
G02*
X106846000Y-104486000I0J250000D01*
G01*
X106846000Y-103286000D01*
G75*
G02*
X107096000Y-103036000I250000J0D01*
G01*
X108296000Y-103036000D01*
G75*
G02*
X108546000Y-103286000I0J-250000D01*
G01*
G37*
%TD.AperFunction*%
%TD*%
D11*
%TO.N,Net-(C1-Pad2)*%
X126619000Y-92837000D03*
X126492000Y-87249000D03*
%TO.N,Net-(C3-Pad2)*%
X129540000Y-75692000D03*
X121285000Y-79756000D03*
%TO.N,GND*%
X126365000Y-95123000D03*
X123190000Y-95758000D03*
X139000000Y-68000000D03*
X139000000Y-72000000D03*
X139000000Y-76000000D03*
X139000000Y-80000000D03*
X139000000Y-84000000D03*
X139000000Y-88000000D03*
X139000000Y-92000000D03*
X139000000Y-101000000D03*
X139000000Y-105000000D03*
X139000000Y-109000000D03*
X135000000Y-109000000D03*
X135000000Y-105000000D03*
X135000000Y-80000000D03*
X135000000Y-68000000D03*
X103000000Y-68000000D03*
X107000000Y-68000000D03*
X111000000Y-68000000D03*
X103000000Y-72000000D03*
X102000000Y-80000000D03*
X102000000Y-84000000D03*
X102000000Y-88000000D03*
X102000000Y-92000000D03*
X102000000Y-96000000D03*
X102000000Y-100000000D03*
X102000000Y-105000000D03*
%TO.N,Net-(D2-Pad1)*%
X127000000Y-100838000D03*
X127508000Y-107950000D03*
%TO.N,/ECU_COOLANTTEMP*%
X129921000Y-100584000D03*
X129667000Y-110109000D03*
X102870000Y-109982000D03*
X102743000Y-74803000D03*
%TO.N,Net-(D4-Pad2)*%
X113665000Y-84582000D03*
X116205000Y-84455000D03*
%TO.N,Net-(D6-Pad1)*%
X123444000Y-92583000D03*
X127000000Y-96823991D03*
%TO.N,Net-(D8-Pad1)*%
X121031000Y-72644000D03*
X120142000Y-76962000D03*
%TO.N,/ECU_TPSIDLE*%
X110617000Y-77978000D03*
X110490000Y-83312000D03*
%TO.N,+12V*%
X112522000Y-102997000D03*
X116713000Y-109220000D03*
X130556000Y-93218000D03*
X132969000Y-99949000D03*
X130810000Y-87630000D03*
%TO.N,/ECU_TRIGGERGROUP3*%
X109220000Y-86360000D03*
%TO.N,/ECU_TRIGGERGROUP1*%
X109220000Y-84455000D03*
%TO.N,/ECU_TPSACCEL2*%
X114935000Y-81407000D03*
X114935000Y-72898000D03*
%TO.N,/ECU_TRIGGERGROUP2*%
X109347000Y-95758000D03*
%TO.N,/ECU_TPSACCEL1*%
X125222000Y-77978000D03*
X121539000Y-93218000D03*
X117221000Y-93472000D03*
X116840000Y-95250000D03*
%TO.N,+10V*%
X120269000Y-107823000D03*
X130429000Y-70358000D03*
%TO.N,Net-(Q3-Pad3)*%
X115951000Y-93599000D03*
X114808000Y-89662000D03*
%TD*%
D12*
%TO.N,Net-(C1-Pad2)*%
X126492000Y-87249000D02*
X126492000Y-92710000D01*
X126492000Y-92710000D02*
X126619000Y-92837000D01*
%TO.N,Net-(C3-Pad2)*%
X129540000Y-75692000D02*
X125349000Y-75692000D01*
X125349000Y-75692000D02*
X121285000Y-79756000D01*
%TO.N,GND*%
X125730000Y-95758000D02*
X126365000Y-95123000D01*
X123190000Y-95758000D02*
X125730000Y-95758000D01*
%TO.N,Net-(D2-Pad1)*%
X127000000Y-100838000D02*
X127508000Y-101346000D01*
X127508000Y-101346000D02*
X127508000Y-107950000D01*
%TO.N,/ECU_COOLANTTEMP*%
X129921000Y-100584000D02*
X129921000Y-109855000D01*
X129921000Y-109855000D02*
X129667000Y-110109000D01*
X102870000Y-109982000D02*
X102870000Y-74930000D01*
X102870000Y-74930000D02*
X102743000Y-74803000D01*
%TO.N,Net-(D4-Pad2)*%
X113665000Y-84582000D02*
X116078000Y-84582000D01*
X116078000Y-84582000D02*
X116205000Y-84455000D01*
%TO.N,Net-(D6-Pad1)*%
X127000000Y-94827668D02*
X127000000Y-96823991D01*
X124755332Y-92583000D02*
X127000000Y-94827668D01*
X123444000Y-92583000D02*
X124755332Y-92583000D01*
%TO.N,Net-(D8-Pad1)*%
X121031000Y-72644000D02*
X120142000Y-73533000D01*
X120142000Y-73533000D02*
X120142000Y-76962000D01*
%TO.N,/ECU_TPSIDLE*%
X110617000Y-77978000D02*
X110617000Y-83185000D01*
X110617000Y-83185000D02*
X110490000Y-83312000D01*
%TO.N,+12V*%
X112522000Y-102997000D02*
X116713000Y-107188000D01*
X116713000Y-107188000D02*
X116713000Y-109220000D01*
X130556000Y-93218000D02*
X130556000Y-97536000D01*
X130556000Y-97536000D02*
X132969000Y-99949000D01*
X130556000Y-93218000D02*
X130556000Y-87884000D01*
X130556000Y-87884000D02*
X130810000Y-87630000D01*
%TO.N,/ECU_TRIGGERGROUP3*%
X106617399Y-79947399D02*
X106617399Y-84083729D01*
X109220000Y-86033670D02*
X109220000Y-86360000D01*
X105156000Y-78486000D02*
X106617399Y-79947399D01*
X106617399Y-84083729D02*
X107561069Y-85027399D01*
X108213729Y-85027399D02*
X109220000Y-86033670D01*
X107561069Y-85027399D02*
X108213729Y-85027399D01*
%TO.N,/ECU_TRIGGERGROUP1*%
X107696000Y-78486000D02*
X109220000Y-80010000D01*
X109220000Y-80010000D02*
X109220000Y-84455000D01*
%TO.N,/ECU_TPSACCEL2*%
X114935000Y-81407000D02*
X114935000Y-72898000D01*
%TO.N,/ECU_TRIGGERGROUP2*%
X107696000Y-88646000D02*
X109347000Y-90297000D01*
X109347000Y-90297000D02*
X109347000Y-95758000D01*
%TO.N,/ECU_TPSACCEL1*%
X125222000Y-77978000D02*
X121539000Y-81661000D01*
X121539000Y-81661000D02*
X121539000Y-93218000D01*
X117221000Y-93472000D02*
X117221000Y-94869000D01*
X117221000Y-94869000D02*
X116840000Y-95250000D01*
%TO.N,+10V*%
X129244680Y-70358000D02*
X130429000Y-70358000D01*
X120269000Y-107823000D02*
X120269000Y-79333680D01*
X120269000Y-79333680D02*
X129244680Y-70358000D01*
%TO.N,Net-(Q3-Pad3)*%
X115951000Y-93599000D02*
X114808000Y-92456000D01*
X114808000Y-92456000D02*
X114808000Y-89662000D01*
%TD*%
D13*
%TO.N,GND*%
G36*
X141094001Y-111094000D02*
G01*
X100906000Y-111094000D01*
X100906000Y-74726078D01*
X101962000Y-74726078D01*
X101962000Y-74879922D01*
X101992013Y-75030809D01*
X102050887Y-75172942D01*
X102136358Y-75300859D01*
X102245141Y-75409642D01*
X102373058Y-75495113D01*
X102412801Y-75511575D01*
X102412800Y-109348191D01*
X102372141Y-109375358D01*
X102263358Y-109484141D01*
X102177887Y-109612058D01*
X102119013Y-109754191D01*
X102089000Y-109905078D01*
X102089000Y-110058922D01*
X102119013Y-110209809D01*
X102177887Y-110351942D01*
X102263358Y-110479859D01*
X102372141Y-110588642D01*
X102500058Y-110674113D01*
X102642191Y-110732987D01*
X102793078Y-110763000D01*
X102946922Y-110763000D01*
X103097809Y-110732987D01*
X103239942Y-110674113D01*
X103367859Y-110588642D01*
X103476642Y-110479859D01*
X103562113Y-110351942D01*
X103620987Y-110209809D01*
X103651000Y-110058922D01*
X103651000Y-110032078D01*
X128886000Y-110032078D01*
X128886000Y-110185922D01*
X128916013Y-110336809D01*
X128974887Y-110478942D01*
X129060358Y-110606859D01*
X129169141Y-110715642D01*
X129297058Y-110801113D01*
X129439191Y-110859987D01*
X129590078Y-110890000D01*
X129743922Y-110890000D01*
X129894809Y-110859987D01*
X130036942Y-110801113D01*
X130164859Y-110715642D01*
X130273642Y-110606859D01*
X130359113Y-110478942D01*
X130417987Y-110336809D01*
X130448000Y-110185922D01*
X130448000Y-110032078D01*
X130417987Y-109881191D01*
X130378200Y-109785138D01*
X130378200Y-101217809D01*
X130418859Y-101190642D01*
X130527642Y-101081859D01*
X130613113Y-100953942D01*
X130671987Y-100811809D01*
X130702000Y-100660922D01*
X130702000Y-100507078D01*
X130671987Y-100356191D01*
X130613113Y-100214058D01*
X130527642Y-100086141D01*
X130418859Y-99977358D01*
X130290942Y-99891887D01*
X130148809Y-99833013D01*
X129997922Y-99803000D01*
X129844078Y-99803000D01*
X129693191Y-99833013D01*
X129551058Y-99891887D01*
X129423141Y-99977358D01*
X129314358Y-100086141D01*
X129228887Y-100214058D01*
X129170013Y-100356191D01*
X129140000Y-100507078D01*
X129140000Y-100660922D01*
X129170013Y-100811809D01*
X129228887Y-100953942D01*
X129314358Y-101081859D01*
X129423141Y-101190642D01*
X129463800Y-101217809D01*
X129463801Y-109353118D01*
X129439191Y-109358013D01*
X129297058Y-109416887D01*
X129169141Y-109502358D01*
X129060358Y-109611141D01*
X128974887Y-109739058D01*
X128916013Y-109881191D01*
X128886000Y-110032078D01*
X103651000Y-110032078D01*
X103651000Y-109905078D01*
X103620987Y-109754191D01*
X103562113Y-109612058D01*
X103476642Y-109484141D01*
X103367859Y-109375358D01*
X103327200Y-109348191D01*
X103327200Y-103764757D01*
X103925000Y-103764757D01*
X103925000Y-104007243D01*
X103972307Y-104245069D01*
X104065102Y-104469097D01*
X104199820Y-104670717D01*
X104371283Y-104842180D01*
X104572903Y-104976898D01*
X104796931Y-105069693D01*
X105034757Y-105117000D01*
X105277243Y-105117000D01*
X105515069Y-105069693D01*
X105739097Y-104976898D01*
X105940717Y-104842180D01*
X106112180Y-104670717D01*
X106246898Y-104469097D01*
X106339693Y-104245069D01*
X106387000Y-104007243D01*
X106387000Y-103764757D01*
X106339693Y-103526931D01*
X106246898Y-103302903D01*
X106235604Y-103286000D01*
X106463157Y-103286000D01*
X106463157Y-104486000D01*
X106475317Y-104609462D01*
X106511329Y-104728179D01*
X106569810Y-104837589D01*
X106648512Y-104933488D01*
X106744411Y-105012190D01*
X106853821Y-105070671D01*
X106972538Y-105106683D01*
X107096000Y-105118843D01*
X108296000Y-105118843D01*
X108419462Y-105106683D01*
X108538179Y-105070671D01*
X108647589Y-105012190D01*
X108743488Y-104933488D01*
X108822190Y-104837589D01*
X108880671Y-104728179D01*
X108916683Y-104609462D01*
X108928843Y-104486000D01*
X108928843Y-103286000D01*
X108916683Y-103162538D01*
X108880671Y-103043821D01*
X108822190Y-102934411D01*
X108810428Y-102920078D01*
X111741000Y-102920078D01*
X111741000Y-103073922D01*
X111771013Y-103224809D01*
X111829887Y-103366942D01*
X111915358Y-103494859D01*
X112024141Y-103603642D01*
X112152058Y-103689113D01*
X112294191Y-103747987D01*
X112445078Y-103778000D01*
X112598922Y-103778000D01*
X112646883Y-103768460D01*
X116255800Y-107377378D01*
X116255801Y-108586190D01*
X116215141Y-108613358D01*
X116106358Y-108722141D01*
X116020887Y-108850058D01*
X115962013Y-108992191D01*
X115932000Y-109143078D01*
X115932000Y-109296922D01*
X115962013Y-109447809D01*
X116020887Y-109589942D01*
X116106358Y-109717859D01*
X116215141Y-109826642D01*
X116343058Y-109912113D01*
X116485191Y-109970987D01*
X116636078Y-110001000D01*
X116789922Y-110001000D01*
X116940809Y-109970987D01*
X117082942Y-109912113D01*
X117210859Y-109826642D01*
X117319642Y-109717859D01*
X117405113Y-109589942D01*
X117463987Y-109447809D01*
X117494000Y-109296922D01*
X117494000Y-109143078D01*
X117463987Y-108992191D01*
X117405113Y-108850058D01*
X117319642Y-108722141D01*
X117210859Y-108613358D01*
X117170200Y-108586191D01*
X117170200Y-107746078D01*
X119488000Y-107746078D01*
X119488000Y-107899922D01*
X119518013Y-108050809D01*
X119576887Y-108192942D01*
X119662358Y-108320859D01*
X119771141Y-108429642D01*
X119899058Y-108515113D01*
X120041191Y-108573987D01*
X120192078Y-108604000D01*
X120345922Y-108604000D01*
X120496809Y-108573987D01*
X120638942Y-108515113D01*
X120766859Y-108429642D01*
X120875642Y-108320859D01*
X120961113Y-108192942D01*
X121019987Y-108050809D01*
X121050000Y-107899922D01*
X121050000Y-107746078D01*
X121019987Y-107595191D01*
X120961113Y-107453058D01*
X120875642Y-107325141D01*
X120766859Y-107216358D01*
X120726200Y-107189191D01*
X120726200Y-100761078D01*
X126219000Y-100761078D01*
X126219000Y-100914922D01*
X126249013Y-101065809D01*
X126307887Y-101207942D01*
X126393358Y-101335859D01*
X126502141Y-101444642D01*
X126630058Y-101530113D01*
X126772191Y-101588987D01*
X126923078Y-101619000D01*
X127050800Y-101619000D01*
X127050801Y-107316190D01*
X127010141Y-107343358D01*
X126901358Y-107452141D01*
X126815887Y-107580058D01*
X126757013Y-107722191D01*
X126727000Y-107873078D01*
X126727000Y-108026922D01*
X126757013Y-108177809D01*
X126815887Y-108319942D01*
X126901358Y-108447859D01*
X127010141Y-108556642D01*
X127138058Y-108642113D01*
X127280191Y-108700987D01*
X127431078Y-108731000D01*
X127584922Y-108731000D01*
X127735809Y-108700987D01*
X127877942Y-108642113D01*
X128005859Y-108556642D01*
X128114642Y-108447859D01*
X128200113Y-108319942D01*
X128258987Y-108177809D01*
X128289000Y-108026922D01*
X128289000Y-107873078D01*
X128258987Y-107722191D01*
X128200113Y-107580058D01*
X128114642Y-107452141D01*
X128005859Y-107343358D01*
X127965200Y-107316191D01*
X127965200Y-101368449D01*
X127967411Y-101345999D01*
X127965200Y-101323549D01*
X127965200Y-101323540D01*
X127958585Y-101256373D01*
X127932441Y-101170191D01*
X127889988Y-101090765D01*
X127889987Y-101090763D01*
X127847170Y-101038592D01*
X127832853Y-101021147D01*
X127815409Y-101006831D01*
X127771460Y-100962882D01*
X127781000Y-100914922D01*
X127781000Y-100761078D01*
X127750987Y-100610191D01*
X127692113Y-100468058D01*
X127606642Y-100340141D01*
X127497859Y-100231358D01*
X127369942Y-100145887D01*
X127227809Y-100087013D01*
X127076922Y-100057000D01*
X126923078Y-100057000D01*
X126772191Y-100087013D01*
X126630058Y-100145887D01*
X126502141Y-100231358D01*
X126393358Y-100340141D01*
X126307887Y-100468058D01*
X126249013Y-100610191D01*
X126219000Y-100761078D01*
X120726200Y-100761078D01*
X120726200Y-93141078D01*
X120758000Y-93141078D01*
X120758000Y-93294922D01*
X120788013Y-93445809D01*
X120846887Y-93587942D01*
X120932358Y-93715859D01*
X121041141Y-93824642D01*
X121169058Y-93910113D01*
X121311191Y-93968987D01*
X121462078Y-93999000D01*
X121615922Y-93999000D01*
X121766809Y-93968987D01*
X121908942Y-93910113D01*
X122036859Y-93824642D01*
X122145642Y-93715859D01*
X122231113Y-93587942D01*
X122289987Y-93445809D01*
X122320000Y-93294922D01*
X122320000Y-93141078D01*
X122289987Y-92990191D01*
X122231113Y-92848058D01*
X122145642Y-92720141D01*
X122036859Y-92611358D01*
X121996200Y-92584191D01*
X121996200Y-92506078D01*
X122663000Y-92506078D01*
X122663000Y-92659922D01*
X122693013Y-92810809D01*
X122751887Y-92952942D01*
X122837358Y-93080859D01*
X122946141Y-93189642D01*
X123074058Y-93275113D01*
X123216191Y-93333987D01*
X123367078Y-93364000D01*
X123520922Y-93364000D01*
X123671809Y-93333987D01*
X123813942Y-93275113D01*
X123941859Y-93189642D01*
X124050642Y-93080859D01*
X124077809Y-93040200D01*
X124565955Y-93040200D01*
X126542800Y-95017046D01*
X126542801Y-96190181D01*
X126502141Y-96217349D01*
X126393358Y-96326132D01*
X126307887Y-96454049D01*
X126249013Y-96596182D01*
X126219000Y-96747069D01*
X126219000Y-96900913D01*
X126249013Y-97051800D01*
X126307887Y-97193933D01*
X126393358Y-97321850D01*
X126502141Y-97430633D01*
X126630058Y-97516104D01*
X126772191Y-97574978D01*
X126923078Y-97604991D01*
X127076922Y-97604991D01*
X127227809Y-97574978D01*
X127369942Y-97516104D01*
X127497859Y-97430633D01*
X127606642Y-97321850D01*
X127692113Y-97193933D01*
X127750987Y-97051800D01*
X127781000Y-96900913D01*
X127781000Y-96747069D01*
X127750987Y-96596182D01*
X127692113Y-96454049D01*
X127606642Y-96326132D01*
X127497859Y-96217349D01*
X127457200Y-96190182D01*
X127457200Y-94850118D01*
X127459411Y-94827668D01*
X127457200Y-94805218D01*
X127457200Y-94805208D01*
X127450585Y-94738041D01*
X127424441Y-94651859D01*
X127381987Y-94572432D01*
X127324853Y-94502815D01*
X127307409Y-94488499D01*
X126410796Y-93591887D01*
X126542078Y-93618000D01*
X126695922Y-93618000D01*
X126846809Y-93587987D01*
X126988942Y-93529113D01*
X127116859Y-93443642D01*
X127225642Y-93334859D01*
X127311113Y-93206942D01*
X127338395Y-93141078D01*
X129775000Y-93141078D01*
X129775000Y-93294922D01*
X129805013Y-93445809D01*
X129863887Y-93587942D01*
X129949358Y-93715859D01*
X130058141Y-93824642D01*
X130098800Y-93851809D01*
X130098801Y-97513540D01*
X130096589Y-97536000D01*
X130098801Y-97558460D01*
X130105416Y-97625627D01*
X130131560Y-97711809D01*
X130174014Y-97791236D01*
X130231148Y-97860853D01*
X130248593Y-97875170D01*
X132197540Y-99824118D01*
X132188000Y-99872078D01*
X132188000Y-100025922D01*
X132218013Y-100176809D01*
X132276887Y-100318942D01*
X132362358Y-100446859D01*
X132471141Y-100555642D01*
X132599058Y-100641113D01*
X132741191Y-100699987D01*
X132892078Y-100730000D01*
X133045922Y-100730000D01*
X133196809Y-100699987D01*
X133338942Y-100641113D01*
X133466859Y-100555642D01*
X133575642Y-100446859D01*
X133661113Y-100318942D01*
X133719987Y-100176809D01*
X133750000Y-100025922D01*
X133750000Y-99872078D01*
X133719987Y-99721191D01*
X133661113Y-99579058D01*
X133575642Y-99451141D01*
X133466859Y-99342358D01*
X133338942Y-99256887D01*
X133196809Y-99198013D01*
X133045922Y-99168000D01*
X132892078Y-99168000D01*
X132844118Y-99177540D01*
X131013200Y-97346623D01*
X131013200Y-93851809D01*
X131053859Y-93824642D01*
X131162642Y-93715859D01*
X131248113Y-93587942D01*
X131306987Y-93445809D01*
X131337000Y-93294922D01*
X131337000Y-93141078D01*
X131306987Y-92990191D01*
X131248113Y-92848058D01*
X131162642Y-92720141D01*
X131053859Y-92611358D01*
X131013200Y-92584191D01*
X131013200Y-88385882D01*
X131037809Y-88380987D01*
X131179942Y-88322113D01*
X131307859Y-88236642D01*
X131416642Y-88127859D01*
X131502113Y-87999942D01*
X131560987Y-87857809D01*
X131591000Y-87706922D01*
X131591000Y-87553078D01*
X131560987Y-87402191D01*
X131502113Y-87260058D01*
X131416642Y-87132141D01*
X131307859Y-87023358D01*
X131179942Y-86937887D01*
X131037809Y-86879013D01*
X130886922Y-86849000D01*
X130733078Y-86849000D01*
X130582191Y-86879013D01*
X130440058Y-86937887D01*
X130312141Y-87023358D01*
X130203358Y-87132141D01*
X130117887Y-87260058D01*
X130059013Y-87402191D01*
X130029000Y-87553078D01*
X130029000Y-87706922D01*
X130059013Y-87857809D01*
X130098801Y-87953865D01*
X130098800Y-92584191D01*
X130058141Y-92611358D01*
X129949358Y-92720141D01*
X129863887Y-92848058D01*
X129805013Y-92990191D01*
X129775000Y-93141078D01*
X127338395Y-93141078D01*
X127369987Y-93064809D01*
X127400000Y-92913922D01*
X127400000Y-92760078D01*
X127369987Y-92609191D01*
X127311113Y-92467058D01*
X127225642Y-92339141D01*
X127116859Y-92230358D01*
X126988942Y-92144887D01*
X126949200Y-92128425D01*
X126949200Y-87882809D01*
X126989859Y-87855642D01*
X127098642Y-87746859D01*
X127184113Y-87618942D01*
X127242987Y-87476809D01*
X127273000Y-87325922D01*
X127273000Y-87172078D01*
X127242987Y-87021191D01*
X127184113Y-86879058D01*
X127098642Y-86751141D01*
X126989859Y-86642358D01*
X126861942Y-86556887D01*
X126719809Y-86498013D01*
X126568922Y-86468000D01*
X126415078Y-86468000D01*
X126264191Y-86498013D01*
X126122058Y-86556887D01*
X125994141Y-86642358D01*
X125885358Y-86751141D01*
X125799887Y-86879058D01*
X125741013Y-87021191D01*
X125711000Y-87172078D01*
X125711000Y-87325922D01*
X125741013Y-87476809D01*
X125799887Y-87618942D01*
X125885358Y-87746859D01*
X125994141Y-87855642D01*
X126034800Y-87882809D01*
X126034801Y-92316698D01*
X126012358Y-92339141D01*
X125926887Y-92467058D01*
X125868013Y-92609191D01*
X125838000Y-92760078D01*
X125838000Y-92913922D01*
X125864113Y-93045204D01*
X125094506Y-92275597D01*
X125080185Y-92258147D01*
X125010568Y-92201013D01*
X124931141Y-92158559D01*
X124844959Y-92132415D01*
X124777792Y-92125800D01*
X124777782Y-92125800D01*
X124755332Y-92123589D01*
X124732882Y-92125800D01*
X124077809Y-92125800D01*
X124050642Y-92085141D01*
X123941859Y-91976358D01*
X123813942Y-91890887D01*
X123671809Y-91832013D01*
X123520922Y-91802000D01*
X123367078Y-91802000D01*
X123216191Y-91832013D01*
X123074058Y-91890887D01*
X122946141Y-91976358D01*
X122837358Y-92085141D01*
X122751887Y-92213058D01*
X122693013Y-92355191D01*
X122663000Y-92506078D01*
X121996200Y-92506078D01*
X121996200Y-81850377D01*
X125097118Y-78749460D01*
X125145078Y-78759000D01*
X125298922Y-78759000D01*
X125449809Y-78728987D01*
X125591942Y-78670113D01*
X125719859Y-78584642D01*
X125828642Y-78475859D01*
X125914113Y-78347942D01*
X125972987Y-78205809D01*
X126003000Y-78054922D01*
X126003000Y-77901078D01*
X125972987Y-77750191D01*
X125914113Y-77608058D01*
X125828642Y-77480141D01*
X125719859Y-77371358D01*
X125591942Y-77285887D01*
X125449809Y-77227013D01*
X125298922Y-77197000D01*
X125145078Y-77197000D01*
X124994191Y-77227013D01*
X124852058Y-77285887D01*
X124724141Y-77371358D01*
X124615358Y-77480141D01*
X124529887Y-77608058D01*
X124471013Y-77750191D01*
X124441000Y-77901078D01*
X124441000Y-78054922D01*
X124450540Y-78102882D01*
X121231597Y-81321826D01*
X121214147Y-81336147D01*
X121157013Y-81405765D01*
X121114559Y-81485192D01*
X121088415Y-81571374D01*
X121081800Y-81638541D01*
X121081800Y-81638550D01*
X121079589Y-81661000D01*
X121081800Y-81683450D01*
X121081801Y-92584190D01*
X121041141Y-92611358D01*
X120932358Y-92720141D01*
X120846887Y-92848058D01*
X120788013Y-92990191D01*
X120758000Y-93141078D01*
X120726200Y-93141078D01*
X120726200Y-80301701D01*
X120787141Y-80362642D01*
X120915058Y-80448113D01*
X121057191Y-80506987D01*
X121208078Y-80537000D01*
X121361922Y-80537000D01*
X121512809Y-80506987D01*
X121654942Y-80448113D01*
X121782859Y-80362642D01*
X121891642Y-80253859D01*
X121977113Y-80125942D01*
X122035987Y-79983809D01*
X122066000Y-79832922D01*
X122066000Y-79679078D01*
X122056460Y-79631117D01*
X125538378Y-76149200D01*
X128906191Y-76149200D01*
X128933358Y-76189859D01*
X129042141Y-76298642D01*
X129170058Y-76384113D01*
X129312191Y-76442987D01*
X129463078Y-76473000D01*
X129616922Y-76473000D01*
X129767809Y-76442987D01*
X129909942Y-76384113D01*
X130037859Y-76298642D01*
X130146642Y-76189859D01*
X130232113Y-76061942D01*
X130290987Y-75919809D01*
X130321000Y-75768922D01*
X130321000Y-75615078D01*
X130290987Y-75464191D01*
X130232113Y-75322058D01*
X130146642Y-75194141D01*
X130037859Y-75085358D01*
X129909942Y-74999887D01*
X129767809Y-74941013D01*
X129616922Y-74911000D01*
X129463078Y-74911000D01*
X129312191Y-74941013D01*
X129170058Y-74999887D01*
X129042141Y-75085358D01*
X128933358Y-75194141D01*
X128906191Y-75234800D01*
X125371450Y-75234800D01*
X125349000Y-75232589D01*
X125326550Y-75234800D01*
X125326540Y-75234800D01*
X125259373Y-75241415D01*
X125173191Y-75267559D01*
X125093764Y-75310013D01*
X125024147Y-75367147D01*
X125009830Y-75384592D01*
X121409883Y-78984540D01*
X121361922Y-78975000D01*
X121274257Y-78975000D01*
X129434058Y-70815200D01*
X129795191Y-70815200D01*
X129822358Y-70855859D01*
X129931141Y-70964642D01*
X130059058Y-71050113D01*
X130201191Y-71108987D01*
X130352078Y-71139000D01*
X130505922Y-71139000D01*
X130656809Y-71108987D01*
X130798942Y-71050113D01*
X130926859Y-70964642D01*
X131035642Y-70855859D01*
X131121113Y-70727942D01*
X131179987Y-70585809D01*
X131210000Y-70434922D01*
X131210000Y-70281078D01*
X131179987Y-70130191D01*
X131121113Y-69988058D01*
X131035642Y-69860141D01*
X130926859Y-69751358D01*
X130798942Y-69665887D01*
X130656809Y-69607013D01*
X130505922Y-69577000D01*
X130352078Y-69577000D01*
X130201191Y-69607013D01*
X130059058Y-69665887D01*
X129931141Y-69751358D01*
X129822358Y-69860141D01*
X129795191Y-69900800D01*
X129267129Y-69900800D01*
X129244679Y-69898589D01*
X129222229Y-69900800D01*
X129222220Y-69900800D01*
X129155053Y-69907415D01*
X129068871Y-69933559D01*
X129031897Y-69953322D01*
X128989443Y-69976013D01*
X128974767Y-69988058D01*
X128919827Y-70033147D01*
X128905510Y-70050592D01*
X119961593Y-78994510D01*
X119944148Y-79008827D01*
X119929831Y-79026272D01*
X119929830Y-79026273D01*
X119887013Y-79078445D01*
X119844560Y-79157871D01*
X119818416Y-79244054D01*
X119809589Y-79333680D01*
X119811801Y-79356140D01*
X119811800Y-107189191D01*
X119771141Y-107216358D01*
X119662358Y-107325141D01*
X119576887Y-107453058D01*
X119518013Y-107595191D01*
X119488000Y-107746078D01*
X117170200Y-107746078D01*
X117170200Y-107210449D01*
X117172411Y-107187999D01*
X117170200Y-107165549D01*
X117170200Y-107165540D01*
X117163585Y-107098373D01*
X117137441Y-107012191D01*
X117094987Y-106932764D01*
X117037853Y-106863147D01*
X117020409Y-106848831D01*
X113293460Y-103121883D01*
X113303000Y-103073922D01*
X113303000Y-102920078D01*
X113272987Y-102769191D01*
X113214113Y-102627058D01*
X113128642Y-102499141D01*
X113019859Y-102390358D01*
X112891942Y-102304887D01*
X112749809Y-102246013D01*
X112598922Y-102216000D01*
X112445078Y-102216000D01*
X112294191Y-102246013D01*
X112152058Y-102304887D01*
X112024141Y-102390358D01*
X111915358Y-102499141D01*
X111829887Y-102627058D01*
X111771013Y-102769191D01*
X111741000Y-102920078D01*
X108810428Y-102920078D01*
X108743488Y-102838512D01*
X108647589Y-102759810D01*
X108538179Y-102701329D01*
X108419462Y-102665317D01*
X108296000Y-102653157D01*
X107096000Y-102653157D01*
X106972538Y-102665317D01*
X106853821Y-102701329D01*
X106744411Y-102759810D01*
X106648512Y-102838512D01*
X106569810Y-102934411D01*
X106511329Y-103043821D01*
X106475317Y-103162538D01*
X106463157Y-103286000D01*
X106235604Y-103286000D01*
X106112180Y-103101283D01*
X105940717Y-102929820D01*
X105739097Y-102795102D01*
X105515069Y-102702307D01*
X105277243Y-102655000D01*
X105034757Y-102655000D01*
X104796931Y-102702307D01*
X104572903Y-102795102D01*
X104371283Y-102929820D01*
X104199820Y-103101283D01*
X104065102Y-103302903D01*
X103972307Y-103526931D01*
X103925000Y-103764757D01*
X103327200Y-103764757D01*
X103327200Y-101224757D01*
X103925000Y-101224757D01*
X103925000Y-101467243D01*
X103972307Y-101705069D01*
X104065102Y-101929097D01*
X104199820Y-102130717D01*
X104371283Y-102302180D01*
X104572903Y-102436898D01*
X104796931Y-102529693D01*
X105034757Y-102577000D01*
X105277243Y-102577000D01*
X105515069Y-102529693D01*
X105739097Y-102436898D01*
X105940717Y-102302180D01*
X106112180Y-102130717D01*
X106246898Y-101929097D01*
X106339693Y-101705069D01*
X106387000Y-101467243D01*
X106387000Y-101224757D01*
X106465000Y-101224757D01*
X106465000Y-101467243D01*
X106512307Y-101705069D01*
X106605102Y-101929097D01*
X106739820Y-102130717D01*
X106911283Y-102302180D01*
X107112903Y-102436898D01*
X107336931Y-102529693D01*
X107574757Y-102577000D01*
X107817243Y-102577000D01*
X108055069Y-102529693D01*
X108279097Y-102436898D01*
X108480717Y-102302180D01*
X108652180Y-102130717D01*
X108786898Y-101929097D01*
X108879693Y-101705069D01*
X108927000Y-101467243D01*
X108927000Y-101224757D01*
X108879693Y-100986931D01*
X108786898Y-100762903D01*
X108652180Y-100561283D01*
X108480717Y-100389820D01*
X108279097Y-100255102D01*
X108055069Y-100162307D01*
X107817243Y-100115000D01*
X107574757Y-100115000D01*
X107336931Y-100162307D01*
X107112903Y-100255102D01*
X106911283Y-100389820D01*
X106739820Y-100561283D01*
X106605102Y-100762903D01*
X106512307Y-100986931D01*
X106465000Y-101224757D01*
X106387000Y-101224757D01*
X106339693Y-100986931D01*
X106246898Y-100762903D01*
X106112180Y-100561283D01*
X105940717Y-100389820D01*
X105739097Y-100255102D01*
X105515069Y-100162307D01*
X105277243Y-100115000D01*
X105034757Y-100115000D01*
X104796931Y-100162307D01*
X104572903Y-100255102D01*
X104371283Y-100389820D01*
X104199820Y-100561283D01*
X104065102Y-100762903D01*
X103972307Y-100986931D01*
X103925000Y-101224757D01*
X103327200Y-101224757D01*
X103327200Y-98684757D01*
X103925000Y-98684757D01*
X103925000Y-98927243D01*
X103972307Y-99165069D01*
X104065102Y-99389097D01*
X104199820Y-99590717D01*
X104371283Y-99762180D01*
X104572903Y-99896898D01*
X104796931Y-99989693D01*
X105034757Y-100037000D01*
X105277243Y-100037000D01*
X105515069Y-99989693D01*
X105739097Y-99896898D01*
X105940717Y-99762180D01*
X106112180Y-99590717D01*
X106246898Y-99389097D01*
X106339693Y-99165069D01*
X106387000Y-98927243D01*
X106387000Y-98684757D01*
X106465000Y-98684757D01*
X106465000Y-98927243D01*
X106512307Y-99165069D01*
X106605102Y-99389097D01*
X106739820Y-99590717D01*
X106911283Y-99762180D01*
X107112903Y-99896898D01*
X107336931Y-99989693D01*
X107574757Y-100037000D01*
X107817243Y-100037000D01*
X108055069Y-99989693D01*
X108279097Y-99896898D01*
X108480717Y-99762180D01*
X108652180Y-99590717D01*
X108786898Y-99389097D01*
X108879693Y-99165069D01*
X108927000Y-98927243D01*
X108927000Y-98684757D01*
X108879693Y-98446931D01*
X108786898Y-98222903D01*
X108652180Y-98021283D01*
X108480717Y-97849820D01*
X108279097Y-97715102D01*
X108055069Y-97622307D01*
X107817243Y-97575000D01*
X107574757Y-97575000D01*
X107336931Y-97622307D01*
X107112903Y-97715102D01*
X106911283Y-97849820D01*
X106739820Y-98021283D01*
X106605102Y-98222903D01*
X106512307Y-98446931D01*
X106465000Y-98684757D01*
X106387000Y-98684757D01*
X106339693Y-98446931D01*
X106246898Y-98222903D01*
X106112180Y-98021283D01*
X105940717Y-97849820D01*
X105739097Y-97715102D01*
X105515069Y-97622307D01*
X105277243Y-97575000D01*
X105034757Y-97575000D01*
X104796931Y-97622307D01*
X104572903Y-97715102D01*
X104371283Y-97849820D01*
X104199820Y-98021283D01*
X104065102Y-98222903D01*
X103972307Y-98446931D01*
X103925000Y-98684757D01*
X103327200Y-98684757D01*
X103327200Y-96144757D01*
X103925000Y-96144757D01*
X103925000Y-96387243D01*
X103972307Y-96625069D01*
X104065102Y-96849097D01*
X104199820Y-97050717D01*
X104371283Y-97222180D01*
X104572903Y-97356898D01*
X104796931Y-97449693D01*
X105034757Y-97497000D01*
X105277243Y-97497000D01*
X105515069Y-97449693D01*
X105739097Y-97356898D01*
X105940717Y-97222180D01*
X106112180Y-97050717D01*
X106246898Y-96849097D01*
X106339693Y-96625069D01*
X106387000Y-96387243D01*
X106387000Y-96144757D01*
X106339693Y-95906931D01*
X106246898Y-95682903D01*
X106112180Y-95481283D01*
X105940717Y-95309820D01*
X105739097Y-95175102D01*
X105515069Y-95082307D01*
X105277243Y-95035000D01*
X105034757Y-95035000D01*
X104796931Y-95082307D01*
X104572903Y-95175102D01*
X104371283Y-95309820D01*
X104199820Y-95481283D01*
X104065102Y-95682903D01*
X103972307Y-95906931D01*
X103925000Y-96144757D01*
X103327200Y-96144757D01*
X103327200Y-93604757D01*
X103925000Y-93604757D01*
X103925000Y-93847243D01*
X103972307Y-94085069D01*
X104065102Y-94309097D01*
X104199820Y-94510717D01*
X104371283Y-94682180D01*
X104572903Y-94816898D01*
X104796931Y-94909693D01*
X105034757Y-94957000D01*
X105277243Y-94957000D01*
X105515069Y-94909693D01*
X105739097Y-94816898D01*
X105940717Y-94682180D01*
X106112180Y-94510717D01*
X106246898Y-94309097D01*
X106339693Y-94085069D01*
X106387000Y-93847243D01*
X106387000Y-93604757D01*
X106339693Y-93366931D01*
X106246898Y-93142903D01*
X106112180Y-92941283D01*
X105940717Y-92769820D01*
X105739097Y-92635102D01*
X105634683Y-92591852D01*
X105789747Y-92536919D01*
X105927157Y-92463472D01*
X106004792Y-92214397D01*
X105156000Y-91365605D01*
X104307208Y-92214397D01*
X104384843Y-92463472D01*
X104648883Y-92589371D01*
X104670228Y-92594789D01*
X104572903Y-92635102D01*
X104371283Y-92769820D01*
X104199820Y-92941283D01*
X104065102Y-93142903D01*
X103972307Y-93366931D01*
X103925000Y-93604757D01*
X103327200Y-93604757D01*
X103327200Y-91254531D01*
X103665389Y-91254531D01*
X103707401Y-91544019D01*
X103805081Y-91819747D01*
X103878528Y-91957157D01*
X104127603Y-92034792D01*
X104976395Y-91186000D01*
X105335605Y-91186000D01*
X106184397Y-92034792D01*
X106426000Y-91959486D01*
X106667603Y-92034792D01*
X107516395Y-91186000D01*
X106667603Y-90337208D01*
X106426000Y-90412514D01*
X106184397Y-90337208D01*
X105335605Y-91186000D01*
X104976395Y-91186000D01*
X104127603Y-90337208D01*
X103878528Y-90414843D01*
X103752629Y-90678883D01*
X103680661Y-90962411D01*
X103665389Y-91254531D01*
X103327200Y-91254531D01*
X103327200Y-88524757D01*
X103925000Y-88524757D01*
X103925000Y-88767243D01*
X103972307Y-89005069D01*
X104065102Y-89229097D01*
X104199820Y-89430717D01*
X104371283Y-89602180D01*
X104572903Y-89736898D01*
X104677317Y-89780148D01*
X104522253Y-89835081D01*
X104384843Y-89908528D01*
X104307208Y-90157603D01*
X105156000Y-91006395D01*
X106004792Y-90157603D01*
X105927157Y-89908528D01*
X105663117Y-89782629D01*
X105641772Y-89777211D01*
X105739097Y-89736898D01*
X105940717Y-89602180D01*
X106112180Y-89430717D01*
X106246898Y-89229097D01*
X106339693Y-89005069D01*
X106387000Y-88767243D01*
X106387000Y-88524757D01*
X106465000Y-88524757D01*
X106465000Y-88767243D01*
X106512307Y-89005069D01*
X106605102Y-89229097D01*
X106739820Y-89430717D01*
X106911283Y-89602180D01*
X107112903Y-89736898D01*
X107217317Y-89780148D01*
X107062253Y-89835081D01*
X106924843Y-89908528D01*
X106847208Y-90157603D01*
X107696000Y-91006395D01*
X107710143Y-90992253D01*
X107889748Y-91171858D01*
X107875605Y-91186000D01*
X108724397Y-92034792D01*
X108889800Y-91983237D01*
X108889801Y-93417745D01*
X108879693Y-93366931D01*
X108786898Y-93142903D01*
X108652180Y-92941283D01*
X108480717Y-92769820D01*
X108279097Y-92635102D01*
X108174683Y-92591852D01*
X108329747Y-92536919D01*
X108467157Y-92463472D01*
X108544792Y-92214397D01*
X107696000Y-91365605D01*
X106847208Y-92214397D01*
X106924843Y-92463472D01*
X107188883Y-92589371D01*
X107210228Y-92594789D01*
X107112903Y-92635102D01*
X106911283Y-92769820D01*
X106739820Y-92941283D01*
X106605102Y-93142903D01*
X106512307Y-93366931D01*
X106465000Y-93604757D01*
X106465000Y-93847243D01*
X106512307Y-94085069D01*
X106605102Y-94309097D01*
X106739820Y-94510717D01*
X106911283Y-94682180D01*
X107112903Y-94816898D01*
X107336931Y-94909693D01*
X107574757Y-94957000D01*
X107817243Y-94957000D01*
X108055069Y-94909693D01*
X108279097Y-94816898D01*
X108480717Y-94682180D01*
X108652180Y-94510717D01*
X108786898Y-94309097D01*
X108879693Y-94085069D01*
X108889801Y-94034255D01*
X108889801Y-95124190D01*
X108849141Y-95151358D01*
X108740358Y-95260141D01*
X108654887Y-95388058D01*
X108626789Y-95455892D01*
X108480717Y-95309820D01*
X108279097Y-95175102D01*
X108055069Y-95082307D01*
X107817243Y-95035000D01*
X107574757Y-95035000D01*
X107336931Y-95082307D01*
X107112903Y-95175102D01*
X106911283Y-95309820D01*
X106739820Y-95481283D01*
X106605102Y-95682903D01*
X106512307Y-95906931D01*
X106465000Y-96144757D01*
X106465000Y-96387243D01*
X106512307Y-96625069D01*
X106605102Y-96849097D01*
X106739820Y-97050717D01*
X106911283Y-97222180D01*
X107112903Y-97356898D01*
X107336931Y-97449693D01*
X107574757Y-97497000D01*
X107817243Y-97497000D01*
X108055069Y-97449693D01*
X108279097Y-97356898D01*
X108480717Y-97222180D01*
X108652180Y-97050717D01*
X108786898Y-96849097D01*
X108879693Y-96625069D01*
X108921834Y-96413214D01*
X108977058Y-96450113D01*
X109119191Y-96508987D01*
X109270078Y-96539000D01*
X109423922Y-96539000D01*
X109574809Y-96508987D01*
X109716942Y-96450113D01*
X109844859Y-96364642D01*
X109953642Y-96255859D01*
X110039113Y-96127942D01*
X110097987Y-95985809D01*
X110128000Y-95834922D01*
X110128000Y-95681078D01*
X110097987Y-95530191D01*
X110039113Y-95388058D01*
X109953642Y-95260141D01*
X109844859Y-95151358D01*
X109804200Y-95124191D01*
X109804200Y-90319450D01*
X109806411Y-90297000D01*
X109804200Y-90274550D01*
X109804200Y-90274540D01*
X109797585Y-90207373D01*
X109777526Y-90141249D01*
X109771441Y-90121190D01*
X109728987Y-90041764D01*
X109686171Y-89989592D01*
X109686165Y-89989586D01*
X109671853Y-89972147D01*
X109654415Y-89957836D01*
X109281657Y-89585078D01*
X114027000Y-89585078D01*
X114027000Y-89738922D01*
X114057013Y-89889809D01*
X114115887Y-90031942D01*
X114201358Y-90159859D01*
X114310141Y-90268642D01*
X114350801Y-90295810D01*
X114350800Y-92433550D01*
X114348589Y-92456000D01*
X114350800Y-92478450D01*
X114350800Y-92478459D01*
X114357415Y-92545626D01*
X114383559Y-92631808D01*
X114426013Y-92711235D01*
X114483147Y-92780853D01*
X114500597Y-92795174D01*
X115179540Y-93474117D01*
X115170000Y-93522078D01*
X115170000Y-93675922D01*
X115200013Y-93826809D01*
X115258887Y-93968942D01*
X115344358Y-94096859D01*
X115453141Y-94205642D01*
X115581058Y-94291113D01*
X115723191Y-94349987D01*
X115874078Y-94380000D01*
X116027922Y-94380000D01*
X116178809Y-94349987D01*
X116320942Y-94291113D01*
X116448859Y-94205642D01*
X116557642Y-94096859D01*
X116631228Y-93986729D01*
X116723141Y-94078642D01*
X116763800Y-94105810D01*
X116763801Y-94469000D01*
X116763078Y-94469000D01*
X116612191Y-94499013D01*
X116470058Y-94557887D01*
X116342141Y-94643358D01*
X116233358Y-94752141D01*
X116147887Y-94880058D01*
X116089013Y-95022191D01*
X116059000Y-95173078D01*
X116059000Y-95326922D01*
X116089013Y-95477809D01*
X116147887Y-95619942D01*
X116233358Y-95747859D01*
X116342141Y-95856642D01*
X116470058Y-95942113D01*
X116612191Y-96000987D01*
X116763078Y-96031000D01*
X116916922Y-96031000D01*
X117067809Y-96000987D01*
X117209942Y-95942113D01*
X117337859Y-95856642D01*
X117446642Y-95747859D01*
X117532113Y-95619942D01*
X117590987Y-95477809D01*
X117621000Y-95326922D01*
X117621000Y-95173078D01*
X117609034Y-95112923D01*
X117645440Y-95044810D01*
X117645441Y-95044809D01*
X117671585Y-94958627D01*
X117678200Y-94891460D01*
X117678200Y-94891451D01*
X117680411Y-94869001D01*
X117678200Y-94846551D01*
X117678200Y-94105809D01*
X117718859Y-94078642D01*
X117827642Y-93969859D01*
X117913113Y-93841942D01*
X117971987Y-93699809D01*
X118002000Y-93548922D01*
X118002000Y-93395078D01*
X117971987Y-93244191D01*
X117913113Y-93102058D01*
X117827642Y-92974141D01*
X117718859Y-92865358D01*
X117590942Y-92779887D01*
X117448809Y-92721013D01*
X117297922Y-92691000D01*
X117144078Y-92691000D01*
X116993191Y-92721013D01*
X116851058Y-92779887D01*
X116723141Y-92865358D01*
X116614358Y-92974141D01*
X116540772Y-93084271D01*
X116448859Y-92992358D01*
X116320942Y-92906887D01*
X116178809Y-92848013D01*
X116027922Y-92818000D01*
X115874078Y-92818000D01*
X115826117Y-92827540D01*
X115265200Y-92266623D01*
X115265200Y-90295809D01*
X115305859Y-90268642D01*
X115414642Y-90159859D01*
X115500113Y-90031942D01*
X115558987Y-89889809D01*
X115589000Y-89738922D01*
X115589000Y-89585078D01*
X115558987Y-89434191D01*
X115500113Y-89292058D01*
X115414642Y-89164141D01*
X115305859Y-89055358D01*
X115177942Y-88969887D01*
X115035809Y-88911013D01*
X114884922Y-88881000D01*
X114731078Y-88881000D01*
X114580191Y-88911013D01*
X114438058Y-88969887D01*
X114310141Y-89055358D01*
X114201358Y-89164141D01*
X114115887Y-89292058D01*
X114057013Y-89434191D01*
X114027000Y-89585078D01*
X109281657Y-89585078D01*
X108827545Y-89130967D01*
X108879693Y-89005069D01*
X108927000Y-88767243D01*
X108927000Y-88524757D01*
X108879693Y-88286931D01*
X108786898Y-88062903D01*
X108652180Y-87861283D01*
X108480717Y-87689820D01*
X108279097Y-87555102D01*
X108055069Y-87462307D01*
X107817243Y-87415000D01*
X107574757Y-87415000D01*
X107336931Y-87462307D01*
X107112903Y-87555102D01*
X106911283Y-87689820D01*
X106739820Y-87861283D01*
X106605102Y-88062903D01*
X106512307Y-88286931D01*
X106465000Y-88524757D01*
X106387000Y-88524757D01*
X106339693Y-88286931D01*
X106246898Y-88062903D01*
X106112180Y-87861283D01*
X105940717Y-87689820D01*
X105739097Y-87555102D01*
X105515069Y-87462307D01*
X105277243Y-87415000D01*
X105034757Y-87415000D01*
X104796931Y-87462307D01*
X104572903Y-87555102D01*
X104371283Y-87689820D01*
X104199820Y-87861283D01*
X104065102Y-88062903D01*
X103972307Y-88286931D01*
X103925000Y-88524757D01*
X103327200Y-88524757D01*
X103327200Y-85984757D01*
X103925000Y-85984757D01*
X103925000Y-86227243D01*
X103972307Y-86465069D01*
X104065102Y-86689097D01*
X104199820Y-86890717D01*
X104371283Y-87062180D01*
X104572903Y-87196898D01*
X104796931Y-87289693D01*
X105034757Y-87337000D01*
X105277243Y-87337000D01*
X105515069Y-87289693D01*
X105739097Y-87196898D01*
X105940717Y-87062180D01*
X106112180Y-86890717D01*
X106246898Y-86689097D01*
X106339693Y-86465069D01*
X106387000Y-86227243D01*
X106387000Y-85984757D01*
X106339693Y-85746931D01*
X106246898Y-85522903D01*
X106112180Y-85321283D01*
X105940717Y-85149820D01*
X105739097Y-85015102D01*
X105515069Y-84922307D01*
X105277243Y-84875000D01*
X105034757Y-84875000D01*
X104796931Y-84922307D01*
X104572903Y-85015102D01*
X104371283Y-85149820D01*
X104199820Y-85321283D01*
X104065102Y-85522903D01*
X103972307Y-85746931D01*
X103925000Y-85984757D01*
X103327200Y-85984757D01*
X103327200Y-78364757D01*
X103925000Y-78364757D01*
X103925000Y-78607243D01*
X103972307Y-78845069D01*
X104065102Y-79069097D01*
X104199820Y-79270717D01*
X104371283Y-79442180D01*
X104572903Y-79576898D01*
X104796931Y-79669693D01*
X105034757Y-79717000D01*
X105277243Y-79717000D01*
X105515069Y-79669693D01*
X105640967Y-79617545D01*
X106160199Y-80136777D01*
X106160199Y-80313149D01*
X106112180Y-80241283D01*
X105940717Y-80069820D01*
X105739097Y-79935102D01*
X105515069Y-79842307D01*
X105277243Y-79795000D01*
X105034757Y-79795000D01*
X104796931Y-79842307D01*
X104572903Y-79935102D01*
X104371283Y-80069820D01*
X104199820Y-80241283D01*
X104065102Y-80442903D01*
X103972307Y-80666931D01*
X103925000Y-80904757D01*
X103925000Y-81147243D01*
X103972307Y-81385069D01*
X104065102Y-81609097D01*
X104199820Y-81810717D01*
X104371283Y-81982180D01*
X104572903Y-82116898D01*
X104796931Y-82209693D01*
X105034757Y-82257000D01*
X105277243Y-82257000D01*
X105515069Y-82209693D01*
X105739097Y-82116898D01*
X105940717Y-81982180D01*
X106112180Y-81810717D01*
X106160199Y-81738851D01*
X106160200Y-82853150D01*
X106112180Y-82781283D01*
X105940717Y-82609820D01*
X105739097Y-82475102D01*
X105515069Y-82382307D01*
X105277243Y-82335000D01*
X105034757Y-82335000D01*
X104796931Y-82382307D01*
X104572903Y-82475102D01*
X104371283Y-82609820D01*
X104199820Y-82781283D01*
X104065102Y-82982903D01*
X103972307Y-83206931D01*
X103925000Y-83444757D01*
X103925000Y-83687243D01*
X103972307Y-83925069D01*
X104065102Y-84149097D01*
X104199820Y-84350717D01*
X104371283Y-84522180D01*
X104572903Y-84656898D01*
X104796931Y-84749693D01*
X105034757Y-84797000D01*
X105277243Y-84797000D01*
X105515069Y-84749693D01*
X105739097Y-84656898D01*
X105940717Y-84522180D01*
X106112180Y-84350717D01*
X106186759Y-84239101D01*
X106192959Y-84259538D01*
X106235412Y-84338964D01*
X106267513Y-84378078D01*
X106292547Y-84408582D01*
X106309992Y-84422899D01*
X106986592Y-85099500D01*
X106911283Y-85149820D01*
X106739820Y-85321283D01*
X106605102Y-85522903D01*
X106512307Y-85746931D01*
X106465000Y-85984757D01*
X106465000Y-86227243D01*
X106512307Y-86465069D01*
X106605102Y-86689097D01*
X106739820Y-86890717D01*
X106911283Y-87062180D01*
X107112903Y-87196898D01*
X107336931Y-87289693D01*
X107574757Y-87337000D01*
X107817243Y-87337000D01*
X108055069Y-87289693D01*
X108279097Y-87196898D01*
X108480717Y-87062180D01*
X108649198Y-86893699D01*
X108722141Y-86966642D01*
X108850058Y-87052113D01*
X108992191Y-87110987D01*
X109143078Y-87141000D01*
X109296922Y-87141000D01*
X109447809Y-87110987D01*
X109589942Y-87052113D01*
X109717859Y-86966642D01*
X109826642Y-86857859D01*
X109912113Y-86729942D01*
X109970987Y-86587809D01*
X110001000Y-86436922D01*
X110001000Y-86283078D01*
X109970987Y-86132191D01*
X109912113Y-85990058D01*
X109826642Y-85862141D01*
X109717859Y-85753358D01*
X109589942Y-85667887D01*
X109447809Y-85609013D01*
X109440459Y-85607551D01*
X109050491Y-85217583D01*
X109143078Y-85236000D01*
X109296922Y-85236000D01*
X109447809Y-85205987D01*
X109589942Y-85147113D01*
X109717859Y-85061642D01*
X109826642Y-84952859D01*
X109912113Y-84824942D01*
X109970987Y-84682809D01*
X110001000Y-84531922D01*
X110001000Y-84505078D01*
X112884000Y-84505078D01*
X112884000Y-84658922D01*
X112914013Y-84809809D01*
X112972887Y-84951942D01*
X113058358Y-85079859D01*
X113167141Y-85188642D01*
X113295058Y-85274113D01*
X113437191Y-85332987D01*
X113588078Y-85363000D01*
X113741922Y-85363000D01*
X113892809Y-85332987D01*
X114034942Y-85274113D01*
X114162859Y-85188642D01*
X114271642Y-85079859D01*
X114298809Y-85039200D01*
X115684699Y-85039200D01*
X115707141Y-85061642D01*
X115835058Y-85147113D01*
X115977191Y-85205987D01*
X116128078Y-85236000D01*
X116281922Y-85236000D01*
X116432809Y-85205987D01*
X116574942Y-85147113D01*
X116702859Y-85061642D01*
X116811642Y-84952859D01*
X116897113Y-84824942D01*
X116955987Y-84682809D01*
X116986000Y-84531922D01*
X116986000Y-84378078D01*
X116955987Y-84227191D01*
X116897113Y-84085058D01*
X116811642Y-83957141D01*
X116702859Y-83848358D01*
X116574942Y-83762887D01*
X116432809Y-83704013D01*
X116281922Y-83674000D01*
X116128078Y-83674000D01*
X115977191Y-83704013D01*
X115835058Y-83762887D01*
X115707141Y-83848358D01*
X115598358Y-83957141D01*
X115512887Y-84085058D01*
X115496425Y-84124800D01*
X114298809Y-84124800D01*
X114271642Y-84084141D01*
X114162859Y-83975358D01*
X114034942Y-83889887D01*
X113892809Y-83831013D01*
X113741922Y-83801000D01*
X113588078Y-83801000D01*
X113437191Y-83831013D01*
X113295058Y-83889887D01*
X113167141Y-83975358D01*
X113058358Y-84084141D01*
X112972887Y-84212058D01*
X112914013Y-84354191D01*
X112884000Y-84505078D01*
X110001000Y-84505078D01*
X110001000Y-84378078D01*
X109970987Y-84227191D01*
X109912113Y-84085058D01*
X109826642Y-83957141D01*
X109717859Y-83848358D01*
X109677200Y-83821191D01*
X109677200Y-83235078D01*
X109709000Y-83235078D01*
X109709000Y-83388922D01*
X109739013Y-83539809D01*
X109797887Y-83681942D01*
X109883358Y-83809859D01*
X109992141Y-83918642D01*
X110120058Y-84004113D01*
X110262191Y-84062987D01*
X110413078Y-84093000D01*
X110566922Y-84093000D01*
X110717809Y-84062987D01*
X110859942Y-84004113D01*
X110987859Y-83918642D01*
X111096642Y-83809859D01*
X111182113Y-83681942D01*
X111240987Y-83539809D01*
X111271000Y-83388922D01*
X111271000Y-83235078D01*
X111240987Y-83084191D01*
X111182113Y-82942058D01*
X111096642Y-82814141D01*
X111074200Y-82791699D01*
X111074200Y-78611809D01*
X111114859Y-78584642D01*
X111223642Y-78475859D01*
X111309113Y-78347942D01*
X111367987Y-78205809D01*
X111398000Y-78054922D01*
X111398000Y-77901078D01*
X111367987Y-77750191D01*
X111309113Y-77608058D01*
X111223642Y-77480141D01*
X111114859Y-77371358D01*
X110986942Y-77285887D01*
X110844809Y-77227013D01*
X110693922Y-77197000D01*
X110540078Y-77197000D01*
X110389191Y-77227013D01*
X110247058Y-77285887D01*
X110119141Y-77371358D01*
X110010358Y-77480141D01*
X109924887Y-77608058D01*
X109866013Y-77750191D01*
X109836000Y-77901078D01*
X109836000Y-78054922D01*
X109866013Y-78205809D01*
X109924887Y-78347942D01*
X110010358Y-78475859D01*
X110119141Y-78584642D01*
X110159800Y-78611809D01*
X110159801Y-82603425D01*
X110120058Y-82619887D01*
X109992141Y-82705358D01*
X109883358Y-82814141D01*
X109797887Y-82942058D01*
X109739013Y-83084191D01*
X109709000Y-83235078D01*
X109677200Y-83235078D01*
X109677200Y-80032449D01*
X109679411Y-80009999D01*
X109677200Y-79987549D01*
X109677200Y-79987540D01*
X109670585Y-79920373D01*
X109644441Y-79834191D01*
X109601988Y-79754765D01*
X109601987Y-79754763D01*
X109559170Y-79702592D01*
X109544853Y-79685147D01*
X109527409Y-79670831D01*
X108827545Y-78970967D01*
X108879693Y-78845069D01*
X108927000Y-78607243D01*
X108927000Y-78364757D01*
X108879693Y-78126931D01*
X108786898Y-77902903D01*
X108652180Y-77701283D01*
X108480717Y-77529820D01*
X108279097Y-77395102D01*
X108055069Y-77302307D01*
X107817243Y-77255000D01*
X107574757Y-77255000D01*
X107336931Y-77302307D01*
X107112903Y-77395102D01*
X106911283Y-77529820D01*
X106739820Y-77701283D01*
X106605102Y-77902903D01*
X106512307Y-78126931D01*
X106465000Y-78364757D01*
X106465000Y-78607243D01*
X106512307Y-78845069D01*
X106605102Y-79069097D01*
X106739820Y-79270717D01*
X106911283Y-79442180D01*
X107112903Y-79576898D01*
X107336931Y-79669693D01*
X107574757Y-79717000D01*
X107817243Y-79717000D01*
X108055069Y-79669693D01*
X108180967Y-79617545D01*
X108762800Y-80199378D01*
X108762800Y-80406838D01*
X108652180Y-80241283D01*
X108480717Y-80069820D01*
X108279097Y-79935102D01*
X108055069Y-79842307D01*
X107817243Y-79795000D01*
X107574757Y-79795000D01*
X107336931Y-79842307D01*
X107112903Y-79935102D01*
X107075564Y-79960051D01*
X107076810Y-79947398D01*
X107074599Y-79924948D01*
X107074599Y-79924939D01*
X107067984Y-79857772D01*
X107041840Y-79771590D01*
X107022077Y-79734616D01*
X106999386Y-79692162D01*
X106956569Y-79639991D01*
X106942252Y-79622546D01*
X106924808Y-79608230D01*
X106287545Y-78970967D01*
X106339693Y-78845069D01*
X106387000Y-78607243D01*
X106387000Y-78364757D01*
X106339693Y-78126931D01*
X106246898Y-77902903D01*
X106112180Y-77701283D01*
X105940717Y-77529820D01*
X105739097Y-77395102D01*
X105515069Y-77302307D01*
X105277243Y-77255000D01*
X105034757Y-77255000D01*
X104796931Y-77302307D01*
X104572903Y-77395102D01*
X104371283Y-77529820D01*
X104199820Y-77701283D01*
X104065102Y-77902903D01*
X103972307Y-78126931D01*
X103925000Y-78364757D01*
X103327200Y-78364757D01*
X103327200Y-75824757D01*
X103925000Y-75824757D01*
X103925000Y-76067243D01*
X103972307Y-76305069D01*
X104065102Y-76529097D01*
X104199820Y-76730717D01*
X104371283Y-76902180D01*
X104572903Y-77036898D01*
X104796931Y-77129693D01*
X105034757Y-77177000D01*
X105277243Y-77177000D01*
X105515069Y-77129693D01*
X105739097Y-77036898D01*
X105940717Y-76902180D01*
X106112180Y-76730717D01*
X106246898Y-76529097D01*
X106339693Y-76305069D01*
X106387000Y-76067243D01*
X106387000Y-75824757D01*
X106465000Y-75824757D01*
X106465000Y-76067243D01*
X106512307Y-76305069D01*
X106605102Y-76529097D01*
X106739820Y-76730717D01*
X106911283Y-76902180D01*
X107112903Y-77036898D01*
X107336931Y-77129693D01*
X107574757Y-77177000D01*
X107817243Y-77177000D01*
X108055069Y-77129693D01*
X108279097Y-77036898D01*
X108480717Y-76902180D01*
X108652180Y-76730717D01*
X108786898Y-76529097D01*
X108879693Y-76305069D01*
X108927000Y-76067243D01*
X108927000Y-75824757D01*
X108879693Y-75586931D01*
X108786898Y-75362903D01*
X108652180Y-75161283D01*
X108480717Y-74989820D01*
X108279097Y-74855102D01*
X108055069Y-74762307D01*
X107817243Y-74715000D01*
X107574757Y-74715000D01*
X107336931Y-74762307D01*
X107112903Y-74855102D01*
X106911283Y-74989820D01*
X106739820Y-75161283D01*
X106605102Y-75362903D01*
X106512307Y-75586931D01*
X106465000Y-75824757D01*
X106387000Y-75824757D01*
X106339693Y-75586931D01*
X106246898Y-75362903D01*
X106112180Y-75161283D01*
X105940717Y-74989820D01*
X105739097Y-74855102D01*
X105515069Y-74762307D01*
X105277243Y-74715000D01*
X105034757Y-74715000D01*
X104796931Y-74762307D01*
X104572903Y-74855102D01*
X104371283Y-74989820D01*
X104199820Y-75161283D01*
X104065102Y-75362903D01*
X103972307Y-75586931D01*
X103925000Y-75824757D01*
X103327200Y-75824757D01*
X103327200Y-75323301D01*
X103349642Y-75300859D01*
X103435113Y-75172942D01*
X103493987Y-75030809D01*
X103524000Y-74879922D01*
X103524000Y-74726078D01*
X103493987Y-74575191D01*
X103435113Y-74433058D01*
X103349642Y-74305141D01*
X103240859Y-74196358D01*
X103112942Y-74110887D01*
X102970809Y-74052013D01*
X102819922Y-74022000D01*
X102666078Y-74022000D01*
X102515191Y-74052013D01*
X102373058Y-74110887D01*
X102245141Y-74196358D01*
X102136358Y-74305141D01*
X102050887Y-74433058D01*
X101992013Y-74575191D01*
X101962000Y-74726078D01*
X100906000Y-74726078D01*
X100906000Y-73284757D01*
X103925000Y-73284757D01*
X103925000Y-73527243D01*
X103972307Y-73765069D01*
X104065102Y-73989097D01*
X104199820Y-74190717D01*
X104371283Y-74362180D01*
X104572903Y-74496898D01*
X104796931Y-74589693D01*
X105034757Y-74637000D01*
X105277243Y-74637000D01*
X105515069Y-74589693D01*
X105739097Y-74496898D01*
X105940717Y-74362180D01*
X106112180Y-74190717D01*
X106246898Y-73989097D01*
X106339693Y-73765069D01*
X106387000Y-73527243D01*
X106387000Y-73284757D01*
X106465000Y-73284757D01*
X106465000Y-73527243D01*
X106512307Y-73765069D01*
X106605102Y-73989097D01*
X106739820Y-74190717D01*
X106911283Y-74362180D01*
X107112903Y-74496898D01*
X107336931Y-74589693D01*
X107574757Y-74637000D01*
X107817243Y-74637000D01*
X108055069Y-74589693D01*
X108279097Y-74496898D01*
X108480717Y-74362180D01*
X108652180Y-74190717D01*
X108786898Y-73989097D01*
X108879693Y-73765069D01*
X108927000Y-73527243D01*
X108927000Y-73284757D01*
X108879693Y-73046931D01*
X108786898Y-72822903D01*
X108785679Y-72821078D01*
X114154000Y-72821078D01*
X114154000Y-72974922D01*
X114184013Y-73125809D01*
X114242887Y-73267942D01*
X114328358Y-73395859D01*
X114437141Y-73504642D01*
X114477801Y-73531810D01*
X114477800Y-80773191D01*
X114437141Y-80800358D01*
X114328358Y-80909141D01*
X114242887Y-81037058D01*
X114184013Y-81179191D01*
X114154000Y-81330078D01*
X114154000Y-81483922D01*
X114184013Y-81634809D01*
X114242887Y-81776942D01*
X114328358Y-81904859D01*
X114437141Y-82013642D01*
X114565058Y-82099113D01*
X114707191Y-82157987D01*
X114858078Y-82188000D01*
X115011922Y-82188000D01*
X115162809Y-82157987D01*
X115304942Y-82099113D01*
X115432859Y-82013642D01*
X115541642Y-81904859D01*
X115627113Y-81776942D01*
X115685987Y-81634809D01*
X115716000Y-81483922D01*
X115716000Y-81330078D01*
X115685987Y-81179191D01*
X115627113Y-81037058D01*
X115541642Y-80909141D01*
X115432859Y-80800358D01*
X115392200Y-80773191D01*
X115392200Y-76885078D01*
X119361000Y-76885078D01*
X119361000Y-77038922D01*
X119391013Y-77189809D01*
X119449887Y-77331942D01*
X119535358Y-77459859D01*
X119644141Y-77568642D01*
X119772058Y-77654113D01*
X119914191Y-77712987D01*
X120065078Y-77743000D01*
X120218922Y-77743000D01*
X120369809Y-77712987D01*
X120511942Y-77654113D01*
X120639859Y-77568642D01*
X120748642Y-77459859D01*
X120834113Y-77331942D01*
X120892987Y-77189809D01*
X120923000Y-77038922D01*
X120923000Y-76885078D01*
X120892987Y-76734191D01*
X120834113Y-76592058D01*
X120748642Y-76464141D01*
X120639859Y-76355358D01*
X120599200Y-76328191D01*
X120599200Y-73722377D01*
X120906117Y-73415460D01*
X120954078Y-73425000D01*
X121107922Y-73425000D01*
X121258809Y-73394987D01*
X121400942Y-73336113D01*
X121528859Y-73250642D01*
X121637642Y-73141859D01*
X121723113Y-73013942D01*
X121781987Y-72871809D01*
X121812000Y-72720922D01*
X121812000Y-72567078D01*
X121781987Y-72416191D01*
X121723113Y-72274058D01*
X121637642Y-72146141D01*
X121528859Y-72037358D01*
X121400942Y-71951887D01*
X121258809Y-71893013D01*
X121107922Y-71863000D01*
X120954078Y-71863000D01*
X120803191Y-71893013D01*
X120661058Y-71951887D01*
X120533141Y-72037358D01*
X120424358Y-72146141D01*
X120338887Y-72274058D01*
X120280013Y-72416191D01*
X120250000Y-72567078D01*
X120250000Y-72720922D01*
X120259540Y-72768883D01*
X119834597Y-73193826D01*
X119817147Y-73208147D01*
X119760013Y-73277765D01*
X119717559Y-73357192D01*
X119691415Y-73443374D01*
X119684800Y-73510541D01*
X119684800Y-73510550D01*
X119682589Y-73533000D01*
X119684800Y-73555450D01*
X119684801Y-76328190D01*
X119644141Y-76355358D01*
X119535358Y-76464141D01*
X119449887Y-76592058D01*
X119391013Y-76734191D01*
X119361000Y-76885078D01*
X115392200Y-76885078D01*
X115392200Y-73531809D01*
X115432859Y-73504642D01*
X115541642Y-73395859D01*
X115627113Y-73267942D01*
X115685987Y-73125809D01*
X115716000Y-72974922D01*
X115716000Y-72821078D01*
X115685987Y-72670191D01*
X115627113Y-72528058D01*
X115541642Y-72400141D01*
X115432859Y-72291358D01*
X115304942Y-72205887D01*
X115162809Y-72147013D01*
X115011922Y-72117000D01*
X114858078Y-72117000D01*
X114707191Y-72147013D01*
X114565058Y-72205887D01*
X114437141Y-72291358D01*
X114328358Y-72400141D01*
X114242887Y-72528058D01*
X114184013Y-72670191D01*
X114154000Y-72821078D01*
X108785679Y-72821078D01*
X108652180Y-72621283D01*
X108480717Y-72449820D01*
X108279097Y-72315102D01*
X108055069Y-72222307D01*
X107817243Y-72175000D01*
X107574757Y-72175000D01*
X107336931Y-72222307D01*
X107112903Y-72315102D01*
X106911283Y-72449820D01*
X106739820Y-72621283D01*
X106605102Y-72822903D01*
X106512307Y-73046931D01*
X106465000Y-73284757D01*
X106387000Y-73284757D01*
X106339693Y-73046931D01*
X106246898Y-72822903D01*
X106112180Y-72621283D01*
X105940717Y-72449820D01*
X105739097Y-72315102D01*
X105515069Y-72222307D01*
X105277243Y-72175000D01*
X105034757Y-72175000D01*
X104796931Y-72222307D01*
X104572903Y-72315102D01*
X104371283Y-72449820D01*
X104199820Y-72621283D01*
X104065102Y-72822903D01*
X103972307Y-73046931D01*
X103925000Y-73284757D01*
X100906000Y-73284757D01*
X100906000Y-66406000D01*
X141094000Y-66406000D01*
X141094001Y-111094000D01*
G37*
X141094001Y-111094000D02*
X100906000Y-111094000D01*
X100906000Y-74726078D01*
X101962000Y-74726078D01*
X101962000Y-74879922D01*
X101992013Y-75030809D01*
X102050887Y-75172942D01*
X102136358Y-75300859D01*
X102245141Y-75409642D01*
X102373058Y-75495113D01*
X102412801Y-75511575D01*
X102412800Y-109348191D01*
X102372141Y-109375358D01*
X102263358Y-109484141D01*
X102177887Y-109612058D01*
X102119013Y-109754191D01*
X102089000Y-109905078D01*
X102089000Y-110058922D01*
X102119013Y-110209809D01*
X102177887Y-110351942D01*
X102263358Y-110479859D01*
X102372141Y-110588642D01*
X102500058Y-110674113D01*
X102642191Y-110732987D01*
X102793078Y-110763000D01*
X102946922Y-110763000D01*
X103097809Y-110732987D01*
X103239942Y-110674113D01*
X103367859Y-110588642D01*
X103476642Y-110479859D01*
X103562113Y-110351942D01*
X103620987Y-110209809D01*
X103651000Y-110058922D01*
X103651000Y-110032078D01*
X128886000Y-110032078D01*
X128886000Y-110185922D01*
X128916013Y-110336809D01*
X128974887Y-110478942D01*
X129060358Y-110606859D01*
X129169141Y-110715642D01*
X129297058Y-110801113D01*
X129439191Y-110859987D01*
X129590078Y-110890000D01*
X129743922Y-110890000D01*
X129894809Y-110859987D01*
X130036942Y-110801113D01*
X130164859Y-110715642D01*
X130273642Y-110606859D01*
X130359113Y-110478942D01*
X130417987Y-110336809D01*
X130448000Y-110185922D01*
X130448000Y-110032078D01*
X130417987Y-109881191D01*
X130378200Y-109785138D01*
X130378200Y-101217809D01*
X130418859Y-101190642D01*
X130527642Y-101081859D01*
X130613113Y-100953942D01*
X130671987Y-100811809D01*
X130702000Y-100660922D01*
X130702000Y-100507078D01*
X130671987Y-100356191D01*
X130613113Y-100214058D01*
X130527642Y-100086141D01*
X130418859Y-99977358D01*
X130290942Y-99891887D01*
X130148809Y-99833013D01*
X129997922Y-99803000D01*
X129844078Y-99803000D01*
X129693191Y-99833013D01*
X129551058Y-99891887D01*
X129423141Y-99977358D01*
X129314358Y-100086141D01*
X129228887Y-100214058D01*
X129170013Y-100356191D01*
X129140000Y-100507078D01*
X129140000Y-100660922D01*
X129170013Y-100811809D01*
X129228887Y-100953942D01*
X129314358Y-101081859D01*
X129423141Y-101190642D01*
X129463800Y-101217809D01*
X129463801Y-109353118D01*
X129439191Y-109358013D01*
X129297058Y-109416887D01*
X129169141Y-109502358D01*
X129060358Y-109611141D01*
X128974887Y-109739058D01*
X128916013Y-109881191D01*
X128886000Y-110032078D01*
X103651000Y-110032078D01*
X103651000Y-109905078D01*
X103620987Y-109754191D01*
X103562113Y-109612058D01*
X103476642Y-109484141D01*
X103367859Y-109375358D01*
X103327200Y-109348191D01*
X103327200Y-103764757D01*
X103925000Y-103764757D01*
X103925000Y-104007243D01*
X103972307Y-104245069D01*
X104065102Y-104469097D01*
X104199820Y-104670717D01*
X104371283Y-104842180D01*
X104572903Y-104976898D01*
X104796931Y-105069693D01*
X105034757Y-105117000D01*
X105277243Y-105117000D01*
X105515069Y-105069693D01*
X105739097Y-104976898D01*
X105940717Y-104842180D01*
X106112180Y-104670717D01*
X106246898Y-104469097D01*
X106339693Y-104245069D01*
X106387000Y-104007243D01*
X106387000Y-103764757D01*
X106339693Y-103526931D01*
X106246898Y-103302903D01*
X106235604Y-103286000D01*
X106463157Y-103286000D01*
X106463157Y-104486000D01*
X106475317Y-104609462D01*
X106511329Y-104728179D01*
X106569810Y-104837589D01*
X106648512Y-104933488D01*
X106744411Y-105012190D01*
X106853821Y-105070671D01*
X106972538Y-105106683D01*
X107096000Y-105118843D01*
X108296000Y-105118843D01*
X108419462Y-105106683D01*
X108538179Y-105070671D01*
X108647589Y-105012190D01*
X108743488Y-104933488D01*
X108822190Y-104837589D01*
X108880671Y-104728179D01*
X108916683Y-104609462D01*
X108928843Y-104486000D01*
X108928843Y-103286000D01*
X108916683Y-103162538D01*
X108880671Y-103043821D01*
X108822190Y-102934411D01*
X108810428Y-102920078D01*
X111741000Y-102920078D01*
X111741000Y-103073922D01*
X111771013Y-103224809D01*
X111829887Y-103366942D01*
X111915358Y-103494859D01*
X112024141Y-103603642D01*
X112152058Y-103689113D01*
X112294191Y-103747987D01*
X112445078Y-103778000D01*
X112598922Y-103778000D01*
X112646883Y-103768460D01*
X116255800Y-107377378D01*
X116255801Y-108586190D01*
X116215141Y-108613358D01*
X116106358Y-108722141D01*
X116020887Y-108850058D01*
X115962013Y-108992191D01*
X115932000Y-109143078D01*
X115932000Y-109296922D01*
X115962013Y-109447809D01*
X116020887Y-109589942D01*
X116106358Y-109717859D01*
X116215141Y-109826642D01*
X116343058Y-109912113D01*
X116485191Y-109970987D01*
X116636078Y-110001000D01*
X116789922Y-110001000D01*
X116940809Y-109970987D01*
X117082942Y-109912113D01*
X117210859Y-109826642D01*
X117319642Y-109717859D01*
X117405113Y-109589942D01*
X117463987Y-109447809D01*
X117494000Y-109296922D01*
X117494000Y-109143078D01*
X117463987Y-108992191D01*
X117405113Y-108850058D01*
X117319642Y-108722141D01*
X117210859Y-108613358D01*
X117170200Y-108586191D01*
X117170200Y-107746078D01*
X119488000Y-107746078D01*
X119488000Y-107899922D01*
X119518013Y-108050809D01*
X119576887Y-108192942D01*
X119662358Y-108320859D01*
X119771141Y-108429642D01*
X119899058Y-108515113D01*
X120041191Y-108573987D01*
X120192078Y-108604000D01*
X120345922Y-108604000D01*
X120496809Y-108573987D01*
X120638942Y-108515113D01*
X120766859Y-108429642D01*
X120875642Y-108320859D01*
X120961113Y-108192942D01*
X121019987Y-108050809D01*
X121050000Y-107899922D01*
X121050000Y-107746078D01*
X121019987Y-107595191D01*
X120961113Y-107453058D01*
X120875642Y-107325141D01*
X120766859Y-107216358D01*
X120726200Y-107189191D01*
X120726200Y-100761078D01*
X126219000Y-100761078D01*
X126219000Y-100914922D01*
X126249013Y-101065809D01*
X126307887Y-101207942D01*
X126393358Y-101335859D01*
X126502141Y-101444642D01*
X126630058Y-101530113D01*
X126772191Y-101588987D01*
X126923078Y-101619000D01*
X127050800Y-101619000D01*
X127050801Y-107316190D01*
X127010141Y-107343358D01*
X126901358Y-107452141D01*
X126815887Y-107580058D01*
X126757013Y-107722191D01*
X126727000Y-107873078D01*
X126727000Y-108026922D01*
X126757013Y-108177809D01*
X126815887Y-108319942D01*
X126901358Y-108447859D01*
X127010141Y-108556642D01*
X127138058Y-108642113D01*
X127280191Y-108700987D01*
X127431078Y-108731000D01*
X127584922Y-108731000D01*
X127735809Y-108700987D01*
X127877942Y-108642113D01*
X128005859Y-108556642D01*
X128114642Y-108447859D01*
X128200113Y-108319942D01*
X128258987Y-108177809D01*
X128289000Y-108026922D01*
X128289000Y-107873078D01*
X128258987Y-107722191D01*
X128200113Y-107580058D01*
X128114642Y-107452141D01*
X128005859Y-107343358D01*
X127965200Y-107316191D01*
X127965200Y-101368449D01*
X127967411Y-101345999D01*
X127965200Y-101323549D01*
X127965200Y-101323540D01*
X127958585Y-101256373D01*
X127932441Y-101170191D01*
X127889988Y-101090765D01*
X127889987Y-101090763D01*
X127847170Y-101038592D01*
X127832853Y-101021147D01*
X127815409Y-101006831D01*
X127771460Y-100962882D01*
X127781000Y-100914922D01*
X127781000Y-100761078D01*
X127750987Y-100610191D01*
X127692113Y-100468058D01*
X127606642Y-100340141D01*
X127497859Y-100231358D01*
X127369942Y-100145887D01*
X127227809Y-100087013D01*
X127076922Y-100057000D01*
X126923078Y-100057000D01*
X126772191Y-100087013D01*
X126630058Y-100145887D01*
X126502141Y-100231358D01*
X126393358Y-100340141D01*
X126307887Y-100468058D01*
X126249013Y-100610191D01*
X126219000Y-100761078D01*
X120726200Y-100761078D01*
X120726200Y-93141078D01*
X120758000Y-93141078D01*
X120758000Y-93294922D01*
X120788013Y-93445809D01*
X120846887Y-93587942D01*
X120932358Y-93715859D01*
X121041141Y-93824642D01*
X121169058Y-93910113D01*
X121311191Y-93968987D01*
X121462078Y-93999000D01*
X121615922Y-93999000D01*
X121766809Y-93968987D01*
X121908942Y-93910113D01*
X122036859Y-93824642D01*
X122145642Y-93715859D01*
X122231113Y-93587942D01*
X122289987Y-93445809D01*
X122320000Y-93294922D01*
X122320000Y-93141078D01*
X122289987Y-92990191D01*
X122231113Y-92848058D01*
X122145642Y-92720141D01*
X122036859Y-92611358D01*
X121996200Y-92584191D01*
X121996200Y-92506078D01*
X122663000Y-92506078D01*
X122663000Y-92659922D01*
X122693013Y-92810809D01*
X122751887Y-92952942D01*
X122837358Y-93080859D01*
X122946141Y-93189642D01*
X123074058Y-93275113D01*
X123216191Y-93333987D01*
X123367078Y-93364000D01*
X123520922Y-93364000D01*
X123671809Y-93333987D01*
X123813942Y-93275113D01*
X123941859Y-93189642D01*
X124050642Y-93080859D01*
X124077809Y-93040200D01*
X124565955Y-93040200D01*
X126542800Y-95017046D01*
X126542801Y-96190181D01*
X126502141Y-96217349D01*
X126393358Y-96326132D01*
X126307887Y-96454049D01*
X126249013Y-96596182D01*
X126219000Y-96747069D01*
X126219000Y-96900913D01*
X126249013Y-97051800D01*
X126307887Y-97193933D01*
X126393358Y-97321850D01*
X126502141Y-97430633D01*
X126630058Y-97516104D01*
X126772191Y-97574978D01*
X126923078Y-97604991D01*
X127076922Y-97604991D01*
X127227809Y-97574978D01*
X127369942Y-97516104D01*
X127497859Y-97430633D01*
X127606642Y-97321850D01*
X127692113Y-97193933D01*
X127750987Y-97051800D01*
X127781000Y-96900913D01*
X127781000Y-96747069D01*
X127750987Y-96596182D01*
X127692113Y-96454049D01*
X127606642Y-96326132D01*
X127497859Y-96217349D01*
X127457200Y-96190182D01*
X127457200Y-94850118D01*
X127459411Y-94827668D01*
X127457200Y-94805218D01*
X127457200Y-94805208D01*
X127450585Y-94738041D01*
X127424441Y-94651859D01*
X127381987Y-94572432D01*
X127324853Y-94502815D01*
X127307409Y-94488499D01*
X126410796Y-93591887D01*
X126542078Y-93618000D01*
X126695922Y-93618000D01*
X126846809Y-93587987D01*
X126988942Y-93529113D01*
X127116859Y-93443642D01*
X127225642Y-93334859D01*
X127311113Y-93206942D01*
X127338395Y-93141078D01*
X129775000Y-93141078D01*
X129775000Y-93294922D01*
X129805013Y-93445809D01*
X129863887Y-93587942D01*
X129949358Y-93715859D01*
X130058141Y-93824642D01*
X130098800Y-93851809D01*
X130098801Y-97513540D01*
X130096589Y-97536000D01*
X130098801Y-97558460D01*
X130105416Y-97625627D01*
X130131560Y-97711809D01*
X130174014Y-97791236D01*
X130231148Y-97860853D01*
X130248593Y-97875170D01*
X132197540Y-99824118D01*
X132188000Y-99872078D01*
X132188000Y-100025922D01*
X132218013Y-100176809D01*
X132276887Y-100318942D01*
X132362358Y-100446859D01*
X132471141Y-100555642D01*
X132599058Y-100641113D01*
X132741191Y-100699987D01*
X132892078Y-100730000D01*
X133045922Y-100730000D01*
X133196809Y-100699987D01*
X133338942Y-100641113D01*
X133466859Y-100555642D01*
X133575642Y-100446859D01*
X133661113Y-100318942D01*
X133719987Y-100176809D01*
X133750000Y-100025922D01*
X133750000Y-99872078D01*
X133719987Y-99721191D01*
X133661113Y-99579058D01*
X133575642Y-99451141D01*
X133466859Y-99342358D01*
X133338942Y-99256887D01*
X133196809Y-99198013D01*
X133045922Y-99168000D01*
X132892078Y-99168000D01*
X132844118Y-99177540D01*
X131013200Y-97346623D01*
X131013200Y-93851809D01*
X131053859Y-93824642D01*
X131162642Y-93715859D01*
X131248113Y-93587942D01*
X131306987Y-93445809D01*
X131337000Y-93294922D01*
X131337000Y-93141078D01*
X131306987Y-92990191D01*
X131248113Y-92848058D01*
X131162642Y-92720141D01*
X131053859Y-92611358D01*
X131013200Y-92584191D01*
X131013200Y-88385882D01*
X131037809Y-88380987D01*
X131179942Y-88322113D01*
X131307859Y-88236642D01*
X131416642Y-88127859D01*
X131502113Y-87999942D01*
X131560987Y-87857809D01*
X131591000Y-87706922D01*
X131591000Y-87553078D01*
X131560987Y-87402191D01*
X131502113Y-87260058D01*
X131416642Y-87132141D01*
X131307859Y-87023358D01*
X131179942Y-86937887D01*
X131037809Y-86879013D01*
X130886922Y-86849000D01*
X130733078Y-86849000D01*
X130582191Y-86879013D01*
X130440058Y-86937887D01*
X130312141Y-87023358D01*
X130203358Y-87132141D01*
X130117887Y-87260058D01*
X130059013Y-87402191D01*
X130029000Y-87553078D01*
X130029000Y-87706922D01*
X130059013Y-87857809D01*
X130098801Y-87953865D01*
X130098800Y-92584191D01*
X130058141Y-92611358D01*
X129949358Y-92720141D01*
X129863887Y-92848058D01*
X129805013Y-92990191D01*
X129775000Y-93141078D01*
X127338395Y-93141078D01*
X127369987Y-93064809D01*
X127400000Y-92913922D01*
X127400000Y-92760078D01*
X127369987Y-92609191D01*
X127311113Y-92467058D01*
X127225642Y-92339141D01*
X127116859Y-92230358D01*
X126988942Y-92144887D01*
X126949200Y-92128425D01*
X126949200Y-87882809D01*
X126989859Y-87855642D01*
X127098642Y-87746859D01*
X127184113Y-87618942D01*
X127242987Y-87476809D01*
X127273000Y-87325922D01*
X127273000Y-87172078D01*
X127242987Y-87021191D01*
X127184113Y-86879058D01*
X127098642Y-86751141D01*
X126989859Y-86642358D01*
X126861942Y-86556887D01*
X126719809Y-86498013D01*
X126568922Y-86468000D01*
X126415078Y-86468000D01*
X126264191Y-86498013D01*
X126122058Y-86556887D01*
X125994141Y-86642358D01*
X125885358Y-86751141D01*
X125799887Y-86879058D01*
X125741013Y-87021191D01*
X125711000Y-87172078D01*
X125711000Y-87325922D01*
X125741013Y-87476809D01*
X125799887Y-87618942D01*
X125885358Y-87746859D01*
X125994141Y-87855642D01*
X126034800Y-87882809D01*
X126034801Y-92316698D01*
X126012358Y-92339141D01*
X125926887Y-92467058D01*
X125868013Y-92609191D01*
X125838000Y-92760078D01*
X125838000Y-92913922D01*
X125864113Y-93045204D01*
X125094506Y-92275597D01*
X125080185Y-92258147D01*
X125010568Y-92201013D01*
X124931141Y-92158559D01*
X124844959Y-92132415D01*
X124777792Y-92125800D01*
X124777782Y-92125800D01*
X124755332Y-92123589D01*
X124732882Y-92125800D01*
X124077809Y-92125800D01*
X124050642Y-92085141D01*
X123941859Y-91976358D01*
X123813942Y-91890887D01*
X123671809Y-91832013D01*
X123520922Y-91802000D01*
X123367078Y-91802000D01*
X123216191Y-91832013D01*
X123074058Y-91890887D01*
X122946141Y-91976358D01*
X122837358Y-92085141D01*
X122751887Y-92213058D01*
X122693013Y-92355191D01*
X122663000Y-92506078D01*
X121996200Y-92506078D01*
X121996200Y-81850377D01*
X125097118Y-78749460D01*
X125145078Y-78759000D01*
X125298922Y-78759000D01*
X125449809Y-78728987D01*
X125591942Y-78670113D01*
X125719859Y-78584642D01*
X125828642Y-78475859D01*
X125914113Y-78347942D01*
X125972987Y-78205809D01*
X126003000Y-78054922D01*
X126003000Y-77901078D01*
X125972987Y-77750191D01*
X125914113Y-77608058D01*
X125828642Y-77480141D01*
X125719859Y-77371358D01*
X125591942Y-77285887D01*
X125449809Y-77227013D01*
X125298922Y-77197000D01*
X125145078Y-77197000D01*
X124994191Y-77227013D01*
X124852058Y-77285887D01*
X124724141Y-77371358D01*
X124615358Y-77480141D01*
X124529887Y-77608058D01*
X124471013Y-77750191D01*
X124441000Y-77901078D01*
X124441000Y-78054922D01*
X124450540Y-78102882D01*
X121231597Y-81321826D01*
X121214147Y-81336147D01*
X121157013Y-81405765D01*
X121114559Y-81485192D01*
X121088415Y-81571374D01*
X121081800Y-81638541D01*
X121081800Y-81638550D01*
X121079589Y-81661000D01*
X121081800Y-81683450D01*
X121081801Y-92584190D01*
X121041141Y-92611358D01*
X120932358Y-92720141D01*
X120846887Y-92848058D01*
X120788013Y-92990191D01*
X120758000Y-93141078D01*
X120726200Y-93141078D01*
X120726200Y-80301701D01*
X120787141Y-80362642D01*
X120915058Y-80448113D01*
X121057191Y-80506987D01*
X121208078Y-80537000D01*
X121361922Y-80537000D01*
X121512809Y-80506987D01*
X121654942Y-80448113D01*
X121782859Y-80362642D01*
X121891642Y-80253859D01*
X121977113Y-80125942D01*
X122035987Y-79983809D01*
X122066000Y-79832922D01*
X122066000Y-79679078D01*
X122056460Y-79631117D01*
X125538378Y-76149200D01*
X128906191Y-76149200D01*
X128933358Y-76189859D01*
X129042141Y-76298642D01*
X129170058Y-76384113D01*
X129312191Y-76442987D01*
X129463078Y-76473000D01*
X129616922Y-76473000D01*
X129767809Y-76442987D01*
X129909942Y-76384113D01*
X130037859Y-76298642D01*
X130146642Y-76189859D01*
X130232113Y-76061942D01*
X130290987Y-75919809D01*
X130321000Y-75768922D01*
X130321000Y-75615078D01*
X130290987Y-75464191D01*
X130232113Y-75322058D01*
X130146642Y-75194141D01*
X130037859Y-75085358D01*
X129909942Y-74999887D01*
X129767809Y-74941013D01*
X129616922Y-74911000D01*
X129463078Y-74911000D01*
X129312191Y-74941013D01*
X129170058Y-74999887D01*
X129042141Y-75085358D01*
X128933358Y-75194141D01*
X128906191Y-75234800D01*
X125371450Y-75234800D01*
X125349000Y-75232589D01*
X125326550Y-75234800D01*
X125326540Y-75234800D01*
X125259373Y-75241415D01*
X125173191Y-75267559D01*
X125093764Y-75310013D01*
X125024147Y-75367147D01*
X125009830Y-75384592D01*
X121409883Y-78984540D01*
X121361922Y-78975000D01*
X121274257Y-78975000D01*
X129434058Y-70815200D01*
X129795191Y-70815200D01*
X129822358Y-70855859D01*
X129931141Y-70964642D01*
X130059058Y-71050113D01*
X130201191Y-71108987D01*
X130352078Y-71139000D01*
X130505922Y-71139000D01*
X130656809Y-71108987D01*
X130798942Y-71050113D01*
X130926859Y-70964642D01*
X131035642Y-70855859D01*
X131121113Y-70727942D01*
X131179987Y-70585809D01*
X131210000Y-70434922D01*
X131210000Y-70281078D01*
X131179987Y-70130191D01*
X131121113Y-69988058D01*
X131035642Y-69860141D01*
X130926859Y-69751358D01*
X130798942Y-69665887D01*
X130656809Y-69607013D01*
X130505922Y-69577000D01*
X130352078Y-69577000D01*
X130201191Y-69607013D01*
X130059058Y-69665887D01*
X129931141Y-69751358D01*
X129822358Y-69860141D01*
X129795191Y-69900800D01*
X129267129Y-69900800D01*
X129244679Y-69898589D01*
X129222229Y-69900800D01*
X129222220Y-69900800D01*
X129155053Y-69907415D01*
X129068871Y-69933559D01*
X129031897Y-69953322D01*
X128989443Y-69976013D01*
X128974767Y-69988058D01*
X128919827Y-70033147D01*
X128905510Y-70050592D01*
X119961593Y-78994510D01*
X119944148Y-79008827D01*
X119929831Y-79026272D01*
X119929830Y-79026273D01*
X119887013Y-79078445D01*
X119844560Y-79157871D01*
X119818416Y-79244054D01*
X119809589Y-79333680D01*
X119811801Y-79356140D01*
X119811800Y-107189191D01*
X119771141Y-107216358D01*
X119662358Y-107325141D01*
X119576887Y-107453058D01*
X119518013Y-107595191D01*
X119488000Y-107746078D01*
X117170200Y-107746078D01*
X117170200Y-107210449D01*
X117172411Y-107187999D01*
X117170200Y-107165549D01*
X117170200Y-107165540D01*
X117163585Y-107098373D01*
X117137441Y-107012191D01*
X117094987Y-106932764D01*
X117037853Y-106863147D01*
X117020409Y-106848831D01*
X113293460Y-103121883D01*
X113303000Y-103073922D01*
X113303000Y-102920078D01*
X113272987Y-102769191D01*
X113214113Y-102627058D01*
X113128642Y-102499141D01*
X113019859Y-102390358D01*
X112891942Y-102304887D01*
X112749809Y-102246013D01*
X112598922Y-102216000D01*
X112445078Y-102216000D01*
X112294191Y-102246013D01*
X112152058Y-102304887D01*
X112024141Y-102390358D01*
X111915358Y-102499141D01*
X111829887Y-102627058D01*
X111771013Y-102769191D01*
X111741000Y-102920078D01*
X108810428Y-102920078D01*
X108743488Y-102838512D01*
X108647589Y-102759810D01*
X108538179Y-102701329D01*
X108419462Y-102665317D01*
X108296000Y-102653157D01*
X107096000Y-102653157D01*
X106972538Y-102665317D01*
X106853821Y-102701329D01*
X106744411Y-102759810D01*
X106648512Y-102838512D01*
X106569810Y-102934411D01*
X106511329Y-103043821D01*
X106475317Y-103162538D01*
X106463157Y-103286000D01*
X106235604Y-103286000D01*
X106112180Y-103101283D01*
X105940717Y-102929820D01*
X105739097Y-102795102D01*
X105515069Y-102702307D01*
X105277243Y-102655000D01*
X105034757Y-102655000D01*
X104796931Y-102702307D01*
X104572903Y-102795102D01*
X104371283Y-102929820D01*
X104199820Y-103101283D01*
X104065102Y-103302903D01*
X103972307Y-103526931D01*
X103925000Y-103764757D01*
X103327200Y-103764757D01*
X103327200Y-101224757D01*
X103925000Y-101224757D01*
X103925000Y-101467243D01*
X103972307Y-101705069D01*
X104065102Y-101929097D01*
X104199820Y-102130717D01*
X104371283Y-102302180D01*
X104572903Y-102436898D01*
X104796931Y-102529693D01*
X105034757Y-102577000D01*
X105277243Y-102577000D01*
X105515069Y-102529693D01*
X105739097Y-102436898D01*
X105940717Y-102302180D01*
X106112180Y-102130717D01*
X106246898Y-101929097D01*
X106339693Y-101705069D01*
X106387000Y-101467243D01*
X106387000Y-101224757D01*
X106465000Y-101224757D01*
X106465000Y-101467243D01*
X106512307Y-101705069D01*
X106605102Y-101929097D01*
X106739820Y-102130717D01*
X106911283Y-102302180D01*
X107112903Y-102436898D01*
X107336931Y-102529693D01*
X107574757Y-102577000D01*
X107817243Y-102577000D01*
X108055069Y-102529693D01*
X108279097Y-102436898D01*
X108480717Y-102302180D01*
X108652180Y-102130717D01*
X108786898Y-101929097D01*
X108879693Y-101705069D01*
X108927000Y-101467243D01*
X108927000Y-101224757D01*
X108879693Y-100986931D01*
X108786898Y-100762903D01*
X108652180Y-100561283D01*
X108480717Y-100389820D01*
X108279097Y-100255102D01*
X108055069Y-100162307D01*
X107817243Y-100115000D01*
X107574757Y-100115000D01*
X107336931Y-100162307D01*
X107112903Y-100255102D01*
X106911283Y-100389820D01*
X106739820Y-100561283D01*
X106605102Y-100762903D01*
X106512307Y-100986931D01*
X106465000Y-101224757D01*
X106387000Y-101224757D01*
X106339693Y-100986931D01*
X106246898Y-100762903D01*
X106112180Y-100561283D01*
X105940717Y-100389820D01*
X105739097Y-100255102D01*
X105515069Y-100162307D01*
X105277243Y-100115000D01*
X105034757Y-100115000D01*
X104796931Y-100162307D01*
X104572903Y-100255102D01*
X104371283Y-100389820D01*
X104199820Y-100561283D01*
X104065102Y-100762903D01*
X103972307Y-100986931D01*
X103925000Y-101224757D01*
X103327200Y-101224757D01*
X103327200Y-98684757D01*
X103925000Y-98684757D01*
X103925000Y-98927243D01*
X103972307Y-99165069D01*
X104065102Y-99389097D01*
X104199820Y-99590717D01*
X104371283Y-99762180D01*
X104572903Y-99896898D01*
X104796931Y-99989693D01*
X105034757Y-100037000D01*
X105277243Y-100037000D01*
X105515069Y-99989693D01*
X105739097Y-99896898D01*
X105940717Y-99762180D01*
X106112180Y-99590717D01*
X106246898Y-99389097D01*
X106339693Y-99165069D01*
X106387000Y-98927243D01*
X106387000Y-98684757D01*
X106465000Y-98684757D01*
X106465000Y-98927243D01*
X106512307Y-99165069D01*
X106605102Y-99389097D01*
X106739820Y-99590717D01*
X106911283Y-99762180D01*
X107112903Y-99896898D01*
X107336931Y-99989693D01*
X107574757Y-100037000D01*
X107817243Y-100037000D01*
X108055069Y-99989693D01*
X108279097Y-99896898D01*
X108480717Y-99762180D01*
X108652180Y-99590717D01*
X108786898Y-99389097D01*
X108879693Y-99165069D01*
X108927000Y-98927243D01*
X108927000Y-98684757D01*
X108879693Y-98446931D01*
X108786898Y-98222903D01*
X108652180Y-98021283D01*
X108480717Y-97849820D01*
X108279097Y-97715102D01*
X108055069Y-97622307D01*
X107817243Y-97575000D01*
X107574757Y-97575000D01*
X107336931Y-97622307D01*
X107112903Y-97715102D01*
X106911283Y-97849820D01*
X106739820Y-98021283D01*
X106605102Y-98222903D01*
X106512307Y-98446931D01*
X106465000Y-98684757D01*
X106387000Y-98684757D01*
X106339693Y-98446931D01*
X106246898Y-98222903D01*
X106112180Y-98021283D01*
X105940717Y-97849820D01*
X105739097Y-97715102D01*
X105515069Y-97622307D01*
X105277243Y-97575000D01*
X105034757Y-97575000D01*
X104796931Y-97622307D01*
X104572903Y-97715102D01*
X104371283Y-97849820D01*
X104199820Y-98021283D01*
X104065102Y-98222903D01*
X103972307Y-98446931D01*
X103925000Y-98684757D01*
X103327200Y-98684757D01*
X103327200Y-96144757D01*
X103925000Y-96144757D01*
X103925000Y-96387243D01*
X103972307Y-96625069D01*
X104065102Y-96849097D01*
X104199820Y-97050717D01*
X104371283Y-97222180D01*
X104572903Y-97356898D01*
X104796931Y-97449693D01*
X105034757Y-97497000D01*
X105277243Y-97497000D01*
X105515069Y-97449693D01*
X105739097Y-97356898D01*
X105940717Y-97222180D01*
X106112180Y-97050717D01*
X106246898Y-96849097D01*
X106339693Y-96625069D01*
X106387000Y-96387243D01*
X106387000Y-96144757D01*
X106339693Y-95906931D01*
X106246898Y-95682903D01*
X106112180Y-95481283D01*
X105940717Y-95309820D01*
X105739097Y-95175102D01*
X105515069Y-95082307D01*
X105277243Y-95035000D01*
X105034757Y-95035000D01*
X104796931Y-95082307D01*
X104572903Y-95175102D01*
X104371283Y-95309820D01*
X104199820Y-95481283D01*
X104065102Y-95682903D01*
X103972307Y-95906931D01*
X103925000Y-96144757D01*
X103327200Y-96144757D01*
X103327200Y-93604757D01*
X103925000Y-93604757D01*
X103925000Y-93847243D01*
X103972307Y-94085069D01*
X104065102Y-94309097D01*
X104199820Y-94510717D01*
X104371283Y-94682180D01*
X104572903Y-94816898D01*
X104796931Y-94909693D01*
X105034757Y-94957000D01*
X105277243Y-94957000D01*
X105515069Y-94909693D01*
X105739097Y-94816898D01*
X105940717Y-94682180D01*
X106112180Y-94510717D01*
X106246898Y-94309097D01*
X106339693Y-94085069D01*
X106387000Y-93847243D01*
X106387000Y-93604757D01*
X106339693Y-93366931D01*
X106246898Y-93142903D01*
X106112180Y-92941283D01*
X105940717Y-92769820D01*
X105739097Y-92635102D01*
X105634683Y-92591852D01*
X105789747Y-92536919D01*
X105927157Y-92463472D01*
X106004792Y-92214397D01*
X105156000Y-91365605D01*
X104307208Y-92214397D01*
X104384843Y-92463472D01*
X104648883Y-92589371D01*
X104670228Y-92594789D01*
X104572903Y-92635102D01*
X104371283Y-92769820D01*
X104199820Y-92941283D01*
X104065102Y-93142903D01*
X103972307Y-93366931D01*
X103925000Y-93604757D01*
X103327200Y-93604757D01*
X103327200Y-91254531D01*
X103665389Y-91254531D01*
X103707401Y-91544019D01*
X103805081Y-91819747D01*
X103878528Y-91957157D01*
X104127603Y-92034792D01*
X104976395Y-91186000D01*
X105335605Y-91186000D01*
X106184397Y-92034792D01*
X106426000Y-91959486D01*
X106667603Y-92034792D01*
X107516395Y-91186000D01*
X106667603Y-90337208D01*
X106426000Y-90412514D01*
X106184397Y-90337208D01*
X105335605Y-91186000D01*
X104976395Y-91186000D01*
X104127603Y-90337208D01*
X103878528Y-90414843D01*
X103752629Y-90678883D01*
X103680661Y-90962411D01*
X103665389Y-91254531D01*
X103327200Y-91254531D01*
X103327200Y-88524757D01*
X103925000Y-88524757D01*
X103925000Y-88767243D01*
X103972307Y-89005069D01*
X104065102Y-89229097D01*
X104199820Y-89430717D01*
X104371283Y-89602180D01*
X104572903Y-89736898D01*
X104677317Y-89780148D01*
X104522253Y-89835081D01*
X104384843Y-89908528D01*
X104307208Y-90157603D01*
X105156000Y-91006395D01*
X106004792Y-90157603D01*
X105927157Y-89908528D01*
X105663117Y-89782629D01*
X105641772Y-89777211D01*
X105739097Y-89736898D01*
X105940717Y-89602180D01*
X106112180Y-89430717D01*
X106246898Y-89229097D01*
X106339693Y-89005069D01*
X106387000Y-88767243D01*
X106387000Y-88524757D01*
X106465000Y-88524757D01*
X106465000Y-88767243D01*
X106512307Y-89005069D01*
X106605102Y-89229097D01*
X106739820Y-89430717D01*
X106911283Y-89602180D01*
X107112903Y-89736898D01*
X107217317Y-89780148D01*
X107062253Y-89835081D01*
X106924843Y-89908528D01*
X106847208Y-90157603D01*
X107696000Y-91006395D01*
X107710143Y-90992253D01*
X107889748Y-91171858D01*
X107875605Y-91186000D01*
X108724397Y-92034792D01*
X108889800Y-91983237D01*
X108889801Y-93417745D01*
X108879693Y-93366931D01*
X108786898Y-93142903D01*
X108652180Y-92941283D01*
X108480717Y-92769820D01*
X108279097Y-92635102D01*
X108174683Y-92591852D01*
X108329747Y-92536919D01*
X108467157Y-92463472D01*
X108544792Y-92214397D01*
X107696000Y-91365605D01*
X106847208Y-92214397D01*
X106924843Y-92463472D01*
X107188883Y-92589371D01*
X107210228Y-92594789D01*
X107112903Y-92635102D01*
X106911283Y-92769820D01*
X106739820Y-92941283D01*
X106605102Y-93142903D01*
X106512307Y-93366931D01*
X106465000Y-93604757D01*
X106465000Y-93847243D01*
X106512307Y-94085069D01*
X106605102Y-94309097D01*
X106739820Y-94510717D01*
X106911283Y-94682180D01*
X107112903Y-94816898D01*
X107336931Y-94909693D01*
X107574757Y-94957000D01*
X107817243Y-94957000D01*
X108055069Y-94909693D01*
X108279097Y-94816898D01*
X108480717Y-94682180D01*
X108652180Y-94510717D01*
X108786898Y-94309097D01*
X108879693Y-94085069D01*
X108889801Y-94034255D01*
X108889801Y-95124190D01*
X108849141Y-95151358D01*
X108740358Y-95260141D01*
X108654887Y-95388058D01*
X108626789Y-95455892D01*
X108480717Y-95309820D01*
X108279097Y-95175102D01*
X108055069Y-95082307D01*
X107817243Y-95035000D01*
X107574757Y-95035000D01*
X107336931Y-95082307D01*
X107112903Y-95175102D01*
X106911283Y-95309820D01*
X106739820Y-95481283D01*
X106605102Y-95682903D01*
X106512307Y-95906931D01*
X106465000Y-96144757D01*
X106465000Y-96387243D01*
X106512307Y-96625069D01*
X106605102Y-96849097D01*
X106739820Y-97050717D01*
X106911283Y-97222180D01*
X107112903Y-97356898D01*
X107336931Y-97449693D01*
X107574757Y-97497000D01*
X107817243Y-97497000D01*
X108055069Y-97449693D01*
X108279097Y-97356898D01*
X108480717Y-97222180D01*
X108652180Y-97050717D01*
X108786898Y-96849097D01*
X108879693Y-96625069D01*
X108921834Y-96413214D01*
X108977058Y-96450113D01*
X109119191Y-96508987D01*
X109270078Y-96539000D01*
X109423922Y-96539000D01*
X109574809Y-96508987D01*
X109716942Y-96450113D01*
X109844859Y-96364642D01*
X109953642Y-96255859D01*
X110039113Y-96127942D01*
X110097987Y-95985809D01*
X110128000Y-95834922D01*
X110128000Y-95681078D01*
X110097987Y-95530191D01*
X110039113Y-95388058D01*
X109953642Y-95260141D01*
X109844859Y-95151358D01*
X109804200Y-95124191D01*
X109804200Y-90319450D01*
X109806411Y-90297000D01*
X109804200Y-90274550D01*
X109804200Y-90274540D01*
X109797585Y-90207373D01*
X109777526Y-90141249D01*
X109771441Y-90121190D01*
X109728987Y-90041764D01*
X109686171Y-89989592D01*
X109686165Y-89989586D01*
X109671853Y-89972147D01*
X109654415Y-89957836D01*
X109281657Y-89585078D01*
X114027000Y-89585078D01*
X114027000Y-89738922D01*
X114057013Y-89889809D01*
X114115887Y-90031942D01*
X114201358Y-90159859D01*
X114310141Y-90268642D01*
X114350801Y-90295810D01*
X114350800Y-92433550D01*
X114348589Y-92456000D01*
X114350800Y-92478450D01*
X114350800Y-92478459D01*
X114357415Y-92545626D01*
X114383559Y-92631808D01*
X114426013Y-92711235D01*
X114483147Y-92780853D01*
X114500597Y-92795174D01*
X115179540Y-93474117D01*
X115170000Y-93522078D01*
X115170000Y-93675922D01*
X115200013Y-93826809D01*
X115258887Y-93968942D01*
X115344358Y-94096859D01*
X115453141Y-94205642D01*
X115581058Y-94291113D01*
X115723191Y-94349987D01*
X115874078Y-94380000D01*
X116027922Y-94380000D01*
X116178809Y-94349987D01*
X116320942Y-94291113D01*
X116448859Y-94205642D01*
X116557642Y-94096859D01*
X116631228Y-93986729D01*
X116723141Y-94078642D01*
X116763800Y-94105810D01*
X116763801Y-94469000D01*
X116763078Y-94469000D01*
X116612191Y-94499013D01*
X116470058Y-94557887D01*
X116342141Y-94643358D01*
X116233358Y-94752141D01*
X116147887Y-94880058D01*
X116089013Y-95022191D01*
X116059000Y-95173078D01*
X116059000Y-95326922D01*
X116089013Y-95477809D01*
X116147887Y-95619942D01*
X116233358Y-95747859D01*
X116342141Y-95856642D01*
X116470058Y-95942113D01*
X116612191Y-96000987D01*
X116763078Y-96031000D01*
X116916922Y-96031000D01*
X117067809Y-96000987D01*
X117209942Y-95942113D01*
X117337859Y-95856642D01*
X117446642Y-95747859D01*
X117532113Y-95619942D01*
X117590987Y-95477809D01*
X117621000Y-95326922D01*
X117621000Y-95173078D01*
X117609034Y-95112923D01*
X117645440Y-95044810D01*
X117645441Y-95044809D01*
X117671585Y-94958627D01*
X117678200Y-94891460D01*
X117678200Y-94891451D01*
X117680411Y-94869001D01*
X117678200Y-94846551D01*
X117678200Y-94105809D01*
X117718859Y-94078642D01*
X117827642Y-93969859D01*
X117913113Y-93841942D01*
X117971987Y-93699809D01*
X118002000Y-93548922D01*
X118002000Y-93395078D01*
X117971987Y-93244191D01*
X117913113Y-93102058D01*
X117827642Y-92974141D01*
X117718859Y-92865358D01*
X117590942Y-92779887D01*
X117448809Y-92721013D01*
X117297922Y-92691000D01*
X117144078Y-92691000D01*
X116993191Y-92721013D01*
X116851058Y-92779887D01*
X116723141Y-92865358D01*
X116614358Y-92974141D01*
X116540772Y-93084271D01*
X116448859Y-92992358D01*
X116320942Y-92906887D01*
X116178809Y-92848013D01*
X116027922Y-92818000D01*
X115874078Y-92818000D01*
X115826117Y-92827540D01*
X115265200Y-92266623D01*
X115265200Y-90295809D01*
X115305859Y-90268642D01*
X115414642Y-90159859D01*
X115500113Y-90031942D01*
X115558987Y-89889809D01*
X115589000Y-89738922D01*
X115589000Y-89585078D01*
X115558987Y-89434191D01*
X115500113Y-89292058D01*
X115414642Y-89164141D01*
X115305859Y-89055358D01*
X115177942Y-88969887D01*
X115035809Y-88911013D01*
X114884922Y-88881000D01*
X114731078Y-88881000D01*
X114580191Y-88911013D01*
X114438058Y-88969887D01*
X114310141Y-89055358D01*
X114201358Y-89164141D01*
X114115887Y-89292058D01*
X114057013Y-89434191D01*
X114027000Y-89585078D01*
X109281657Y-89585078D01*
X108827545Y-89130967D01*
X108879693Y-89005069D01*
X108927000Y-88767243D01*
X108927000Y-88524757D01*
X108879693Y-88286931D01*
X108786898Y-88062903D01*
X108652180Y-87861283D01*
X108480717Y-87689820D01*
X108279097Y-87555102D01*
X108055069Y-87462307D01*
X107817243Y-87415000D01*
X107574757Y-87415000D01*
X107336931Y-87462307D01*
X107112903Y-87555102D01*
X106911283Y-87689820D01*
X106739820Y-87861283D01*
X106605102Y-88062903D01*
X106512307Y-88286931D01*
X106465000Y-88524757D01*
X106387000Y-88524757D01*
X106339693Y-88286931D01*
X106246898Y-88062903D01*
X106112180Y-87861283D01*
X105940717Y-87689820D01*
X105739097Y-87555102D01*
X105515069Y-87462307D01*
X105277243Y-87415000D01*
X105034757Y-87415000D01*
X104796931Y-87462307D01*
X104572903Y-87555102D01*
X104371283Y-87689820D01*
X104199820Y-87861283D01*
X104065102Y-88062903D01*
X103972307Y-88286931D01*
X103925000Y-88524757D01*
X103327200Y-88524757D01*
X103327200Y-85984757D01*
X103925000Y-85984757D01*
X103925000Y-86227243D01*
X103972307Y-86465069D01*
X104065102Y-86689097D01*
X104199820Y-86890717D01*
X104371283Y-87062180D01*
X104572903Y-87196898D01*
X104796931Y-87289693D01*
X105034757Y-87337000D01*
X105277243Y-87337000D01*
X105515069Y-87289693D01*
X105739097Y-87196898D01*
X105940717Y-87062180D01*
X106112180Y-86890717D01*
X106246898Y-86689097D01*
X106339693Y-86465069D01*
X106387000Y-86227243D01*
X106387000Y-85984757D01*
X106339693Y-85746931D01*
X106246898Y-85522903D01*
X106112180Y-85321283D01*
X105940717Y-85149820D01*
X105739097Y-85015102D01*
X105515069Y-84922307D01*
X105277243Y-84875000D01*
X105034757Y-84875000D01*
X104796931Y-84922307D01*
X104572903Y-85015102D01*
X104371283Y-85149820D01*
X104199820Y-85321283D01*
X104065102Y-85522903D01*
X103972307Y-85746931D01*
X103925000Y-85984757D01*
X103327200Y-85984757D01*
X103327200Y-78364757D01*
X103925000Y-78364757D01*
X103925000Y-78607243D01*
X103972307Y-78845069D01*
X104065102Y-79069097D01*
X104199820Y-79270717D01*
X104371283Y-79442180D01*
X104572903Y-79576898D01*
X104796931Y-79669693D01*
X105034757Y-79717000D01*
X105277243Y-79717000D01*
X105515069Y-79669693D01*
X105640967Y-79617545D01*
X106160199Y-80136777D01*
X106160199Y-80313149D01*
X106112180Y-80241283D01*
X105940717Y-80069820D01*
X105739097Y-79935102D01*
X105515069Y-79842307D01*
X105277243Y-79795000D01*
X105034757Y-79795000D01*
X104796931Y-79842307D01*
X104572903Y-79935102D01*
X104371283Y-80069820D01*
X104199820Y-80241283D01*
X104065102Y-80442903D01*
X103972307Y-80666931D01*
X103925000Y-80904757D01*
X103925000Y-81147243D01*
X103972307Y-81385069D01*
X104065102Y-81609097D01*
X104199820Y-81810717D01*
X104371283Y-81982180D01*
X104572903Y-82116898D01*
X104796931Y-82209693D01*
X105034757Y-82257000D01*
X105277243Y-82257000D01*
X105515069Y-82209693D01*
X105739097Y-82116898D01*
X105940717Y-81982180D01*
X106112180Y-81810717D01*
X106160199Y-81738851D01*
X106160200Y-82853150D01*
X106112180Y-82781283D01*
X105940717Y-82609820D01*
X105739097Y-82475102D01*
X105515069Y-82382307D01*
X105277243Y-82335000D01*
X105034757Y-82335000D01*
X104796931Y-82382307D01*
X104572903Y-82475102D01*
X104371283Y-82609820D01*
X104199820Y-82781283D01*
X104065102Y-82982903D01*
X103972307Y-83206931D01*
X103925000Y-83444757D01*
X103925000Y-83687243D01*
X103972307Y-83925069D01*
X104065102Y-84149097D01*
X104199820Y-84350717D01*
X104371283Y-84522180D01*
X104572903Y-84656898D01*
X104796931Y-84749693D01*
X105034757Y-84797000D01*
X105277243Y-84797000D01*
X105515069Y-84749693D01*
X105739097Y-84656898D01*
X105940717Y-84522180D01*
X106112180Y-84350717D01*
X106186759Y-84239101D01*
X106192959Y-84259538D01*
X106235412Y-84338964D01*
X106267513Y-84378078D01*
X106292547Y-84408582D01*
X106309992Y-84422899D01*
X106986592Y-85099500D01*
X106911283Y-85149820D01*
X106739820Y-85321283D01*
X106605102Y-85522903D01*
X106512307Y-85746931D01*
X106465000Y-85984757D01*
X106465000Y-86227243D01*
X106512307Y-86465069D01*
X106605102Y-86689097D01*
X106739820Y-86890717D01*
X106911283Y-87062180D01*
X107112903Y-87196898D01*
X107336931Y-87289693D01*
X107574757Y-87337000D01*
X107817243Y-87337000D01*
X108055069Y-87289693D01*
X108279097Y-87196898D01*
X108480717Y-87062180D01*
X108649198Y-86893699D01*
X108722141Y-86966642D01*
X108850058Y-87052113D01*
X108992191Y-87110987D01*
X109143078Y-87141000D01*
X109296922Y-87141000D01*
X109447809Y-87110987D01*
X109589942Y-87052113D01*
X109717859Y-86966642D01*
X109826642Y-86857859D01*
X109912113Y-86729942D01*
X109970987Y-86587809D01*
X110001000Y-86436922D01*
X110001000Y-86283078D01*
X109970987Y-86132191D01*
X109912113Y-85990058D01*
X109826642Y-85862141D01*
X109717859Y-85753358D01*
X109589942Y-85667887D01*
X109447809Y-85609013D01*
X109440459Y-85607551D01*
X109050491Y-85217583D01*
X109143078Y-85236000D01*
X109296922Y-85236000D01*
X109447809Y-85205987D01*
X109589942Y-85147113D01*
X109717859Y-85061642D01*
X109826642Y-84952859D01*
X109912113Y-84824942D01*
X109970987Y-84682809D01*
X110001000Y-84531922D01*
X110001000Y-84505078D01*
X112884000Y-84505078D01*
X112884000Y-84658922D01*
X112914013Y-84809809D01*
X112972887Y-84951942D01*
X113058358Y-85079859D01*
X113167141Y-85188642D01*
X113295058Y-85274113D01*
X113437191Y-85332987D01*
X113588078Y-85363000D01*
X113741922Y-85363000D01*
X113892809Y-85332987D01*
X114034942Y-85274113D01*
X114162859Y-85188642D01*
X114271642Y-85079859D01*
X114298809Y-85039200D01*
X115684699Y-85039200D01*
X115707141Y-85061642D01*
X115835058Y-85147113D01*
X115977191Y-85205987D01*
X116128078Y-85236000D01*
X116281922Y-85236000D01*
X116432809Y-85205987D01*
X116574942Y-85147113D01*
X116702859Y-85061642D01*
X116811642Y-84952859D01*
X116897113Y-84824942D01*
X116955987Y-84682809D01*
X116986000Y-84531922D01*
X116986000Y-84378078D01*
X116955987Y-84227191D01*
X116897113Y-84085058D01*
X116811642Y-83957141D01*
X116702859Y-83848358D01*
X116574942Y-83762887D01*
X116432809Y-83704013D01*
X116281922Y-83674000D01*
X116128078Y-83674000D01*
X115977191Y-83704013D01*
X115835058Y-83762887D01*
X115707141Y-83848358D01*
X115598358Y-83957141D01*
X115512887Y-84085058D01*
X115496425Y-84124800D01*
X114298809Y-84124800D01*
X114271642Y-84084141D01*
X114162859Y-83975358D01*
X114034942Y-83889887D01*
X113892809Y-83831013D01*
X113741922Y-83801000D01*
X113588078Y-83801000D01*
X113437191Y-83831013D01*
X113295058Y-83889887D01*
X113167141Y-83975358D01*
X113058358Y-84084141D01*
X112972887Y-84212058D01*
X112914013Y-84354191D01*
X112884000Y-84505078D01*
X110001000Y-84505078D01*
X110001000Y-84378078D01*
X109970987Y-84227191D01*
X109912113Y-84085058D01*
X109826642Y-83957141D01*
X109717859Y-83848358D01*
X109677200Y-83821191D01*
X109677200Y-83235078D01*
X109709000Y-83235078D01*
X109709000Y-83388922D01*
X109739013Y-83539809D01*
X109797887Y-83681942D01*
X109883358Y-83809859D01*
X109992141Y-83918642D01*
X110120058Y-84004113D01*
X110262191Y-84062987D01*
X110413078Y-84093000D01*
X110566922Y-84093000D01*
X110717809Y-84062987D01*
X110859942Y-84004113D01*
X110987859Y-83918642D01*
X111096642Y-83809859D01*
X111182113Y-83681942D01*
X111240987Y-83539809D01*
X111271000Y-83388922D01*
X111271000Y-83235078D01*
X111240987Y-83084191D01*
X111182113Y-82942058D01*
X111096642Y-82814141D01*
X111074200Y-82791699D01*
X111074200Y-78611809D01*
X111114859Y-78584642D01*
X111223642Y-78475859D01*
X111309113Y-78347942D01*
X111367987Y-78205809D01*
X111398000Y-78054922D01*
X111398000Y-77901078D01*
X111367987Y-77750191D01*
X111309113Y-77608058D01*
X111223642Y-77480141D01*
X111114859Y-77371358D01*
X110986942Y-77285887D01*
X110844809Y-77227013D01*
X110693922Y-77197000D01*
X110540078Y-77197000D01*
X110389191Y-77227013D01*
X110247058Y-77285887D01*
X110119141Y-77371358D01*
X110010358Y-77480141D01*
X109924887Y-77608058D01*
X109866013Y-77750191D01*
X109836000Y-77901078D01*
X109836000Y-78054922D01*
X109866013Y-78205809D01*
X109924887Y-78347942D01*
X110010358Y-78475859D01*
X110119141Y-78584642D01*
X110159800Y-78611809D01*
X110159801Y-82603425D01*
X110120058Y-82619887D01*
X109992141Y-82705358D01*
X109883358Y-82814141D01*
X109797887Y-82942058D01*
X109739013Y-83084191D01*
X109709000Y-83235078D01*
X109677200Y-83235078D01*
X109677200Y-80032449D01*
X109679411Y-80009999D01*
X109677200Y-79987549D01*
X109677200Y-79987540D01*
X109670585Y-79920373D01*
X109644441Y-79834191D01*
X109601988Y-79754765D01*
X109601987Y-79754763D01*
X109559170Y-79702592D01*
X109544853Y-79685147D01*
X109527409Y-79670831D01*
X108827545Y-78970967D01*
X108879693Y-78845069D01*
X108927000Y-78607243D01*
X108927000Y-78364757D01*
X108879693Y-78126931D01*
X108786898Y-77902903D01*
X108652180Y-77701283D01*
X108480717Y-77529820D01*
X108279097Y-77395102D01*
X108055069Y-77302307D01*
X107817243Y-77255000D01*
X107574757Y-77255000D01*
X107336931Y-77302307D01*
X107112903Y-77395102D01*
X106911283Y-77529820D01*
X106739820Y-77701283D01*
X106605102Y-77902903D01*
X106512307Y-78126931D01*
X106465000Y-78364757D01*
X106465000Y-78607243D01*
X106512307Y-78845069D01*
X106605102Y-79069097D01*
X106739820Y-79270717D01*
X106911283Y-79442180D01*
X107112903Y-79576898D01*
X107336931Y-79669693D01*
X107574757Y-79717000D01*
X107817243Y-79717000D01*
X108055069Y-79669693D01*
X108180967Y-79617545D01*
X108762800Y-80199378D01*
X108762800Y-80406838D01*
X108652180Y-80241283D01*
X108480717Y-80069820D01*
X108279097Y-79935102D01*
X108055069Y-79842307D01*
X107817243Y-79795000D01*
X107574757Y-79795000D01*
X107336931Y-79842307D01*
X107112903Y-79935102D01*
X107075564Y-79960051D01*
X107076810Y-79947398D01*
X107074599Y-79924948D01*
X107074599Y-79924939D01*
X107067984Y-79857772D01*
X107041840Y-79771590D01*
X107022077Y-79734616D01*
X106999386Y-79692162D01*
X106956569Y-79639991D01*
X106942252Y-79622546D01*
X106924808Y-79608230D01*
X106287545Y-78970967D01*
X106339693Y-78845069D01*
X106387000Y-78607243D01*
X106387000Y-78364757D01*
X106339693Y-78126931D01*
X106246898Y-77902903D01*
X106112180Y-77701283D01*
X105940717Y-77529820D01*
X105739097Y-77395102D01*
X105515069Y-77302307D01*
X105277243Y-77255000D01*
X105034757Y-77255000D01*
X104796931Y-77302307D01*
X104572903Y-77395102D01*
X104371283Y-77529820D01*
X104199820Y-77701283D01*
X104065102Y-77902903D01*
X103972307Y-78126931D01*
X103925000Y-78364757D01*
X103327200Y-78364757D01*
X103327200Y-75824757D01*
X103925000Y-75824757D01*
X103925000Y-76067243D01*
X103972307Y-76305069D01*
X104065102Y-76529097D01*
X104199820Y-76730717D01*
X104371283Y-76902180D01*
X104572903Y-77036898D01*
X104796931Y-77129693D01*
X105034757Y-77177000D01*
X105277243Y-77177000D01*
X105515069Y-77129693D01*
X105739097Y-77036898D01*
X105940717Y-76902180D01*
X106112180Y-76730717D01*
X106246898Y-76529097D01*
X106339693Y-76305069D01*
X106387000Y-76067243D01*
X106387000Y-75824757D01*
X106465000Y-75824757D01*
X106465000Y-76067243D01*
X106512307Y-76305069D01*
X106605102Y-76529097D01*
X106739820Y-76730717D01*
X106911283Y-76902180D01*
X107112903Y-77036898D01*
X107336931Y-77129693D01*
X107574757Y-77177000D01*
X107817243Y-77177000D01*
X108055069Y-77129693D01*
X108279097Y-77036898D01*
X108480717Y-76902180D01*
X108652180Y-76730717D01*
X108786898Y-76529097D01*
X108879693Y-76305069D01*
X108927000Y-76067243D01*
X108927000Y-75824757D01*
X108879693Y-75586931D01*
X108786898Y-75362903D01*
X108652180Y-75161283D01*
X108480717Y-74989820D01*
X108279097Y-74855102D01*
X108055069Y-74762307D01*
X107817243Y-74715000D01*
X107574757Y-74715000D01*
X107336931Y-74762307D01*
X107112903Y-74855102D01*
X106911283Y-74989820D01*
X106739820Y-75161283D01*
X106605102Y-75362903D01*
X106512307Y-75586931D01*
X106465000Y-75824757D01*
X106387000Y-75824757D01*
X106339693Y-75586931D01*
X106246898Y-75362903D01*
X106112180Y-75161283D01*
X105940717Y-74989820D01*
X105739097Y-74855102D01*
X105515069Y-74762307D01*
X105277243Y-74715000D01*
X105034757Y-74715000D01*
X104796931Y-74762307D01*
X104572903Y-74855102D01*
X104371283Y-74989820D01*
X104199820Y-75161283D01*
X104065102Y-75362903D01*
X103972307Y-75586931D01*
X103925000Y-75824757D01*
X103327200Y-75824757D01*
X103327200Y-75323301D01*
X103349642Y-75300859D01*
X103435113Y-75172942D01*
X103493987Y-75030809D01*
X103524000Y-74879922D01*
X103524000Y-74726078D01*
X103493987Y-74575191D01*
X103435113Y-74433058D01*
X103349642Y-74305141D01*
X103240859Y-74196358D01*
X103112942Y-74110887D01*
X102970809Y-74052013D01*
X102819922Y-74022000D01*
X102666078Y-74022000D01*
X102515191Y-74052013D01*
X102373058Y-74110887D01*
X102245141Y-74196358D01*
X102136358Y-74305141D01*
X102050887Y-74433058D01*
X101992013Y-74575191D01*
X101962000Y-74726078D01*
X100906000Y-74726078D01*
X100906000Y-73284757D01*
X103925000Y-73284757D01*
X103925000Y-73527243D01*
X103972307Y-73765069D01*
X104065102Y-73989097D01*
X104199820Y-74190717D01*
X104371283Y-74362180D01*
X104572903Y-74496898D01*
X104796931Y-74589693D01*
X105034757Y-74637000D01*
X105277243Y-74637000D01*
X105515069Y-74589693D01*
X105739097Y-74496898D01*
X105940717Y-74362180D01*
X106112180Y-74190717D01*
X106246898Y-73989097D01*
X106339693Y-73765069D01*
X106387000Y-73527243D01*
X106387000Y-73284757D01*
X106465000Y-73284757D01*
X106465000Y-73527243D01*
X106512307Y-73765069D01*
X106605102Y-73989097D01*
X106739820Y-74190717D01*
X106911283Y-74362180D01*
X107112903Y-74496898D01*
X107336931Y-74589693D01*
X107574757Y-74637000D01*
X107817243Y-74637000D01*
X108055069Y-74589693D01*
X108279097Y-74496898D01*
X108480717Y-74362180D01*
X108652180Y-74190717D01*
X108786898Y-73989097D01*
X108879693Y-73765069D01*
X108927000Y-73527243D01*
X108927000Y-73284757D01*
X108879693Y-73046931D01*
X108786898Y-72822903D01*
X108785679Y-72821078D01*
X114154000Y-72821078D01*
X114154000Y-72974922D01*
X114184013Y-73125809D01*
X114242887Y-73267942D01*
X114328358Y-73395859D01*
X114437141Y-73504642D01*
X114477801Y-73531810D01*
X114477800Y-80773191D01*
X114437141Y-80800358D01*
X114328358Y-80909141D01*
X114242887Y-81037058D01*
X114184013Y-81179191D01*
X114154000Y-81330078D01*
X114154000Y-81483922D01*
X114184013Y-81634809D01*
X114242887Y-81776942D01*
X114328358Y-81904859D01*
X114437141Y-82013642D01*
X114565058Y-82099113D01*
X114707191Y-82157987D01*
X114858078Y-82188000D01*
X115011922Y-82188000D01*
X115162809Y-82157987D01*
X115304942Y-82099113D01*
X115432859Y-82013642D01*
X115541642Y-81904859D01*
X115627113Y-81776942D01*
X115685987Y-81634809D01*
X115716000Y-81483922D01*
X115716000Y-81330078D01*
X115685987Y-81179191D01*
X115627113Y-81037058D01*
X115541642Y-80909141D01*
X115432859Y-80800358D01*
X115392200Y-80773191D01*
X115392200Y-76885078D01*
X119361000Y-76885078D01*
X119361000Y-77038922D01*
X119391013Y-77189809D01*
X119449887Y-77331942D01*
X119535358Y-77459859D01*
X119644141Y-77568642D01*
X119772058Y-77654113D01*
X119914191Y-77712987D01*
X120065078Y-77743000D01*
X120218922Y-77743000D01*
X120369809Y-77712987D01*
X120511942Y-77654113D01*
X120639859Y-77568642D01*
X120748642Y-77459859D01*
X120834113Y-77331942D01*
X120892987Y-77189809D01*
X120923000Y-77038922D01*
X120923000Y-76885078D01*
X120892987Y-76734191D01*
X120834113Y-76592058D01*
X120748642Y-76464141D01*
X120639859Y-76355358D01*
X120599200Y-76328191D01*
X120599200Y-73722377D01*
X120906117Y-73415460D01*
X120954078Y-73425000D01*
X121107922Y-73425000D01*
X121258809Y-73394987D01*
X121400942Y-73336113D01*
X121528859Y-73250642D01*
X121637642Y-73141859D01*
X121723113Y-73013942D01*
X121781987Y-72871809D01*
X121812000Y-72720922D01*
X121812000Y-72567078D01*
X121781987Y-72416191D01*
X121723113Y-72274058D01*
X121637642Y-72146141D01*
X121528859Y-72037358D01*
X121400942Y-71951887D01*
X121258809Y-71893013D01*
X121107922Y-71863000D01*
X120954078Y-71863000D01*
X120803191Y-71893013D01*
X120661058Y-71951887D01*
X120533141Y-72037358D01*
X120424358Y-72146141D01*
X120338887Y-72274058D01*
X120280013Y-72416191D01*
X120250000Y-72567078D01*
X120250000Y-72720922D01*
X120259540Y-72768883D01*
X119834597Y-73193826D01*
X119817147Y-73208147D01*
X119760013Y-73277765D01*
X119717559Y-73357192D01*
X119691415Y-73443374D01*
X119684800Y-73510541D01*
X119684800Y-73510550D01*
X119682589Y-73533000D01*
X119684800Y-73555450D01*
X119684801Y-76328190D01*
X119644141Y-76355358D01*
X119535358Y-76464141D01*
X119449887Y-76592058D01*
X119391013Y-76734191D01*
X119361000Y-76885078D01*
X115392200Y-76885078D01*
X115392200Y-73531809D01*
X115432859Y-73504642D01*
X115541642Y-73395859D01*
X115627113Y-73267942D01*
X115685987Y-73125809D01*
X115716000Y-72974922D01*
X115716000Y-72821078D01*
X115685987Y-72670191D01*
X115627113Y-72528058D01*
X115541642Y-72400141D01*
X115432859Y-72291358D01*
X115304942Y-72205887D01*
X115162809Y-72147013D01*
X115011922Y-72117000D01*
X114858078Y-72117000D01*
X114707191Y-72147013D01*
X114565058Y-72205887D01*
X114437141Y-72291358D01*
X114328358Y-72400141D01*
X114242887Y-72528058D01*
X114184013Y-72670191D01*
X114154000Y-72821078D01*
X108785679Y-72821078D01*
X108652180Y-72621283D01*
X108480717Y-72449820D01*
X108279097Y-72315102D01*
X108055069Y-72222307D01*
X107817243Y-72175000D01*
X107574757Y-72175000D01*
X107336931Y-72222307D01*
X107112903Y-72315102D01*
X106911283Y-72449820D01*
X106739820Y-72621283D01*
X106605102Y-72822903D01*
X106512307Y-73046931D01*
X106465000Y-73284757D01*
X106387000Y-73284757D01*
X106339693Y-73046931D01*
X106246898Y-72822903D01*
X106112180Y-72621283D01*
X105940717Y-72449820D01*
X105739097Y-72315102D01*
X105515069Y-72222307D01*
X105277243Y-72175000D01*
X105034757Y-72175000D01*
X104796931Y-72222307D01*
X104572903Y-72315102D01*
X104371283Y-72449820D01*
X104199820Y-72621283D01*
X104065102Y-72822903D01*
X103972307Y-73046931D01*
X103925000Y-73284757D01*
X100906000Y-73284757D01*
X100906000Y-66406000D01*
X141094000Y-66406000D01*
X141094001Y-111094000D01*
%TD*%
M02*
