M48
; DRILL file {KiCad (5.1.6)-1} date 03/15/21 21:03:44
; FORMAT={-:-/ absolute / inch / decimal}
; #@! TF.CreationDate,2021-03-15T21:03:44-07:00
; #@! TF.GenerationSoftware,Kicad,Pcbnew,(5.1.6)-1
; #@! TF.FileFunction,Plated,1,2,PTH
FMAT,2
INCH
T1C0.0157
T2C0.0394
%
G90
G05
T1
X4.0157Y-3.1496
X4.0157Y-3.3071
X4.0157Y-3.4646
X4.0157Y-3.622
X4.0157Y-3.7795
X4.0157Y-3.937
X4.0157Y-4.1339
X4.045Y-2.945
X4.05Y-4.33
X4.0551Y-2.6772
X4.0551Y-2.8346
X4.2126Y-2.6772
X4.3Y-3.325
X4.3Y-3.4
X4.305Y-3.77
X4.35Y-3.28
X4.355Y-3.07
X4.3701Y-2.6772
X4.43Y-4.055
X4.475Y-3.33
X4.52Y-3.53
X4.525Y-2.87
X4.525Y-3.205
X4.565Y-3.685
X4.575Y-3.325
X4.595Y-4.3
X4.6Y-3.75
X4.615Y-3.68
X4.73Y-3.03
X4.735Y-4.245
X4.765Y-2.86
X4.775Y-3.14
X4.785Y-3.67
X4.85Y-3.77
X4.86Y-3.645
X4.93Y-3.07
X4.975Y-3.745
X4.98Y-3.435
X4.985Y-3.655
X5.0Y-3.812
X5.0Y-3.97
X5.02Y-4.25
X5.1Y-2.98
X5.105Y-4.335
X5.115Y-3.96
X5.135Y-2.77
X5.14Y-3.67
X5.15Y-3.45
X5.235Y-3.935
X5.315Y-2.6772
X5.315Y-3.1496
X5.315Y-4.1339
X5.315Y-4.2913
X5.4724Y-2.6772
X5.4724Y-2.8346
X5.4724Y-2.9921
X5.4724Y-3.1496
X5.4724Y-3.3071
X5.4724Y-3.4646
X5.4724Y-3.622
X5.4724Y-3.9764
X5.4724Y-4.1339
X5.4724Y-4.2913
T2
X4.14Y-2.89
X4.14Y-2.99
X4.14Y-3.09
X4.14Y-3.19
X4.14Y-3.29
X4.14Y-3.39
X4.14Y-3.49
X4.14Y-3.59
X4.14Y-3.69
X4.14Y-3.79
X4.14Y-3.89
X4.14Y-3.99
X4.14Y-4.09
X4.24Y-2.89
X4.24Y-2.99
X4.24Y-3.09
X4.24Y-3.19
X4.24Y-3.29
X4.24Y-3.39
X4.24Y-3.49
X4.24Y-3.59
X4.24Y-3.69
X4.24Y-3.79
X4.24Y-3.89
X4.24Y-3.99
X4.24Y-4.09
T0
M30
