%TF.GenerationSoftware,KiCad,Pcbnew,(5.1.6)-1*%
%TF.CreationDate,2021-03-15T21:03:39-07:00*%
%TF.ProjectId,ECUOutputs,4543554f-7574-4707-9574-732e6b696361,rev?*%
%TF.SameCoordinates,Original*%
%TF.FileFunction,Soldermask,Top*%
%TF.FilePolarity,Negative*%
%FSLAX46Y46*%
G04 Gerber Fmt 4.6, Leading zero omitted, Abs format (unit mm)*
G04 Created by KiCad (PCBNEW (5.1.6)-1) date 2021-03-15 21:03:39*
%MOMM*%
%LPD*%
G01*
G04 APERTURE LIST*
%ADD10C,1.800000*%
%ADD11R,1.000000X0.900000*%
%ADD12R,0.900000X1.000000*%
%ADD13R,1.000000X1.300000*%
%ADD14R,1.300000X1.000000*%
G04 APERTURE END LIST*
D10*
%TO.C,J4*%
X105156000Y-73406000D03*
X105156000Y-75946000D03*
X105156000Y-78486000D03*
X105156000Y-81026000D03*
X105156000Y-83566000D03*
X105156000Y-86106000D03*
X105156000Y-88646000D03*
X105156000Y-91186000D03*
X105156000Y-93726000D03*
X105156000Y-96266000D03*
X105156000Y-98806000D03*
X105156000Y-101346000D03*
X105156000Y-103886000D03*
X107696000Y-73406000D03*
X107696000Y-75946000D03*
X107696000Y-78486000D03*
X107696000Y-81026000D03*
X107696000Y-83566000D03*
X107696000Y-86106000D03*
X107696000Y-88646000D03*
X107696000Y-91186000D03*
X107696000Y-93726000D03*
X107696000Y-96266000D03*
X107696000Y-98806000D03*
X107696000Y-101346000D03*
G36*
G01*
X108596000Y-103250706D02*
X108596000Y-104521294D01*
G75*
G02*
X108331294Y-104786000I-264706J0D01*
G01*
X107060706Y-104786000D01*
G75*
G02*
X106796000Y-104521294I0J264706D01*
G01*
X106796000Y-103250706D01*
G75*
G02*
X107060706Y-102986000I264706J0D01*
G01*
X108331294Y-102986000D01*
G75*
G02*
X108596000Y-103250706I0J-264706D01*
G01*
G37*
%TD*%
%TO.C,R39*%
G36*
G01*
X113762500Y-80491250D02*
X113762500Y-79528750D01*
G75*
G02*
X114031250Y-79260000I268750J0D01*
G01*
X114568750Y-79260000D01*
G75*
G02*
X114837500Y-79528750I0J-268750D01*
G01*
X114837500Y-80491250D01*
G75*
G02*
X114568750Y-80760000I-268750J0D01*
G01*
X114031250Y-80760000D01*
G75*
G02*
X113762500Y-80491250I0J268750D01*
G01*
G37*
G36*
G01*
X111887500Y-80491250D02*
X111887500Y-79528750D01*
G75*
G02*
X112156250Y-79260000I268750J0D01*
G01*
X112693750Y-79260000D01*
G75*
G02*
X112962500Y-79528750I0J-268750D01*
G01*
X112962500Y-80491250D01*
G75*
G02*
X112693750Y-80760000I-268750J0D01*
G01*
X112156250Y-80760000D01*
G75*
G02*
X111887500Y-80491250I0J268750D01*
G01*
G37*
%TD*%
%TO.C,R38*%
G36*
G01*
X132655500Y-72617250D02*
X132655500Y-71654750D01*
G75*
G02*
X132924250Y-71386000I268750J0D01*
G01*
X133461750Y-71386000D01*
G75*
G02*
X133730500Y-71654750I0J-268750D01*
G01*
X133730500Y-72617250D01*
G75*
G02*
X133461750Y-72886000I-268750J0D01*
G01*
X132924250Y-72886000D01*
G75*
G02*
X132655500Y-72617250I0J268750D01*
G01*
G37*
G36*
G01*
X130780500Y-72617250D02*
X130780500Y-71654750D01*
G75*
G02*
X131049250Y-71386000I268750J0D01*
G01*
X131586750Y-71386000D01*
G75*
G02*
X131855500Y-71654750I0J-268750D01*
G01*
X131855500Y-72617250D01*
G75*
G02*
X131586750Y-72886000I-268750J0D01*
G01*
X131049250Y-72886000D01*
G75*
G02*
X130780500Y-72617250I0J268750D01*
G01*
G37*
%TD*%
%TO.C,R37*%
G36*
G01*
X129132250Y-69020500D02*
X128169750Y-69020500D01*
G75*
G02*
X127901000Y-68751750I0J268750D01*
G01*
X127901000Y-68214250D01*
G75*
G02*
X128169750Y-67945500I268750J0D01*
G01*
X129132250Y-67945500D01*
G75*
G02*
X129401000Y-68214250I0J-268750D01*
G01*
X129401000Y-68751750D01*
G75*
G02*
X129132250Y-69020500I-268750J0D01*
G01*
G37*
G36*
G01*
X129132250Y-70895500D02*
X128169750Y-70895500D01*
G75*
G02*
X127901000Y-70626750I0J268750D01*
G01*
X127901000Y-70089250D01*
G75*
G02*
X128169750Y-69820500I268750J0D01*
G01*
X129132250Y-69820500D01*
G75*
G02*
X129401000Y-70089250I0J-268750D01*
G01*
X129401000Y-70626750D01*
G75*
G02*
X129132250Y-70895500I-268750J0D01*
G01*
G37*
%TD*%
%TO.C,R36*%
G36*
G01*
X113470500Y-108103750D02*
X113470500Y-109066250D01*
G75*
G02*
X113201750Y-109335000I-268750J0D01*
G01*
X112664250Y-109335000D01*
G75*
G02*
X112395500Y-109066250I0J268750D01*
G01*
X112395500Y-108103750D01*
G75*
G02*
X112664250Y-107835000I268750J0D01*
G01*
X113201750Y-107835000D01*
G75*
G02*
X113470500Y-108103750I0J-268750D01*
G01*
G37*
G36*
G01*
X115345500Y-108103750D02*
X115345500Y-109066250D01*
G75*
G02*
X115076750Y-109335000I-268750J0D01*
G01*
X114539250Y-109335000D01*
G75*
G02*
X114270500Y-109066250I0J268750D01*
G01*
X114270500Y-108103750D01*
G75*
G02*
X114539250Y-107835000I268750J0D01*
G01*
X115076750Y-107835000D01*
G75*
G02*
X115345500Y-108103750I0J-268750D01*
G01*
G37*
%TD*%
%TO.C,R35*%
G36*
G01*
X119447500Y-69315250D02*
X119447500Y-68352750D01*
G75*
G02*
X119716250Y-68084000I268750J0D01*
G01*
X120253750Y-68084000D01*
G75*
G02*
X120522500Y-68352750I0J-268750D01*
G01*
X120522500Y-69315250D01*
G75*
G02*
X120253750Y-69584000I-268750J0D01*
G01*
X119716250Y-69584000D01*
G75*
G02*
X119447500Y-69315250I0J268750D01*
G01*
G37*
G36*
G01*
X117572500Y-69315250D02*
X117572500Y-68352750D01*
G75*
G02*
X117841250Y-68084000I268750J0D01*
G01*
X118378750Y-68084000D01*
G75*
G02*
X118647500Y-68352750I0J-268750D01*
G01*
X118647500Y-69315250D01*
G75*
G02*
X118378750Y-69584000I-268750J0D01*
G01*
X117841250Y-69584000D01*
G75*
G02*
X117572500Y-69315250I0J268750D01*
G01*
G37*
%TD*%
%TO.C,R34*%
G36*
G01*
X130869500Y-81433750D02*
X130869500Y-82396250D01*
G75*
G02*
X130600750Y-82665000I-268750J0D01*
G01*
X130063250Y-82665000D01*
G75*
G02*
X129794500Y-82396250I0J268750D01*
G01*
X129794500Y-81433750D01*
G75*
G02*
X130063250Y-81165000I268750J0D01*
G01*
X130600750Y-81165000D01*
G75*
G02*
X130869500Y-81433750I0J-268750D01*
G01*
G37*
G36*
G01*
X132744500Y-81433750D02*
X132744500Y-82396250D01*
G75*
G02*
X132475750Y-82665000I-268750J0D01*
G01*
X131938250Y-82665000D01*
G75*
G02*
X131669500Y-82396250I0J268750D01*
G01*
X131669500Y-81433750D01*
G75*
G02*
X131938250Y-81165000I268750J0D01*
G01*
X132475750Y-81165000D01*
G75*
G02*
X132744500Y-81433750I0J-268750D01*
G01*
G37*
%TD*%
%TO.C,R33*%
G36*
G01*
X130839500Y-79401750D02*
X130839500Y-80364250D01*
G75*
G02*
X130570750Y-80633000I-268750J0D01*
G01*
X130033250Y-80633000D01*
G75*
G02*
X129764500Y-80364250I0J268750D01*
G01*
X129764500Y-79401750D01*
G75*
G02*
X130033250Y-79133000I268750J0D01*
G01*
X130570750Y-79133000D01*
G75*
G02*
X130839500Y-79401750I0J-268750D01*
G01*
G37*
G36*
G01*
X132714500Y-79401750D02*
X132714500Y-80364250D01*
G75*
G02*
X132445750Y-80633000I-268750J0D01*
G01*
X131908250Y-80633000D01*
G75*
G02*
X131639500Y-80364250I0J268750D01*
G01*
X131639500Y-79401750D01*
G75*
G02*
X131908250Y-79133000I268750J0D01*
G01*
X132445750Y-79133000D01*
G75*
G02*
X132714500Y-79401750I0J-268750D01*
G01*
G37*
%TD*%
%TO.C,R32*%
G36*
G01*
X122495500Y-71728250D02*
X122495500Y-70765750D01*
G75*
G02*
X122764250Y-70497000I268750J0D01*
G01*
X123301750Y-70497000D01*
G75*
G02*
X123570500Y-70765750I0J-268750D01*
G01*
X123570500Y-71728250D01*
G75*
G02*
X123301750Y-71997000I-268750J0D01*
G01*
X122764250Y-71997000D01*
G75*
G02*
X122495500Y-71728250I0J268750D01*
G01*
G37*
G36*
G01*
X120620500Y-71728250D02*
X120620500Y-70765750D01*
G75*
G02*
X120889250Y-70497000I268750J0D01*
G01*
X121426750Y-70497000D01*
G75*
G02*
X121695500Y-70765750I0J-268750D01*
G01*
X121695500Y-71728250D01*
G75*
G02*
X121426750Y-71997000I-268750J0D01*
G01*
X120889250Y-71997000D01*
G75*
G02*
X120620500Y-71728250I0J268750D01*
G01*
G37*
%TD*%
%TO.C,R31*%
G36*
G01*
X132655500Y-74649250D02*
X132655500Y-73686750D01*
G75*
G02*
X132924250Y-73418000I268750J0D01*
G01*
X133461750Y-73418000D01*
G75*
G02*
X133730500Y-73686750I0J-268750D01*
G01*
X133730500Y-74649250D01*
G75*
G02*
X133461750Y-74918000I-268750J0D01*
G01*
X132924250Y-74918000D01*
G75*
G02*
X132655500Y-74649250I0J268750D01*
G01*
G37*
G36*
G01*
X130780500Y-74649250D02*
X130780500Y-73686750D01*
G75*
G02*
X131049250Y-73418000I268750J0D01*
G01*
X131586750Y-73418000D01*
G75*
G02*
X131855500Y-73686750I0J-268750D01*
G01*
X131855500Y-74649250D01*
G75*
G02*
X131586750Y-74918000I-268750J0D01*
G01*
X131049250Y-74918000D01*
G75*
G02*
X130780500Y-74649250I0J268750D01*
G01*
G37*
%TD*%
%TO.C,R30*%
G36*
G01*
X119353250Y-74197500D02*
X118390750Y-74197500D01*
G75*
G02*
X118122000Y-73928750I0J268750D01*
G01*
X118122000Y-73391250D01*
G75*
G02*
X118390750Y-73122500I268750J0D01*
G01*
X119353250Y-73122500D01*
G75*
G02*
X119622000Y-73391250I0J-268750D01*
G01*
X119622000Y-73928750D01*
G75*
G02*
X119353250Y-74197500I-268750J0D01*
G01*
G37*
G36*
G01*
X119353250Y-76072500D02*
X118390750Y-76072500D01*
G75*
G02*
X118122000Y-75803750I0J268750D01*
G01*
X118122000Y-75266250D01*
G75*
G02*
X118390750Y-74997500I268750J0D01*
G01*
X119353250Y-74997500D01*
G75*
G02*
X119622000Y-75266250I0J-268750D01*
G01*
X119622000Y-75803750D01*
G75*
G02*
X119353250Y-76072500I-268750J0D01*
G01*
G37*
%TD*%
%TO.C,R29*%
G36*
G01*
X126391750Y-77410500D02*
X127354250Y-77410500D01*
G75*
G02*
X127623000Y-77679250I0J-268750D01*
G01*
X127623000Y-78216750D01*
G75*
G02*
X127354250Y-78485500I-268750J0D01*
G01*
X126391750Y-78485500D01*
G75*
G02*
X126123000Y-78216750I0J268750D01*
G01*
X126123000Y-77679250D01*
G75*
G02*
X126391750Y-77410500I268750J0D01*
G01*
G37*
G36*
G01*
X126391750Y-75535500D02*
X127354250Y-75535500D01*
G75*
G02*
X127623000Y-75804250I0J-268750D01*
G01*
X127623000Y-76341750D01*
G75*
G02*
X127354250Y-76610500I-268750J0D01*
G01*
X126391750Y-76610500D01*
G75*
G02*
X126123000Y-76341750I0J268750D01*
G01*
X126123000Y-75804250D01*
G75*
G02*
X126391750Y-75535500I268750J0D01*
G01*
G37*
%TD*%
%TO.C,R28*%
G36*
G01*
X127313500Y-79401750D02*
X127313500Y-80364250D01*
G75*
G02*
X127044750Y-80633000I-268750J0D01*
G01*
X126507250Y-80633000D01*
G75*
G02*
X126238500Y-80364250I0J268750D01*
G01*
X126238500Y-79401750D01*
G75*
G02*
X126507250Y-79133000I268750J0D01*
G01*
X127044750Y-79133000D01*
G75*
G02*
X127313500Y-79401750I0J-268750D01*
G01*
G37*
G36*
G01*
X129188500Y-79401750D02*
X129188500Y-80364250D01*
G75*
G02*
X128919750Y-80633000I-268750J0D01*
G01*
X128382250Y-80633000D01*
G75*
G02*
X128113500Y-80364250I0J268750D01*
G01*
X128113500Y-79401750D01*
G75*
G02*
X128382250Y-79133000I268750J0D01*
G01*
X128919750Y-79133000D01*
G75*
G02*
X129188500Y-79401750I0J-268750D01*
G01*
G37*
%TD*%
%TO.C,R27*%
G36*
G01*
X115629500Y-82322750D02*
X115629500Y-83285250D01*
G75*
G02*
X115360750Y-83554000I-268750J0D01*
G01*
X114823250Y-83554000D01*
G75*
G02*
X114554500Y-83285250I0J268750D01*
G01*
X114554500Y-82322750D01*
G75*
G02*
X114823250Y-82054000I268750J0D01*
G01*
X115360750Y-82054000D01*
G75*
G02*
X115629500Y-82322750I0J-268750D01*
G01*
G37*
G36*
G01*
X117504500Y-82322750D02*
X117504500Y-83285250D01*
G75*
G02*
X117235750Y-83554000I-268750J0D01*
G01*
X116698250Y-83554000D01*
G75*
G02*
X116429500Y-83285250I0J268750D01*
G01*
X116429500Y-82322750D01*
G75*
G02*
X116698250Y-82054000I268750J0D01*
G01*
X117235750Y-82054000D01*
G75*
G02*
X117504500Y-82322750I0J-268750D01*
G01*
G37*
%TD*%
%TO.C,R26*%
G36*
G01*
X113859500Y-71855250D02*
X113859500Y-70892750D01*
G75*
G02*
X114128250Y-70624000I268750J0D01*
G01*
X114665750Y-70624000D01*
G75*
G02*
X114934500Y-70892750I0J-268750D01*
G01*
X114934500Y-71855250D01*
G75*
G02*
X114665750Y-72124000I-268750J0D01*
G01*
X114128250Y-72124000D01*
G75*
G02*
X113859500Y-71855250I0J268750D01*
G01*
G37*
G36*
G01*
X111984500Y-71855250D02*
X111984500Y-70892750D01*
G75*
G02*
X112253250Y-70624000I268750J0D01*
G01*
X112790750Y-70624000D01*
G75*
G02*
X113059500Y-70892750I0J-268750D01*
G01*
X113059500Y-71855250D01*
G75*
G02*
X112790750Y-72124000I-268750J0D01*
G01*
X112253250Y-72124000D01*
G75*
G02*
X111984500Y-71855250I0J268750D01*
G01*
G37*
%TD*%
%TO.C,R25*%
G36*
G01*
X135863250Y-97311500D02*
X134900750Y-97311500D01*
G75*
G02*
X134632000Y-97042750I0J268750D01*
G01*
X134632000Y-96505250D01*
G75*
G02*
X134900750Y-96236500I268750J0D01*
G01*
X135863250Y-96236500D01*
G75*
G02*
X136132000Y-96505250I0J-268750D01*
G01*
X136132000Y-97042750D01*
G75*
G02*
X135863250Y-97311500I-268750J0D01*
G01*
G37*
G36*
G01*
X135863250Y-99186500D02*
X134900750Y-99186500D01*
G75*
G02*
X134632000Y-98917750I0J268750D01*
G01*
X134632000Y-98380250D01*
G75*
G02*
X134900750Y-98111500I268750J0D01*
G01*
X135863250Y-98111500D01*
G75*
G02*
X136132000Y-98380250I0J-268750D01*
G01*
X136132000Y-98917750D01*
G75*
G02*
X135863250Y-99186500I-268750J0D01*
G01*
G37*
%TD*%
%TO.C,R24*%
G36*
G01*
X113811000Y-101827250D02*
X113811000Y-100864750D01*
G75*
G02*
X114079750Y-100596000I268750J0D01*
G01*
X114617250Y-100596000D01*
G75*
G02*
X114886000Y-100864750I0J-268750D01*
G01*
X114886000Y-101827250D01*
G75*
G02*
X114617250Y-102096000I-268750J0D01*
G01*
X114079750Y-102096000D01*
G75*
G02*
X113811000Y-101827250I0J268750D01*
G01*
G37*
G36*
G01*
X111936000Y-101827250D02*
X111936000Y-100864750D01*
G75*
G02*
X112204750Y-100596000I268750J0D01*
G01*
X112742250Y-100596000D01*
G75*
G02*
X113011000Y-100864750I0J-268750D01*
G01*
X113011000Y-101827250D01*
G75*
G02*
X112742250Y-102096000I-268750J0D01*
G01*
X112204750Y-102096000D01*
G75*
G02*
X111936000Y-101827250I0J268750D01*
G01*
G37*
%TD*%
%TO.C,R23*%
G36*
G01*
X137776000Y-96419750D02*
X137776000Y-97382250D01*
G75*
G02*
X137507250Y-97651000I-268750J0D01*
G01*
X136969750Y-97651000D01*
G75*
G02*
X136701000Y-97382250I0J268750D01*
G01*
X136701000Y-96419750D01*
G75*
G02*
X136969750Y-96151000I268750J0D01*
G01*
X137507250Y-96151000D01*
G75*
G02*
X137776000Y-96419750I0J-268750D01*
G01*
G37*
G36*
G01*
X139651000Y-96419750D02*
X139651000Y-97382250D01*
G75*
G02*
X139382250Y-97651000I-268750J0D01*
G01*
X138844750Y-97651000D01*
G75*
G02*
X138576000Y-97382250I0J268750D01*
G01*
X138576000Y-96419750D01*
G75*
G02*
X138844750Y-96151000I268750J0D01*
G01*
X139382250Y-96151000D01*
G75*
G02*
X139651000Y-96419750I0J-268750D01*
G01*
G37*
%TD*%
%TO.C,R22*%
G36*
G01*
X133544500Y-93191250D02*
X133544500Y-92228750D01*
G75*
G02*
X133813250Y-91960000I268750J0D01*
G01*
X134350750Y-91960000D01*
G75*
G02*
X134619500Y-92228750I0J-268750D01*
G01*
X134619500Y-93191250D01*
G75*
G02*
X134350750Y-93460000I-268750J0D01*
G01*
X133813250Y-93460000D01*
G75*
G02*
X133544500Y-93191250I0J268750D01*
G01*
G37*
G36*
G01*
X131669500Y-93191250D02*
X131669500Y-92228750D01*
G75*
G02*
X131938250Y-91960000I268750J0D01*
G01*
X132475750Y-91960000D01*
G75*
G02*
X132744500Y-92228750I0J-268750D01*
G01*
X132744500Y-93191250D01*
G75*
G02*
X132475750Y-93460000I-268750J0D01*
G01*
X131938250Y-93460000D01*
G75*
G02*
X131669500Y-93191250I0J268750D01*
G01*
G37*
%TD*%
%TO.C,R21*%
G36*
G01*
X133623000Y-95350250D02*
X133623000Y-94387750D01*
G75*
G02*
X133891750Y-94119000I268750J0D01*
G01*
X134429250Y-94119000D01*
G75*
G02*
X134698000Y-94387750I0J-268750D01*
G01*
X134698000Y-95350250D01*
G75*
G02*
X134429250Y-95619000I-268750J0D01*
G01*
X133891750Y-95619000D01*
G75*
G02*
X133623000Y-95350250I0J268750D01*
G01*
G37*
G36*
G01*
X131748000Y-95350250D02*
X131748000Y-94387750D01*
G75*
G02*
X132016750Y-94119000I268750J0D01*
G01*
X132554250Y-94119000D01*
G75*
G02*
X132823000Y-94387750I0J-268750D01*
G01*
X132823000Y-95350250D01*
G75*
G02*
X132554250Y-95619000I-268750J0D01*
G01*
X132016750Y-95619000D01*
G75*
G02*
X131748000Y-95350250I0J268750D01*
G01*
G37*
%TD*%
%TO.C,R20*%
G36*
G01*
X112884000Y-95403750D02*
X112884000Y-96366250D01*
G75*
G02*
X112615250Y-96635000I-268750J0D01*
G01*
X112077750Y-96635000D01*
G75*
G02*
X111809000Y-96366250I0J268750D01*
G01*
X111809000Y-95403750D01*
G75*
G02*
X112077750Y-95135000I268750J0D01*
G01*
X112615250Y-95135000D01*
G75*
G02*
X112884000Y-95403750I0J-268750D01*
G01*
G37*
G36*
G01*
X114759000Y-95403750D02*
X114759000Y-96366250D01*
G75*
G02*
X114490250Y-96635000I-268750J0D01*
G01*
X113952750Y-96635000D01*
G75*
G02*
X113684000Y-96366250I0J268750D01*
G01*
X113684000Y-95403750D01*
G75*
G02*
X113952750Y-95135000I268750J0D01*
G01*
X114490250Y-95135000D01*
G75*
G02*
X114759000Y-95403750I0J-268750D01*
G01*
G37*
%TD*%
%TO.C,R19*%
G36*
G01*
X112932500Y-97562750D02*
X112932500Y-98525250D01*
G75*
G02*
X112663750Y-98794000I-268750J0D01*
G01*
X112126250Y-98794000D01*
G75*
G02*
X111857500Y-98525250I0J268750D01*
G01*
X111857500Y-97562750D01*
G75*
G02*
X112126250Y-97294000I268750J0D01*
G01*
X112663750Y-97294000D01*
G75*
G02*
X112932500Y-97562750I0J-268750D01*
G01*
G37*
G36*
G01*
X114807500Y-97562750D02*
X114807500Y-98525250D01*
G75*
G02*
X114538750Y-98794000I-268750J0D01*
G01*
X114001250Y-98794000D01*
G75*
G02*
X113732500Y-98525250I0J268750D01*
G01*
X113732500Y-97562750D01*
G75*
G02*
X114001250Y-97294000I268750J0D01*
G01*
X114538750Y-97294000D01*
G75*
G02*
X114807500Y-97562750I0J-268750D01*
G01*
G37*
%TD*%
%TO.C,R18*%
G36*
G01*
X112932500Y-93244750D02*
X112932500Y-94207250D01*
G75*
G02*
X112663750Y-94476000I-268750J0D01*
G01*
X112126250Y-94476000D01*
G75*
G02*
X111857500Y-94207250I0J268750D01*
G01*
X111857500Y-93244750D01*
G75*
G02*
X112126250Y-92976000I268750J0D01*
G01*
X112663750Y-92976000D01*
G75*
G02*
X112932500Y-93244750I0J-268750D01*
G01*
G37*
G36*
G01*
X114807500Y-93244750D02*
X114807500Y-94207250D01*
G75*
G02*
X114538750Y-94476000I-268750J0D01*
G01*
X114001250Y-94476000D01*
G75*
G02*
X113732500Y-94207250I0J268750D01*
G01*
X113732500Y-93244750D01*
G75*
G02*
X114001250Y-92976000I268750J0D01*
G01*
X114538750Y-92976000D01*
G75*
G02*
X114807500Y-93244750I0J-268750D01*
G01*
G37*
%TD*%
%TO.C,R17*%
G36*
G01*
X112932500Y-90958750D02*
X112932500Y-91921250D01*
G75*
G02*
X112663750Y-92190000I-268750J0D01*
G01*
X112126250Y-92190000D01*
G75*
G02*
X111857500Y-91921250I0J268750D01*
G01*
X111857500Y-90958750D01*
G75*
G02*
X112126250Y-90690000I268750J0D01*
G01*
X112663750Y-90690000D01*
G75*
G02*
X112932500Y-90958750I0J-268750D01*
G01*
G37*
G36*
G01*
X114807500Y-90958750D02*
X114807500Y-91921250D01*
G75*
G02*
X114538750Y-92190000I-268750J0D01*
G01*
X114001250Y-92190000D01*
G75*
G02*
X113732500Y-91921250I0J268750D01*
G01*
X113732500Y-90958750D01*
G75*
G02*
X114001250Y-90690000I268750J0D01*
G01*
X114538750Y-90690000D01*
G75*
G02*
X114807500Y-90958750I0J-268750D01*
G01*
G37*
%TD*%
%TO.C,R16*%
G36*
G01*
X128677750Y-94555500D02*
X129640250Y-94555500D01*
G75*
G02*
X129909000Y-94824250I0J-268750D01*
G01*
X129909000Y-95361750D01*
G75*
G02*
X129640250Y-95630500I-268750J0D01*
G01*
X128677750Y-95630500D01*
G75*
G02*
X128409000Y-95361750I0J268750D01*
G01*
X128409000Y-94824250D01*
G75*
G02*
X128677750Y-94555500I268750J0D01*
G01*
G37*
G36*
G01*
X128677750Y-92680500D02*
X129640250Y-92680500D01*
G75*
G02*
X129909000Y-92949250I0J-268750D01*
G01*
X129909000Y-93486750D01*
G75*
G02*
X129640250Y-93755500I-268750J0D01*
G01*
X128677750Y-93755500D01*
G75*
G02*
X128409000Y-93486750I0J268750D01*
G01*
X128409000Y-92949250D01*
G75*
G02*
X128677750Y-92680500I268750J0D01*
G01*
G37*
%TD*%
%TO.C,R15*%
G36*
G01*
X131979750Y-88870500D02*
X132942250Y-88870500D01*
G75*
G02*
X133211000Y-89139250I0J-268750D01*
G01*
X133211000Y-89676750D01*
G75*
G02*
X132942250Y-89945500I-268750J0D01*
G01*
X131979750Y-89945500D01*
G75*
G02*
X131711000Y-89676750I0J268750D01*
G01*
X131711000Y-89139250D01*
G75*
G02*
X131979750Y-88870500I268750J0D01*
G01*
G37*
G36*
G01*
X131979750Y-86995500D02*
X132942250Y-86995500D01*
G75*
G02*
X133211000Y-87264250I0J-268750D01*
G01*
X133211000Y-87801750D01*
G75*
G02*
X132942250Y-88070500I-268750J0D01*
G01*
X131979750Y-88070500D01*
G75*
G02*
X131711000Y-87801750I0J268750D01*
G01*
X131711000Y-87264250D01*
G75*
G02*
X131979750Y-86995500I268750J0D01*
G01*
G37*
%TD*%
%TO.C,R14*%
G36*
G01*
X125378500Y-82830750D02*
X125378500Y-83793250D01*
G75*
G02*
X125109750Y-84062000I-268750J0D01*
G01*
X124572250Y-84062000D01*
G75*
G02*
X124303500Y-83793250I0J268750D01*
G01*
X124303500Y-82830750D01*
G75*
G02*
X124572250Y-82562000I268750J0D01*
G01*
X125109750Y-82562000D01*
G75*
G02*
X125378500Y-82830750I0J-268750D01*
G01*
G37*
G36*
G01*
X127253500Y-82830750D02*
X127253500Y-83793250D01*
G75*
G02*
X126984750Y-84062000I-268750J0D01*
G01*
X126447250Y-84062000D01*
G75*
G02*
X126178500Y-83793250I0J268750D01*
G01*
X126178500Y-82830750D01*
G75*
G02*
X126447250Y-82562000I268750J0D01*
G01*
X126984750Y-82562000D01*
G75*
G02*
X127253500Y-82830750I0J-268750D01*
G01*
G37*
%TD*%
%TO.C,R13*%
G36*
G01*
X128677750Y-90872500D02*
X129640250Y-90872500D01*
G75*
G02*
X129909000Y-91141250I0J-268750D01*
G01*
X129909000Y-91678750D01*
G75*
G02*
X129640250Y-91947500I-268750J0D01*
G01*
X128677750Y-91947500D01*
G75*
G02*
X128409000Y-91678750I0J268750D01*
G01*
X128409000Y-91141250D01*
G75*
G02*
X128677750Y-90872500I268750J0D01*
G01*
G37*
G36*
G01*
X128677750Y-88997500D02*
X129640250Y-88997500D01*
G75*
G02*
X129909000Y-89266250I0J-268750D01*
G01*
X129909000Y-89803750D01*
G75*
G02*
X129640250Y-90072500I-268750J0D01*
G01*
X128677750Y-90072500D01*
G75*
G02*
X128409000Y-89803750I0J268750D01*
G01*
X128409000Y-89266250D01*
G75*
G02*
X128677750Y-88997500I268750J0D01*
G01*
G37*
%TD*%
%TO.C,R12*%
G36*
G01*
X132520500Y-85116750D02*
X132520500Y-86079250D01*
G75*
G02*
X132251750Y-86348000I-268750J0D01*
G01*
X131714250Y-86348000D01*
G75*
G02*
X131445500Y-86079250I0J268750D01*
G01*
X131445500Y-85116750D01*
G75*
G02*
X131714250Y-84848000I268750J0D01*
G01*
X132251750Y-84848000D01*
G75*
G02*
X132520500Y-85116750I0J-268750D01*
G01*
G37*
G36*
G01*
X134395500Y-85116750D02*
X134395500Y-86079250D01*
G75*
G02*
X134126750Y-86348000I-268750J0D01*
G01*
X133589250Y-86348000D01*
G75*
G02*
X133320500Y-86079250I0J268750D01*
G01*
X133320500Y-85116750D01*
G75*
G02*
X133589250Y-84848000I268750J0D01*
G01*
X134126750Y-84848000D01*
G75*
G02*
X134395500Y-85116750I0J-268750D01*
G01*
G37*
%TD*%
%TO.C,R11*%
G36*
G01*
X116488500Y-85497750D02*
X116488500Y-86460250D01*
G75*
G02*
X116219750Y-86729000I-268750J0D01*
G01*
X115682250Y-86729000D01*
G75*
G02*
X115413500Y-86460250I0J268750D01*
G01*
X115413500Y-85497750D01*
G75*
G02*
X115682250Y-85229000I268750J0D01*
G01*
X116219750Y-85229000D01*
G75*
G02*
X116488500Y-85497750I0J-268750D01*
G01*
G37*
G36*
G01*
X118363500Y-85497750D02*
X118363500Y-86460250D01*
G75*
G02*
X118094750Y-86729000I-268750J0D01*
G01*
X117557250Y-86729000D01*
G75*
G02*
X117288500Y-86460250I0J268750D01*
G01*
X117288500Y-85497750D01*
G75*
G02*
X117557250Y-85229000I268750J0D01*
G01*
X118094750Y-85229000D01*
G75*
G02*
X118363500Y-85497750I0J-268750D01*
G01*
G37*
%TD*%
%TO.C,R10*%
G36*
G01*
X116518500Y-87656750D02*
X116518500Y-88619250D01*
G75*
G02*
X116249750Y-88888000I-268750J0D01*
G01*
X115712250Y-88888000D01*
G75*
G02*
X115443500Y-88619250I0J268750D01*
G01*
X115443500Y-87656750D01*
G75*
G02*
X115712250Y-87388000I268750J0D01*
G01*
X116249750Y-87388000D01*
G75*
G02*
X116518500Y-87656750I0J-268750D01*
G01*
G37*
G36*
G01*
X118393500Y-87656750D02*
X118393500Y-88619250D01*
G75*
G02*
X118124750Y-88888000I-268750J0D01*
G01*
X117587250Y-88888000D01*
G75*
G02*
X117318500Y-88619250I0J268750D01*
G01*
X117318500Y-87656750D01*
G75*
G02*
X117587250Y-87388000I268750J0D01*
G01*
X118124750Y-87388000D01*
G75*
G02*
X118393500Y-87656750I0J-268750D01*
G01*
G37*
%TD*%
%TO.C,R9*%
G36*
G01*
X112932500Y-87656750D02*
X112932500Y-88619250D01*
G75*
G02*
X112663750Y-88888000I-268750J0D01*
G01*
X112126250Y-88888000D01*
G75*
G02*
X111857500Y-88619250I0J268750D01*
G01*
X111857500Y-87656750D01*
G75*
G02*
X112126250Y-87388000I268750J0D01*
G01*
X112663750Y-87388000D01*
G75*
G02*
X112932500Y-87656750I0J-268750D01*
G01*
G37*
G36*
G01*
X114807500Y-87656750D02*
X114807500Y-88619250D01*
G75*
G02*
X114538750Y-88888000I-268750J0D01*
G01*
X114001250Y-88888000D01*
G75*
G02*
X113732500Y-88619250I0J268750D01*
G01*
X113732500Y-87656750D01*
G75*
G02*
X114001250Y-87388000I268750J0D01*
G01*
X114538750Y-87388000D01*
G75*
G02*
X114807500Y-87656750I0J-268750D01*
G01*
G37*
%TD*%
%TO.C,R8*%
G36*
G01*
X112932500Y-85497750D02*
X112932500Y-86460250D01*
G75*
G02*
X112663750Y-86729000I-268750J0D01*
G01*
X112126250Y-86729000D01*
G75*
G02*
X111857500Y-86460250I0J268750D01*
G01*
X111857500Y-85497750D01*
G75*
G02*
X112126250Y-85229000I268750J0D01*
G01*
X112663750Y-85229000D01*
G75*
G02*
X112932500Y-85497750I0J-268750D01*
G01*
G37*
G36*
G01*
X114807500Y-85497750D02*
X114807500Y-86460250D01*
G75*
G02*
X114538750Y-86729000I-268750J0D01*
G01*
X114001250Y-86729000D01*
G75*
G02*
X113732500Y-86460250I0J268750D01*
G01*
X113732500Y-85497750D01*
G75*
G02*
X114001250Y-85229000I268750J0D01*
G01*
X114538750Y-85229000D01*
G75*
G02*
X114807500Y-85497750I0J-268750D01*
G01*
G37*
%TD*%
%TO.C,R7*%
G36*
G01*
X129099500Y-104748250D02*
X129099500Y-103785750D01*
G75*
G02*
X129368250Y-103517000I268750J0D01*
G01*
X129905750Y-103517000D01*
G75*
G02*
X130174500Y-103785750I0J-268750D01*
G01*
X130174500Y-104748250D01*
G75*
G02*
X129905750Y-105017000I-268750J0D01*
G01*
X129368250Y-105017000D01*
G75*
G02*
X129099500Y-104748250I0J268750D01*
G01*
G37*
G36*
G01*
X127224500Y-104748250D02*
X127224500Y-103785750D01*
G75*
G02*
X127493250Y-103517000I268750J0D01*
G01*
X128030750Y-103517000D01*
G75*
G02*
X128299500Y-103785750I0J-268750D01*
G01*
X128299500Y-104748250D01*
G75*
G02*
X128030750Y-105017000I-268750J0D01*
G01*
X127493250Y-105017000D01*
G75*
G02*
X127224500Y-104748250I0J268750D01*
G01*
G37*
%TD*%
%TO.C,R6*%
G36*
G01*
X125121750Y-102302500D02*
X126084250Y-102302500D01*
G75*
G02*
X126353000Y-102571250I0J-268750D01*
G01*
X126353000Y-103108750D01*
G75*
G02*
X126084250Y-103377500I-268750J0D01*
G01*
X125121750Y-103377500D01*
G75*
G02*
X124853000Y-103108750I0J268750D01*
G01*
X124853000Y-102571250D01*
G75*
G02*
X125121750Y-102302500I268750J0D01*
G01*
G37*
G36*
G01*
X125121750Y-100427500D02*
X126084250Y-100427500D01*
G75*
G02*
X126353000Y-100696250I0J-268750D01*
G01*
X126353000Y-101233750D01*
G75*
G02*
X126084250Y-101502500I-268750J0D01*
G01*
X125121750Y-101502500D01*
G75*
G02*
X124853000Y-101233750I0J268750D01*
G01*
X124853000Y-100696250D01*
G75*
G02*
X125121750Y-100427500I268750J0D01*
G01*
G37*
%TD*%
%TO.C,R5*%
G36*
G01*
X129099500Y-106907250D02*
X129099500Y-105944750D01*
G75*
G02*
X129368250Y-105676000I268750J0D01*
G01*
X129905750Y-105676000D01*
G75*
G02*
X130174500Y-105944750I0J-268750D01*
G01*
X130174500Y-106907250D01*
G75*
G02*
X129905750Y-107176000I-268750J0D01*
G01*
X129368250Y-107176000D01*
G75*
G02*
X129099500Y-106907250I0J268750D01*
G01*
G37*
G36*
G01*
X127224500Y-106907250D02*
X127224500Y-105944750D01*
G75*
G02*
X127493250Y-105676000I268750J0D01*
G01*
X128030750Y-105676000D01*
G75*
G02*
X128299500Y-105944750I0J-268750D01*
G01*
X128299500Y-106907250D01*
G75*
G02*
X128030750Y-107176000I-268750J0D01*
G01*
X127493250Y-107176000D01*
G75*
G02*
X127224500Y-106907250I0J268750D01*
G01*
G37*
%TD*%
%TO.C,R4*%
G36*
G01*
X114319000Y-106907250D02*
X114319000Y-105944750D01*
G75*
G02*
X114587750Y-105676000I268750J0D01*
G01*
X115125250Y-105676000D01*
G75*
G02*
X115394000Y-105944750I0J-268750D01*
G01*
X115394000Y-106907250D01*
G75*
G02*
X115125250Y-107176000I-268750J0D01*
G01*
X114587750Y-107176000D01*
G75*
G02*
X114319000Y-106907250I0J268750D01*
G01*
G37*
G36*
G01*
X112444000Y-106907250D02*
X112444000Y-105944750D01*
G75*
G02*
X112712750Y-105676000I268750J0D01*
G01*
X113250250Y-105676000D01*
G75*
G02*
X113519000Y-105944750I0J-268750D01*
G01*
X113519000Y-106907250D01*
G75*
G02*
X113250250Y-107176000I-268750J0D01*
G01*
X112712750Y-107176000D01*
G75*
G02*
X112444000Y-106907250I0J268750D01*
G01*
G37*
%TD*%
%TO.C,R3*%
G36*
G01*
X117202000Y-105944750D02*
X117202000Y-106907250D01*
G75*
G02*
X116933250Y-107176000I-268750J0D01*
G01*
X116395750Y-107176000D01*
G75*
G02*
X116127000Y-106907250I0J268750D01*
G01*
X116127000Y-105944750D01*
G75*
G02*
X116395750Y-105676000I268750J0D01*
G01*
X116933250Y-105676000D01*
G75*
G02*
X117202000Y-105944750I0J-268750D01*
G01*
G37*
G36*
G01*
X119077000Y-105944750D02*
X119077000Y-106907250D01*
G75*
G02*
X118808250Y-107176000I-268750J0D01*
G01*
X118270750Y-107176000D01*
G75*
G02*
X118002000Y-106907250I0J268750D01*
G01*
X118002000Y-105944750D01*
G75*
G02*
X118270750Y-105676000I268750J0D01*
G01*
X118808250Y-105676000D01*
G75*
G02*
X119077000Y-105944750I0J-268750D01*
G01*
G37*
%TD*%
%TO.C,R2*%
G36*
G01*
X122955000Y-104748250D02*
X122955000Y-103785750D01*
G75*
G02*
X123223750Y-103517000I268750J0D01*
G01*
X123761250Y-103517000D01*
G75*
G02*
X124030000Y-103785750I0J-268750D01*
G01*
X124030000Y-104748250D01*
G75*
G02*
X123761250Y-105017000I-268750J0D01*
G01*
X123223750Y-105017000D01*
G75*
G02*
X122955000Y-104748250I0J268750D01*
G01*
G37*
G36*
G01*
X121080000Y-104748250D02*
X121080000Y-103785750D01*
G75*
G02*
X121348750Y-103517000I268750J0D01*
G01*
X121886250Y-103517000D01*
G75*
G02*
X122155000Y-103785750I0J-268750D01*
G01*
X122155000Y-104748250D01*
G75*
G02*
X121886250Y-105017000I-268750J0D01*
G01*
X121348750Y-105017000D01*
G75*
G02*
X121080000Y-104748250I0J268750D01*
G01*
G37*
%TD*%
%TO.C,R1*%
G36*
G01*
X121606500Y-106907250D02*
X121606500Y-105944750D01*
G75*
G02*
X121875250Y-105676000I268750J0D01*
G01*
X122412750Y-105676000D01*
G75*
G02*
X122681500Y-105944750I0J-268750D01*
G01*
X122681500Y-106907250D01*
G75*
G02*
X122412750Y-107176000I-268750J0D01*
G01*
X121875250Y-107176000D01*
G75*
G02*
X121606500Y-106907250I0J268750D01*
G01*
G37*
G36*
G01*
X119731500Y-106907250D02*
X119731500Y-105944750D01*
G75*
G02*
X120000250Y-105676000I268750J0D01*
G01*
X120537750Y-105676000D01*
G75*
G02*
X120806500Y-105944750I0J-268750D01*
G01*
X120806500Y-106907250D01*
G75*
G02*
X120537750Y-107176000I-268750J0D01*
G01*
X120000250Y-107176000D01*
G75*
G02*
X119731500Y-106907250I0J268750D01*
G01*
G37*
%TD*%
D11*
%TO.C,Q8*%
X126714000Y-69535000D03*
X124714000Y-70485000D03*
X124714000Y-68585000D03*
%TD*%
D12*
%TO.C,Q7*%
X119695000Y-83026000D03*
X118745000Y-81026000D03*
X120645000Y-81026000D03*
%TD*%
D11*
%TO.C,Q6*%
X120745000Y-78298000D03*
X118745000Y-79248000D03*
X118745000Y-77348000D03*
%TD*%
D12*
%TO.C,Q5*%
X131130000Y-96806000D03*
X132080000Y-98806000D03*
X130180000Y-98806000D03*
%TD*%
%TO.C,Q4*%
X124653000Y-98774000D03*
X123703000Y-96774000D03*
X125603000Y-96774000D03*
%TD*%
D11*
%TO.C,Q3*%
X127222000Y-94168000D03*
X125222000Y-95118000D03*
X125222000Y-93218000D03*
%TD*%
%TO.C,Q2*%
X127222000Y-90485000D03*
X125222000Y-91435000D03*
X125222000Y-89535000D03*
%TD*%
%TO.C,Q1*%
X125968000Y-107188000D03*
X123968000Y-108138000D03*
X123968000Y-106238000D03*
%TD*%
D13*
%TO.C,D12*%
X115695000Y-75184000D03*
X112395000Y-75184000D03*
%TD*%
%TO.C,D11*%
X115695000Y-77724000D03*
X112395000Y-77724000D03*
%TD*%
D14*
%TO.C,D10*%
X123063000Y-76074000D03*
X123063000Y-79374000D03*
%TD*%
D13*
%TO.C,D9*%
X125984000Y-74041000D03*
X122684000Y-74041000D03*
%TD*%
%TO.C,D8*%
X116080000Y-71120000D03*
X119380000Y-71120000D03*
%TD*%
%TO.C,D7*%
X118747000Y-95758000D03*
X122047000Y-95758000D03*
%TD*%
%TO.C,D6*%
X120270000Y-91186000D03*
X123570000Y-91186000D03*
%TD*%
%TO.C,D5*%
X123446000Y-85598000D03*
X126746000Y-85598000D03*
%TD*%
D14*
%TO.C,D4*%
X121412000Y-85090000D03*
X121412000Y-88390000D03*
%TD*%
%TO.C,D3*%
X131826000Y-104521000D03*
X131826000Y-101221000D03*
%TD*%
D13*
%TO.C,D2*%
X120398000Y-100838000D03*
X123698000Y-100838000D03*
%TD*%
%TO.C,D1*%
X116587000Y-104140000D03*
X119887000Y-104140000D03*
%TD*%
%TO.C,C3*%
G36*
G01*
X129099500Y-74649250D02*
X129099500Y-73686750D01*
G75*
G02*
X129368250Y-73418000I268750J0D01*
G01*
X129905750Y-73418000D01*
G75*
G02*
X130174500Y-73686750I0J-268750D01*
G01*
X130174500Y-74649250D01*
G75*
G02*
X129905750Y-74918000I-268750J0D01*
G01*
X129368250Y-74918000D01*
G75*
G02*
X129099500Y-74649250I0J268750D01*
G01*
G37*
G36*
G01*
X127224500Y-74649250D02*
X127224500Y-73686750D01*
G75*
G02*
X127493250Y-73418000I268750J0D01*
G01*
X128030750Y-73418000D01*
G75*
G02*
X128299500Y-73686750I0J-268750D01*
G01*
X128299500Y-74649250D01*
G75*
G02*
X128030750Y-74918000I-268750J0D01*
G01*
X127493250Y-74918000D01*
G75*
G02*
X127224500Y-74649250I0J268750D01*
G01*
G37*
%TD*%
%TO.C,C2*%
G36*
G01*
X138624500Y-95223250D02*
X138624500Y-94260750D01*
G75*
G02*
X138893250Y-93992000I268750J0D01*
G01*
X139430750Y-93992000D01*
G75*
G02*
X139699500Y-94260750I0J-268750D01*
G01*
X139699500Y-95223250D01*
G75*
G02*
X139430750Y-95492000I-268750J0D01*
G01*
X138893250Y-95492000D01*
G75*
G02*
X138624500Y-95223250I0J268750D01*
G01*
G37*
G36*
G01*
X136749500Y-95223250D02*
X136749500Y-94260750D01*
G75*
G02*
X137018250Y-93992000I268750J0D01*
G01*
X137555750Y-93992000D01*
G75*
G02*
X137824500Y-94260750I0J-268750D01*
G01*
X137824500Y-95223250D01*
G75*
G02*
X137555750Y-95492000I-268750J0D01*
G01*
X137018250Y-95492000D01*
G75*
G02*
X136749500Y-95223250I0J268750D01*
G01*
G37*
%TD*%
%TO.C,C1*%
G36*
G01*
X128964500Y-85116750D02*
X128964500Y-86079250D01*
G75*
G02*
X128695750Y-86348000I-268750J0D01*
G01*
X128158250Y-86348000D01*
G75*
G02*
X127889500Y-86079250I0J268750D01*
G01*
X127889500Y-85116750D01*
G75*
G02*
X128158250Y-84848000I268750J0D01*
G01*
X128695750Y-84848000D01*
G75*
G02*
X128964500Y-85116750I0J-268750D01*
G01*
G37*
G36*
G01*
X130839500Y-85116750D02*
X130839500Y-86079250D01*
G75*
G02*
X130570750Y-86348000I-268750J0D01*
G01*
X130033250Y-86348000D01*
G75*
G02*
X129764500Y-86079250I0J268750D01*
G01*
X129764500Y-85116750D01*
G75*
G02*
X130033250Y-84848000I268750J0D01*
G01*
X130570750Y-84848000D01*
G75*
G02*
X130839500Y-85116750I0J-268750D01*
G01*
G37*
%TD*%
M02*
