%TF.GenerationSoftware,KiCad,Pcbnew,(5.1.6)-1*%
%TF.CreationDate,2021-03-15T19:33:02-07:00*%
%TF.ProjectId,DJetECUTester,444a6574-4543-4555-9465-737465722e6b,rev?*%
%TF.SameCoordinates,Original*%
%TF.FileFunction,Legend,Top*%
%TF.FilePolarity,Positive*%
%FSLAX46Y46*%
G04 Gerber Fmt 4.6, Leading zero omitted, Abs format (unit mm)*
G04 Created by KiCad (PCBNEW (5.1.6)-1) date 2021-03-15 19:33:02*
%MOMM*%
%LPD*%
G01*
G04 APERTURE LIST*
%ADD10C,0.150000*%
%ADD11C,0.200000*%
%ADD12C,0.300000*%
%ADD13C,0.120000*%
G04 APERTURE END LIST*
D10*
X190587380Y-115339476D02*
X191587380Y-115006142D01*
X190587380Y-114672809D01*
X191301666Y-114387095D02*
X191301666Y-113910904D01*
X191587380Y-114482333D02*
X190587380Y-114149000D01*
X191587380Y-113815666D01*
X191492142Y-112910904D02*
X191539761Y-112958523D01*
X191587380Y-113101380D01*
X191587380Y-113196619D01*
X191539761Y-113339476D01*
X191444523Y-113434714D01*
X191349285Y-113482333D01*
X191158809Y-113529952D01*
X191015952Y-113529952D01*
X190825476Y-113482333D01*
X190730238Y-113434714D01*
X190635000Y-113339476D01*
X190587380Y-113196619D01*
X190587380Y-113101380D01*
X190635000Y-112958523D01*
X190682619Y-112910904D01*
X190587380Y-112625190D02*
X191587380Y-112291857D01*
X190587380Y-111958523D01*
X191492142Y-111053761D02*
X191539761Y-111101380D01*
X191587380Y-111244238D01*
X191587380Y-111339476D01*
X191539761Y-111482333D01*
X191444523Y-111577571D01*
X191349285Y-111625190D01*
X191158809Y-111672809D01*
X191015952Y-111672809D01*
X190825476Y-111625190D01*
X190730238Y-111577571D01*
X190635000Y-111482333D01*
X190587380Y-111339476D01*
X190587380Y-111244238D01*
X190635000Y-111101380D01*
X190682619Y-111053761D01*
X191492142Y-110053761D02*
X191539761Y-110101380D01*
X191587380Y-110244238D01*
X191587380Y-110339476D01*
X191539761Y-110482333D01*
X191444523Y-110577571D01*
X191349285Y-110625190D01*
X191158809Y-110672809D01*
X191015952Y-110672809D01*
X190825476Y-110625190D01*
X190730238Y-110577571D01*
X190635000Y-110482333D01*
X190587380Y-110339476D01*
X190587380Y-110244238D01*
X190635000Y-110101380D01*
X190682619Y-110053761D01*
X186396380Y-118808476D02*
X186396380Y-119284666D01*
X186872571Y-119332285D01*
X186824952Y-119284666D01*
X186777333Y-119189428D01*
X186777333Y-118951333D01*
X186824952Y-118856095D01*
X186872571Y-118808476D01*
X186967809Y-118760857D01*
X187205904Y-118760857D01*
X187301142Y-118808476D01*
X187348761Y-118856095D01*
X187396380Y-118951333D01*
X187396380Y-119189428D01*
X187348761Y-119284666D01*
X187301142Y-119332285D01*
X186396380Y-118475142D02*
X187396380Y-118141809D01*
X186396380Y-117808476D01*
X186888380Y-113776047D02*
X186888380Y-114347476D01*
X186888380Y-114061761D02*
X185888380Y-114061761D01*
X186031238Y-114157000D01*
X186126476Y-114252238D01*
X186174095Y-114347476D01*
X185983619Y-113395095D02*
X185936000Y-113347476D01*
X185888380Y-113252238D01*
X185888380Y-113014142D01*
X185936000Y-112918904D01*
X185983619Y-112871285D01*
X186078857Y-112823666D01*
X186174095Y-112823666D01*
X186316952Y-112871285D01*
X186888380Y-113442714D01*
X186888380Y-112823666D01*
X185888380Y-112537952D02*
X186888380Y-112204619D01*
X185888380Y-111871285D01*
X182332380Y-112458333D02*
X183332380Y-112125000D01*
X182332380Y-111791666D01*
X183237142Y-110886904D02*
X183284761Y-110934523D01*
X183332380Y-111077380D01*
X183332380Y-111172619D01*
X183284761Y-111315476D01*
X183189523Y-111410714D01*
X183094285Y-111458333D01*
X182903809Y-111505952D01*
X182760952Y-111505952D01*
X182570476Y-111458333D01*
X182475238Y-111410714D01*
X182380000Y-111315476D01*
X182332380Y-111172619D01*
X182332380Y-111077380D01*
X182380000Y-110934523D01*
X182427619Y-110886904D01*
X183237142Y-109886904D02*
X183284761Y-109934523D01*
X183332380Y-110077380D01*
X183332380Y-110172619D01*
X183284761Y-110315476D01*
X183189523Y-110410714D01*
X183094285Y-110458333D01*
X182903809Y-110505952D01*
X182760952Y-110505952D01*
X182570476Y-110458333D01*
X182475238Y-110410714D01*
X182380000Y-110315476D01*
X182332380Y-110172619D01*
X182332380Y-110077380D01*
X182380000Y-109934523D01*
X182427619Y-109886904D01*
X182126000Y-123817095D02*
X182078380Y-123912333D01*
X182078380Y-124055190D01*
X182126000Y-124198047D01*
X182221238Y-124293285D01*
X182316476Y-124340904D01*
X182506952Y-124388523D01*
X182649809Y-124388523D01*
X182840285Y-124340904D01*
X182935523Y-124293285D01*
X183030761Y-124198047D01*
X183078380Y-124055190D01*
X183078380Y-123959952D01*
X183030761Y-123817095D01*
X182983142Y-123769476D01*
X182649809Y-123769476D01*
X182649809Y-123959952D01*
X236855238Y-75350714D02*
X236855238Y-76160238D01*
X236807619Y-76255476D01*
X236760000Y-76303095D01*
X236664761Y-76350714D01*
X236521904Y-76350714D01*
X236426666Y-76303095D01*
X236855238Y-75969761D02*
X236760000Y-76017380D01*
X236569523Y-76017380D01*
X236474285Y-75969761D01*
X236426666Y-75922142D01*
X236379047Y-75826904D01*
X236379047Y-75541190D01*
X236426666Y-75445952D01*
X236474285Y-75398333D01*
X236569523Y-75350714D01*
X236760000Y-75350714D01*
X236855238Y-75398333D01*
X237331428Y-76017380D02*
X237331428Y-75350714D01*
X237331428Y-75541190D02*
X237379047Y-75445952D01*
X237426666Y-75398333D01*
X237521904Y-75350714D01*
X237617142Y-75350714D01*
X238331428Y-75969761D02*
X238236190Y-76017380D01*
X238045714Y-76017380D01*
X237950476Y-75969761D01*
X237902857Y-75874523D01*
X237902857Y-75493571D01*
X237950476Y-75398333D01*
X238045714Y-75350714D01*
X238236190Y-75350714D01*
X238331428Y-75398333D01*
X238379047Y-75493571D01*
X238379047Y-75588809D01*
X237902857Y-75684047D01*
X238712380Y-75350714D02*
X238950476Y-76017380D01*
X239188571Y-75350714D02*
X238950476Y-76017380D01*
X238855238Y-76255476D01*
X238807619Y-76303095D01*
X238712380Y-76350714D01*
X240331428Y-75636428D02*
X241093333Y-75636428D01*
X240712380Y-76017380D02*
X240712380Y-75255476D01*
D11*
X258251285Y-114716000D02*
X258137000Y-114658857D01*
X257965571Y-114658857D01*
X257794142Y-114716000D01*
X257679857Y-114830285D01*
X257622714Y-114944571D01*
X257565571Y-115173142D01*
X257565571Y-115344571D01*
X257622714Y-115573142D01*
X257679857Y-115687428D01*
X257794142Y-115801714D01*
X257965571Y-115858857D01*
X258079857Y-115858857D01*
X258251285Y-115801714D01*
X258308428Y-115744571D01*
X258308428Y-115344571D01*
X258079857Y-115344571D01*
X258251285Y-109509000D02*
X258137000Y-109451857D01*
X257965571Y-109451857D01*
X257794142Y-109509000D01*
X257679857Y-109623285D01*
X257622714Y-109737571D01*
X257565571Y-109966142D01*
X257565571Y-110137571D01*
X257622714Y-110366142D01*
X257679857Y-110480428D01*
X257794142Y-110594714D01*
X257965571Y-110651857D01*
X258079857Y-110651857D01*
X258251285Y-110594714D01*
X258308428Y-110537571D01*
X258308428Y-110137571D01*
X258079857Y-110137571D01*
X258251285Y-104556000D02*
X258137000Y-104498857D01*
X257965571Y-104498857D01*
X257794142Y-104556000D01*
X257679857Y-104670285D01*
X257622714Y-104784571D01*
X257565571Y-105013142D01*
X257565571Y-105184571D01*
X257622714Y-105413142D01*
X257679857Y-105527428D01*
X257794142Y-105641714D01*
X257965571Y-105698857D01*
X258079857Y-105698857D01*
X258251285Y-105641714D01*
X258308428Y-105584571D01*
X258308428Y-105184571D01*
X258079857Y-105184571D01*
X258251285Y-99476000D02*
X258137000Y-99418857D01*
X257965571Y-99418857D01*
X257794142Y-99476000D01*
X257679857Y-99590285D01*
X257622714Y-99704571D01*
X257565571Y-99933142D01*
X257565571Y-100104571D01*
X257622714Y-100333142D01*
X257679857Y-100447428D01*
X257794142Y-100561714D01*
X257965571Y-100618857D01*
X258079857Y-100618857D01*
X258251285Y-100561714D01*
X258308428Y-100504571D01*
X258308428Y-100104571D01*
X258079857Y-100104571D01*
X258165571Y-102358857D02*
X258165571Y-103158857D01*
X257879857Y-101901714D02*
X257594142Y-102758857D01*
X258337000Y-102758857D01*
X257664000Y-107038857D02*
X258406857Y-107038857D01*
X258006857Y-107496000D01*
X258178285Y-107496000D01*
X258292571Y-107553142D01*
X258349714Y-107610285D01*
X258406857Y-107724571D01*
X258406857Y-108010285D01*
X258349714Y-108124571D01*
X258292571Y-108181714D01*
X258178285Y-108238857D01*
X257835428Y-108238857D01*
X257721142Y-108181714D01*
X257664000Y-108124571D01*
X257721142Y-112106142D02*
X257778285Y-112049000D01*
X257892571Y-111991857D01*
X258178285Y-111991857D01*
X258292571Y-112049000D01*
X258349714Y-112106142D01*
X258406857Y-112220428D01*
X258406857Y-112334714D01*
X258349714Y-112506142D01*
X257664000Y-113191857D01*
X258406857Y-113191857D01*
X258533857Y-118398857D02*
X257848142Y-118398857D01*
X258191000Y-118398857D02*
X258191000Y-117198857D01*
X258076714Y-117370285D01*
X257962428Y-117484571D01*
X257848142Y-117541714D01*
D10*
X247615809Y-76017380D02*
X247615809Y-75017380D01*
X247615809Y-75398333D02*
X247711047Y-75350714D01*
X247901523Y-75350714D01*
X247996761Y-75398333D01*
X248044380Y-75445952D01*
X248092000Y-75541190D01*
X248092000Y-75826904D01*
X248044380Y-75922142D01*
X247996761Y-75969761D01*
X247901523Y-76017380D01*
X247711047Y-76017380D01*
X247615809Y-75969761D01*
X248663428Y-76017380D02*
X248568190Y-75969761D01*
X248520571Y-75874523D01*
X248520571Y-75017380D01*
D12*
X257821428Y-97325571D02*
X257821428Y-95825571D01*
X258535714Y-97325571D02*
X258535714Y-95825571D01*
X259392857Y-97325571D01*
X259392857Y-95825571D01*
X260535714Y-95825571D02*
X260535714Y-96897000D01*
X260464285Y-97111285D01*
X260321428Y-97254142D01*
X260107142Y-97325571D01*
X259964285Y-97325571D01*
X263178571Y-95897000D02*
X263035714Y-95825571D01*
X262821428Y-95825571D01*
X262607142Y-95897000D01*
X262464285Y-96039857D01*
X262392857Y-96182714D01*
X262321428Y-96468428D01*
X262321428Y-96682714D01*
X262392857Y-96968428D01*
X262464285Y-97111285D01*
X262607142Y-97254142D01*
X262821428Y-97325571D01*
X262964285Y-97325571D01*
X263178571Y-97254142D01*
X263250000Y-97182714D01*
X263250000Y-96682714D01*
X262964285Y-96682714D01*
X264750000Y-97325571D02*
X264250000Y-96611285D01*
X263892857Y-97325571D02*
X263892857Y-95825571D01*
X264464285Y-95825571D01*
X264607142Y-95897000D01*
X264678571Y-95968428D01*
X264750000Y-96111285D01*
X264750000Y-96325571D01*
X264678571Y-96468428D01*
X264607142Y-96539857D01*
X264464285Y-96611285D01*
X263892857Y-96611285D01*
X265392857Y-97325571D02*
X265392857Y-95825571D01*
X265964285Y-95825571D01*
X266107142Y-95897000D01*
X266178571Y-95968428D01*
X266250000Y-96111285D01*
X266250000Y-96325571D01*
X266178571Y-96468428D01*
X266107142Y-96539857D01*
X265964285Y-96611285D01*
X265392857Y-96611285D01*
D10*
X215880952Y-78684333D02*
X215833333Y-78636714D01*
X215738095Y-78493857D01*
X215690476Y-78398619D01*
X215642857Y-78255761D01*
X215595238Y-78017666D01*
X215595238Y-77827190D01*
X215642857Y-77589095D01*
X215690476Y-77446238D01*
X215738095Y-77351000D01*
X215833333Y-77208142D01*
X215880952Y-77160523D01*
X216833333Y-78208142D02*
X216785714Y-78255761D01*
X216642857Y-78303380D01*
X216547619Y-78303380D01*
X216404761Y-78255761D01*
X216309523Y-78160523D01*
X216261904Y-78065285D01*
X216214285Y-77874809D01*
X216214285Y-77731952D01*
X216261904Y-77541476D01*
X216309523Y-77446238D01*
X216404761Y-77351000D01*
X216547619Y-77303380D01*
X216642857Y-77303380D01*
X216785714Y-77351000D01*
X216833333Y-77398619D01*
X217166666Y-78684333D02*
X217214285Y-78636714D01*
X217309523Y-78493857D01*
X217357142Y-78398619D01*
X217404761Y-78255761D01*
X217452380Y-78017666D01*
X217452380Y-77827190D01*
X217404761Y-77589095D01*
X217357142Y-77446238D01*
X217309523Y-77351000D01*
X217214285Y-77208142D01*
X217166666Y-77160523D01*
X218642857Y-78017666D02*
X219119047Y-78017666D01*
X218547619Y-78303380D02*
X218880952Y-77303380D01*
X219214285Y-78303380D01*
X219547619Y-78303380D02*
X219547619Y-77303380D01*
X220119047Y-78303380D01*
X220119047Y-77303380D01*
X220595238Y-78303380D02*
X220595238Y-77303380D01*
X220833333Y-77303380D01*
X220976190Y-77351000D01*
X221071428Y-77446238D01*
X221119047Y-77541476D01*
X221166666Y-77731952D01*
X221166666Y-77874809D01*
X221119047Y-78065285D01*
X221071428Y-78160523D01*
X220976190Y-78255761D01*
X220833333Y-78303380D01*
X220595238Y-78303380D01*
X221785714Y-77827190D02*
X221785714Y-78303380D01*
X221452380Y-77303380D02*
X221785714Y-77827190D01*
X222119047Y-77303380D01*
X223071428Y-77827190D02*
X223023809Y-77779571D01*
X222928571Y-77731952D01*
X222833333Y-77731952D01*
X222738095Y-77779571D01*
X222690476Y-77827190D01*
X222642857Y-77922428D01*
X222642857Y-78017666D01*
X222690476Y-78112904D01*
X222738095Y-78160523D01*
X222833333Y-78208142D01*
X222928571Y-78208142D01*
X223023809Y-78160523D01*
X223071428Y-78112904D01*
X223071428Y-77731952D02*
X223071428Y-78112904D01*
X223119047Y-78160523D01*
X223166666Y-78160523D01*
X223261904Y-78112904D01*
X223309523Y-78017666D01*
X223309523Y-77779571D01*
X223214285Y-77636714D01*
X223071428Y-77541476D01*
X222880952Y-77493857D01*
X222690476Y-77541476D01*
X222547619Y-77636714D01*
X222452380Y-77779571D01*
X222404761Y-77970047D01*
X222452380Y-78160523D01*
X222547619Y-78303380D01*
X222690476Y-78398619D01*
X222880952Y-78446238D01*
X223071428Y-78398619D01*
X223214285Y-78303380D01*
X224071428Y-77779571D02*
X224214285Y-77827190D01*
X224261904Y-77874809D01*
X224309523Y-77970047D01*
X224309523Y-78112904D01*
X224261904Y-78208142D01*
X224214285Y-78255761D01*
X224119047Y-78303380D01*
X223738095Y-78303380D01*
X223738095Y-77303380D01*
X224071428Y-77303380D01*
X224166666Y-77351000D01*
X224214285Y-77398619D01*
X224261904Y-77493857D01*
X224261904Y-77589095D01*
X224214285Y-77684333D01*
X224166666Y-77731952D01*
X224071428Y-77779571D01*
X223738095Y-77779571D01*
X225309523Y-78303380D02*
X224976190Y-77827190D01*
X224738095Y-78303380D02*
X224738095Y-77303380D01*
X225119047Y-77303380D01*
X225214285Y-77351000D01*
X225261904Y-77398619D01*
X225309523Y-77493857D01*
X225309523Y-77636714D01*
X225261904Y-77731952D01*
X225214285Y-77779571D01*
X225119047Y-77827190D01*
X224738095Y-77827190D01*
X225738095Y-78303380D02*
X225738095Y-77303380D01*
X226071428Y-77303380D02*
X226642857Y-77303380D01*
X226357142Y-78303380D02*
X226357142Y-77303380D01*
X226976190Y-78303380D02*
X226976190Y-77303380D01*
X227404761Y-78255761D02*
X227547619Y-78303380D01*
X227785714Y-78303380D01*
X227880952Y-78255761D01*
X227928571Y-78208142D01*
X227976190Y-78112904D01*
X227976190Y-78017666D01*
X227928571Y-77922428D01*
X227880952Y-77874809D01*
X227785714Y-77827190D01*
X227595238Y-77779571D01*
X227500000Y-77731952D01*
X227452380Y-77684333D01*
X227404761Y-77589095D01*
X227404761Y-77493857D01*
X227452380Y-77398619D01*
X227500000Y-77351000D01*
X227595238Y-77303380D01*
X227833333Y-77303380D01*
X227976190Y-77351000D01*
X228404761Y-78303380D02*
X228404761Y-77303380D01*
X228404761Y-77779571D02*
X228976190Y-77779571D01*
X228976190Y-78303380D02*
X228976190Y-77303380D01*
X229452380Y-78303380D02*
X229452380Y-77303380D01*
X229928571Y-78303380D02*
X229928571Y-77303380D01*
X230166666Y-77303380D01*
X230309523Y-77351000D01*
X230404761Y-77446238D01*
X230452380Y-77541476D01*
X230500000Y-77731952D01*
X230500000Y-77874809D01*
X230452380Y-78065285D01*
X230404761Y-78160523D01*
X230309523Y-78255761D01*
X230166666Y-78303380D01*
X229928571Y-78303380D01*
X230928571Y-77779571D02*
X231261904Y-77779571D01*
X231404761Y-78303380D02*
X230928571Y-78303380D01*
X230928571Y-77303380D01*
X231404761Y-77303380D01*
X231785714Y-78017666D02*
X232261904Y-78017666D01*
X231690476Y-78303380D02*
X232023809Y-77303380D01*
X232357142Y-78303380D01*
X232642857Y-78255761D02*
X232785714Y-78303380D01*
X233023809Y-78303380D01*
X233119047Y-78255761D01*
X233166666Y-78208142D01*
X233214285Y-78112904D01*
X233214285Y-78017666D01*
X233166666Y-77922428D01*
X233119047Y-77874809D01*
X233023809Y-77827190D01*
X232833333Y-77779571D01*
X232738095Y-77731952D01*
X232690476Y-77684333D01*
X232642857Y-77589095D01*
X232642857Y-77493857D01*
X232690476Y-77398619D01*
X232738095Y-77351000D01*
X232833333Y-77303380D01*
X233071428Y-77303380D01*
X233214285Y-77351000D01*
X233642857Y-78208142D02*
X233690476Y-78255761D01*
X233642857Y-78303380D01*
X233595238Y-78255761D01*
X233642857Y-78208142D01*
X233642857Y-78303380D01*
X234690476Y-78208142D02*
X234642857Y-78255761D01*
X234500000Y-78303380D01*
X234404761Y-78303380D01*
X234261904Y-78255761D01*
X234166666Y-78160523D01*
X234119047Y-78065285D01*
X234071428Y-77874809D01*
X234071428Y-77731952D01*
X234119047Y-77541476D01*
X234166666Y-77446238D01*
X234261904Y-77351000D01*
X234404761Y-77303380D01*
X234500000Y-77303380D01*
X234642857Y-77351000D01*
X234690476Y-77398619D01*
X235309523Y-77303380D02*
X235500000Y-77303380D01*
X235595238Y-77351000D01*
X235690476Y-77446238D01*
X235738095Y-77636714D01*
X235738095Y-77970047D01*
X235690476Y-78160523D01*
X235595238Y-78255761D01*
X235500000Y-78303380D01*
X235309523Y-78303380D01*
X235214285Y-78255761D01*
X235119047Y-78160523D01*
X235071428Y-77970047D01*
X235071428Y-77636714D01*
X235119047Y-77446238D01*
X235214285Y-77351000D01*
X235309523Y-77303380D01*
X236166666Y-78303380D02*
X236166666Y-77303380D01*
X236500000Y-78017666D01*
X236833333Y-77303380D01*
X236833333Y-78303380D01*
X238023809Y-77398619D02*
X238071428Y-77351000D01*
X238166666Y-77303380D01*
X238404761Y-77303380D01*
X238500000Y-77351000D01*
X238547619Y-77398619D01*
X238595238Y-77493857D01*
X238595238Y-77589095D01*
X238547619Y-77731952D01*
X237976190Y-78303380D01*
X238595238Y-78303380D01*
X239214285Y-77303380D02*
X239309523Y-77303380D01*
X239404761Y-77351000D01*
X239452380Y-77398619D01*
X239500000Y-77493857D01*
X239547619Y-77684333D01*
X239547619Y-77922428D01*
X239500000Y-78112904D01*
X239452380Y-78208142D01*
X239404761Y-78255761D01*
X239309523Y-78303380D01*
X239214285Y-78303380D01*
X239119047Y-78255761D01*
X239071428Y-78208142D01*
X239023809Y-78112904D01*
X238976190Y-77922428D01*
X238976190Y-77684333D01*
X239023809Y-77493857D01*
X239071428Y-77398619D01*
X239119047Y-77351000D01*
X239214285Y-77303380D01*
X239928571Y-77398619D02*
X239976190Y-77351000D01*
X240071428Y-77303380D01*
X240309523Y-77303380D01*
X240404761Y-77351000D01*
X240452380Y-77398619D01*
X240500000Y-77493857D01*
X240500000Y-77589095D01*
X240452380Y-77731952D01*
X239880952Y-78303380D01*
X240500000Y-78303380D01*
X241452380Y-78303380D02*
X240880952Y-78303380D01*
X241166666Y-78303380D02*
X241166666Y-77303380D01*
X241071428Y-77446238D01*
X240976190Y-77541476D01*
X240880952Y-77589095D01*
X210785714Y-125674380D02*
X210785714Y-124674380D01*
X211119047Y-125388666D01*
X211452380Y-124674380D01*
X211452380Y-125674380D01*
X211928571Y-125150571D02*
X212261904Y-125150571D01*
X212404761Y-125674380D02*
X211928571Y-125674380D01*
X211928571Y-124674380D01*
X212404761Y-124674380D01*
X213404761Y-125674380D02*
X213071428Y-125198190D01*
X212833333Y-125674380D02*
X212833333Y-124674380D01*
X213214285Y-124674380D01*
X213309523Y-124722000D01*
X213357142Y-124769619D01*
X213404761Y-124864857D01*
X213404761Y-125007714D01*
X213357142Y-125102952D01*
X213309523Y-125150571D01*
X213214285Y-125198190D01*
X212833333Y-125198190D01*
X214404761Y-125579142D02*
X214357142Y-125626761D01*
X214214285Y-125674380D01*
X214119047Y-125674380D01*
X213976190Y-125626761D01*
X213880952Y-125531523D01*
X213833333Y-125436285D01*
X213785714Y-125245809D01*
X213785714Y-125102952D01*
X213833333Y-124912476D01*
X213880952Y-124817238D01*
X213976190Y-124722000D01*
X214119047Y-124674380D01*
X214214285Y-124674380D01*
X214357142Y-124722000D01*
X214404761Y-124769619D01*
X214833333Y-125150571D02*
X215166666Y-125150571D01*
X215309523Y-125674380D02*
X214833333Y-125674380D01*
X214833333Y-124674380D01*
X215309523Y-124674380D01*
X215738095Y-125674380D02*
X215738095Y-124674380D01*
X215976190Y-124674380D01*
X216119047Y-124722000D01*
X216214285Y-124817238D01*
X216261904Y-124912476D01*
X216309523Y-125102952D01*
X216309523Y-125245809D01*
X216261904Y-125436285D01*
X216214285Y-125531523D01*
X216119047Y-125626761D01*
X215976190Y-125674380D01*
X215738095Y-125674380D01*
X216738095Y-125150571D02*
X217071428Y-125150571D01*
X217214285Y-125674380D02*
X216738095Y-125674380D01*
X216738095Y-124674380D01*
X217214285Y-124674380D01*
X217595238Y-125626761D02*
X217738095Y-125674380D01*
X217976190Y-125674380D01*
X218071428Y-125626761D01*
X218119047Y-125579142D01*
X218166666Y-125483904D01*
X218166666Y-125388666D01*
X218119047Y-125293428D01*
X218071428Y-125245809D01*
X217976190Y-125198190D01*
X217785714Y-125150571D01*
X217690476Y-125102952D01*
X217642857Y-125055333D01*
X217595238Y-124960095D01*
X217595238Y-124864857D01*
X217642857Y-124769619D01*
X217690476Y-124722000D01*
X217785714Y-124674380D01*
X218023809Y-124674380D01*
X218166666Y-124722000D01*
X219214285Y-124674380D02*
X219547619Y-125674380D01*
X219880952Y-124674380D01*
X220357142Y-125102952D02*
X220261904Y-125055333D01*
X220214285Y-125007714D01*
X220166666Y-124912476D01*
X220166666Y-124864857D01*
X220214285Y-124769619D01*
X220261904Y-124722000D01*
X220357142Y-124674380D01*
X220547619Y-124674380D01*
X220642857Y-124722000D01*
X220690476Y-124769619D01*
X220738095Y-124864857D01*
X220738095Y-124912476D01*
X220690476Y-125007714D01*
X220642857Y-125055333D01*
X220547619Y-125102952D01*
X220357142Y-125102952D01*
X220261904Y-125150571D01*
X220214285Y-125198190D01*
X220166666Y-125293428D01*
X220166666Y-125483904D01*
X220214285Y-125579142D01*
X220261904Y-125626761D01*
X220357142Y-125674380D01*
X220547619Y-125674380D01*
X220642857Y-125626761D01*
X220690476Y-125579142D01*
X220738095Y-125483904D01*
X220738095Y-125293428D01*
X220690476Y-125198190D01*
X220642857Y-125150571D01*
X220547619Y-125102952D01*
X221928571Y-125674380D02*
X221928571Y-124674380D01*
X222166666Y-124674380D01*
X222309523Y-124722000D01*
X222404761Y-124817238D01*
X222452380Y-124912476D01*
X222500000Y-125102952D01*
X222500000Y-125245809D01*
X222452380Y-125436285D01*
X222404761Y-125531523D01*
X222309523Y-125626761D01*
X222166666Y-125674380D01*
X221928571Y-125674380D01*
X223214285Y-124674380D02*
X223214285Y-125388666D01*
X223166666Y-125531523D01*
X223071428Y-125626761D01*
X222928571Y-125674380D01*
X222833333Y-125674380D01*
X223690476Y-125150571D02*
X224023809Y-125150571D01*
X224166666Y-125674380D02*
X223690476Y-125674380D01*
X223690476Y-124674380D01*
X224166666Y-124674380D01*
X224452380Y-124674380D02*
X225023809Y-124674380D01*
X224738095Y-125674380D02*
X224738095Y-124674380D01*
X226119047Y-125150571D02*
X226452380Y-125150571D01*
X226595238Y-125674380D02*
X226119047Y-125674380D01*
X226119047Y-124674380D01*
X226595238Y-124674380D01*
X227595238Y-125579142D02*
X227547619Y-125626761D01*
X227404761Y-125674380D01*
X227309523Y-125674380D01*
X227166666Y-125626761D01*
X227071428Y-125531523D01*
X227023809Y-125436285D01*
X226976190Y-125245809D01*
X226976190Y-125102952D01*
X227023809Y-124912476D01*
X227071428Y-124817238D01*
X227166666Y-124722000D01*
X227309523Y-124674380D01*
X227404761Y-124674380D01*
X227547619Y-124722000D01*
X227595238Y-124769619D01*
X228023809Y-124674380D02*
X228023809Y-125483904D01*
X228071428Y-125579142D01*
X228119047Y-125626761D01*
X228214285Y-125674380D01*
X228404761Y-125674380D01*
X228500000Y-125626761D01*
X228547619Y-125579142D01*
X228595238Y-125483904D01*
X228595238Y-124674380D01*
X229690476Y-124674380D02*
X230261904Y-124674380D01*
X229976190Y-125674380D02*
X229976190Y-124674380D01*
X230595238Y-125150571D02*
X230928571Y-125150571D01*
X231071428Y-125674380D02*
X230595238Y-125674380D01*
X230595238Y-124674380D01*
X231071428Y-124674380D01*
X231452380Y-125626761D02*
X231595238Y-125674380D01*
X231833333Y-125674380D01*
X231928571Y-125626761D01*
X231976190Y-125579142D01*
X232023809Y-125483904D01*
X232023809Y-125388666D01*
X231976190Y-125293428D01*
X231928571Y-125245809D01*
X231833333Y-125198190D01*
X231642857Y-125150571D01*
X231547619Y-125102952D01*
X231500000Y-125055333D01*
X231452380Y-124960095D01*
X231452380Y-124864857D01*
X231500000Y-124769619D01*
X231547619Y-124722000D01*
X231642857Y-124674380D01*
X231880952Y-124674380D01*
X232023809Y-124722000D01*
X232309523Y-124674380D02*
X232880952Y-124674380D01*
X232595238Y-125674380D02*
X232595238Y-124674380D01*
X233214285Y-125150571D02*
X233547619Y-125150571D01*
X233690476Y-125674380D02*
X233214285Y-125674380D01*
X233214285Y-124674380D01*
X233690476Y-124674380D01*
X234690476Y-125674380D02*
X234357142Y-125198190D01*
X234119047Y-125674380D02*
X234119047Y-124674380D01*
X234500000Y-124674380D01*
X234595238Y-124722000D01*
X234642857Y-124769619D01*
X234690476Y-124864857D01*
X234690476Y-125007714D01*
X234642857Y-125102952D01*
X234595238Y-125150571D01*
X234500000Y-125198190D01*
X234119047Y-125198190D01*
X235738095Y-124674380D02*
X236071428Y-125674380D01*
X236404761Y-124674380D01*
X237261904Y-125674380D02*
X236690476Y-125674380D01*
X236976190Y-125674380D02*
X236976190Y-124674380D01*
X236880952Y-124817238D01*
X236785714Y-124912476D01*
X236690476Y-124960095D01*
X176601380Y-87820333D02*
X175601380Y-87820333D01*
X175601380Y-87439380D01*
X175649000Y-87344142D01*
X175696619Y-87296523D01*
X175791857Y-87248904D01*
X175934714Y-87248904D01*
X176029952Y-87296523D01*
X176077571Y-87344142D01*
X176125190Y-87439380D01*
X176125190Y-87820333D01*
X175601380Y-86915571D02*
X176601380Y-86677476D01*
X175887095Y-86487000D01*
X176601380Y-86296523D01*
X175601380Y-86058428D01*
X176601380Y-85106047D02*
X176125190Y-85439380D01*
X176601380Y-85677476D02*
X175601380Y-85677476D01*
X175601380Y-85296523D01*
X175649000Y-85201285D01*
X175696619Y-85153666D01*
X175791857Y-85106047D01*
X175934714Y-85106047D01*
X176029952Y-85153666D01*
X176077571Y-85201285D01*
X176125190Y-85296523D01*
X176125190Y-85677476D01*
X198945809Y-107465761D02*
X199088666Y-107513380D01*
X199326761Y-107513380D01*
X199422000Y-107465761D01*
X199469619Y-107418142D01*
X199517238Y-107322904D01*
X199517238Y-107227666D01*
X199469619Y-107132428D01*
X199422000Y-107084809D01*
X199326761Y-107037190D01*
X199136285Y-106989571D01*
X199041047Y-106941952D01*
X198993428Y-106894333D01*
X198945809Y-106799095D01*
X198945809Y-106703857D01*
X198993428Y-106608619D01*
X199041047Y-106561000D01*
X199136285Y-106513380D01*
X199374380Y-106513380D01*
X199517238Y-106561000D01*
X199802952Y-106513380D02*
X200374380Y-106513380D01*
X200088666Y-107513380D02*
X200088666Y-106513380D01*
X200660095Y-107227666D02*
X201136285Y-107227666D01*
X200564857Y-107513380D02*
X200898190Y-106513380D01*
X201231523Y-107513380D01*
X201422000Y-106513380D02*
X201993428Y-106513380D01*
X201707714Y-107513380D02*
X201707714Y-106513380D01*
X202326761Y-106513380D02*
X202326761Y-107322904D01*
X202374380Y-107418142D01*
X202422000Y-107465761D01*
X202517238Y-107513380D01*
X202707714Y-107513380D01*
X202802952Y-107465761D01*
X202850571Y-107418142D01*
X202898190Y-107322904D01*
X202898190Y-106513380D01*
X203326761Y-107465761D02*
X203469619Y-107513380D01*
X203707714Y-107513380D01*
X203802952Y-107465761D01*
X203850571Y-107418142D01*
X203898190Y-107322904D01*
X203898190Y-107227666D01*
X203850571Y-107132428D01*
X203802952Y-107084809D01*
X203707714Y-107037190D01*
X203517238Y-106989571D01*
X203422000Y-106941952D01*
X203374380Y-106894333D01*
X203326761Y-106799095D01*
X203326761Y-106703857D01*
X203374380Y-106608619D01*
X203422000Y-106561000D01*
X203517238Y-106513380D01*
X203755333Y-106513380D01*
X203898190Y-106561000D01*
X237529714Y-111315523D02*
X238196380Y-111315523D01*
X237148761Y-111553619D02*
X237863047Y-111791714D01*
X237863047Y-111172666D01*
X244689380Y-111839333D02*
X244689380Y-111220285D01*
X245070333Y-111553619D01*
X245070333Y-111410761D01*
X245117952Y-111315523D01*
X245165571Y-111267904D01*
X245260809Y-111220285D01*
X245498904Y-111220285D01*
X245594142Y-111267904D01*
X245641761Y-111315523D01*
X245689380Y-111410761D01*
X245689380Y-111696476D01*
X245641761Y-111791714D01*
X245594142Y-111839333D01*
D12*
X174637142Y-107255571D02*
X175137142Y-108755571D01*
X175637142Y-107255571D01*
X176065714Y-108327000D02*
X176780000Y-108327000D01*
X175922857Y-108755571D02*
X176422857Y-107255571D01*
X176922857Y-108755571D01*
X178280000Y-108612714D02*
X178208571Y-108684142D01*
X177994285Y-108755571D01*
X177851428Y-108755571D01*
X177637142Y-108684142D01*
X177494285Y-108541285D01*
X177422857Y-108398428D01*
X177351428Y-108112714D01*
X177351428Y-107898428D01*
X177422857Y-107612714D01*
X177494285Y-107469857D01*
X177637142Y-107327000D01*
X177851428Y-107255571D01*
X177994285Y-107255571D01*
X178208571Y-107327000D01*
X178280000Y-107398428D01*
D10*
X238942857Y-116895571D02*
X239085714Y-116943190D01*
X239133333Y-116990809D01*
X239180952Y-117086047D01*
X239180952Y-117228904D01*
X239133333Y-117324142D01*
X239085714Y-117371761D01*
X238990476Y-117419380D01*
X238609523Y-117419380D01*
X238609523Y-116419380D01*
X238942857Y-116419380D01*
X239038095Y-116467000D01*
X239085714Y-116514619D01*
X239133333Y-116609857D01*
X239133333Y-116705095D01*
X239085714Y-116800333D01*
X239038095Y-116847952D01*
X238942857Y-116895571D01*
X238609523Y-116895571D01*
X240180952Y-117419380D02*
X239847619Y-116943190D01*
X239609523Y-117419380D02*
X239609523Y-116419380D01*
X239990476Y-116419380D01*
X240085714Y-116467000D01*
X240133333Y-116514619D01*
X240180952Y-116609857D01*
X240180952Y-116752714D01*
X240133333Y-116847952D01*
X240085714Y-116895571D01*
X239990476Y-116943190D01*
X239609523Y-116943190D01*
X240609523Y-117419380D02*
X240609523Y-116419380D01*
X241180952Y-117419380D02*
X240752380Y-116847952D01*
X241180952Y-116419380D02*
X240609523Y-116990809D01*
X241800000Y-116419380D02*
X241990476Y-116419380D01*
X242085714Y-116467000D01*
X242180952Y-116562238D01*
X242228571Y-116752714D01*
X242228571Y-117086047D01*
X242180952Y-117276523D01*
X242085714Y-117371761D01*
X241990476Y-117419380D01*
X241800000Y-117419380D01*
X241704761Y-117371761D01*
X241609523Y-117276523D01*
X241561904Y-117086047D01*
X241561904Y-116752714D01*
X241609523Y-116562238D01*
X241704761Y-116467000D01*
X241800000Y-116419380D01*
X242657142Y-116419380D02*
X242657142Y-117228904D01*
X242704761Y-117324142D01*
X242752380Y-117371761D01*
X242847619Y-117419380D01*
X243038095Y-117419380D01*
X243133333Y-117371761D01*
X243180952Y-117324142D01*
X243228571Y-117228904D01*
X243228571Y-116419380D01*
X243561904Y-116419380D02*
X244133333Y-116419380D01*
X243847619Y-117419380D02*
X243847619Y-116419380D01*
X237196380Y-83899333D02*
X238196380Y-83232666D01*
X237196380Y-83232666D02*
X238196380Y-83899333D01*
X237291619Y-89407904D02*
X237244000Y-89360285D01*
X237196380Y-89265047D01*
X237196380Y-89026952D01*
X237244000Y-88931714D01*
X237291619Y-88884095D01*
X237386857Y-88836476D01*
X237482095Y-88836476D01*
X237624952Y-88884095D01*
X238196380Y-89455523D01*
X238196380Y-88836476D01*
X237291619Y-88455523D02*
X237244000Y-88407904D01*
X237196380Y-88312666D01*
X237196380Y-88074571D01*
X237244000Y-87979333D01*
X237291619Y-87931714D01*
X237386857Y-87884095D01*
X237482095Y-87884095D01*
X237624952Y-87931714D01*
X238196380Y-88503142D01*
X238196380Y-87884095D01*
X238196380Y-93916476D02*
X238196380Y-94487904D01*
X238196380Y-94202190D02*
X237196380Y-94202190D01*
X237339238Y-94297428D01*
X237434476Y-94392666D01*
X237482095Y-94487904D01*
X237624952Y-93345047D02*
X237577333Y-93440285D01*
X237529714Y-93487904D01*
X237434476Y-93535523D01*
X237386857Y-93535523D01*
X237291619Y-93487904D01*
X237244000Y-93440285D01*
X237196380Y-93345047D01*
X237196380Y-93154571D01*
X237244000Y-93059333D01*
X237291619Y-93011714D01*
X237386857Y-92964095D01*
X237434476Y-92964095D01*
X237529714Y-93011714D01*
X237577333Y-93059333D01*
X237624952Y-93154571D01*
X237624952Y-93345047D01*
X237672571Y-93440285D01*
X237720190Y-93487904D01*
X237815428Y-93535523D01*
X238005904Y-93535523D01*
X238101142Y-93487904D01*
X238148761Y-93440285D01*
X238196380Y-93345047D01*
X238196380Y-93154571D01*
X238148761Y-93059333D01*
X238101142Y-93011714D01*
X238005904Y-92964095D01*
X237815428Y-92964095D01*
X237720190Y-93011714D01*
X237672571Y-93059333D01*
X237624952Y-93154571D01*
X238196380Y-98996476D02*
X238196380Y-99567904D01*
X238196380Y-99282190D02*
X237196380Y-99282190D01*
X237339238Y-99377428D01*
X237434476Y-99472666D01*
X237482095Y-99567904D01*
X237529714Y-98139333D02*
X238196380Y-98139333D01*
X237148761Y-98377428D02*
X237863047Y-98615523D01*
X237863047Y-97996476D01*
X238196380Y-104203476D02*
X238196380Y-104774904D01*
X238196380Y-104489190D02*
X237196380Y-104489190D01*
X237339238Y-104584428D01*
X237434476Y-104679666D01*
X237482095Y-104774904D01*
X237196380Y-103584428D02*
X237196380Y-103489190D01*
X237244000Y-103393952D01*
X237291619Y-103346333D01*
X237386857Y-103298714D01*
X237577333Y-103251095D01*
X237815428Y-103251095D01*
X238005904Y-103298714D01*
X238101142Y-103346333D01*
X238148761Y-103393952D01*
X238196380Y-103489190D01*
X238196380Y-103584428D01*
X238148761Y-103679666D01*
X238101142Y-103727285D01*
X238005904Y-103774904D01*
X237815428Y-103822523D01*
X237577333Y-103822523D01*
X237386857Y-103774904D01*
X237291619Y-103727285D01*
X237244000Y-103679666D01*
X237196380Y-103584428D01*
X237196380Y-108775523D02*
X237196380Y-108966000D01*
X237244000Y-109061238D01*
X237291619Y-109108857D01*
X237434476Y-109204095D01*
X237624952Y-109251714D01*
X238005904Y-109251714D01*
X238101142Y-109204095D01*
X238148761Y-109156476D01*
X238196380Y-109061238D01*
X238196380Y-108870761D01*
X238148761Y-108775523D01*
X238101142Y-108727904D01*
X238005904Y-108680285D01*
X237767809Y-108680285D01*
X237672571Y-108727904D01*
X237624952Y-108775523D01*
X237577333Y-108870761D01*
X237577333Y-109061238D01*
X237624952Y-109156476D01*
X237672571Y-109204095D01*
X237767809Y-109251714D01*
X237164619Y-114331714D02*
X237117000Y-114284095D01*
X237069380Y-114188857D01*
X237069380Y-113950761D01*
X237117000Y-113855523D01*
X237164619Y-113807904D01*
X237259857Y-113760285D01*
X237355095Y-113760285D01*
X237497952Y-113807904D01*
X238069380Y-114379333D01*
X238069380Y-113760285D01*
X245689380Y-113760285D02*
X245689380Y-114331714D01*
X245689380Y-114046000D02*
X244689380Y-114046000D01*
X244832238Y-114141238D01*
X244927476Y-114236476D01*
X244975095Y-114331714D01*
X244689380Y-108600904D02*
X244689380Y-109077095D01*
X245165571Y-109124714D01*
X245117952Y-109077095D01*
X245070333Y-108981857D01*
X245070333Y-108743761D01*
X245117952Y-108648523D01*
X245165571Y-108600904D01*
X245260809Y-108553285D01*
X245498904Y-108553285D01*
X245594142Y-108600904D01*
X245641761Y-108648523D01*
X245689380Y-108743761D01*
X245689380Y-108981857D01*
X245641761Y-109077095D01*
X245594142Y-109124714D01*
X245689380Y-104076476D02*
X245689380Y-103886000D01*
X245641761Y-103790761D01*
X245594142Y-103743142D01*
X245451285Y-103647904D01*
X245260809Y-103600285D01*
X244879857Y-103600285D01*
X244784619Y-103647904D01*
X244737000Y-103695523D01*
X244689380Y-103790761D01*
X244689380Y-103981238D01*
X244737000Y-104076476D01*
X244784619Y-104124095D01*
X244879857Y-104171714D01*
X245117952Y-104171714D01*
X245213190Y-104124095D01*
X245260809Y-104076476D01*
X245308428Y-103981238D01*
X245308428Y-103790761D01*
X245260809Y-103695523D01*
X245213190Y-103647904D01*
X245117952Y-103600285D01*
X245689380Y-98996476D02*
X245689380Y-99567904D01*
X245689380Y-99282190D02*
X244689380Y-99282190D01*
X244832238Y-99377428D01*
X244927476Y-99472666D01*
X244975095Y-99567904D01*
X244689380Y-98663142D02*
X244689380Y-98044095D01*
X245070333Y-98377428D01*
X245070333Y-98234571D01*
X245117952Y-98139333D01*
X245165571Y-98091714D01*
X245260809Y-98044095D01*
X245498904Y-98044095D01*
X245594142Y-98091714D01*
X245641761Y-98139333D01*
X245689380Y-98234571D01*
X245689380Y-98520285D01*
X245641761Y-98615523D01*
X245594142Y-98663142D01*
X245689380Y-93916476D02*
X245689380Y-94487904D01*
X245689380Y-94202190D02*
X244689380Y-94202190D01*
X244832238Y-94297428D01*
X244927476Y-94392666D01*
X244975095Y-94487904D01*
X244689380Y-93583142D02*
X244689380Y-92916476D01*
X245689380Y-93345047D01*
X244784619Y-89407904D02*
X244737000Y-89360285D01*
X244689380Y-89265047D01*
X244689380Y-89026952D01*
X244737000Y-88931714D01*
X244784619Y-88884095D01*
X244879857Y-88836476D01*
X244975095Y-88836476D01*
X245117952Y-88884095D01*
X245689380Y-89455523D01*
X245689380Y-88836476D01*
X245689380Y-87884095D02*
X245689380Y-88455523D01*
X245689380Y-88169809D02*
X244689380Y-88169809D01*
X244832238Y-88265047D01*
X244927476Y-88360285D01*
X244975095Y-88455523D01*
X244737000Y-101084095D02*
X244689380Y-101179333D01*
X244689380Y-101322190D01*
X244737000Y-101465047D01*
X244832238Y-101560285D01*
X244927476Y-101607904D01*
X245117952Y-101655523D01*
X245260809Y-101655523D01*
X245451285Y-101607904D01*
X245546523Y-101560285D01*
X245641761Y-101465047D01*
X245689380Y-101322190D01*
X245689380Y-101226952D01*
X245641761Y-101084095D01*
X245594142Y-101036476D01*
X245260809Y-101036476D01*
X245260809Y-101226952D01*
D12*
X266362571Y-70143571D02*
X266362571Y-71000714D01*
X266362571Y-70572142D02*
X264862571Y-70572142D01*
X265076857Y-70715000D01*
X265219714Y-70857857D01*
X265291142Y-71000714D01*
X265005428Y-69572142D02*
X264934000Y-69500714D01*
X264862571Y-69357857D01*
X264862571Y-69000714D01*
X264934000Y-68857857D01*
X265005428Y-68786428D01*
X265148285Y-68715000D01*
X265291142Y-68715000D01*
X265505428Y-68786428D01*
X266362571Y-69643571D01*
X266362571Y-68715000D01*
X264862571Y-68286428D02*
X266362571Y-67786428D01*
X264862571Y-67286428D01*
X256171000Y-70357857D02*
X256099571Y-70500714D01*
X256099571Y-70715000D01*
X256171000Y-70929285D01*
X256313857Y-71072142D01*
X256456714Y-71143571D01*
X256742428Y-71215000D01*
X256956714Y-71215000D01*
X257242428Y-71143571D01*
X257385285Y-71072142D01*
X257528142Y-70929285D01*
X257599571Y-70715000D01*
X257599571Y-70572142D01*
X257528142Y-70357857D01*
X257456714Y-70286428D01*
X256956714Y-70286428D01*
X256956714Y-70572142D01*
X257599571Y-69643571D02*
X256099571Y-69643571D01*
X257599571Y-68786428D01*
X256099571Y-68786428D01*
X257599571Y-68072142D02*
X256099571Y-68072142D01*
X256099571Y-67715000D01*
X256171000Y-67500714D01*
X256313857Y-67357857D01*
X256456714Y-67286428D01*
X256742428Y-67215000D01*
X256956714Y-67215000D01*
X257242428Y-67286428D01*
X257385285Y-67357857D01*
X257528142Y-67500714D01*
X257599571Y-67715000D01*
X257599571Y-68072142D01*
D10*
X237244000Y-101084095D02*
X237196380Y-101179333D01*
X237196380Y-101322190D01*
X237244000Y-101465047D01*
X237339238Y-101560285D01*
X237434476Y-101607904D01*
X237624952Y-101655523D01*
X237767809Y-101655523D01*
X237958285Y-101607904D01*
X238053523Y-101560285D01*
X238148761Y-101465047D01*
X238196380Y-101322190D01*
X238196380Y-101226952D01*
X238148761Y-101084095D01*
X238101142Y-101036476D01*
X237767809Y-101036476D01*
X237767809Y-101226952D01*
X242146904Y-75904761D02*
X242242142Y-75952380D01*
X242432619Y-75952380D01*
X242527857Y-75904761D01*
X242575476Y-75809523D01*
X242575476Y-75761904D01*
X242527857Y-75666666D01*
X242432619Y-75619047D01*
X242289761Y-75619047D01*
X242194523Y-75571428D01*
X242146904Y-75476190D01*
X242146904Y-75428571D01*
X242194523Y-75333333D01*
X242289761Y-75285714D01*
X242432619Y-75285714D01*
X242527857Y-75333333D01*
X242908809Y-75285714D02*
X243099285Y-75952380D01*
X243289761Y-75476190D01*
X243480238Y-75952380D01*
X243670714Y-75285714D01*
X245067857Y-76017380D02*
X245067857Y-75350714D01*
X245067857Y-75541190D02*
X245115476Y-75445952D01*
X245163095Y-75398333D01*
X245258333Y-75350714D01*
X245353571Y-75350714D01*
X245544047Y-75350714D02*
X245925000Y-75350714D01*
X245686904Y-75017380D02*
X245686904Y-75874523D01*
X245734523Y-75969761D01*
X245829761Y-76017380D01*
X245925000Y-76017380D01*
X250520904Y-75223714D02*
X250520904Y-76033238D01*
X250473285Y-76128476D01*
X250425666Y-76176095D01*
X250330428Y-76223714D01*
X250187571Y-76223714D01*
X250092333Y-76176095D01*
X250520904Y-75842761D02*
X250425666Y-75890380D01*
X250235190Y-75890380D01*
X250139952Y-75842761D01*
X250092333Y-75795142D01*
X250044714Y-75699904D01*
X250044714Y-75414190D01*
X250092333Y-75318952D01*
X250139952Y-75271333D01*
X250235190Y-75223714D01*
X250425666Y-75223714D01*
X250520904Y-75271333D01*
X250997095Y-75223714D02*
X250997095Y-75890380D01*
X250997095Y-75318952D02*
X251044714Y-75271333D01*
X251139952Y-75223714D01*
X251282809Y-75223714D01*
X251378047Y-75271333D01*
X251425666Y-75366571D01*
X251425666Y-75890380D01*
D12*
X257575857Y-82375142D02*
X257575857Y-81875142D01*
X258361571Y-81660857D02*
X258361571Y-82375142D01*
X256861571Y-82375142D01*
X256861571Y-81660857D01*
X258218714Y-80160857D02*
X258290142Y-80232285D01*
X258361571Y-80446571D01*
X258361571Y-80589428D01*
X258290142Y-80803714D01*
X258147285Y-80946571D01*
X258004428Y-81018000D01*
X257718714Y-81089428D01*
X257504428Y-81089428D01*
X257218714Y-81018000D01*
X257075857Y-80946571D01*
X256933000Y-80803714D01*
X256861571Y-80589428D01*
X256861571Y-80446571D01*
X256933000Y-80232285D01*
X257004428Y-80160857D01*
X256861571Y-79518000D02*
X258075857Y-79518000D01*
X258218714Y-79446571D01*
X258290142Y-79375142D01*
X258361571Y-79232285D01*
X258361571Y-78946571D01*
X258290142Y-78803714D01*
X258218714Y-78732285D01*
X258075857Y-78660857D01*
X256861571Y-78660857D01*
X240343571Y-71464285D02*
X238843571Y-71464285D01*
X239915000Y-70964285D01*
X238843571Y-70464285D01*
X240343571Y-70464285D01*
X240343571Y-69750000D02*
X238843571Y-69750000D01*
X238843571Y-69178571D01*
X238915000Y-69035714D01*
X238986428Y-68964285D01*
X239129285Y-68892857D01*
X239343571Y-68892857D01*
X239486428Y-68964285D01*
X239557857Y-69035714D01*
X239629285Y-69178571D01*
X239629285Y-69750000D01*
X240272142Y-68321428D02*
X240343571Y-68107142D01*
X240343571Y-67750000D01*
X240272142Y-67607142D01*
X240200714Y-67535714D01*
X240057857Y-67464285D01*
X239915000Y-67464285D01*
X239772142Y-67535714D01*
X239700714Y-67607142D01*
X239629285Y-67750000D01*
X239557857Y-68035714D01*
X239486428Y-68178571D01*
X239415000Y-68250000D01*
X239272142Y-68321428D01*
X239129285Y-68321428D01*
X238986428Y-68250000D01*
X238915000Y-68178571D01*
X238843571Y-68035714D01*
X238843571Y-67678571D01*
X238915000Y-67464285D01*
D10*
X260604095Y-124722000D02*
X260508857Y-124674380D01*
X260366000Y-124674380D01*
X260223142Y-124722000D01*
X260127904Y-124817238D01*
X260080285Y-124912476D01*
X260032666Y-125102952D01*
X260032666Y-125245809D01*
X260080285Y-125436285D01*
X260127904Y-125531523D01*
X260223142Y-125626761D01*
X260366000Y-125674380D01*
X260461238Y-125674380D01*
X260604095Y-125626761D01*
X260651714Y-125579142D01*
X260651714Y-125245809D01*
X260461238Y-125245809D01*
X261080285Y-125674380D02*
X261080285Y-124674380D01*
X261651714Y-125674380D01*
X261651714Y-124674380D01*
X262127904Y-125674380D02*
X262127904Y-124674380D01*
X262366000Y-124674380D01*
X262508857Y-124722000D01*
X262604095Y-124817238D01*
X262651714Y-124912476D01*
X262699333Y-125102952D01*
X262699333Y-125245809D01*
X262651714Y-125436285D01*
X262604095Y-125531523D01*
X262508857Y-125626761D01*
X262366000Y-125674380D01*
X262127904Y-125674380D01*
X255794047Y-125674380D02*
X255794047Y-124674380D01*
X256270238Y-125674380D02*
X256270238Y-124674380D01*
X256841666Y-125674380D01*
X256841666Y-124674380D01*
X257603571Y-124674380D02*
X257603571Y-125388666D01*
X257555952Y-125531523D01*
X257460714Y-125626761D01*
X257317857Y-125674380D01*
X257222619Y-125674380D01*
X258508333Y-125007714D02*
X258508333Y-125674380D01*
X258270238Y-124626761D02*
X258032142Y-125341047D01*
X258651190Y-125341047D01*
X251476047Y-125674380D02*
X251476047Y-124674380D01*
X251952238Y-125674380D02*
X251952238Y-124674380D01*
X252523666Y-125674380D01*
X252523666Y-124674380D01*
X253285571Y-124674380D02*
X253285571Y-125388666D01*
X253237952Y-125531523D01*
X253142714Y-125626761D01*
X252999857Y-125674380D01*
X252904619Y-125674380D01*
X253666523Y-124674380D02*
X254285571Y-124674380D01*
X253952238Y-125055333D01*
X254095095Y-125055333D01*
X254190333Y-125102952D01*
X254237952Y-125150571D01*
X254285571Y-125245809D01*
X254285571Y-125483904D01*
X254237952Y-125579142D01*
X254190333Y-125626761D01*
X254095095Y-125674380D01*
X253809380Y-125674380D01*
X253714142Y-125626761D01*
X253666523Y-125579142D01*
X247158047Y-125674380D02*
X247158047Y-124674380D01*
X247634238Y-125674380D02*
X247634238Y-124674380D01*
X248205666Y-125674380D01*
X248205666Y-124674380D01*
X248967571Y-124674380D02*
X248967571Y-125388666D01*
X248919952Y-125531523D01*
X248824714Y-125626761D01*
X248681857Y-125674380D01*
X248586619Y-125674380D01*
X249396142Y-124769619D02*
X249443761Y-124722000D01*
X249539000Y-124674380D01*
X249777095Y-124674380D01*
X249872333Y-124722000D01*
X249919952Y-124769619D01*
X249967571Y-124864857D01*
X249967571Y-124960095D01*
X249919952Y-125102952D01*
X249348523Y-125674380D01*
X249967571Y-125674380D01*
X242840047Y-125674380D02*
X242840047Y-124674380D01*
X243316238Y-125674380D02*
X243316238Y-124674380D01*
X243887666Y-125674380D01*
X243887666Y-124674380D01*
X244649571Y-124674380D02*
X244649571Y-125388666D01*
X244601952Y-125531523D01*
X244506714Y-125626761D01*
X244363857Y-125674380D01*
X244268619Y-125674380D01*
X245649571Y-125674380D02*
X245078142Y-125674380D01*
X245363857Y-125674380D02*
X245363857Y-124674380D01*
X245268619Y-124817238D01*
X245173380Y-124912476D01*
X245078142Y-124960095D01*
X244784619Y-84327904D02*
X244737000Y-84280285D01*
X244689380Y-84185047D01*
X244689380Y-83946952D01*
X244737000Y-83851714D01*
X244784619Y-83804095D01*
X244879857Y-83756476D01*
X244975095Y-83756476D01*
X245117952Y-83804095D01*
X245689380Y-84375523D01*
X245689380Y-83756476D01*
X244689380Y-82851714D02*
X244689380Y-83327904D01*
X245165571Y-83375523D01*
X245117952Y-83327904D01*
X245070333Y-83232666D01*
X245070333Y-82994571D01*
X245117952Y-82899333D01*
X245165571Y-82851714D01*
X245260809Y-82804095D01*
X245498904Y-82804095D01*
X245594142Y-82851714D01*
X245641761Y-82899333D01*
X245689380Y-82994571D01*
X245689380Y-83232666D01*
X245641761Y-83327904D01*
X245594142Y-83375523D01*
D13*
%TO.C,J2*%
X257791000Y-113546000D02*
X256791000Y-114046000D01*
X257791000Y-114546000D02*
X257791000Y-113546000D01*
X256791000Y-114046000D02*
X257791000Y-114546000D01*
X255091000Y-96756000D02*
X256401000Y-96756000D01*
X255091000Y-96756000D02*
X255091000Y-96756000D01*
X255091000Y-79656000D02*
X255091000Y-96756000D01*
X248591000Y-79656000D02*
X255091000Y-79656000D01*
X248591000Y-117956000D02*
X248591000Y-79656000D01*
X255091000Y-117956000D02*
X248591000Y-117956000D01*
X255091000Y-100856000D02*
X255091000Y-117956000D01*
X256401000Y-100856000D02*
X255091000Y-100856000D01*
X256401000Y-78356000D02*
X256401000Y-119256000D01*
X247281000Y-78356000D02*
X256401000Y-78356000D01*
X247281000Y-119256000D02*
X247281000Y-78356000D01*
X256401000Y-119256000D02*
X247281000Y-119256000D01*
%TO.C,TP8*%
X255905000Y-124211200D02*
X258405000Y-124211200D01*
X258405000Y-121818400D02*
X258405000Y-121211200D01*
X258405000Y-121211200D02*
X255905000Y-121211200D01*
X255905000Y-123545600D02*
X255905000Y-124211200D01*
X255905000Y-121211200D02*
X255905000Y-121818400D01*
X258405000Y-124211200D02*
X258405000Y-123545600D01*
%TO.C,J6*%
X252285000Y-68143000D02*
X241424000Y-68143000D01*
X252285000Y-73243000D02*
X241424000Y-73243000D01*
X252285000Y-74363000D02*
X241424000Y-74363000D01*
X252285000Y-67623000D02*
X241424000Y-67623000D01*
X252285000Y-74363000D02*
X252285000Y-67623000D01*
X241424000Y-74363000D02*
X241424000Y-67623000D01*
X252525000Y-68023000D02*
X252525000Y-67383000D01*
X252525000Y-67383000D02*
X252125000Y-67383000D01*
%TO.C,J8*%
X265350000Y-119349000D02*
X265350000Y-98329000D01*
X260250000Y-119349000D02*
X260250000Y-98329000D01*
X259130000Y-119349000D02*
X259130000Y-98329000D01*
X265870000Y-119349000D02*
X265870000Y-98329000D01*
X259130000Y-119349000D02*
X265870000Y-119349000D01*
X259130000Y-98329000D02*
X265870000Y-98329000D01*
X265470000Y-119589000D02*
X266110000Y-119589000D01*
X266110000Y-119589000D02*
X266110000Y-119189000D01*
%TO.C,Y1*%
X216419000Y-119338000D02*
X216219000Y-119338000D01*
X217569000Y-121288000D02*
X217569000Y-120688000D01*
X216219000Y-122538000D02*
X216419000Y-122538000D01*
X215069000Y-120688000D02*
X215069000Y-121288000D01*
X215919000Y-119088000D02*
X214969000Y-119088000D01*
%TO.C,R37*%
X190044000Y-106802422D02*
X190044000Y-107319578D01*
X191464000Y-106802422D02*
X191464000Y-107319578D01*
%TO.C,R36*%
X186130000Y-119257578D02*
X186130000Y-118740422D01*
X184710000Y-119257578D02*
X184710000Y-118740422D01*
%TO.C,R32*%
X193113922Y-111708000D02*
X193631078Y-111708000D01*
X193113922Y-110288000D02*
X193631078Y-110288000D01*
%TO.C,R31*%
X187631000Y-123898922D02*
X187631000Y-124416078D01*
X189051000Y-123898922D02*
X189051000Y-124416078D01*
%TO.C,R30*%
X197284078Y-110288000D02*
X196766922Y-110288000D01*
X197284078Y-111708000D02*
X196766922Y-111708000D01*
%TO.C,R29*%
X189790000Y-123868922D02*
X189790000Y-124386078D01*
X191210000Y-123868922D02*
X191210000Y-124386078D01*
%TO.C,Q14*%
X196906000Y-106301000D02*
X196906000Y-107761000D01*
X193746000Y-106301000D02*
X193746000Y-108461000D01*
X193746000Y-106301000D02*
X194676000Y-106301000D01*
X196906000Y-106301000D02*
X195976000Y-106301000D01*
%TO.C,Q13*%
X183914000Y-121290000D02*
X185374000Y-121290000D01*
X183914000Y-124450000D02*
X186074000Y-124450000D01*
X183914000Y-124450000D02*
X183914000Y-123520000D01*
X183914000Y-121290000D02*
X183914000Y-122220000D01*
%TO.C,J7*%
X175458000Y-109505000D02*
X175458000Y-125445000D01*
X180558000Y-109505000D02*
X180558000Y-125445000D01*
X181678000Y-109505000D02*
X181678000Y-125445000D01*
X174938000Y-109505000D02*
X174938000Y-125445000D01*
X181678000Y-109505000D02*
X174938000Y-109505000D01*
X181678000Y-125445000D02*
X174938000Y-125445000D01*
X175338000Y-109265000D02*
X174698000Y-109265000D01*
X174698000Y-109265000D02*
X174698000Y-109665000D01*
%TO.C,TP4*%
X223958000Y-97536000D02*
G75*
G03*
X223958000Y-97536000I-1200000J0D01*
G01*
%TO.C,TP3*%
X227768000Y-97536000D02*
G75*
G03*
X227768000Y-97536000I-1200000J0D01*
G01*
%TO.C,TP2*%
X223958000Y-101854000D02*
G75*
G03*
X223958000Y-101854000I-1200000J0D01*
G01*
%TO.C,TP1*%
X227768000Y-101854000D02*
G75*
G03*
X227768000Y-101854000I-1200000J0D01*
G01*
%TO.C,C1*%
X224383000Y-106960000D02*
X223183000Y-106960000D01*
X219863000Y-106960000D02*
X221063000Y-106960000D01*
X219863000Y-110415563D02*
X219863000Y-106960000D01*
X224383000Y-110415563D02*
X224383000Y-106960000D01*
X223318563Y-111480000D02*
X223183000Y-111480000D01*
X220927437Y-111480000D02*
X221063000Y-111480000D01*
X220927437Y-111480000D02*
X219863000Y-110415563D01*
X223318563Y-111480000D02*
X224383000Y-110415563D01*
X220563000Y-112220000D02*
X220563000Y-111720000D01*
X220313000Y-111970000D02*
X220813000Y-111970000D01*
%TO.C,C2*%
X212038000Y-108003078D02*
X212038000Y-107485922D01*
X210618000Y-108003078D02*
X210618000Y-107485922D01*
%TO.C,C3*%
X213181000Y-121993922D02*
X213181000Y-122511078D01*
X211761000Y-121993922D02*
X211761000Y-122511078D01*
%TO.C,C4*%
X219626922Y-120725000D02*
X220144078Y-120725000D01*
X219626922Y-119305000D02*
X220144078Y-119305000D01*
%TO.C,C5*%
X220144078Y-121337000D02*
X219626922Y-121337000D01*
X220144078Y-122757000D02*
X219626922Y-122757000D01*
%TO.C,C6*%
X211149000Y-121993922D02*
X211149000Y-122511078D01*
X209729000Y-121993922D02*
X209729000Y-122511078D01*
%TO.C,C7*%
X193473000Y-97970078D02*
X193473000Y-97452922D01*
X194893000Y-97970078D02*
X194893000Y-97452922D01*
%TO.C,C8*%
X215258000Y-76029000D02*
X215258000Y-74779000D01*
X215883000Y-75404000D02*
X214633000Y-75404000D01*
X214393000Y-68348437D02*
X213328563Y-67284000D01*
X214393000Y-76939563D02*
X213328563Y-78004000D01*
X214393000Y-76939563D02*
X214393000Y-74154000D01*
X214393000Y-68348437D02*
X214393000Y-71134000D01*
X213328563Y-67284000D02*
X203673000Y-67284000D01*
X213328563Y-78004000D02*
X203673000Y-78004000D01*
X203673000Y-78004000D02*
X203673000Y-74154000D01*
X203673000Y-67284000D02*
X203673000Y-71134000D01*
%TO.C,C9*%
X183471078Y-82602000D02*
X182953922Y-82602000D01*
X183471078Y-84022000D02*
X182953922Y-84022000D01*
%TO.C,C10*%
X207988000Y-79326000D02*
X206988000Y-79326000D01*
X207488000Y-78826000D02*
X207488000Y-79826000D01*
X201782437Y-80066000D02*
X200718000Y-81130437D01*
X208173563Y-80066000D02*
X209238000Y-81130437D01*
X208173563Y-80066000D02*
X206488000Y-80066000D01*
X201782437Y-80066000D02*
X203468000Y-80066000D01*
X200718000Y-81130437D02*
X200718000Y-88586000D01*
X209238000Y-81130437D02*
X209238000Y-88586000D01*
X209238000Y-88586000D02*
X206488000Y-88586000D01*
X200718000Y-88586000D02*
X203468000Y-88586000D01*
%TO.C,C11*%
X197052000Y-91132922D02*
X197052000Y-91650078D01*
X195632000Y-91132922D02*
X195632000Y-91650078D01*
%TO.C,C12*%
X183068000Y-92869000D02*
X183068000Y-92369000D01*
X183318000Y-92619000D02*
X182818000Y-92619000D01*
X182578000Y-89863437D02*
X181513563Y-88799000D01*
X182578000Y-92254563D02*
X181513563Y-93319000D01*
X182578000Y-92254563D02*
X182578000Y-92119000D01*
X182578000Y-89863437D02*
X182578000Y-89999000D01*
X181513563Y-88799000D02*
X178058000Y-88799000D01*
X181513563Y-93319000D02*
X178058000Y-93319000D01*
X178058000Y-93319000D02*
X178058000Y-92119000D01*
X178058000Y-88799000D02*
X178058000Y-89999000D01*
%TO.C,C13*%
X188139000Y-97482922D02*
X188139000Y-98000078D01*
X189559000Y-97482922D02*
X189559000Y-98000078D01*
%TO.C,D1*%
X199949000Y-112612000D02*
X200749000Y-112612000D01*
X199949000Y-107962000D02*
X199949000Y-112612000D01*
X203149000Y-107962000D02*
X203149000Y-112612000D01*
%TO.C,D2*%
X183006000Y-74705000D02*
X183006000Y-80105000D01*
X179706000Y-74705000D02*
X179706000Y-80105000D01*
X183006000Y-74705000D02*
X179706000Y-74705000D01*
%TO.C,D3*%
X181852000Y-88087000D02*
X177202000Y-88087000D01*
X181852000Y-84887000D02*
X177202000Y-84887000D01*
X177202000Y-84887000D02*
X177202000Y-85687000D01*
%TO.C,D4*%
X191324000Y-98917000D02*
X192724000Y-98917000D01*
X191324000Y-99017000D02*
X191324000Y-98917000D01*
X192724000Y-99017000D02*
X191324000Y-99017000D01*
X192724000Y-99117000D02*
X192724000Y-99017000D01*
X191324000Y-99117000D02*
X192724000Y-99117000D01*
X191324000Y-96917000D02*
X191324000Y-99717000D01*
X192724000Y-99717000D02*
X192724000Y-96917000D01*
%TO.C,FB1*%
X187400000Y-98000078D02*
X187400000Y-97482922D01*
X185980000Y-98000078D02*
X185980000Y-97482922D01*
%TO.C,J1*%
X197933000Y-93031000D02*
X199263000Y-93031000D01*
X197933000Y-94361000D02*
X197933000Y-93031000D01*
X200533000Y-93031000D02*
X203133000Y-93031000D01*
X200533000Y-95631000D02*
X200533000Y-93031000D01*
X197933000Y-95631000D02*
X200533000Y-95631000D01*
X203133000Y-93031000D02*
X203133000Y-100771000D01*
X197933000Y-95631000D02*
X197933000Y-100771000D01*
X197933000Y-100771000D02*
X203133000Y-100771000D01*
%TO.C,J3*%
X174436000Y-104462000D02*
X176096000Y-104462000D01*
X174436000Y-96542000D02*
X174436000Y-104462000D01*
X176096000Y-96542000D02*
X174436000Y-96542000D01*
X183906000Y-102552000D02*
X183906000Y-103702000D01*
X184496000Y-98452000D02*
X184496000Y-99152000D01*
X183906000Y-98452000D02*
X184496000Y-98452000D01*
X183906000Y-97302000D02*
X183906000Y-98452000D01*
X181596000Y-104462000D02*
X178996000Y-104462000D01*
X178996000Y-96542000D02*
X181596000Y-96542000D01*
%TO.C,J4*%
X244027000Y-115376000D02*
X242697000Y-115376000D01*
X244027000Y-114046000D02*
X244027000Y-115376000D01*
X241427000Y-115376000D02*
X238827000Y-115376000D01*
X241427000Y-112776000D02*
X241427000Y-115376000D01*
X244027000Y-112776000D02*
X241427000Y-112776000D01*
X238827000Y-115376000D02*
X238827000Y-82236000D01*
X244027000Y-112776000D02*
X244027000Y-82236000D01*
X244027000Y-82236000D02*
X238827000Y-82236000D01*
%TO.C,J5*%
X264369000Y-67256000D02*
X263969000Y-67256000D01*
X264369000Y-67896000D02*
X264369000Y-67256000D01*
X258349000Y-74236000D02*
X258349000Y-67496000D01*
X264129000Y-74236000D02*
X264129000Y-67496000D01*
X264129000Y-67496000D02*
X258349000Y-67496000D01*
X264129000Y-74236000D02*
X258349000Y-74236000D01*
X264129000Y-73116000D02*
X258349000Y-73116000D01*
X264129000Y-68016000D02*
X258349000Y-68016000D01*
%TO.C,JP1*%
X204784000Y-118939000D02*
X204784000Y-120269000D01*
X203454000Y-118939000D02*
X204784000Y-118939000D01*
X202184000Y-118939000D02*
X202184000Y-121599000D01*
X202184000Y-121599000D02*
X199584000Y-121599000D01*
X202184000Y-118939000D02*
X199584000Y-118939000D01*
X199584000Y-118939000D02*
X199584000Y-121599000D01*
%TO.C,JP2*%
X230572000Y-100524000D02*
X231902000Y-100524000D01*
X230572000Y-101854000D02*
X230572000Y-100524000D01*
X233172000Y-100524000D02*
X235772000Y-100524000D01*
X233172000Y-103124000D02*
X233172000Y-100524000D01*
X230572000Y-103124000D02*
X233172000Y-103124000D01*
X235772000Y-100524000D02*
X235772000Y-103184000D01*
X230572000Y-103124000D02*
X230572000Y-103184000D01*
X230572000Y-103184000D02*
X235772000Y-103184000D01*
%TO.C,JP3*%
X230572000Y-98993000D02*
X235772000Y-98993000D01*
X230572000Y-98933000D02*
X230572000Y-98993000D01*
X235772000Y-96333000D02*
X235772000Y-98993000D01*
X230572000Y-98933000D02*
X233172000Y-98933000D01*
X233172000Y-98933000D02*
X233172000Y-96333000D01*
X233172000Y-96333000D02*
X235772000Y-96333000D01*
X230572000Y-97663000D02*
X230572000Y-96333000D01*
X230572000Y-96333000D02*
X231902000Y-96333000D01*
%TO.C,JP4*%
X187646000Y-112081000D02*
X188976000Y-112081000D01*
X187646000Y-113411000D02*
X187646000Y-112081000D01*
X187646000Y-114681000D02*
X190306000Y-114681000D01*
X190306000Y-114681000D02*
X190306000Y-119821000D01*
X187646000Y-114681000D02*
X187646000Y-119821000D01*
X187646000Y-119821000D02*
X190306000Y-119821000D01*
%TO.C,L1*%
X183024000Y-67508600D02*
X177024000Y-67508600D01*
X177024000Y-73508600D02*
X183024000Y-73508600D01*
%TO.C,Q1*%
X235456000Y-112324000D02*
X233996000Y-112324000D01*
X235456000Y-109164000D02*
X233296000Y-109164000D01*
X235456000Y-109164000D02*
X235456000Y-110094000D01*
X235456000Y-112324000D02*
X235456000Y-111394000D01*
%TO.C,Q2*%
X235456000Y-119944000D02*
X233996000Y-119944000D01*
X235456000Y-116784000D02*
X233296000Y-116784000D01*
X235456000Y-116784000D02*
X235456000Y-117714000D01*
X235456000Y-119944000D02*
X235456000Y-119014000D01*
%TO.C,Q3*%
X235456000Y-116134000D02*
X233996000Y-116134000D01*
X235456000Y-112974000D02*
X233296000Y-112974000D01*
X235456000Y-112974000D02*
X235456000Y-113904000D01*
X235456000Y-116134000D02*
X235456000Y-115204000D01*
%TO.C,Q4*%
X235456000Y-108514000D02*
X235456000Y-107584000D01*
X235456000Y-105354000D02*
X235456000Y-106284000D01*
X235456000Y-105354000D02*
X233296000Y-105354000D01*
X235456000Y-108514000D02*
X233996000Y-108514000D01*
%TO.C,Q5*%
X235329000Y-89337000D02*
X233869000Y-89337000D01*
X235329000Y-86177000D02*
X233169000Y-86177000D01*
X235329000Y-86177000D02*
X235329000Y-87107000D01*
X235329000Y-89337000D02*
X235329000Y-88407000D01*
%TO.C,Q6*%
X231519000Y-86670000D02*
X231519000Y-85740000D01*
X231519000Y-83510000D02*
X231519000Y-84440000D01*
X231519000Y-83510000D02*
X229359000Y-83510000D01*
X231519000Y-86670000D02*
X230059000Y-86670000D01*
%TO.C,Q7*%
X231535000Y-91750000D02*
X230075000Y-91750000D01*
X231535000Y-88590000D02*
X229375000Y-88590000D01*
X231535000Y-88590000D02*
X231535000Y-89520000D01*
X231535000Y-91750000D02*
X231535000Y-90820000D01*
%TO.C,Q8*%
X235329000Y-94544000D02*
X233869000Y-94544000D01*
X235329000Y-91384000D02*
X233169000Y-91384000D01*
X235329000Y-91384000D02*
X235329000Y-92314000D01*
X235329000Y-94544000D02*
X235329000Y-93614000D01*
%TO.C,Q9*%
X191841000Y-124855000D02*
X192771000Y-124855000D01*
X195001000Y-124855000D02*
X194071000Y-124855000D01*
X195001000Y-124855000D02*
X195001000Y-122695000D01*
X191841000Y-124855000D02*
X191841000Y-123395000D01*
%TO.C,Q10*%
X196906000Y-113159000D02*
X195976000Y-113159000D01*
X193746000Y-113159000D02*
X194676000Y-113159000D01*
X193746000Y-113159000D02*
X193746000Y-115319000D01*
X196906000Y-113159000D02*
X196906000Y-114619000D01*
%TO.C,R1*%
X203400922Y-116153000D02*
X203918078Y-116153000D01*
X203400922Y-114733000D02*
X203918078Y-114733000D01*
%TO.C,R2*%
X217626000Y-109596422D02*
X217626000Y-110113578D01*
X216206000Y-109596422D02*
X216206000Y-110113578D01*
%TO.C,R3*%
X204093578Y-124027000D02*
X203576422Y-124027000D01*
X204093578Y-122607000D02*
X203576422Y-122607000D01*
%TO.C,R4*%
X200459078Y-122607000D02*
X199941922Y-122607000D01*
X200459078Y-124027000D02*
X199941922Y-124027000D01*
%TO.C,R5*%
X199950000Y-114500922D02*
X199950000Y-115018078D01*
X201370000Y-114500922D02*
X201370000Y-115018078D01*
%TO.C,R6*%
X179885078Y-84022000D02*
X179367922Y-84022000D01*
X179885078Y-82602000D02*
X179367922Y-82602000D01*
%TO.C,R7*%
X230207078Y-108891000D02*
X229689922Y-108891000D01*
X230207078Y-110311000D02*
X229689922Y-110311000D01*
%TO.C,R8*%
X230177078Y-117019000D02*
X229659922Y-117019000D01*
X230177078Y-118439000D02*
X229659922Y-118439000D01*
%TO.C,R9*%
X229659922Y-110923000D02*
X230177078Y-110923000D01*
X229659922Y-112343000D02*
X230177078Y-112343000D01*
%TO.C,R10*%
X230177078Y-119051000D02*
X229659922Y-119051000D01*
X230177078Y-120471000D02*
X229659922Y-120471000D01*
%TO.C,R11*%
X230177078Y-112955000D02*
X229659922Y-112955000D01*
X230177078Y-114375000D02*
X229659922Y-114375000D01*
%TO.C,R12*%
X230177078Y-104827000D02*
X229659922Y-104827000D01*
X230177078Y-106247000D02*
X229659922Y-106247000D01*
%TO.C,R13*%
X229659922Y-114987000D02*
X230177078Y-114987000D01*
X229659922Y-116407000D02*
X230177078Y-116407000D01*
%TO.C,R14*%
X229659922Y-106859000D02*
X230177078Y-106859000D01*
X229659922Y-108279000D02*
X230177078Y-108279000D01*
%TO.C,R15*%
X206958000Y-99260922D02*
X206958000Y-99778078D01*
X205538000Y-99260922D02*
X205538000Y-99778078D01*
%TO.C,R16*%
X205538000Y-92402922D02*
X205538000Y-92920078D01*
X206958000Y-92402922D02*
X206958000Y-92920078D01*
%TO.C,R17*%
X230890578Y-81482000D02*
X230373422Y-81482000D01*
X230890578Y-80062000D02*
X230373422Y-80062000D01*
%TO.C,R18*%
X226768922Y-82094000D02*
X227286078Y-82094000D01*
X226768922Y-83514000D02*
X227286078Y-83514000D01*
%TO.C,R19*%
X234261922Y-85546000D02*
X234779078Y-85546000D01*
X234261922Y-84126000D02*
X234779078Y-84126000D01*
%TO.C,R20*%
X226768922Y-84253000D02*
X227286078Y-84253000D01*
X226768922Y-85673000D02*
X227286078Y-85673000D01*
%TO.C,R21*%
X227256078Y-86412000D02*
X226738922Y-86412000D01*
X227256078Y-87832000D02*
X226738922Y-87832000D01*
%TO.C,R22*%
X231066078Y-93801000D02*
X230548922Y-93801000D01*
X231066078Y-92381000D02*
X230548922Y-92381000D01*
%TO.C,R23*%
X227256078Y-89991000D02*
X226738922Y-89991000D01*
X227256078Y-88571000D02*
X226738922Y-88571000D01*
%TO.C,R24*%
X227286078Y-93801000D02*
X226768922Y-93801000D01*
X227286078Y-92381000D02*
X226768922Y-92381000D01*
%TO.C,R25*%
X196669922Y-120725000D02*
X197187078Y-120725000D01*
X196669922Y-119305000D02*
X197187078Y-119305000D01*
%TO.C,R26*%
X196669922Y-118566000D02*
X197187078Y-118566000D01*
X196669922Y-117146000D02*
X197187078Y-117146000D01*
%TO.C,R27*%
X193631078Y-119305000D02*
X193113922Y-119305000D01*
X193631078Y-120725000D02*
X193113922Y-120725000D01*
%TO.C,R28*%
X193631078Y-117146000D02*
X193113922Y-117146000D01*
X193631078Y-118566000D02*
X193113922Y-118566000D01*
%TO.C,TP5*%
X245451000Y-124211200D02*
X245451000Y-123545600D01*
X242951000Y-121211200D02*
X242951000Y-121818400D01*
X242951000Y-123545600D02*
X242951000Y-124211200D01*
X245451000Y-121211200D02*
X242951000Y-121211200D01*
X245451000Y-121818400D02*
X245451000Y-121211200D01*
X242951000Y-124211200D02*
X245451000Y-124211200D01*
%TO.C,TP6*%
X247269000Y-124211200D02*
X249769000Y-124211200D01*
X249769000Y-121818400D02*
X249769000Y-121211200D01*
X249769000Y-121211200D02*
X247269000Y-121211200D01*
X247269000Y-123545600D02*
X247269000Y-124211200D01*
X247269000Y-121211200D02*
X247269000Y-121818400D01*
X249769000Y-124211200D02*
X249769000Y-123545600D01*
%TO.C,TP7*%
X254087000Y-124211200D02*
X254087000Y-123545600D01*
X251587000Y-121211200D02*
X251587000Y-121818400D01*
X251587000Y-123545600D02*
X251587000Y-124211200D01*
X254087000Y-121211200D02*
X251587000Y-121211200D01*
X254087000Y-121818400D02*
X254087000Y-121211200D01*
X251587000Y-124211200D02*
X254087000Y-124211200D01*
%TO.C,TP9*%
X262723000Y-124211200D02*
X262723000Y-123545600D01*
X260223000Y-121211200D02*
X260223000Y-121818400D01*
X260223000Y-123545600D02*
X260223000Y-124211200D01*
X262723000Y-121211200D02*
X260223000Y-121211200D01*
X262723000Y-121818400D02*
X262723000Y-121211200D01*
X260223000Y-124211200D02*
X262723000Y-124211200D01*
%TO.C,U1*%
X207637000Y-118672000D02*
X207637000Y-119987000D01*
X207337000Y-118672000D02*
X207637000Y-118672000D01*
X207337000Y-118372000D02*
X207337000Y-118672000D01*
X207337000Y-111452000D02*
X207637000Y-111452000D01*
X207337000Y-111752000D02*
X207337000Y-111452000D01*
X214557000Y-118672000D02*
X214257000Y-118672000D01*
X214557000Y-118372000D02*
X214557000Y-118672000D01*
X214557000Y-111452000D02*
X214257000Y-111452000D01*
X214557000Y-111752000D02*
X214557000Y-111452000D01*
%TO.C,U2*%
X195990000Y-70045000D02*
X197090000Y-70045000D01*
X195990000Y-69095000D02*
X195990000Y-70045000D01*
X194490000Y-69095000D02*
X195990000Y-69095000D01*
X195990000Y-78545000D02*
X201115000Y-78545000D01*
X195990000Y-79495000D02*
X195990000Y-78545000D01*
X194490000Y-79495000D02*
X195990000Y-79495000D01*
D10*
%TO.C,U3*%
X193121000Y-93523000D02*
X194721000Y-93523000D01*
X193121000Y-83448000D02*
X187371000Y-83448000D01*
X193121000Y-94098000D02*
X187371000Y-94098000D01*
X193121000Y-83448000D02*
X193121000Y-84098000D01*
X187371000Y-83448000D02*
X187371000Y-84098000D01*
X187371000Y-94098000D02*
X187371000Y-93448000D01*
X193121000Y-94098000D02*
X193121000Y-93523000D01*
D13*
%TO.C,U4*%
X213545500Y-105099000D02*
X215745500Y-105099000D01*
X213545500Y-105099000D02*
X211345500Y-105099000D01*
X213545500Y-99879000D02*
X215745500Y-99879000D01*
X213545500Y-99879000D02*
X209945500Y-99879000D01*
%TO.C,U5*%
X213487000Y-92894000D02*
X209887000Y-92894000D01*
X213487000Y-92894000D02*
X215687000Y-92894000D01*
X213487000Y-98114000D02*
X211287000Y-98114000D01*
X213487000Y-98114000D02*
X215687000Y-98114000D01*
%TO.C,Q11*%
X216914000Y-89083000D02*
X215454000Y-89083000D01*
X216914000Y-85923000D02*
X214754000Y-85923000D01*
X216914000Y-85923000D02*
X216914000Y-86853000D01*
X216914000Y-89083000D02*
X216914000Y-88153000D01*
%TO.C,Q12*%
X220581000Y-91181000D02*
X220581000Y-90251000D01*
X220581000Y-88021000D02*
X220581000Y-88951000D01*
X220581000Y-88021000D02*
X218421000Y-88021000D01*
X220581000Y-91181000D02*
X219121000Y-91181000D01*
%TO.C,R33*%
X212778078Y-83872000D02*
X212260922Y-83872000D01*
X212778078Y-85292000D02*
X212260922Y-85292000D01*
%TO.C,R34*%
X213943000Y-87195922D02*
X213943000Y-87713078D01*
X212523000Y-87195922D02*
X212523000Y-87713078D01*
%TO.C,R35*%
X215846922Y-91134000D02*
X216364078Y-91134000D01*
X215846922Y-89714000D02*
X216364078Y-89714000D01*
%TO.C,C14*%
X209117000Y-99778078D02*
X209117000Y-99260922D01*
X207697000Y-99778078D02*
X207697000Y-99260922D01*
%TO.C,C15*%
X207697000Y-92920078D02*
X207697000Y-92402922D01*
X209117000Y-92920078D02*
X209117000Y-92402922D01*
%TO.C,C16*%
X219277000Y-101214422D02*
X219277000Y-101731578D01*
X217857000Y-101214422D02*
X217857000Y-101731578D01*
%TO.C,C17*%
X217857000Y-94229422D02*
X217857000Y-94746578D01*
X219277000Y-94229422D02*
X219277000Y-94746578D01*
%TO.C,R38*%
X220047078Y-83237000D02*
X219529922Y-83237000D01*
X220047078Y-84657000D02*
X219529922Y-84657000D01*
%TO.C,J2*%
D10*
X251507666Y-119598380D02*
X251507666Y-120312666D01*
X251460047Y-120455523D01*
X251364809Y-120550761D01*
X251221952Y-120598380D01*
X251126714Y-120598380D01*
X251936238Y-119693619D02*
X251983857Y-119646000D01*
X252079095Y-119598380D01*
X252317190Y-119598380D01*
X252412428Y-119646000D01*
X252460047Y-119693619D01*
X252507666Y-119788857D01*
X252507666Y-119884095D01*
X252460047Y-120026952D01*
X251888619Y-120598380D01*
X252507666Y-120598380D01*
%TO.C,J6*%
X239830380Y-74374333D02*
X240544666Y-74374333D01*
X240687523Y-74421952D01*
X240782761Y-74517190D01*
X240830380Y-74660047D01*
X240830380Y-74755285D01*
X239830380Y-73469571D02*
X239830380Y-73660047D01*
X239878000Y-73755285D01*
X239925619Y-73802904D01*
X240068476Y-73898142D01*
X240258952Y-73945761D01*
X240639904Y-73945761D01*
X240735142Y-73898142D01*
X240782761Y-73850523D01*
X240830380Y-73755285D01*
X240830380Y-73564809D01*
X240782761Y-73469571D01*
X240735142Y-73421952D01*
X240639904Y-73374333D01*
X240401809Y-73374333D01*
X240306571Y-73421952D01*
X240258952Y-73469571D01*
X240211333Y-73564809D01*
X240211333Y-73755285D01*
X240258952Y-73850523D01*
X240306571Y-73898142D01*
X240401809Y-73945761D01*
%TO.C,J8*%
X264666666Y-119952380D02*
X264666666Y-120666666D01*
X264619047Y-120809523D01*
X264523809Y-120904761D01*
X264380952Y-120952380D01*
X264285714Y-120952380D01*
X265285714Y-120380952D02*
X265190476Y-120333333D01*
X265142857Y-120285714D01*
X265095238Y-120190476D01*
X265095238Y-120142857D01*
X265142857Y-120047619D01*
X265190476Y-120000000D01*
X265285714Y-119952380D01*
X265476190Y-119952380D01*
X265571428Y-120000000D01*
X265619047Y-120047619D01*
X265666666Y-120142857D01*
X265666666Y-120190476D01*
X265619047Y-120285714D01*
X265571428Y-120333333D01*
X265476190Y-120380952D01*
X265285714Y-120380952D01*
X265190476Y-120428571D01*
X265142857Y-120476190D01*
X265095238Y-120571428D01*
X265095238Y-120761904D01*
X265142857Y-120857142D01*
X265190476Y-120904761D01*
X265285714Y-120952380D01*
X265476190Y-120952380D01*
X265571428Y-120904761D01*
X265619047Y-120857142D01*
X265666666Y-120761904D01*
X265666666Y-120571428D01*
X265619047Y-120476190D01*
X265571428Y-120428571D01*
X265476190Y-120380952D01*
%TO.C,Y1*%
X214095190Y-121864190D02*
X214571380Y-121864190D01*
X213571380Y-122197523D02*
X214095190Y-121864190D01*
X213571380Y-121530857D01*
X214571380Y-120673714D02*
X214571380Y-121245142D01*
X214571380Y-120959428D02*
X213571380Y-120959428D01*
X213714238Y-121054666D01*
X213809476Y-121149904D01*
X213857095Y-121245142D01*
%TO.C,R37*%
X190492142Y-105227380D02*
X190158809Y-104751190D01*
X189920714Y-105227380D02*
X189920714Y-104227380D01*
X190301666Y-104227380D01*
X190396904Y-104275000D01*
X190444523Y-104322619D01*
X190492142Y-104417857D01*
X190492142Y-104560714D01*
X190444523Y-104655952D01*
X190396904Y-104703571D01*
X190301666Y-104751190D01*
X189920714Y-104751190D01*
X190825476Y-104227380D02*
X191444523Y-104227380D01*
X191111190Y-104608333D01*
X191254047Y-104608333D01*
X191349285Y-104655952D01*
X191396904Y-104703571D01*
X191444523Y-104798809D01*
X191444523Y-105036904D01*
X191396904Y-105132142D01*
X191349285Y-105179761D01*
X191254047Y-105227380D01*
X190968333Y-105227380D01*
X190873095Y-105179761D01*
X190825476Y-105132142D01*
X191777857Y-104227380D02*
X192444523Y-104227380D01*
X192015952Y-105227380D01*
%TO.C,R36*%
X184222380Y-119641857D02*
X183746190Y-119975190D01*
X184222380Y-120213285D02*
X183222380Y-120213285D01*
X183222380Y-119832333D01*
X183270000Y-119737095D01*
X183317619Y-119689476D01*
X183412857Y-119641857D01*
X183555714Y-119641857D01*
X183650952Y-119689476D01*
X183698571Y-119737095D01*
X183746190Y-119832333D01*
X183746190Y-120213285D01*
X183222380Y-119308523D02*
X183222380Y-118689476D01*
X183603333Y-119022809D01*
X183603333Y-118879952D01*
X183650952Y-118784714D01*
X183698571Y-118737095D01*
X183793809Y-118689476D01*
X184031904Y-118689476D01*
X184127142Y-118737095D01*
X184174761Y-118784714D01*
X184222380Y-118879952D01*
X184222380Y-119165666D01*
X184174761Y-119260904D01*
X184127142Y-119308523D01*
X183222380Y-117832333D02*
X183222380Y-118022809D01*
X183270000Y-118118047D01*
X183317619Y-118165666D01*
X183460476Y-118260904D01*
X183650952Y-118308523D01*
X184031904Y-118308523D01*
X184127142Y-118260904D01*
X184174761Y-118213285D01*
X184222380Y-118118047D01*
X184222380Y-117927571D01*
X184174761Y-117832333D01*
X184127142Y-117784714D01*
X184031904Y-117737095D01*
X183793809Y-117737095D01*
X183698571Y-117784714D01*
X183650952Y-117832333D01*
X183603333Y-117927571D01*
X183603333Y-118118047D01*
X183650952Y-118213285D01*
X183698571Y-118260904D01*
X183793809Y-118308523D01*
%TO.C,R32*%
X192778142Y-109926380D02*
X192444809Y-109450190D01*
X192206714Y-109926380D02*
X192206714Y-108926380D01*
X192587666Y-108926380D01*
X192682904Y-108974000D01*
X192730523Y-109021619D01*
X192778142Y-109116857D01*
X192778142Y-109259714D01*
X192730523Y-109354952D01*
X192682904Y-109402571D01*
X192587666Y-109450190D01*
X192206714Y-109450190D01*
X193111476Y-108926380D02*
X193730523Y-108926380D01*
X193397190Y-109307333D01*
X193540047Y-109307333D01*
X193635285Y-109354952D01*
X193682904Y-109402571D01*
X193730523Y-109497809D01*
X193730523Y-109735904D01*
X193682904Y-109831142D01*
X193635285Y-109878761D01*
X193540047Y-109926380D01*
X193254333Y-109926380D01*
X193159095Y-109878761D01*
X193111476Y-109831142D01*
X194111476Y-109021619D02*
X194159095Y-108974000D01*
X194254333Y-108926380D01*
X194492428Y-108926380D01*
X194587666Y-108974000D01*
X194635285Y-109021619D01*
X194682904Y-109116857D01*
X194682904Y-109212095D01*
X194635285Y-109354952D01*
X194063857Y-109926380D01*
X194682904Y-109926380D01*
%TO.C,R31*%
X187317142Y-122245380D02*
X186983809Y-121769190D01*
X186745714Y-122245380D02*
X186745714Y-121245380D01*
X187126666Y-121245380D01*
X187221904Y-121293000D01*
X187269523Y-121340619D01*
X187317142Y-121435857D01*
X187317142Y-121578714D01*
X187269523Y-121673952D01*
X187221904Y-121721571D01*
X187126666Y-121769190D01*
X186745714Y-121769190D01*
X187650476Y-121245380D02*
X188269523Y-121245380D01*
X187936190Y-121626333D01*
X188079047Y-121626333D01*
X188174285Y-121673952D01*
X188221904Y-121721571D01*
X188269523Y-121816809D01*
X188269523Y-122054904D01*
X188221904Y-122150142D01*
X188174285Y-122197761D01*
X188079047Y-122245380D01*
X187793333Y-122245380D01*
X187698095Y-122197761D01*
X187650476Y-122150142D01*
X189221904Y-122245380D02*
X188650476Y-122245380D01*
X188936190Y-122245380D02*
X188936190Y-121245380D01*
X188840952Y-121388238D01*
X188745714Y-121483476D01*
X188650476Y-121531095D01*
%TO.C,R30*%
X196334142Y-109926380D02*
X196000809Y-109450190D01*
X195762714Y-109926380D02*
X195762714Y-108926380D01*
X196143666Y-108926380D01*
X196238904Y-108974000D01*
X196286523Y-109021619D01*
X196334142Y-109116857D01*
X196334142Y-109259714D01*
X196286523Y-109354952D01*
X196238904Y-109402571D01*
X196143666Y-109450190D01*
X195762714Y-109450190D01*
X196667476Y-108926380D02*
X197286523Y-108926380D01*
X196953190Y-109307333D01*
X197096047Y-109307333D01*
X197191285Y-109354952D01*
X197238904Y-109402571D01*
X197286523Y-109497809D01*
X197286523Y-109735904D01*
X197238904Y-109831142D01*
X197191285Y-109878761D01*
X197096047Y-109926380D01*
X196810333Y-109926380D01*
X196715095Y-109878761D01*
X196667476Y-109831142D01*
X197905571Y-108926380D02*
X198000809Y-108926380D01*
X198096047Y-108974000D01*
X198143666Y-109021619D01*
X198191285Y-109116857D01*
X198238904Y-109307333D01*
X198238904Y-109545428D01*
X198191285Y-109735904D01*
X198143666Y-109831142D01*
X198096047Y-109878761D01*
X198000809Y-109926380D01*
X197905571Y-109926380D01*
X197810333Y-109878761D01*
X197762714Y-109831142D01*
X197715095Y-109735904D01*
X197667476Y-109545428D01*
X197667476Y-109307333D01*
X197715095Y-109116857D01*
X197762714Y-109021619D01*
X197810333Y-108974000D01*
X197905571Y-108926380D01*
%TO.C,R29*%
X190111142Y-122245380D02*
X189777809Y-121769190D01*
X189539714Y-122245380D02*
X189539714Y-121245380D01*
X189920666Y-121245380D01*
X190015904Y-121293000D01*
X190063523Y-121340619D01*
X190111142Y-121435857D01*
X190111142Y-121578714D01*
X190063523Y-121673952D01*
X190015904Y-121721571D01*
X189920666Y-121769190D01*
X189539714Y-121769190D01*
X190492095Y-121340619D02*
X190539714Y-121293000D01*
X190634952Y-121245380D01*
X190873047Y-121245380D01*
X190968285Y-121293000D01*
X191015904Y-121340619D01*
X191063523Y-121435857D01*
X191063523Y-121531095D01*
X191015904Y-121673952D01*
X190444476Y-122245380D01*
X191063523Y-122245380D01*
X191539714Y-122245380D02*
X191730190Y-122245380D01*
X191825428Y-122197761D01*
X191873047Y-122150142D01*
X191968285Y-122007285D01*
X192015904Y-121816809D01*
X192015904Y-121435857D01*
X191968285Y-121340619D01*
X191920666Y-121293000D01*
X191825428Y-121245380D01*
X191634952Y-121245380D01*
X191539714Y-121293000D01*
X191492095Y-121340619D01*
X191444476Y-121435857D01*
X191444476Y-121673952D01*
X191492095Y-121769190D01*
X191539714Y-121816809D01*
X191634952Y-121864428D01*
X191825428Y-121864428D01*
X191920666Y-121816809D01*
X191968285Y-121769190D01*
X192015904Y-121673952D01*
%TO.C,Q14*%
X193373619Y-107632428D02*
X193326000Y-107727666D01*
X193230761Y-107822904D01*
X193087904Y-107965761D01*
X193040285Y-108061000D01*
X193040285Y-108156238D01*
X193278380Y-108108619D02*
X193230761Y-108203857D01*
X193135523Y-108299095D01*
X192945047Y-108346714D01*
X192611714Y-108346714D01*
X192421238Y-108299095D01*
X192326000Y-108203857D01*
X192278380Y-108108619D01*
X192278380Y-107918142D01*
X192326000Y-107822904D01*
X192421238Y-107727666D01*
X192611714Y-107680047D01*
X192945047Y-107680047D01*
X193135523Y-107727666D01*
X193230761Y-107822904D01*
X193278380Y-107918142D01*
X193278380Y-108108619D01*
X193278380Y-106727666D02*
X193278380Y-107299095D01*
X193278380Y-107013380D02*
X192278380Y-107013380D01*
X192421238Y-107108619D01*
X192516476Y-107203857D01*
X192564095Y-107299095D01*
X192611714Y-105870523D02*
X193278380Y-105870523D01*
X192230761Y-106108619D02*
X192945047Y-106346714D01*
X192945047Y-105727666D01*
%TO.C,Q13*%
X184102571Y-125917619D02*
X184007333Y-125870000D01*
X183912095Y-125774761D01*
X183769238Y-125631904D01*
X183674000Y-125584285D01*
X183578761Y-125584285D01*
X183626380Y-125822380D02*
X183531142Y-125774761D01*
X183435904Y-125679523D01*
X183388285Y-125489047D01*
X183388285Y-125155714D01*
X183435904Y-124965238D01*
X183531142Y-124870000D01*
X183626380Y-124822380D01*
X183816857Y-124822380D01*
X183912095Y-124870000D01*
X184007333Y-124965238D01*
X184054952Y-125155714D01*
X184054952Y-125489047D01*
X184007333Y-125679523D01*
X183912095Y-125774761D01*
X183816857Y-125822380D01*
X183626380Y-125822380D01*
X185007333Y-125822380D02*
X184435904Y-125822380D01*
X184721619Y-125822380D02*
X184721619Y-124822380D01*
X184626380Y-124965238D01*
X184531142Y-125060476D01*
X184435904Y-125108095D01*
X185340666Y-124822380D02*
X185959714Y-124822380D01*
X185626380Y-125203333D01*
X185769238Y-125203333D01*
X185864476Y-125250952D01*
X185912095Y-125298571D01*
X185959714Y-125393809D01*
X185959714Y-125631904D01*
X185912095Y-125727142D01*
X185864476Y-125774761D01*
X185769238Y-125822380D01*
X185483523Y-125822380D01*
X185388285Y-125774761D01*
X185340666Y-125727142D01*
%TO.C,J7*%
X179752666Y-107910380D02*
X179752666Y-108624666D01*
X179705047Y-108767523D01*
X179609809Y-108862761D01*
X179466952Y-108910380D01*
X179371714Y-108910380D01*
X180133619Y-107910380D02*
X180800285Y-107910380D01*
X180371714Y-108910380D01*
%TO.C,TP4*%
X221496095Y-94990380D02*
X222067523Y-94990380D01*
X221781809Y-95990380D02*
X221781809Y-94990380D01*
X222400857Y-95990380D02*
X222400857Y-94990380D01*
X222781809Y-94990380D01*
X222877047Y-95038000D01*
X222924666Y-95085619D01*
X222972285Y-95180857D01*
X222972285Y-95323714D01*
X222924666Y-95418952D01*
X222877047Y-95466571D01*
X222781809Y-95514190D01*
X222400857Y-95514190D01*
X223829428Y-95323714D02*
X223829428Y-95990380D01*
X223591333Y-94942761D02*
X223353238Y-95657047D01*
X223972285Y-95657047D01*
%TO.C,TP3*%
X225306095Y-94990380D02*
X225877523Y-94990380D01*
X225591809Y-95990380D02*
X225591809Y-94990380D01*
X226210857Y-95990380D02*
X226210857Y-94990380D01*
X226591809Y-94990380D01*
X226687047Y-95038000D01*
X226734666Y-95085619D01*
X226782285Y-95180857D01*
X226782285Y-95323714D01*
X226734666Y-95418952D01*
X226687047Y-95466571D01*
X226591809Y-95514190D01*
X226210857Y-95514190D01*
X227115619Y-94990380D02*
X227734666Y-94990380D01*
X227401333Y-95371333D01*
X227544190Y-95371333D01*
X227639428Y-95418952D01*
X227687047Y-95466571D01*
X227734666Y-95561809D01*
X227734666Y-95799904D01*
X227687047Y-95895142D01*
X227639428Y-95942761D01*
X227544190Y-95990380D01*
X227258476Y-95990380D01*
X227163238Y-95942761D01*
X227115619Y-95895142D01*
%TO.C,TP2*%
X221496095Y-99308380D02*
X222067523Y-99308380D01*
X221781809Y-100308380D02*
X221781809Y-99308380D01*
X222400857Y-100308380D02*
X222400857Y-99308380D01*
X222781809Y-99308380D01*
X222877047Y-99356000D01*
X222924666Y-99403619D01*
X222972285Y-99498857D01*
X222972285Y-99641714D01*
X222924666Y-99736952D01*
X222877047Y-99784571D01*
X222781809Y-99832190D01*
X222400857Y-99832190D01*
X223353238Y-99403619D02*
X223400857Y-99356000D01*
X223496095Y-99308380D01*
X223734190Y-99308380D01*
X223829428Y-99356000D01*
X223877047Y-99403619D01*
X223924666Y-99498857D01*
X223924666Y-99594095D01*
X223877047Y-99736952D01*
X223305619Y-100308380D01*
X223924666Y-100308380D01*
%TO.C,TP1*%
X225306095Y-99308380D02*
X225877523Y-99308380D01*
X225591809Y-100308380D02*
X225591809Y-99308380D01*
X226210857Y-100308380D02*
X226210857Y-99308380D01*
X226591809Y-99308380D01*
X226687047Y-99356000D01*
X226734666Y-99403619D01*
X226782285Y-99498857D01*
X226782285Y-99641714D01*
X226734666Y-99736952D01*
X226687047Y-99784571D01*
X226591809Y-99832190D01*
X226210857Y-99832190D01*
X227734666Y-100308380D02*
X227163238Y-100308380D01*
X227448952Y-100308380D02*
X227448952Y-99308380D01*
X227353714Y-99451238D01*
X227258476Y-99546476D01*
X227163238Y-99594095D01*
%TO.C,C1*%
X219280142Y-109386666D02*
X219327761Y-109434285D01*
X219375380Y-109577142D01*
X219375380Y-109672380D01*
X219327761Y-109815238D01*
X219232523Y-109910476D01*
X219137285Y-109958095D01*
X218946809Y-110005714D01*
X218803952Y-110005714D01*
X218613476Y-109958095D01*
X218518238Y-109910476D01*
X218423000Y-109815238D01*
X218375380Y-109672380D01*
X218375380Y-109577142D01*
X218423000Y-109434285D01*
X218470619Y-109386666D01*
X219375380Y-108434285D02*
X219375380Y-109005714D01*
X219375380Y-108720000D02*
X218375380Y-108720000D01*
X218518238Y-108815238D01*
X218613476Y-108910476D01*
X218661095Y-109005714D01*
%TO.C,C2*%
X210035142Y-107911166D02*
X210082761Y-107958785D01*
X210130380Y-108101642D01*
X210130380Y-108196880D01*
X210082761Y-108339738D01*
X209987523Y-108434976D01*
X209892285Y-108482595D01*
X209701809Y-108530214D01*
X209558952Y-108530214D01*
X209368476Y-108482595D01*
X209273238Y-108434976D01*
X209178000Y-108339738D01*
X209130380Y-108196880D01*
X209130380Y-108101642D01*
X209178000Y-107958785D01*
X209225619Y-107911166D01*
X209225619Y-107530214D02*
X209178000Y-107482595D01*
X209130380Y-107387357D01*
X209130380Y-107149261D01*
X209178000Y-107054023D01*
X209225619Y-107006404D01*
X209320857Y-106958785D01*
X209416095Y-106958785D01*
X209558952Y-107006404D01*
X210130380Y-107577833D01*
X210130380Y-106958785D01*
%TO.C,C3*%
X214209333Y-124182142D02*
X214161714Y-124229761D01*
X214018857Y-124277380D01*
X213923619Y-124277380D01*
X213780761Y-124229761D01*
X213685523Y-124134523D01*
X213637904Y-124039285D01*
X213590285Y-123848809D01*
X213590285Y-123705952D01*
X213637904Y-123515476D01*
X213685523Y-123420238D01*
X213780761Y-123325000D01*
X213923619Y-123277380D01*
X214018857Y-123277380D01*
X214161714Y-123325000D01*
X214209333Y-123372619D01*
X214542666Y-123277380D02*
X215161714Y-123277380D01*
X214828380Y-123658333D01*
X214971238Y-123658333D01*
X215066476Y-123705952D01*
X215114095Y-123753571D01*
X215161714Y-123848809D01*
X215161714Y-124086904D01*
X215114095Y-124182142D01*
X215066476Y-124229761D01*
X214971238Y-124277380D01*
X214685523Y-124277380D01*
X214590285Y-124229761D01*
X214542666Y-124182142D01*
%TO.C,C4*%
X219718833Y-118722142D02*
X219671214Y-118769761D01*
X219528357Y-118817380D01*
X219433119Y-118817380D01*
X219290261Y-118769761D01*
X219195023Y-118674523D01*
X219147404Y-118579285D01*
X219099785Y-118388809D01*
X219099785Y-118245952D01*
X219147404Y-118055476D01*
X219195023Y-117960238D01*
X219290261Y-117865000D01*
X219433119Y-117817380D01*
X219528357Y-117817380D01*
X219671214Y-117865000D01*
X219718833Y-117912619D01*
X220575976Y-118150714D02*
X220575976Y-118817380D01*
X220337880Y-117769761D02*
X220099785Y-118484047D01*
X220718833Y-118484047D01*
%TO.C,C5*%
X219718833Y-124054142D02*
X219671214Y-124101761D01*
X219528357Y-124149380D01*
X219433119Y-124149380D01*
X219290261Y-124101761D01*
X219195023Y-124006523D01*
X219147404Y-123911285D01*
X219099785Y-123720809D01*
X219099785Y-123577952D01*
X219147404Y-123387476D01*
X219195023Y-123292238D01*
X219290261Y-123197000D01*
X219433119Y-123149380D01*
X219528357Y-123149380D01*
X219671214Y-123197000D01*
X219718833Y-123244619D01*
X220623595Y-123149380D02*
X220147404Y-123149380D01*
X220099785Y-123625571D01*
X220147404Y-123577952D01*
X220242642Y-123530333D01*
X220480738Y-123530333D01*
X220575976Y-123577952D01*
X220623595Y-123625571D01*
X220671214Y-123720809D01*
X220671214Y-123958904D01*
X220623595Y-124054142D01*
X220575976Y-124101761D01*
X220480738Y-124149380D01*
X220242642Y-124149380D01*
X220147404Y-124101761D01*
X220099785Y-124054142D01*
%TO.C,C6*%
X209145142Y-123229666D02*
X209192761Y-123277285D01*
X209240380Y-123420142D01*
X209240380Y-123515380D01*
X209192761Y-123658238D01*
X209097523Y-123753476D01*
X209002285Y-123801095D01*
X208811809Y-123848714D01*
X208668952Y-123848714D01*
X208478476Y-123801095D01*
X208383238Y-123753476D01*
X208288000Y-123658238D01*
X208240380Y-123515380D01*
X208240380Y-123420142D01*
X208288000Y-123277285D01*
X208335619Y-123229666D01*
X208240380Y-122372523D02*
X208240380Y-122563000D01*
X208288000Y-122658238D01*
X208335619Y-122705857D01*
X208478476Y-122801095D01*
X208668952Y-122848714D01*
X209049904Y-122848714D01*
X209145142Y-122801095D01*
X209192761Y-122753476D01*
X209240380Y-122658238D01*
X209240380Y-122467761D01*
X209192761Y-122372523D01*
X209145142Y-122324904D01*
X209049904Y-122277285D01*
X208811809Y-122277285D01*
X208716571Y-122324904D01*
X208668952Y-122372523D01*
X208621333Y-122467761D01*
X208621333Y-122658238D01*
X208668952Y-122753476D01*
X208716571Y-122801095D01*
X208811809Y-122848714D01*
%TO.C,C7*%
X194016333Y-95734142D02*
X193968714Y-95781761D01*
X193825857Y-95829380D01*
X193730619Y-95829380D01*
X193587761Y-95781761D01*
X193492523Y-95686523D01*
X193444904Y-95591285D01*
X193397285Y-95400809D01*
X193397285Y-95257952D01*
X193444904Y-95067476D01*
X193492523Y-94972238D01*
X193587761Y-94877000D01*
X193730619Y-94829380D01*
X193825857Y-94829380D01*
X193968714Y-94877000D01*
X194016333Y-94924619D01*
X194349666Y-94829380D02*
X195016333Y-94829380D01*
X194587761Y-95829380D01*
%TO.C,C8*%
X208866333Y-79301142D02*
X208818714Y-79348761D01*
X208675857Y-79396380D01*
X208580619Y-79396380D01*
X208437761Y-79348761D01*
X208342523Y-79253523D01*
X208294904Y-79158285D01*
X208247285Y-78967809D01*
X208247285Y-78824952D01*
X208294904Y-78634476D01*
X208342523Y-78539238D01*
X208437761Y-78444000D01*
X208580619Y-78396380D01*
X208675857Y-78396380D01*
X208818714Y-78444000D01*
X208866333Y-78491619D01*
X209437761Y-78824952D02*
X209342523Y-78777333D01*
X209294904Y-78729714D01*
X209247285Y-78634476D01*
X209247285Y-78586857D01*
X209294904Y-78491619D01*
X209342523Y-78444000D01*
X209437761Y-78396380D01*
X209628238Y-78396380D01*
X209723476Y-78444000D01*
X209771095Y-78491619D01*
X209818714Y-78586857D01*
X209818714Y-78634476D01*
X209771095Y-78729714D01*
X209723476Y-78777333D01*
X209628238Y-78824952D01*
X209437761Y-78824952D01*
X209342523Y-78872571D01*
X209294904Y-78920190D01*
X209247285Y-79015428D01*
X209247285Y-79205904D01*
X209294904Y-79301142D01*
X209342523Y-79348761D01*
X209437761Y-79396380D01*
X209628238Y-79396380D01*
X209723476Y-79348761D01*
X209771095Y-79301142D01*
X209818714Y-79205904D01*
X209818714Y-79015428D01*
X209771095Y-78920190D01*
X209723476Y-78872571D01*
X209628238Y-78824952D01*
%TO.C,C9*%
X183045833Y-85319142D02*
X182998214Y-85366761D01*
X182855357Y-85414380D01*
X182760119Y-85414380D01*
X182617261Y-85366761D01*
X182522023Y-85271523D01*
X182474404Y-85176285D01*
X182426785Y-84985809D01*
X182426785Y-84842952D01*
X182474404Y-84652476D01*
X182522023Y-84557238D01*
X182617261Y-84462000D01*
X182760119Y-84414380D01*
X182855357Y-84414380D01*
X182998214Y-84462000D01*
X183045833Y-84509619D01*
X183522023Y-85414380D02*
X183712500Y-85414380D01*
X183807738Y-85366761D01*
X183855357Y-85319142D01*
X183950595Y-85176285D01*
X183998214Y-84985809D01*
X183998214Y-84604857D01*
X183950595Y-84509619D01*
X183902976Y-84462000D01*
X183807738Y-84414380D01*
X183617261Y-84414380D01*
X183522023Y-84462000D01*
X183474404Y-84509619D01*
X183426785Y-84604857D01*
X183426785Y-84842952D01*
X183474404Y-84938190D01*
X183522023Y-84985809D01*
X183617261Y-85033428D01*
X183807738Y-85033428D01*
X183902976Y-84985809D01*
X183950595Y-84938190D01*
X183998214Y-84842952D01*
%TO.C,C10*%
X210535142Y-84968857D02*
X210582761Y-85016476D01*
X210630380Y-85159333D01*
X210630380Y-85254571D01*
X210582761Y-85397428D01*
X210487523Y-85492666D01*
X210392285Y-85540285D01*
X210201809Y-85587904D01*
X210058952Y-85587904D01*
X209868476Y-85540285D01*
X209773238Y-85492666D01*
X209678000Y-85397428D01*
X209630380Y-85254571D01*
X209630380Y-85159333D01*
X209678000Y-85016476D01*
X209725619Y-84968857D01*
X210630380Y-84016476D02*
X210630380Y-84587904D01*
X210630380Y-84302190D02*
X209630380Y-84302190D01*
X209773238Y-84397428D01*
X209868476Y-84492666D01*
X209916095Y-84587904D01*
X209630380Y-83397428D02*
X209630380Y-83302190D01*
X209678000Y-83206952D01*
X209725619Y-83159333D01*
X209820857Y-83111714D01*
X210011333Y-83064095D01*
X210249428Y-83064095D01*
X210439904Y-83111714D01*
X210535142Y-83159333D01*
X210582761Y-83206952D01*
X210630380Y-83302190D01*
X210630380Y-83397428D01*
X210582761Y-83492666D01*
X210535142Y-83540285D01*
X210439904Y-83587904D01*
X210249428Y-83635523D01*
X210011333Y-83635523D01*
X209820857Y-83587904D01*
X209725619Y-83540285D01*
X209678000Y-83492666D01*
X209630380Y-83397428D01*
%TO.C,C11*%
X196080142Y-89384142D02*
X196032523Y-89431761D01*
X195889666Y-89479380D01*
X195794428Y-89479380D01*
X195651571Y-89431761D01*
X195556333Y-89336523D01*
X195508714Y-89241285D01*
X195461095Y-89050809D01*
X195461095Y-88907952D01*
X195508714Y-88717476D01*
X195556333Y-88622238D01*
X195651571Y-88527000D01*
X195794428Y-88479380D01*
X195889666Y-88479380D01*
X196032523Y-88527000D01*
X196080142Y-88574619D01*
X197032523Y-89479380D02*
X196461095Y-89479380D01*
X196746809Y-89479380D02*
X196746809Y-88479380D01*
X196651571Y-88622238D01*
X196556333Y-88717476D01*
X196461095Y-88765095D01*
X197984904Y-89479380D02*
X197413476Y-89479380D01*
X197699190Y-89479380D02*
X197699190Y-88479380D01*
X197603952Y-88622238D01*
X197508714Y-88717476D01*
X197413476Y-88765095D01*
%TO.C,C12*%
X175506142Y-93575142D02*
X175458523Y-93622761D01*
X175315666Y-93670380D01*
X175220428Y-93670380D01*
X175077571Y-93622761D01*
X174982333Y-93527523D01*
X174934714Y-93432285D01*
X174887095Y-93241809D01*
X174887095Y-93098952D01*
X174934714Y-92908476D01*
X174982333Y-92813238D01*
X175077571Y-92718000D01*
X175220428Y-92670380D01*
X175315666Y-92670380D01*
X175458523Y-92718000D01*
X175506142Y-92765619D01*
X176458523Y-93670380D02*
X175887095Y-93670380D01*
X176172809Y-93670380D02*
X176172809Y-92670380D01*
X176077571Y-92813238D01*
X175982333Y-92908476D01*
X175887095Y-92956095D01*
X176839476Y-92765619D02*
X176887095Y-92718000D01*
X176982333Y-92670380D01*
X177220428Y-92670380D01*
X177315666Y-92718000D01*
X177363285Y-92765619D01*
X177410904Y-92860857D01*
X177410904Y-92956095D01*
X177363285Y-93098952D01*
X176791857Y-93670380D01*
X177410904Y-93670380D01*
%TO.C,C13*%
X190856142Y-98384357D02*
X190903761Y-98431976D01*
X190951380Y-98574833D01*
X190951380Y-98670071D01*
X190903761Y-98812928D01*
X190808523Y-98908166D01*
X190713285Y-98955785D01*
X190522809Y-99003404D01*
X190379952Y-99003404D01*
X190189476Y-98955785D01*
X190094238Y-98908166D01*
X189999000Y-98812928D01*
X189951380Y-98670071D01*
X189951380Y-98574833D01*
X189999000Y-98431976D01*
X190046619Y-98384357D01*
X190951380Y-97431976D02*
X190951380Y-98003404D01*
X190951380Y-97717690D02*
X189951380Y-97717690D01*
X190094238Y-97812928D01*
X190189476Y-97908166D01*
X190237095Y-98003404D01*
X189951380Y-97098642D02*
X189951380Y-96479595D01*
X190332333Y-96812928D01*
X190332333Y-96670071D01*
X190379952Y-96574833D01*
X190427571Y-96527214D01*
X190522809Y-96479595D01*
X190760904Y-96479595D01*
X190856142Y-96527214D01*
X190903761Y-96574833D01*
X190951380Y-96670071D01*
X190951380Y-96955785D01*
X190903761Y-97051023D01*
X190856142Y-97098642D01*
%TO.C,D1*%
X204541380Y-112371095D02*
X203541380Y-112371095D01*
X203541380Y-112133000D01*
X203589000Y-111990142D01*
X203684238Y-111894904D01*
X203779476Y-111847285D01*
X203969952Y-111799666D01*
X204112809Y-111799666D01*
X204303285Y-111847285D01*
X204398523Y-111894904D01*
X204493761Y-111990142D01*
X204541380Y-112133000D01*
X204541380Y-112371095D01*
X204541380Y-110847285D02*
X204541380Y-111418714D01*
X204541380Y-111133000D02*
X203541380Y-111133000D01*
X203684238Y-111228238D01*
X203779476Y-111323476D01*
X203827095Y-111418714D01*
%TO.C,D2*%
X184308380Y-78843095D02*
X183308380Y-78843095D01*
X183308380Y-78605000D01*
X183356000Y-78462142D01*
X183451238Y-78366904D01*
X183546476Y-78319285D01*
X183736952Y-78271666D01*
X183879809Y-78271666D01*
X184070285Y-78319285D01*
X184165523Y-78366904D01*
X184260761Y-78462142D01*
X184308380Y-78605000D01*
X184308380Y-78843095D01*
X183403619Y-77890714D02*
X183356000Y-77843095D01*
X183308380Y-77747857D01*
X183308380Y-77509761D01*
X183356000Y-77414523D01*
X183403619Y-77366904D01*
X183498857Y-77319285D01*
X183594095Y-77319285D01*
X183736952Y-77366904D01*
X184308380Y-77938333D01*
X184308380Y-77319285D01*
%TO.C,D3*%
X183332380Y-88368095D02*
X182332380Y-88368095D01*
X182332380Y-88130000D01*
X182380000Y-87987142D01*
X182475238Y-87891904D01*
X182570476Y-87844285D01*
X182760952Y-87796666D01*
X182903809Y-87796666D01*
X183094285Y-87844285D01*
X183189523Y-87891904D01*
X183284761Y-87987142D01*
X183332380Y-88130000D01*
X183332380Y-88368095D01*
X182332380Y-87463333D02*
X182332380Y-86844285D01*
X182713333Y-87177619D01*
X182713333Y-87034761D01*
X182760952Y-86939523D01*
X182808571Y-86891904D01*
X182903809Y-86844285D01*
X183141904Y-86844285D01*
X183237142Y-86891904D01*
X183284761Y-86939523D01*
X183332380Y-87034761D01*
X183332380Y-87320476D01*
X183284761Y-87415714D01*
X183237142Y-87463333D01*
%TO.C,D4*%
X191031904Y-95829380D02*
X191031904Y-94829380D01*
X191270000Y-94829380D01*
X191412857Y-94877000D01*
X191508095Y-94972238D01*
X191555714Y-95067476D01*
X191603333Y-95257952D01*
X191603333Y-95400809D01*
X191555714Y-95591285D01*
X191508095Y-95686523D01*
X191412857Y-95781761D01*
X191270000Y-95829380D01*
X191031904Y-95829380D01*
X192460476Y-95162714D02*
X192460476Y-95829380D01*
X192222380Y-94781761D02*
X191984285Y-95496047D01*
X192603333Y-95496047D01*
%TO.C,FB1*%
X185856666Y-95335571D02*
X185523333Y-95335571D01*
X185523333Y-95859380D02*
X185523333Y-94859380D01*
X185999523Y-94859380D01*
X186713809Y-95335571D02*
X186856666Y-95383190D01*
X186904285Y-95430809D01*
X186951904Y-95526047D01*
X186951904Y-95668904D01*
X186904285Y-95764142D01*
X186856666Y-95811761D01*
X186761428Y-95859380D01*
X186380476Y-95859380D01*
X186380476Y-94859380D01*
X186713809Y-94859380D01*
X186809047Y-94907000D01*
X186856666Y-94954619D01*
X186904285Y-95049857D01*
X186904285Y-95145095D01*
X186856666Y-95240333D01*
X186809047Y-95287952D01*
X186713809Y-95335571D01*
X186380476Y-95335571D01*
X187904285Y-95859380D02*
X187332857Y-95859380D01*
X187618571Y-95859380D02*
X187618571Y-94859380D01*
X187523333Y-95002238D01*
X187428095Y-95097476D01*
X187332857Y-95145095D01*
%TO.C,J1*%
X200199666Y-91483380D02*
X200199666Y-92197666D01*
X200152047Y-92340523D01*
X200056809Y-92435761D01*
X199913952Y-92483380D01*
X199818714Y-92483380D01*
X201199666Y-92483380D02*
X200628238Y-92483380D01*
X200913952Y-92483380D02*
X200913952Y-91483380D01*
X200818714Y-91626238D01*
X200723476Y-91721476D01*
X200628238Y-91769095D01*
%TO.C,J3*%
X183601666Y-106640380D02*
X183601666Y-107354666D01*
X183554047Y-107497523D01*
X183458809Y-107592761D01*
X183315952Y-107640380D01*
X183220714Y-107640380D01*
X183982619Y-106640380D02*
X184601666Y-106640380D01*
X184268333Y-107021333D01*
X184411190Y-107021333D01*
X184506428Y-107068952D01*
X184554047Y-107116571D01*
X184601666Y-107211809D01*
X184601666Y-107449904D01*
X184554047Y-107545142D01*
X184506428Y-107592761D01*
X184411190Y-107640380D01*
X184125476Y-107640380D01*
X184030238Y-107592761D01*
X183982619Y-107545142D01*
%TO.C,J4*%
X244816380Y-116538333D02*
X245530666Y-116538333D01*
X245673523Y-116585952D01*
X245768761Y-116681190D01*
X245816380Y-116824047D01*
X245816380Y-116919285D01*
X245149714Y-115633571D02*
X245816380Y-115633571D01*
X244768761Y-115871666D02*
X245483047Y-116109761D01*
X245483047Y-115490714D01*
%TO.C,J5*%
X256754380Y-74247333D02*
X257468666Y-74247333D01*
X257611523Y-74294952D01*
X257706761Y-74390190D01*
X257754380Y-74533047D01*
X257754380Y-74628285D01*
X256754380Y-73294952D02*
X256754380Y-73771142D01*
X257230571Y-73818761D01*
X257182952Y-73771142D01*
X257135333Y-73675904D01*
X257135333Y-73437809D01*
X257182952Y-73342571D01*
X257230571Y-73294952D01*
X257325809Y-73247333D01*
X257563904Y-73247333D01*
X257659142Y-73294952D01*
X257706761Y-73342571D01*
X257754380Y-73437809D01*
X257754380Y-73675904D01*
X257706761Y-73771142D01*
X257659142Y-73818761D01*
%TO.C,JP1*%
X205446380Y-122753333D02*
X206160666Y-122753333D01*
X206303523Y-122800952D01*
X206398761Y-122896190D01*
X206446380Y-123039047D01*
X206446380Y-123134285D01*
X206446380Y-122277142D02*
X205446380Y-122277142D01*
X205446380Y-121896190D01*
X205494000Y-121800952D01*
X205541619Y-121753333D01*
X205636857Y-121705714D01*
X205779714Y-121705714D01*
X205874952Y-121753333D01*
X205922571Y-121800952D01*
X205970190Y-121896190D01*
X205970190Y-122277142D01*
X206446380Y-120753333D02*
X206446380Y-121324761D01*
X206446380Y-121039047D02*
X205446380Y-121039047D01*
X205589238Y-121134285D01*
X205684476Y-121229523D01*
X205732095Y-121324761D01*
%TO.C,JP2*%
X228814380Y-102687333D02*
X229528666Y-102687333D01*
X229671523Y-102734952D01*
X229766761Y-102830190D01*
X229814380Y-102973047D01*
X229814380Y-103068285D01*
X229814380Y-102211142D02*
X228814380Y-102211142D01*
X228814380Y-101830190D01*
X228862000Y-101734952D01*
X228909619Y-101687333D01*
X229004857Y-101639714D01*
X229147714Y-101639714D01*
X229242952Y-101687333D01*
X229290571Y-101734952D01*
X229338190Y-101830190D01*
X229338190Y-102211142D01*
X228909619Y-101258761D02*
X228862000Y-101211142D01*
X228814380Y-101115904D01*
X228814380Y-100877809D01*
X228862000Y-100782571D01*
X228909619Y-100734952D01*
X229004857Y-100687333D01*
X229100095Y-100687333D01*
X229242952Y-100734952D01*
X229814380Y-101306380D01*
X229814380Y-100687333D01*
%TO.C,JP3*%
X228814380Y-98369333D02*
X229528666Y-98369333D01*
X229671523Y-98416952D01*
X229766761Y-98512190D01*
X229814380Y-98655047D01*
X229814380Y-98750285D01*
X229814380Y-97893142D02*
X228814380Y-97893142D01*
X228814380Y-97512190D01*
X228862000Y-97416952D01*
X228909619Y-97369333D01*
X229004857Y-97321714D01*
X229147714Y-97321714D01*
X229242952Y-97369333D01*
X229290571Y-97416952D01*
X229338190Y-97512190D01*
X229338190Y-97893142D01*
X228814380Y-96988380D02*
X228814380Y-96369333D01*
X229195333Y-96702666D01*
X229195333Y-96559809D01*
X229242952Y-96464571D01*
X229290571Y-96416952D01*
X229385809Y-96369333D01*
X229623904Y-96369333D01*
X229719142Y-96416952D01*
X229766761Y-96464571D01*
X229814380Y-96559809D01*
X229814380Y-96845523D01*
X229766761Y-96940761D01*
X229719142Y-96988380D01*
%TO.C,JP4*%
X188142666Y-110533380D02*
X188142666Y-111247666D01*
X188095047Y-111390523D01*
X187999809Y-111485761D01*
X187856952Y-111533380D01*
X187761714Y-111533380D01*
X188618857Y-111533380D02*
X188618857Y-110533380D01*
X188999809Y-110533380D01*
X189095047Y-110581000D01*
X189142666Y-110628619D01*
X189190285Y-110723857D01*
X189190285Y-110866714D01*
X189142666Y-110961952D01*
X189095047Y-111009571D01*
X188999809Y-111057190D01*
X188618857Y-111057190D01*
X190047428Y-110866714D02*
X190047428Y-111533380D01*
X189809333Y-110485761D02*
X189571238Y-111200047D01*
X190190285Y-111200047D01*
%TO.C,L1*%
X178686133Y-74899780D02*
X178209942Y-74899780D01*
X178209942Y-73899780D01*
X179543276Y-74899780D02*
X178971847Y-74899780D01*
X179257561Y-74899780D02*
X179257561Y-73899780D01*
X179162323Y-74042638D01*
X179067085Y-74137876D01*
X178971847Y-74185495D01*
%TO.C,Q1*%
X232830619Y-109950238D02*
X232783000Y-110045476D01*
X232687761Y-110140714D01*
X232544904Y-110283571D01*
X232497285Y-110378809D01*
X232497285Y-110474047D01*
X232735380Y-110426428D02*
X232687761Y-110521666D01*
X232592523Y-110616904D01*
X232402047Y-110664523D01*
X232068714Y-110664523D01*
X231878238Y-110616904D01*
X231783000Y-110521666D01*
X231735380Y-110426428D01*
X231735380Y-110235952D01*
X231783000Y-110140714D01*
X231878238Y-110045476D01*
X232068714Y-109997857D01*
X232402047Y-109997857D01*
X232592523Y-110045476D01*
X232687761Y-110140714D01*
X232735380Y-110235952D01*
X232735380Y-110426428D01*
X232735380Y-109045476D02*
X232735380Y-109616904D01*
X232735380Y-109331190D02*
X231735380Y-109331190D01*
X231878238Y-109426428D01*
X231973476Y-109521666D01*
X232021095Y-109616904D01*
%TO.C,Q2*%
X232830619Y-117570238D02*
X232783000Y-117665476D01*
X232687761Y-117760714D01*
X232544904Y-117903571D01*
X232497285Y-117998809D01*
X232497285Y-118094047D01*
X232735380Y-118046428D02*
X232687761Y-118141666D01*
X232592523Y-118236904D01*
X232402047Y-118284523D01*
X232068714Y-118284523D01*
X231878238Y-118236904D01*
X231783000Y-118141666D01*
X231735380Y-118046428D01*
X231735380Y-117855952D01*
X231783000Y-117760714D01*
X231878238Y-117665476D01*
X232068714Y-117617857D01*
X232402047Y-117617857D01*
X232592523Y-117665476D01*
X232687761Y-117760714D01*
X232735380Y-117855952D01*
X232735380Y-118046428D01*
X231830619Y-117236904D02*
X231783000Y-117189285D01*
X231735380Y-117094047D01*
X231735380Y-116855952D01*
X231783000Y-116760714D01*
X231830619Y-116713095D01*
X231925857Y-116665476D01*
X232021095Y-116665476D01*
X232163952Y-116713095D01*
X232735380Y-117284523D01*
X232735380Y-116665476D01*
%TO.C,Q3*%
X232830619Y-113760238D02*
X232783000Y-113855476D01*
X232687761Y-113950714D01*
X232544904Y-114093571D01*
X232497285Y-114188809D01*
X232497285Y-114284047D01*
X232735380Y-114236428D02*
X232687761Y-114331666D01*
X232592523Y-114426904D01*
X232402047Y-114474523D01*
X232068714Y-114474523D01*
X231878238Y-114426904D01*
X231783000Y-114331666D01*
X231735380Y-114236428D01*
X231735380Y-114045952D01*
X231783000Y-113950714D01*
X231878238Y-113855476D01*
X232068714Y-113807857D01*
X232402047Y-113807857D01*
X232592523Y-113855476D01*
X232687761Y-113950714D01*
X232735380Y-114045952D01*
X232735380Y-114236428D01*
X231735380Y-113474523D02*
X231735380Y-112855476D01*
X232116333Y-113188809D01*
X232116333Y-113045952D01*
X232163952Y-112950714D01*
X232211571Y-112903095D01*
X232306809Y-112855476D01*
X232544904Y-112855476D01*
X232640142Y-112903095D01*
X232687761Y-112950714D01*
X232735380Y-113045952D01*
X232735380Y-113331666D01*
X232687761Y-113426904D01*
X232640142Y-113474523D01*
%TO.C,Q4*%
X232957619Y-106267238D02*
X232910000Y-106362476D01*
X232814761Y-106457714D01*
X232671904Y-106600571D01*
X232624285Y-106695809D01*
X232624285Y-106791047D01*
X232862380Y-106743428D02*
X232814761Y-106838666D01*
X232719523Y-106933904D01*
X232529047Y-106981523D01*
X232195714Y-106981523D01*
X232005238Y-106933904D01*
X231910000Y-106838666D01*
X231862380Y-106743428D01*
X231862380Y-106552952D01*
X231910000Y-106457714D01*
X232005238Y-106362476D01*
X232195714Y-106314857D01*
X232529047Y-106314857D01*
X232719523Y-106362476D01*
X232814761Y-106457714D01*
X232862380Y-106552952D01*
X232862380Y-106743428D01*
X232195714Y-105457714D02*
X232862380Y-105457714D01*
X231814761Y-105695809D02*
X232529047Y-105933904D01*
X232529047Y-105314857D01*
%TO.C,Q5*%
X235362761Y-90717619D02*
X235267523Y-90670000D01*
X235172285Y-90574761D01*
X235029428Y-90431904D01*
X234934190Y-90384285D01*
X234838952Y-90384285D01*
X234886571Y-90622380D02*
X234791333Y-90574761D01*
X234696095Y-90479523D01*
X234648476Y-90289047D01*
X234648476Y-89955714D01*
X234696095Y-89765238D01*
X234791333Y-89670000D01*
X234886571Y-89622380D01*
X235077047Y-89622380D01*
X235172285Y-89670000D01*
X235267523Y-89765238D01*
X235315142Y-89955714D01*
X235315142Y-90289047D01*
X235267523Y-90479523D01*
X235172285Y-90574761D01*
X235077047Y-90622380D01*
X234886571Y-90622380D01*
X236219904Y-89622380D02*
X235743714Y-89622380D01*
X235696095Y-90098571D01*
X235743714Y-90050952D01*
X235838952Y-90003333D01*
X236077047Y-90003333D01*
X236172285Y-90050952D01*
X236219904Y-90098571D01*
X236267523Y-90193809D01*
X236267523Y-90431904D01*
X236219904Y-90527142D01*
X236172285Y-90574761D01*
X236077047Y-90622380D01*
X235838952Y-90622380D01*
X235743714Y-90574761D01*
X235696095Y-90527142D01*
%TO.C,Q6*%
X230663761Y-83137619D02*
X230568523Y-83090000D01*
X230473285Y-82994761D01*
X230330428Y-82851904D01*
X230235190Y-82804285D01*
X230139952Y-82804285D01*
X230187571Y-83042380D02*
X230092333Y-82994761D01*
X229997095Y-82899523D01*
X229949476Y-82709047D01*
X229949476Y-82375714D01*
X229997095Y-82185238D01*
X230092333Y-82090000D01*
X230187571Y-82042380D01*
X230378047Y-82042380D01*
X230473285Y-82090000D01*
X230568523Y-82185238D01*
X230616142Y-82375714D01*
X230616142Y-82709047D01*
X230568523Y-82899523D01*
X230473285Y-82994761D01*
X230378047Y-83042380D01*
X230187571Y-83042380D01*
X231473285Y-82042380D02*
X231282809Y-82042380D01*
X231187571Y-82090000D01*
X231139952Y-82137619D01*
X231044714Y-82280476D01*
X230997095Y-82470952D01*
X230997095Y-82851904D01*
X231044714Y-82947142D01*
X231092333Y-82994761D01*
X231187571Y-83042380D01*
X231378047Y-83042380D01*
X231473285Y-82994761D01*
X231520904Y-82947142D01*
X231568523Y-82851904D01*
X231568523Y-82613809D01*
X231520904Y-82518571D01*
X231473285Y-82470952D01*
X231378047Y-82423333D01*
X231187571Y-82423333D01*
X231092333Y-82470952D01*
X231044714Y-82518571D01*
X230997095Y-82613809D01*
%TO.C,Q7*%
X230679761Y-88217619D02*
X230584523Y-88170000D01*
X230489285Y-88074761D01*
X230346428Y-87931904D01*
X230251190Y-87884285D01*
X230155952Y-87884285D01*
X230203571Y-88122380D02*
X230108333Y-88074761D01*
X230013095Y-87979523D01*
X229965476Y-87789047D01*
X229965476Y-87455714D01*
X230013095Y-87265238D01*
X230108333Y-87170000D01*
X230203571Y-87122380D01*
X230394047Y-87122380D01*
X230489285Y-87170000D01*
X230584523Y-87265238D01*
X230632142Y-87455714D01*
X230632142Y-87789047D01*
X230584523Y-87979523D01*
X230489285Y-88074761D01*
X230394047Y-88122380D01*
X230203571Y-88122380D01*
X230965476Y-87122380D02*
X231632142Y-87122380D01*
X231203571Y-88122380D01*
%TO.C,Q8*%
X233457761Y-91225619D02*
X233362523Y-91178000D01*
X233267285Y-91082761D01*
X233124428Y-90939904D01*
X233029190Y-90892285D01*
X232933952Y-90892285D01*
X232981571Y-91130380D02*
X232886333Y-91082761D01*
X232791095Y-90987523D01*
X232743476Y-90797047D01*
X232743476Y-90463714D01*
X232791095Y-90273238D01*
X232886333Y-90178000D01*
X232981571Y-90130380D01*
X233172047Y-90130380D01*
X233267285Y-90178000D01*
X233362523Y-90273238D01*
X233410142Y-90463714D01*
X233410142Y-90797047D01*
X233362523Y-90987523D01*
X233267285Y-91082761D01*
X233172047Y-91130380D01*
X232981571Y-91130380D01*
X233981571Y-90558952D02*
X233886333Y-90511333D01*
X233838714Y-90463714D01*
X233791095Y-90368476D01*
X233791095Y-90320857D01*
X233838714Y-90225619D01*
X233886333Y-90178000D01*
X233981571Y-90130380D01*
X234172047Y-90130380D01*
X234267285Y-90178000D01*
X234314904Y-90225619D01*
X234362523Y-90320857D01*
X234362523Y-90368476D01*
X234314904Y-90463714D01*
X234267285Y-90511333D01*
X234172047Y-90558952D01*
X233981571Y-90558952D01*
X233886333Y-90606571D01*
X233838714Y-90654190D01*
X233791095Y-90749428D01*
X233791095Y-90939904D01*
X233838714Y-91035142D01*
X233886333Y-91082761D01*
X233981571Y-91130380D01*
X234172047Y-91130380D01*
X234267285Y-91082761D01*
X234314904Y-91035142D01*
X234362523Y-90939904D01*
X234362523Y-90749428D01*
X234314904Y-90654190D01*
X234267285Y-90606571D01*
X234172047Y-90558952D01*
%TO.C,Q9*%
X196508619Y-124936238D02*
X196461000Y-125031476D01*
X196365761Y-125126714D01*
X196222904Y-125269571D01*
X196175285Y-125364809D01*
X196175285Y-125460047D01*
X196413380Y-125412428D02*
X196365761Y-125507666D01*
X196270523Y-125602904D01*
X196080047Y-125650523D01*
X195746714Y-125650523D01*
X195556238Y-125602904D01*
X195461000Y-125507666D01*
X195413380Y-125412428D01*
X195413380Y-125221952D01*
X195461000Y-125126714D01*
X195556238Y-125031476D01*
X195746714Y-124983857D01*
X196080047Y-124983857D01*
X196270523Y-125031476D01*
X196365761Y-125126714D01*
X196413380Y-125221952D01*
X196413380Y-125412428D01*
X196413380Y-124507666D02*
X196413380Y-124317190D01*
X196365761Y-124221952D01*
X196318142Y-124174333D01*
X196175285Y-124079095D01*
X195984809Y-124031476D01*
X195603857Y-124031476D01*
X195508619Y-124079095D01*
X195461000Y-124126714D01*
X195413380Y-124221952D01*
X195413380Y-124412428D01*
X195461000Y-124507666D01*
X195508619Y-124555285D01*
X195603857Y-124602904D01*
X195841952Y-124602904D01*
X195937190Y-124555285D01*
X195984809Y-124507666D01*
X196032428Y-124412428D01*
X196032428Y-124221952D01*
X195984809Y-124126714D01*
X195937190Y-124079095D01*
X195841952Y-124031476D01*
%TO.C,Q10*%
X198413619Y-114109428D02*
X198366000Y-114204666D01*
X198270761Y-114299904D01*
X198127904Y-114442761D01*
X198080285Y-114538000D01*
X198080285Y-114633238D01*
X198318380Y-114585619D02*
X198270761Y-114680857D01*
X198175523Y-114776095D01*
X197985047Y-114823714D01*
X197651714Y-114823714D01*
X197461238Y-114776095D01*
X197366000Y-114680857D01*
X197318380Y-114585619D01*
X197318380Y-114395142D01*
X197366000Y-114299904D01*
X197461238Y-114204666D01*
X197651714Y-114157047D01*
X197985047Y-114157047D01*
X198175523Y-114204666D01*
X198270761Y-114299904D01*
X198318380Y-114395142D01*
X198318380Y-114585619D01*
X198318380Y-113204666D02*
X198318380Y-113776095D01*
X198318380Y-113490380D02*
X197318380Y-113490380D01*
X197461238Y-113585619D01*
X197556476Y-113680857D01*
X197604095Y-113776095D01*
X197318380Y-112585619D02*
X197318380Y-112490380D01*
X197366000Y-112395142D01*
X197413619Y-112347523D01*
X197508857Y-112299904D01*
X197699333Y-112252285D01*
X197937428Y-112252285D01*
X198127904Y-112299904D01*
X198223142Y-112347523D01*
X198270761Y-112395142D01*
X198318380Y-112490380D01*
X198318380Y-112585619D01*
X198270761Y-112680857D01*
X198223142Y-112728476D01*
X198127904Y-112776095D01*
X197937428Y-112823714D01*
X197699333Y-112823714D01*
X197508857Y-112776095D01*
X197413619Y-112728476D01*
X197366000Y-112680857D01*
X197318380Y-112585619D01*
%TO.C,R1*%
X204049333Y-117673380D02*
X203716000Y-117197190D01*
X203477904Y-117673380D02*
X203477904Y-116673380D01*
X203858857Y-116673380D01*
X203954095Y-116721000D01*
X204001714Y-116768619D01*
X204049333Y-116863857D01*
X204049333Y-117006714D01*
X204001714Y-117101952D01*
X203954095Y-117149571D01*
X203858857Y-117197190D01*
X203477904Y-117197190D01*
X205001714Y-117673380D02*
X204430285Y-117673380D01*
X204716000Y-117673380D02*
X204716000Y-116673380D01*
X204620761Y-116816238D01*
X204525523Y-116911476D01*
X204430285Y-116959095D01*
%TO.C,R2*%
X219019380Y-112180666D02*
X218543190Y-112514000D01*
X219019380Y-112752095D02*
X218019380Y-112752095D01*
X218019380Y-112371142D01*
X218067000Y-112275904D01*
X218114619Y-112228285D01*
X218209857Y-112180666D01*
X218352714Y-112180666D01*
X218447952Y-112228285D01*
X218495571Y-112275904D01*
X218543190Y-112371142D01*
X218543190Y-112752095D01*
X218114619Y-111799714D02*
X218067000Y-111752095D01*
X218019380Y-111656857D01*
X218019380Y-111418761D01*
X218067000Y-111323523D01*
X218114619Y-111275904D01*
X218209857Y-111228285D01*
X218305095Y-111228285D01*
X218447952Y-111275904D01*
X219019380Y-111847333D01*
X219019380Y-111228285D01*
%TO.C,R3*%
X203668333Y-125419380D02*
X203335000Y-124943190D01*
X203096904Y-125419380D02*
X203096904Y-124419380D01*
X203477857Y-124419380D01*
X203573095Y-124467000D01*
X203620714Y-124514619D01*
X203668333Y-124609857D01*
X203668333Y-124752714D01*
X203620714Y-124847952D01*
X203573095Y-124895571D01*
X203477857Y-124943190D01*
X203096904Y-124943190D01*
X204001666Y-124419380D02*
X204620714Y-124419380D01*
X204287380Y-124800333D01*
X204430238Y-124800333D01*
X204525476Y-124847952D01*
X204573095Y-124895571D01*
X204620714Y-124990809D01*
X204620714Y-125228904D01*
X204573095Y-125324142D01*
X204525476Y-125371761D01*
X204430238Y-125419380D01*
X204144523Y-125419380D01*
X204049285Y-125371761D01*
X204001666Y-125324142D01*
%TO.C,R4*%
X200033833Y-125419380D02*
X199700500Y-124943190D01*
X199462404Y-125419380D02*
X199462404Y-124419380D01*
X199843357Y-124419380D01*
X199938595Y-124467000D01*
X199986214Y-124514619D01*
X200033833Y-124609857D01*
X200033833Y-124752714D01*
X199986214Y-124847952D01*
X199938595Y-124895571D01*
X199843357Y-124943190D01*
X199462404Y-124943190D01*
X200890976Y-124752714D02*
X200890976Y-125419380D01*
X200652880Y-124371761D02*
X200414785Y-125086047D01*
X201033833Y-125086047D01*
%TO.C,R5*%
X200620333Y-117673380D02*
X200287000Y-117197190D01*
X200048904Y-117673380D02*
X200048904Y-116673380D01*
X200429857Y-116673380D01*
X200525095Y-116721000D01*
X200572714Y-116768619D01*
X200620333Y-116863857D01*
X200620333Y-117006714D01*
X200572714Y-117101952D01*
X200525095Y-117149571D01*
X200429857Y-117197190D01*
X200048904Y-117197190D01*
X201525095Y-116673380D02*
X201048904Y-116673380D01*
X201001285Y-117149571D01*
X201048904Y-117101952D01*
X201144142Y-117054333D01*
X201382238Y-117054333D01*
X201477476Y-117101952D01*
X201525095Y-117149571D01*
X201572714Y-117244809D01*
X201572714Y-117482904D01*
X201525095Y-117578142D01*
X201477476Y-117625761D01*
X201382238Y-117673380D01*
X201144142Y-117673380D01*
X201048904Y-117625761D01*
X201001285Y-117578142D01*
%TO.C,R6*%
X177617380Y-83478666D02*
X177141190Y-83812000D01*
X177617380Y-84050095D02*
X176617380Y-84050095D01*
X176617380Y-83669142D01*
X176665000Y-83573904D01*
X176712619Y-83526285D01*
X176807857Y-83478666D01*
X176950714Y-83478666D01*
X177045952Y-83526285D01*
X177093571Y-83573904D01*
X177141190Y-83669142D01*
X177141190Y-84050095D01*
X176617380Y-82621523D02*
X176617380Y-82812000D01*
X176665000Y-82907238D01*
X176712619Y-82954857D01*
X176855476Y-83050095D01*
X177045952Y-83097714D01*
X177426904Y-83097714D01*
X177522142Y-83050095D01*
X177569761Y-83002476D01*
X177617380Y-82907238D01*
X177617380Y-82716761D01*
X177569761Y-82621523D01*
X177522142Y-82573904D01*
X177426904Y-82526285D01*
X177188809Y-82526285D01*
X177093571Y-82573904D01*
X177045952Y-82621523D01*
X176998333Y-82716761D01*
X176998333Y-82907238D01*
X177045952Y-83002476D01*
X177093571Y-83050095D01*
X177188809Y-83097714D01*
%TO.C,R7*%
X227036333Y-110053380D02*
X226703000Y-109577190D01*
X226464904Y-110053380D02*
X226464904Y-109053380D01*
X226845857Y-109053380D01*
X226941095Y-109101000D01*
X226988714Y-109148619D01*
X227036333Y-109243857D01*
X227036333Y-109386714D01*
X226988714Y-109481952D01*
X226941095Y-109529571D01*
X226845857Y-109577190D01*
X226464904Y-109577190D01*
X227369666Y-109053380D02*
X228036333Y-109053380D01*
X227607761Y-110053380D01*
%TO.C,R8*%
X227036333Y-118562380D02*
X226703000Y-118086190D01*
X226464904Y-118562380D02*
X226464904Y-117562380D01*
X226845857Y-117562380D01*
X226941095Y-117610000D01*
X226988714Y-117657619D01*
X227036333Y-117752857D01*
X227036333Y-117895714D01*
X226988714Y-117990952D01*
X226941095Y-118038571D01*
X226845857Y-118086190D01*
X226464904Y-118086190D01*
X227607761Y-117990952D02*
X227512523Y-117943333D01*
X227464904Y-117895714D01*
X227417285Y-117800476D01*
X227417285Y-117752857D01*
X227464904Y-117657619D01*
X227512523Y-117610000D01*
X227607761Y-117562380D01*
X227798238Y-117562380D01*
X227893476Y-117610000D01*
X227941095Y-117657619D01*
X227988714Y-117752857D01*
X227988714Y-117800476D01*
X227941095Y-117895714D01*
X227893476Y-117943333D01*
X227798238Y-117990952D01*
X227607761Y-117990952D01*
X227512523Y-118038571D01*
X227464904Y-118086190D01*
X227417285Y-118181428D01*
X227417285Y-118371904D01*
X227464904Y-118467142D01*
X227512523Y-118514761D01*
X227607761Y-118562380D01*
X227798238Y-118562380D01*
X227893476Y-118514761D01*
X227941095Y-118467142D01*
X227988714Y-118371904D01*
X227988714Y-118181428D01*
X227941095Y-118086190D01*
X227893476Y-118038571D01*
X227798238Y-117990952D01*
%TO.C,R9*%
X227036333Y-111958380D02*
X226703000Y-111482190D01*
X226464904Y-111958380D02*
X226464904Y-110958380D01*
X226845857Y-110958380D01*
X226941095Y-111006000D01*
X226988714Y-111053619D01*
X227036333Y-111148857D01*
X227036333Y-111291714D01*
X226988714Y-111386952D01*
X226941095Y-111434571D01*
X226845857Y-111482190D01*
X226464904Y-111482190D01*
X227512523Y-111958380D02*
X227703000Y-111958380D01*
X227798238Y-111910761D01*
X227845857Y-111863142D01*
X227941095Y-111720285D01*
X227988714Y-111529809D01*
X227988714Y-111148857D01*
X227941095Y-111053619D01*
X227893476Y-111006000D01*
X227798238Y-110958380D01*
X227607761Y-110958380D01*
X227512523Y-111006000D01*
X227464904Y-111053619D01*
X227417285Y-111148857D01*
X227417285Y-111386952D01*
X227464904Y-111482190D01*
X227512523Y-111529809D01*
X227607761Y-111577428D01*
X227798238Y-111577428D01*
X227893476Y-111529809D01*
X227941095Y-111482190D01*
X227988714Y-111386952D01*
%TO.C,R10*%
X226179142Y-120213380D02*
X225845809Y-119737190D01*
X225607714Y-120213380D02*
X225607714Y-119213380D01*
X225988666Y-119213380D01*
X226083904Y-119261000D01*
X226131523Y-119308619D01*
X226179142Y-119403857D01*
X226179142Y-119546714D01*
X226131523Y-119641952D01*
X226083904Y-119689571D01*
X225988666Y-119737190D01*
X225607714Y-119737190D01*
X227131523Y-120213380D02*
X226560095Y-120213380D01*
X226845809Y-120213380D02*
X226845809Y-119213380D01*
X226750571Y-119356238D01*
X226655333Y-119451476D01*
X226560095Y-119499095D01*
X227750571Y-119213380D02*
X227845809Y-119213380D01*
X227941047Y-119261000D01*
X227988666Y-119308619D01*
X228036285Y-119403857D01*
X228083904Y-119594333D01*
X228083904Y-119832428D01*
X228036285Y-120022904D01*
X227988666Y-120118142D01*
X227941047Y-120165761D01*
X227845809Y-120213380D01*
X227750571Y-120213380D01*
X227655333Y-120165761D01*
X227607714Y-120118142D01*
X227560095Y-120022904D01*
X227512476Y-119832428D01*
X227512476Y-119594333D01*
X227560095Y-119403857D01*
X227607714Y-119308619D01*
X227655333Y-119261000D01*
X227750571Y-119213380D01*
%TO.C,R11*%
X226179142Y-114117380D02*
X225845809Y-113641190D01*
X225607714Y-114117380D02*
X225607714Y-113117380D01*
X225988666Y-113117380D01*
X226083904Y-113165000D01*
X226131523Y-113212619D01*
X226179142Y-113307857D01*
X226179142Y-113450714D01*
X226131523Y-113545952D01*
X226083904Y-113593571D01*
X225988666Y-113641190D01*
X225607714Y-113641190D01*
X227131523Y-114117380D02*
X226560095Y-114117380D01*
X226845809Y-114117380D02*
X226845809Y-113117380D01*
X226750571Y-113260238D01*
X226655333Y-113355476D01*
X226560095Y-113403095D01*
X228083904Y-114117380D02*
X227512476Y-114117380D01*
X227798190Y-114117380D02*
X227798190Y-113117380D01*
X227702952Y-113260238D01*
X227607714Y-113355476D01*
X227512476Y-113403095D01*
%TO.C,R12*%
X226179142Y-105989380D02*
X225845809Y-105513190D01*
X225607714Y-105989380D02*
X225607714Y-104989380D01*
X225988666Y-104989380D01*
X226083904Y-105037000D01*
X226131523Y-105084619D01*
X226179142Y-105179857D01*
X226179142Y-105322714D01*
X226131523Y-105417952D01*
X226083904Y-105465571D01*
X225988666Y-105513190D01*
X225607714Y-105513190D01*
X227131523Y-105989380D02*
X226560095Y-105989380D01*
X226845809Y-105989380D02*
X226845809Y-104989380D01*
X226750571Y-105132238D01*
X226655333Y-105227476D01*
X226560095Y-105275095D01*
X227512476Y-105084619D02*
X227560095Y-105037000D01*
X227655333Y-104989380D01*
X227893428Y-104989380D01*
X227988666Y-105037000D01*
X228036285Y-105084619D01*
X228083904Y-105179857D01*
X228083904Y-105275095D01*
X228036285Y-105417952D01*
X227464857Y-105989380D01*
X228083904Y-105989380D01*
%TO.C,R13*%
X226179142Y-116149380D02*
X225845809Y-115673190D01*
X225607714Y-116149380D02*
X225607714Y-115149380D01*
X225988666Y-115149380D01*
X226083904Y-115197000D01*
X226131523Y-115244619D01*
X226179142Y-115339857D01*
X226179142Y-115482714D01*
X226131523Y-115577952D01*
X226083904Y-115625571D01*
X225988666Y-115673190D01*
X225607714Y-115673190D01*
X227131523Y-116149380D02*
X226560095Y-116149380D01*
X226845809Y-116149380D02*
X226845809Y-115149380D01*
X226750571Y-115292238D01*
X226655333Y-115387476D01*
X226560095Y-115435095D01*
X227464857Y-115149380D02*
X228083904Y-115149380D01*
X227750571Y-115530333D01*
X227893428Y-115530333D01*
X227988666Y-115577952D01*
X228036285Y-115625571D01*
X228083904Y-115720809D01*
X228083904Y-115958904D01*
X228036285Y-116054142D01*
X227988666Y-116101761D01*
X227893428Y-116149380D01*
X227607714Y-116149380D01*
X227512476Y-116101761D01*
X227464857Y-116054142D01*
%TO.C,R14*%
X226179142Y-108021380D02*
X225845809Y-107545190D01*
X225607714Y-108021380D02*
X225607714Y-107021380D01*
X225988666Y-107021380D01*
X226083904Y-107069000D01*
X226131523Y-107116619D01*
X226179142Y-107211857D01*
X226179142Y-107354714D01*
X226131523Y-107449952D01*
X226083904Y-107497571D01*
X225988666Y-107545190D01*
X225607714Y-107545190D01*
X227131523Y-108021380D02*
X226560095Y-108021380D01*
X226845809Y-108021380D02*
X226845809Y-107021380D01*
X226750571Y-107164238D01*
X226655333Y-107259476D01*
X226560095Y-107307095D01*
X227988666Y-107354714D02*
X227988666Y-108021380D01*
X227750571Y-106973761D02*
X227512476Y-107688047D01*
X228131523Y-107688047D01*
%TO.C,R15*%
X205049380Y-99908357D02*
X204573190Y-100241690D01*
X205049380Y-100479785D02*
X204049380Y-100479785D01*
X204049380Y-100098833D01*
X204097000Y-100003595D01*
X204144619Y-99955976D01*
X204239857Y-99908357D01*
X204382714Y-99908357D01*
X204477952Y-99955976D01*
X204525571Y-100003595D01*
X204573190Y-100098833D01*
X204573190Y-100479785D01*
X205049380Y-98955976D02*
X205049380Y-99527404D01*
X205049380Y-99241690D02*
X204049380Y-99241690D01*
X204192238Y-99336928D01*
X204287476Y-99432166D01*
X204335095Y-99527404D01*
X204049380Y-98051214D02*
X204049380Y-98527404D01*
X204525571Y-98575023D01*
X204477952Y-98527404D01*
X204430333Y-98432166D01*
X204430333Y-98194071D01*
X204477952Y-98098833D01*
X204525571Y-98051214D01*
X204620809Y-98003595D01*
X204858904Y-98003595D01*
X204954142Y-98051214D01*
X205001761Y-98098833D01*
X205049380Y-98194071D01*
X205049380Y-98432166D01*
X205001761Y-98527404D01*
X204954142Y-98575023D01*
%TO.C,R16*%
X205049380Y-92874857D02*
X204573190Y-93208190D01*
X205049380Y-93446285D02*
X204049380Y-93446285D01*
X204049380Y-93065333D01*
X204097000Y-92970095D01*
X204144619Y-92922476D01*
X204239857Y-92874857D01*
X204382714Y-92874857D01*
X204477952Y-92922476D01*
X204525571Y-92970095D01*
X204573190Y-93065333D01*
X204573190Y-93446285D01*
X205049380Y-91922476D02*
X205049380Y-92493904D01*
X205049380Y-92208190D02*
X204049380Y-92208190D01*
X204192238Y-92303428D01*
X204287476Y-92398666D01*
X204335095Y-92493904D01*
X204049380Y-91065333D02*
X204049380Y-91255809D01*
X204097000Y-91351047D01*
X204144619Y-91398666D01*
X204287476Y-91493904D01*
X204477952Y-91541523D01*
X204858904Y-91541523D01*
X204954142Y-91493904D01*
X205001761Y-91446285D01*
X205049380Y-91351047D01*
X205049380Y-91160571D01*
X205001761Y-91065333D01*
X204954142Y-91017714D01*
X204858904Y-90970095D01*
X204620809Y-90970095D01*
X204525571Y-91017714D01*
X204477952Y-91065333D01*
X204430333Y-91160571D01*
X204430333Y-91351047D01*
X204477952Y-91446285D01*
X204525571Y-91493904D01*
X204620809Y-91541523D01*
%TO.C,R17*%
X233624380Y-81414857D02*
X233148190Y-81748190D01*
X233624380Y-81986285D02*
X232624380Y-81986285D01*
X232624380Y-81605333D01*
X232672000Y-81510095D01*
X232719619Y-81462476D01*
X232814857Y-81414857D01*
X232957714Y-81414857D01*
X233052952Y-81462476D01*
X233100571Y-81510095D01*
X233148190Y-81605333D01*
X233148190Y-81986285D01*
X233624380Y-80462476D02*
X233624380Y-81033904D01*
X233624380Y-80748190D02*
X232624380Y-80748190D01*
X232767238Y-80843428D01*
X232862476Y-80938666D01*
X232910095Y-81033904D01*
X232624380Y-80129142D02*
X232624380Y-79462476D01*
X233624380Y-79891047D01*
%TO.C,R18*%
X225544142Y-81605380D02*
X225210809Y-81129190D01*
X224972714Y-81605380D02*
X224972714Y-80605380D01*
X225353666Y-80605380D01*
X225448904Y-80653000D01*
X225496523Y-80700619D01*
X225544142Y-80795857D01*
X225544142Y-80938714D01*
X225496523Y-81033952D01*
X225448904Y-81081571D01*
X225353666Y-81129190D01*
X224972714Y-81129190D01*
X226496523Y-81605380D02*
X225925095Y-81605380D01*
X226210809Y-81605380D02*
X226210809Y-80605380D01*
X226115571Y-80748238D01*
X226020333Y-80843476D01*
X225925095Y-80891095D01*
X227067952Y-81033952D02*
X226972714Y-80986333D01*
X226925095Y-80938714D01*
X226877476Y-80843476D01*
X226877476Y-80795857D01*
X226925095Y-80700619D01*
X226972714Y-80653000D01*
X227067952Y-80605380D01*
X227258428Y-80605380D01*
X227353666Y-80653000D01*
X227401285Y-80700619D01*
X227448904Y-80795857D01*
X227448904Y-80843476D01*
X227401285Y-80938714D01*
X227353666Y-80986333D01*
X227258428Y-81033952D01*
X227067952Y-81033952D01*
X226972714Y-81081571D01*
X226925095Y-81129190D01*
X226877476Y-81224428D01*
X226877476Y-81414904D01*
X226925095Y-81510142D01*
X226972714Y-81557761D01*
X227067952Y-81605380D01*
X227258428Y-81605380D01*
X227353666Y-81557761D01*
X227401285Y-81510142D01*
X227448904Y-81414904D01*
X227448904Y-81224428D01*
X227401285Y-81129190D01*
X227353666Y-81081571D01*
X227258428Y-81033952D01*
%TO.C,R19*%
X233877642Y-83638380D02*
X233544309Y-83162190D01*
X233306214Y-83638380D02*
X233306214Y-82638380D01*
X233687166Y-82638380D01*
X233782404Y-82686000D01*
X233830023Y-82733619D01*
X233877642Y-82828857D01*
X233877642Y-82971714D01*
X233830023Y-83066952D01*
X233782404Y-83114571D01*
X233687166Y-83162190D01*
X233306214Y-83162190D01*
X234830023Y-83638380D02*
X234258595Y-83638380D01*
X234544309Y-83638380D02*
X234544309Y-82638380D01*
X234449071Y-82781238D01*
X234353833Y-82876476D01*
X234258595Y-82924095D01*
X235306214Y-83638380D02*
X235496690Y-83638380D01*
X235591928Y-83590761D01*
X235639547Y-83543142D01*
X235734785Y-83400285D01*
X235782404Y-83209809D01*
X235782404Y-82828857D01*
X235734785Y-82733619D01*
X235687166Y-82686000D01*
X235591928Y-82638380D01*
X235401452Y-82638380D01*
X235306214Y-82686000D01*
X235258595Y-82733619D01*
X235210976Y-82828857D01*
X235210976Y-83066952D01*
X235258595Y-83162190D01*
X235306214Y-83209809D01*
X235401452Y-83257428D01*
X235591928Y-83257428D01*
X235687166Y-83209809D01*
X235734785Y-83162190D01*
X235782404Y-83066952D01*
%TO.C,R20*%
X223258142Y-85542380D02*
X222924809Y-85066190D01*
X222686714Y-85542380D02*
X222686714Y-84542380D01*
X223067666Y-84542380D01*
X223162904Y-84590000D01*
X223210523Y-84637619D01*
X223258142Y-84732857D01*
X223258142Y-84875714D01*
X223210523Y-84970952D01*
X223162904Y-85018571D01*
X223067666Y-85066190D01*
X222686714Y-85066190D01*
X223639095Y-84637619D02*
X223686714Y-84590000D01*
X223781952Y-84542380D01*
X224020047Y-84542380D01*
X224115285Y-84590000D01*
X224162904Y-84637619D01*
X224210523Y-84732857D01*
X224210523Y-84828095D01*
X224162904Y-84970952D01*
X223591476Y-85542380D01*
X224210523Y-85542380D01*
X224829571Y-84542380D02*
X224924809Y-84542380D01*
X225020047Y-84590000D01*
X225067666Y-84637619D01*
X225115285Y-84732857D01*
X225162904Y-84923333D01*
X225162904Y-85161428D01*
X225115285Y-85351904D01*
X225067666Y-85447142D01*
X225020047Y-85494761D01*
X224924809Y-85542380D01*
X224829571Y-85542380D01*
X224734333Y-85494761D01*
X224686714Y-85447142D01*
X224639095Y-85351904D01*
X224591476Y-85161428D01*
X224591476Y-84923333D01*
X224639095Y-84732857D01*
X224686714Y-84637619D01*
X224734333Y-84590000D01*
X224829571Y-84542380D01*
%TO.C,R21*%
X223258142Y-86939380D02*
X222924809Y-86463190D01*
X222686714Y-86939380D02*
X222686714Y-85939380D01*
X223067666Y-85939380D01*
X223162904Y-85987000D01*
X223210523Y-86034619D01*
X223258142Y-86129857D01*
X223258142Y-86272714D01*
X223210523Y-86367952D01*
X223162904Y-86415571D01*
X223067666Y-86463190D01*
X222686714Y-86463190D01*
X223639095Y-86034619D02*
X223686714Y-85987000D01*
X223781952Y-85939380D01*
X224020047Y-85939380D01*
X224115285Y-85987000D01*
X224162904Y-86034619D01*
X224210523Y-86129857D01*
X224210523Y-86225095D01*
X224162904Y-86367952D01*
X223591476Y-86939380D01*
X224210523Y-86939380D01*
X225162904Y-86939380D02*
X224591476Y-86939380D01*
X224877190Y-86939380D02*
X224877190Y-85939380D01*
X224781952Y-86082238D01*
X224686714Y-86177476D01*
X224591476Y-86225095D01*
%TO.C,R22*%
X230164642Y-95193380D02*
X229831309Y-94717190D01*
X229593214Y-95193380D02*
X229593214Y-94193380D01*
X229974166Y-94193380D01*
X230069404Y-94241000D01*
X230117023Y-94288619D01*
X230164642Y-94383857D01*
X230164642Y-94526714D01*
X230117023Y-94621952D01*
X230069404Y-94669571D01*
X229974166Y-94717190D01*
X229593214Y-94717190D01*
X230545595Y-94288619D02*
X230593214Y-94241000D01*
X230688452Y-94193380D01*
X230926547Y-94193380D01*
X231021785Y-94241000D01*
X231069404Y-94288619D01*
X231117023Y-94383857D01*
X231117023Y-94479095D01*
X231069404Y-94621952D01*
X230497976Y-95193380D01*
X231117023Y-95193380D01*
X231497976Y-94288619D02*
X231545595Y-94241000D01*
X231640833Y-94193380D01*
X231878928Y-94193380D01*
X231974166Y-94241000D01*
X232021785Y-94288619D01*
X232069404Y-94383857D01*
X232069404Y-94479095D01*
X232021785Y-94621952D01*
X231450357Y-95193380D01*
X232069404Y-95193380D01*
%TO.C,R23*%
X223258142Y-89733380D02*
X222924809Y-89257190D01*
X222686714Y-89733380D02*
X222686714Y-88733380D01*
X223067666Y-88733380D01*
X223162904Y-88781000D01*
X223210523Y-88828619D01*
X223258142Y-88923857D01*
X223258142Y-89066714D01*
X223210523Y-89161952D01*
X223162904Y-89209571D01*
X223067666Y-89257190D01*
X222686714Y-89257190D01*
X223639095Y-88828619D02*
X223686714Y-88781000D01*
X223781952Y-88733380D01*
X224020047Y-88733380D01*
X224115285Y-88781000D01*
X224162904Y-88828619D01*
X224210523Y-88923857D01*
X224210523Y-89019095D01*
X224162904Y-89161952D01*
X223591476Y-89733380D01*
X224210523Y-89733380D01*
X224543857Y-88733380D02*
X225162904Y-88733380D01*
X224829571Y-89114333D01*
X224972428Y-89114333D01*
X225067666Y-89161952D01*
X225115285Y-89209571D01*
X225162904Y-89304809D01*
X225162904Y-89542904D01*
X225115285Y-89638142D01*
X225067666Y-89685761D01*
X224972428Y-89733380D01*
X224686714Y-89733380D01*
X224591476Y-89685761D01*
X224543857Y-89638142D01*
%TO.C,R24*%
X223209642Y-93543380D02*
X222876309Y-93067190D01*
X222638214Y-93543380D02*
X222638214Y-92543380D01*
X223019166Y-92543380D01*
X223114404Y-92591000D01*
X223162023Y-92638619D01*
X223209642Y-92733857D01*
X223209642Y-92876714D01*
X223162023Y-92971952D01*
X223114404Y-93019571D01*
X223019166Y-93067190D01*
X222638214Y-93067190D01*
X223590595Y-92638619D02*
X223638214Y-92591000D01*
X223733452Y-92543380D01*
X223971547Y-92543380D01*
X224066785Y-92591000D01*
X224114404Y-92638619D01*
X224162023Y-92733857D01*
X224162023Y-92829095D01*
X224114404Y-92971952D01*
X223542976Y-93543380D01*
X224162023Y-93543380D01*
X225019166Y-92876714D02*
X225019166Y-93543380D01*
X224781071Y-92495761D02*
X224542976Y-93210047D01*
X225162023Y-93210047D01*
%TO.C,R25*%
X196207142Y-122118380D02*
X195873809Y-121642190D01*
X195635714Y-122118380D02*
X195635714Y-121118380D01*
X196016666Y-121118380D01*
X196111904Y-121166000D01*
X196159523Y-121213619D01*
X196207142Y-121308857D01*
X196207142Y-121451714D01*
X196159523Y-121546952D01*
X196111904Y-121594571D01*
X196016666Y-121642190D01*
X195635714Y-121642190D01*
X196588095Y-121213619D02*
X196635714Y-121166000D01*
X196730952Y-121118380D01*
X196969047Y-121118380D01*
X197064285Y-121166000D01*
X197111904Y-121213619D01*
X197159523Y-121308857D01*
X197159523Y-121404095D01*
X197111904Y-121546952D01*
X196540476Y-122118380D01*
X197159523Y-122118380D01*
X198064285Y-121118380D02*
X197588095Y-121118380D01*
X197540476Y-121594571D01*
X197588095Y-121546952D01*
X197683333Y-121499333D01*
X197921428Y-121499333D01*
X198016666Y-121546952D01*
X198064285Y-121594571D01*
X198111904Y-121689809D01*
X198111904Y-121927904D01*
X198064285Y-122023142D01*
X198016666Y-122070761D01*
X197921428Y-122118380D01*
X197683333Y-122118380D01*
X197588095Y-122070761D01*
X197540476Y-122023142D01*
%TO.C,R26*%
X196285642Y-116784380D02*
X195952309Y-116308190D01*
X195714214Y-116784380D02*
X195714214Y-115784380D01*
X196095166Y-115784380D01*
X196190404Y-115832000D01*
X196238023Y-115879619D01*
X196285642Y-115974857D01*
X196285642Y-116117714D01*
X196238023Y-116212952D01*
X196190404Y-116260571D01*
X196095166Y-116308190D01*
X195714214Y-116308190D01*
X196666595Y-115879619D02*
X196714214Y-115832000D01*
X196809452Y-115784380D01*
X197047547Y-115784380D01*
X197142785Y-115832000D01*
X197190404Y-115879619D01*
X197238023Y-115974857D01*
X197238023Y-116070095D01*
X197190404Y-116212952D01*
X196618976Y-116784380D01*
X197238023Y-116784380D01*
X198095166Y-115784380D02*
X197904690Y-115784380D01*
X197809452Y-115832000D01*
X197761833Y-115879619D01*
X197666595Y-116022476D01*
X197618976Y-116212952D01*
X197618976Y-116593904D01*
X197666595Y-116689142D01*
X197714214Y-116736761D01*
X197809452Y-116784380D01*
X197999928Y-116784380D01*
X198095166Y-116736761D01*
X198142785Y-116689142D01*
X198190404Y-116593904D01*
X198190404Y-116355809D01*
X198142785Y-116260571D01*
X198095166Y-116212952D01*
X197999928Y-116165333D01*
X197809452Y-116165333D01*
X197714214Y-116212952D01*
X197666595Y-116260571D01*
X197618976Y-116355809D01*
%TO.C,R27*%
X193032142Y-122118380D02*
X192698809Y-121642190D01*
X192460714Y-122118380D02*
X192460714Y-121118380D01*
X192841666Y-121118380D01*
X192936904Y-121166000D01*
X192984523Y-121213619D01*
X193032142Y-121308857D01*
X193032142Y-121451714D01*
X192984523Y-121546952D01*
X192936904Y-121594571D01*
X192841666Y-121642190D01*
X192460714Y-121642190D01*
X193413095Y-121213619D02*
X193460714Y-121166000D01*
X193555952Y-121118380D01*
X193794047Y-121118380D01*
X193889285Y-121166000D01*
X193936904Y-121213619D01*
X193984523Y-121308857D01*
X193984523Y-121404095D01*
X193936904Y-121546952D01*
X193365476Y-122118380D01*
X193984523Y-122118380D01*
X194317857Y-121118380D02*
X194984523Y-121118380D01*
X194555952Y-122118380D01*
%TO.C,R28*%
X191381142Y-116657380D02*
X191047809Y-116181190D01*
X190809714Y-116657380D02*
X190809714Y-115657380D01*
X191190666Y-115657380D01*
X191285904Y-115705000D01*
X191333523Y-115752619D01*
X191381142Y-115847857D01*
X191381142Y-115990714D01*
X191333523Y-116085952D01*
X191285904Y-116133571D01*
X191190666Y-116181190D01*
X190809714Y-116181190D01*
X191762095Y-115752619D02*
X191809714Y-115705000D01*
X191904952Y-115657380D01*
X192143047Y-115657380D01*
X192238285Y-115705000D01*
X192285904Y-115752619D01*
X192333523Y-115847857D01*
X192333523Y-115943095D01*
X192285904Y-116085952D01*
X191714476Y-116657380D01*
X192333523Y-116657380D01*
X192904952Y-116085952D02*
X192809714Y-116038333D01*
X192762095Y-115990714D01*
X192714476Y-115895476D01*
X192714476Y-115847857D01*
X192762095Y-115752619D01*
X192809714Y-115705000D01*
X192904952Y-115657380D01*
X193095428Y-115657380D01*
X193190666Y-115705000D01*
X193238285Y-115752619D01*
X193285904Y-115847857D01*
X193285904Y-115895476D01*
X193238285Y-115990714D01*
X193190666Y-116038333D01*
X193095428Y-116085952D01*
X192904952Y-116085952D01*
X192809714Y-116133571D01*
X192762095Y-116181190D01*
X192714476Y-116276428D01*
X192714476Y-116466904D01*
X192762095Y-116562142D01*
X192809714Y-116609761D01*
X192904952Y-116657380D01*
X193095428Y-116657380D01*
X193190666Y-116609761D01*
X193238285Y-116562142D01*
X193285904Y-116466904D01*
X193285904Y-116276428D01*
X193238285Y-116181190D01*
X193190666Y-116133571D01*
X193095428Y-116085952D01*
%TO.C,U1*%
X205827380Y-120268904D02*
X206636904Y-120268904D01*
X206732142Y-120221285D01*
X206779761Y-120173666D01*
X206827380Y-120078428D01*
X206827380Y-119887952D01*
X206779761Y-119792714D01*
X206732142Y-119745095D01*
X206636904Y-119697476D01*
X205827380Y-119697476D01*
X206827380Y-118697476D02*
X206827380Y-119268904D01*
X206827380Y-118983190D02*
X205827380Y-118983190D01*
X205970238Y-119078428D01*
X206065476Y-119173666D01*
X206113095Y-119268904D01*
%TO.C,U2*%
X192278095Y-80397380D02*
X192278095Y-81206904D01*
X192325714Y-81302142D01*
X192373333Y-81349761D01*
X192468571Y-81397380D01*
X192659047Y-81397380D01*
X192754285Y-81349761D01*
X192801904Y-81302142D01*
X192849523Y-81206904D01*
X192849523Y-80397380D01*
X193278095Y-80492619D02*
X193325714Y-80445000D01*
X193420952Y-80397380D01*
X193659047Y-80397380D01*
X193754285Y-80445000D01*
X193801904Y-80492619D01*
X193849523Y-80587857D01*
X193849523Y-80683095D01*
X193801904Y-80825952D01*
X193230476Y-81397380D01*
X193849523Y-81397380D01*
%TO.C,U3*%
X193040095Y-82129380D02*
X193040095Y-82938904D01*
X193087714Y-83034142D01*
X193135333Y-83081761D01*
X193230571Y-83129380D01*
X193421047Y-83129380D01*
X193516285Y-83081761D01*
X193563904Y-83034142D01*
X193611523Y-82938904D01*
X193611523Y-82129380D01*
X193992476Y-82129380D02*
X194611523Y-82129380D01*
X194278190Y-82510333D01*
X194421047Y-82510333D01*
X194516285Y-82557952D01*
X194563904Y-82605571D01*
X194611523Y-82700809D01*
X194611523Y-82938904D01*
X194563904Y-83034142D01*
X194516285Y-83081761D01*
X194421047Y-83129380D01*
X194135333Y-83129380D01*
X194040095Y-83081761D01*
X193992476Y-83034142D01*
%TO.C,U4*%
X212783595Y-98491380D02*
X212783595Y-99300904D01*
X212831214Y-99396142D01*
X212878833Y-99443761D01*
X212974071Y-99491380D01*
X213164547Y-99491380D01*
X213259785Y-99443761D01*
X213307404Y-99396142D01*
X213355023Y-99300904D01*
X213355023Y-98491380D01*
X214259785Y-98824714D02*
X214259785Y-99491380D01*
X214021690Y-98443761D02*
X213783595Y-99158047D01*
X214402642Y-99158047D01*
%TO.C,U5*%
X212725095Y-91506380D02*
X212725095Y-92315904D01*
X212772714Y-92411142D01*
X212820333Y-92458761D01*
X212915571Y-92506380D01*
X213106047Y-92506380D01*
X213201285Y-92458761D01*
X213248904Y-92411142D01*
X213296523Y-92315904D01*
X213296523Y-91506380D01*
X214248904Y-91506380D02*
X213772714Y-91506380D01*
X213725095Y-91982571D01*
X213772714Y-91934952D01*
X213867952Y-91887333D01*
X214106047Y-91887333D01*
X214201285Y-91934952D01*
X214248904Y-91982571D01*
X214296523Y-92077809D01*
X214296523Y-92315904D01*
X214248904Y-92411142D01*
X214201285Y-92458761D01*
X214106047Y-92506380D01*
X213867952Y-92506380D01*
X213772714Y-92458761D01*
X213725095Y-92411142D01*
%TO.C,Q11*%
X215582571Y-85550619D02*
X215487333Y-85503000D01*
X215392095Y-85407761D01*
X215249238Y-85264904D01*
X215154000Y-85217285D01*
X215058761Y-85217285D01*
X215106380Y-85455380D02*
X215011142Y-85407761D01*
X214915904Y-85312523D01*
X214868285Y-85122047D01*
X214868285Y-84788714D01*
X214915904Y-84598238D01*
X215011142Y-84503000D01*
X215106380Y-84455380D01*
X215296857Y-84455380D01*
X215392095Y-84503000D01*
X215487333Y-84598238D01*
X215534952Y-84788714D01*
X215534952Y-85122047D01*
X215487333Y-85312523D01*
X215392095Y-85407761D01*
X215296857Y-85455380D01*
X215106380Y-85455380D01*
X216487333Y-85455380D02*
X215915904Y-85455380D01*
X216201619Y-85455380D02*
X216201619Y-84455380D01*
X216106380Y-84598238D01*
X216011142Y-84693476D01*
X215915904Y-84741095D01*
X217439714Y-85455380D02*
X216868285Y-85455380D01*
X217154000Y-85455380D02*
X217154000Y-84455380D01*
X217058761Y-84598238D01*
X216963523Y-84693476D01*
X216868285Y-84741095D01*
%TO.C,Q12*%
X219249571Y-87648619D02*
X219154333Y-87601000D01*
X219059095Y-87505761D01*
X218916238Y-87362904D01*
X218821000Y-87315285D01*
X218725761Y-87315285D01*
X218773380Y-87553380D02*
X218678142Y-87505761D01*
X218582904Y-87410523D01*
X218535285Y-87220047D01*
X218535285Y-86886714D01*
X218582904Y-86696238D01*
X218678142Y-86601000D01*
X218773380Y-86553380D01*
X218963857Y-86553380D01*
X219059095Y-86601000D01*
X219154333Y-86696238D01*
X219201952Y-86886714D01*
X219201952Y-87220047D01*
X219154333Y-87410523D01*
X219059095Y-87505761D01*
X218963857Y-87553380D01*
X218773380Y-87553380D01*
X220154333Y-87553380D02*
X219582904Y-87553380D01*
X219868619Y-87553380D02*
X219868619Y-86553380D01*
X219773380Y-86696238D01*
X219678142Y-86791476D01*
X219582904Y-86839095D01*
X220535285Y-86648619D02*
X220582904Y-86601000D01*
X220678142Y-86553380D01*
X220916238Y-86553380D01*
X221011476Y-86601000D01*
X221059095Y-86648619D01*
X221106714Y-86743857D01*
X221106714Y-86839095D01*
X221059095Y-86981952D01*
X220487666Y-87553380D01*
X221106714Y-87553380D01*
%TO.C,R33*%
X212336142Y-83383380D02*
X212002809Y-82907190D01*
X211764714Y-83383380D02*
X211764714Y-82383380D01*
X212145666Y-82383380D01*
X212240904Y-82431000D01*
X212288523Y-82478619D01*
X212336142Y-82573857D01*
X212336142Y-82716714D01*
X212288523Y-82811952D01*
X212240904Y-82859571D01*
X212145666Y-82907190D01*
X211764714Y-82907190D01*
X212669476Y-82383380D02*
X213288523Y-82383380D01*
X212955190Y-82764333D01*
X213098047Y-82764333D01*
X213193285Y-82811952D01*
X213240904Y-82859571D01*
X213288523Y-82954809D01*
X213288523Y-83192904D01*
X213240904Y-83288142D01*
X213193285Y-83335761D01*
X213098047Y-83383380D01*
X212812333Y-83383380D01*
X212717095Y-83335761D01*
X212669476Y-83288142D01*
X213621857Y-82383380D02*
X214240904Y-82383380D01*
X213907571Y-82764333D01*
X214050428Y-82764333D01*
X214145666Y-82811952D01*
X214193285Y-82859571D01*
X214240904Y-82954809D01*
X214240904Y-83192904D01*
X214193285Y-83288142D01*
X214145666Y-83335761D01*
X214050428Y-83383380D01*
X213764714Y-83383380D01*
X213669476Y-83335761D01*
X213621857Y-83288142D01*
%TO.C,R34*%
X212161380Y-87764857D02*
X211685190Y-88098190D01*
X212161380Y-88336285D02*
X211161380Y-88336285D01*
X211161380Y-87955333D01*
X211209000Y-87860095D01*
X211256619Y-87812476D01*
X211351857Y-87764857D01*
X211494714Y-87764857D01*
X211589952Y-87812476D01*
X211637571Y-87860095D01*
X211685190Y-87955333D01*
X211685190Y-88336285D01*
X211161380Y-87431523D02*
X211161380Y-86812476D01*
X211542333Y-87145809D01*
X211542333Y-87002952D01*
X211589952Y-86907714D01*
X211637571Y-86860095D01*
X211732809Y-86812476D01*
X211970904Y-86812476D01*
X212066142Y-86860095D01*
X212113761Y-86907714D01*
X212161380Y-87002952D01*
X212161380Y-87288666D01*
X212113761Y-87383904D01*
X212066142Y-87431523D01*
X211494714Y-85955333D02*
X212161380Y-85955333D01*
X211113761Y-86193428D02*
X211828047Y-86431523D01*
X211828047Y-85812476D01*
%TO.C,R35*%
X212336142Y-90622380D02*
X212002809Y-90146190D01*
X211764714Y-90622380D02*
X211764714Y-89622380D01*
X212145666Y-89622380D01*
X212240904Y-89670000D01*
X212288523Y-89717619D01*
X212336142Y-89812857D01*
X212336142Y-89955714D01*
X212288523Y-90050952D01*
X212240904Y-90098571D01*
X212145666Y-90146190D01*
X211764714Y-90146190D01*
X212669476Y-89622380D02*
X213288523Y-89622380D01*
X212955190Y-90003333D01*
X213098047Y-90003333D01*
X213193285Y-90050952D01*
X213240904Y-90098571D01*
X213288523Y-90193809D01*
X213288523Y-90431904D01*
X213240904Y-90527142D01*
X213193285Y-90574761D01*
X213098047Y-90622380D01*
X212812333Y-90622380D01*
X212717095Y-90574761D01*
X212669476Y-90527142D01*
X214193285Y-89622380D02*
X213717095Y-89622380D01*
X213669476Y-90098571D01*
X213717095Y-90050952D01*
X213812333Y-90003333D01*
X214050428Y-90003333D01*
X214145666Y-90050952D01*
X214193285Y-90098571D01*
X214240904Y-90193809D01*
X214240904Y-90431904D01*
X214193285Y-90527142D01*
X214145666Y-90574761D01*
X214050428Y-90622380D01*
X213812333Y-90622380D01*
X213717095Y-90574761D01*
X213669476Y-90527142D01*
%TO.C,C14*%
X207510142Y-97512142D02*
X207462523Y-97559761D01*
X207319666Y-97607380D01*
X207224428Y-97607380D01*
X207081571Y-97559761D01*
X206986333Y-97464523D01*
X206938714Y-97369285D01*
X206891095Y-97178809D01*
X206891095Y-97035952D01*
X206938714Y-96845476D01*
X206986333Y-96750238D01*
X207081571Y-96655000D01*
X207224428Y-96607380D01*
X207319666Y-96607380D01*
X207462523Y-96655000D01*
X207510142Y-96702619D01*
X208462523Y-97607380D02*
X207891095Y-97607380D01*
X208176809Y-97607380D02*
X208176809Y-96607380D01*
X208081571Y-96750238D01*
X207986333Y-96845476D01*
X207891095Y-96893095D01*
X209319666Y-96940714D02*
X209319666Y-97607380D01*
X209081571Y-96559761D02*
X208843476Y-97274047D01*
X209462523Y-97274047D01*
%TO.C,C15*%
X207764142Y-90654142D02*
X207716523Y-90701761D01*
X207573666Y-90749380D01*
X207478428Y-90749380D01*
X207335571Y-90701761D01*
X207240333Y-90606523D01*
X207192714Y-90511285D01*
X207145095Y-90320809D01*
X207145095Y-90177952D01*
X207192714Y-89987476D01*
X207240333Y-89892238D01*
X207335571Y-89797000D01*
X207478428Y-89749380D01*
X207573666Y-89749380D01*
X207716523Y-89797000D01*
X207764142Y-89844619D01*
X208716523Y-90749380D02*
X208145095Y-90749380D01*
X208430809Y-90749380D02*
X208430809Y-89749380D01*
X208335571Y-89892238D01*
X208240333Y-89987476D01*
X208145095Y-90035095D01*
X209621285Y-89749380D02*
X209145095Y-89749380D01*
X209097476Y-90225571D01*
X209145095Y-90177952D01*
X209240333Y-90130333D01*
X209478428Y-90130333D01*
X209573666Y-90177952D01*
X209621285Y-90225571D01*
X209668904Y-90320809D01*
X209668904Y-90558904D01*
X209621285Y-90654142D01*
X209573666Y-90701761D01*
X209478428Y-90749380D01*
X209240333Y-90749380D01*
X209145095Y-90701761D01*
X209097476Y-90654142D01*
%TO.C,C16*%
X220574142Y-102115857D02*
X220621761Y-102163476D01*
X220669380Y-102306333D01*
X220669380Y-102401571D01*
X220621761Y-102544428D01*
X220526523Y-102639666D01*
X220431285Y-102687285D01*
X220240809Y-102734904D01*
X220097952Y-102734904D01*
X219907476Y-102687285D01*
X219812238Y-102639666D01*
X219717000Y-102544428D01*
X219669380Y-102401571D01*
X219669380Y-102306333D01*
X219717000Y-102163476D01*
X219764619Y-102115857D01*
X220669380Y-101163476D02*
X220669380Y-101734904D01*
X220669380Y-101449190D02*
X219669380Y-101449190D01*
X219812238Y-101544428D01*
X219907476Y-101639666D01*
X219955095Y-101734904D01*
X219669380Y-100306333D02*
X219669380Y-100496809D01*
X219717000Y-100592047D01*
X219764619Y-100639666D01*
X219907476Y-100734904D01*
X220097952Y-100782523D01*
X220478904Y-100782523D01*
X220574142Y-100734904D01*
X220621761Y-100687285D01*
X220669380Y-100592047D01*
X220669380Y-100401571D01*
X220621761Y-100306333D01*
X220574142Y-100258714D01*
X220478904Y-100211095D01*
X220240809Y-100211095D01*
X220145571Y-100258714D01*
X220097952Y-100306333D01*
X220050333Y-100401571D01*
X220050333Y-100592047D01*
X220097952Y-100687285D01*
X220145571Y-100734904D01*
X220240809Y-100782523D01*
%TO.C,C17*%
X220574142Y-95130857D02*
X220621761Y-95178476D01*
X220669380Y-95321333D01*
X220669380Y-95416571D01*
X220621761Y-95559428D01*
X220526523Y-95654666D01*
X220431285Y-95702285D01*
X220240809Y-95749904D01*
X220097952Y-95749904D01*
X219907476Y-95702285D01*
X219812238Y-95654666D01*
X219717000Y-95559428D01*
X219669380Y-95416571D01*
X219669380Y-95321333D01*
X219717000Y-95178476D01*
X219764619Y-95130857D01*
X220669380Y-94178476D02*
X220669380Y-94749904D01*
X220669380Y-94464190D02*
X219669380Y-94464190D01*
X219812238Y-94559428D01*
X219907476Y-94654666D01*
X219955095Y-94749904D01*
X219669380Y-93845142D02*
X219669380Y-93178476D01*
X220669380Y-93607047D01*
%TO.C,R38*%
X219145642Y-86049380D02*
X218812309Y-85573190D01*
X218574214Y-86049380D02*
X218574214Y-85049380D01*
X218955166Y-85049380D01*
X219050404Y-85097000D01*
X219098023Y-85144619D01*
X219145642Y-85239857D01*
X219145642Y-85382714D01*
X219098023Y-85477952D01*
X219050404Y-85525571D01*
X218955166Y-85573190D01*
X218574214Y-85573190D01*
X219478976Y-85049380D02*
X220098023Y-85049380D01*
X219764690Y-85430333D01*
X219907547Y-85430333D01*
X220002785Y-85477952D01*
X220050404Y-85525571D01*
X220098023Y-85620809D01*
X220098023Y-85858904D01*
X220050404Y-85954142D01*
X220002785Y-86001761D01*
X219907547Y-86049380D01*
X219621833Y-86049380D01*
X219526595Y-86001761D01*
X219478976Y-85954142D01*
X220669452Y-85477952D02*
X220574214Y-85430333D01*
X220526595Y-85382714D01*
X220478976Y-85287476D01*
X220478976Y-85239857D01*
X220526595Y-85144619D01*
X220574214Y-85097000D01*
X220669452Y-85049380D01*
X220859928Y-85049380D01*
X220955166Y-85097000D01*
X221002785Y-85144619D01*
X221050404Y-85239857D01*
X221050404Y-85287476D01*
X221002785Y-85382714D01*
X220955166Y-85430333D01*
X220859928Y-85477952D01*
X220669452Y-85477952D01*
X220574214Y-85525571D01*
X220526595Y-85573190D01*
X220478976Y-85668428D01*
X220478976Y-85858904D01*
X220526595Y-85954142D01*
X220574214Y-86001761D01*
X220669452Y-86049380D01*
X220859928Y-86049380D01*
X220955166Y-86001761D01*
X221002785Y-85954142D01*
X221050404Y-85858904D01*
X221050404Y-85668428D01*
X221002785Y-85573190D01*
X220955166Y-85525571D01*
X220859928Y-85477952D01*
%TD*%
M02*
