M48
; DRILL file {KiCad (5.1.6)-1} date 03/15/21 19:33:06
; FORMAT={-:-/ absolute / inch / decimal}
; #@! TF.CreationDate,2021-03-15T19:33:06-07:00
; #@! TF.GenerationSoftware,Kicad,Pcbnew,(5.1.6)-1
; #@! TF.FileFunction,Plated,1,2,PTH
FMAT,2
INCH
T1C0.0118
T2C0.0394
T3C0.0433
%
G90
G05
T1
X6.895Y-4.35
X6.895Y-4.64
X6.91Y-2.685
X6.91Y-2.835
X6.91Y-3.0
X6.91Y-3.155
X6.91Y-3.295
X6.91Y-3.505
X6.915Y-3.725
X6.955Y-4.915
X6.995Y-3.945
X7.145Y-4.245
X7.145Y-4.625
X7.205Y-4.78
X7.235Y-3.51
X7.275Y-3.35
X7.275Y-4.44
X7.3112Y-3.9356
X7.345Y-3.215
X7.345Y-4.185
X7.395Y-4.255
X7.405Y-3.995
X7.415Y-3.335
X7.44Y-3.205
X7.44Y-4.375
X7.495Y-4.595
X7.495Y-4.74
X7.51Y-3.32
X7.51Y-3.925
X7.515Y-3.465
X7.515Y-3.585
X7.525Y-4.61
X7.54Y-4.025
X7.56Y-3.56
X7.565Y-3.66
X7.6Y-4.435
X7.625Y-4.58
X7.655Y-4.03
X7.675Y-4.58
X7.6969Y-2.8937
X7.735Y-4.865
X7.76Y-4.925
X7.785Y-3.555
X7.815Y-3.375
X7.82Y-4.775
X7.83Y-3.25
X7.84Y-4.545
X7.84Y-4.635
X7.85Y-2.685
X7.88Y-4.08
X7.96Y-2.955
X7.96Y-3.1
X7.965Y-2.685
X7.98Y-4.6
X7.99Y-3.965
X8.02Y-3.905
X8.035Y-4.465
X8.05Y-3.76
X8.065Y-4.43
X8.07Y-4.4838
X8.085Y-4.645
X8.1Y-4.01
X8.105Y-4.245
X8.11Y-3.755
X8.11Y-3.81
X8.145Y-4.04
X8.1938Y-4.155
X8.195Y-4.305
X8.2Y-4.505
X8.215Y-4.79
X8.22Y-3.815
X8.22Y-4.0
X8.22Y-4.635
X8.225Y-2.685
X8.225Y-4.46
X8.23Y-4.595
X8.24Y-4.31
X8.245Y-4.745
X8.255Y-3.2
X8.255Y-3.915
X8.265Y-3.87
X8.275Y-4.56
X8.325Y-4.745
X8.33Y-4.53
X8.3388Y-3.985
X8.345Y-3.785
X8.346Y-3.7546
X8.3488Y-3.715
X8.35Y-4.445
X8.36Y-4.0612
X8.3812Y-4.03
X8.385Y-4.63
X8.39Y-3.03
X8.405Y-4.42
X8.435Y-4.115
X8.44Y-4.755
X8.445Y-4.26
X8.455Y-2.685
X8.46Y-4.375
X8.485Y-3.13
X8.485Y-4.345
X8.54Y-3.27
X8.56Y-4.445
X8.575Y-4.475
X8.58Y-3.815
X8.615Y-4.575
X8.7Y-2.68
X8.7Y-2.85
X8.705Y-3.74
X8.72Y-4.105
X8.74Y-4.505
X8.775Y-4.575
X8.815Y-4.58
X8.8462Y-3.435
X8.875Y-4.82
X8.93Y-4.61
X8.975Y-2.68
X8.975Y-2.855
X8.9782Y-3.1918
X8.98Y-3.035
X8.995Y-3.145
X9.02Y-3.725
X9.1376Y-4.3974
X9.1426Y-4.5474
X9.1476Y-4.2474
X9.155Y-3.74
X9.185Y-4.82
X9.235Y-2.675
X9.235Y-2.855
X9.235Y-3.03
X9.305Y-3.74
X9.31Y-4.04
X9.32Y-3.545
X9.325Y-4.56
X9.345Y-3.415
X9.41Y-3.43
X9.425Y-3.08
X9.43Y-4.815
X9.48Y-2.675
X9.605Y-4.66
X9.63Y-3.19
X9.63Y-4.49
X9.63Y-4.555
X9.6725Y-4.0475
X9.675Y-3.175
X9.7048Y-4.1537
X9.705Y-3.19
X9.75Y-3.19
X9.755Y-4.295
X9.755Y-4.655
X9.7675Y-4.2325
X9.775Y-2.675
X9.7919Y-3.2208
X9.795Y-4.61
X9.795Y-4.765
X9.93Y-3.22
X10.035Y-4.72
X10.07Y-2.675
X10.07Y-2.89
X10.09Y-4.035
X10.09Y-4.655
X10.14Y-4.435
X10.14Y-4.61
X10.215Y-3.3
X10.22Y-3.54
X10.22Y-3.79
X10.45Y-2.8
X10.45Y-3.045
X10.45Y-3.3
X10.45Y-3.54
X10.45Y-3.79
X10.45Y-4.045
X10.45Y-4.295
X10.45Y-4.59
T2
X7.91Y-4.735
X8.01Y-4.735
X9.13Y-3.845
X9.23Y-3.845
X7.44Y-4.465
X7.44Y-4.565
X7.44Y-4.665
X9.865Y-3.29
X9.865Y-3.39
X9.865Y-3.49
X9.865Y-3.59
X9.865Y-3.69
X9.865Y-3.79
X9.865Y-3.89
X9.865Y-3.99
X9.865Y-4.09
X9.865Y-4.19
X9.865Y-4.29
X9.865Y-4.39
X9.865Y-4.49
X9.965Y-3.29
X9.965Y-3.39
X9.965Y-3.49
X9.965Y-3.59
X9.965Y-3.69
X9.965Y-3.79
X9.965Y-3.89
X9.965Y-3.99
X9.965Y-4.09
X9.965Y-4.19
X9.965Y-4.29
X9.965Y-4.39
X9.965Y-4.49
X9.455Y-3.29
X9.455Y-3.39
X9.455Y-3.49
X9.455Y-3.59
X9.455Y-3.69
X9.455Y-3.79
X9.455Y-3.89
X9.455Y-3.99
X9.455Y-4.09
X9.455Y-4.19
X9.455Y-4.29
X9.455Y-4.39
X9.455Y-4.49
X9.555Y-3.29
X9.555Y-3.39
X9.555Y-3.49
X9.555Y-3.59
X9.555Y-3.69
X9.555Y-3.79
X9.555Y-3.89
X9.555Y-3.99
X9.555Y-4.09
X9.555Y-4.19
X9.555Y-4.29
X9.555Y-4.39
X9.555Y-4.49
X9.13Y-4.01
X9.23Y-4.01
X7.845Y-3.715
X7.845Y-3.815
X7.845Y-3.915
X7.945Y-3.715
X7.945Y-3.815
X7.945Y-3.915
T3
X10.235Y-2.79
X10.335Y-2.79
X10.3346Y-3.935
X10.3346Y-4.035
X10.3346Y-4.135
X10.3346Y-4.235
X10.3346Y-4.335
X10.3346Y-4.435
X10.3346Y-4.535
X10.3346Y-4.635
X9.5687Y-2.795
X9.6687Y-2.795
X9.7687Y-2.795
X9.8687Y-2.795
X7.02Y-4.375
X7.02Y-4.475
X7.02Y-4.575
X7.02Y-4.675
X7.02Y-4.775
X7.02Y-4.875
T0
M30
