%TF.GenerationSoftware,KiCad,Pcbnew,(5.1.6)-1*%
%TF.CreationDate,2021-03-15T19:33:02-07:00*%
%TF.ProjectId,DJetECUTester,444a6574-4543-4555-9465-737465722e6b,rev?*%
%TF.SameCoordinates,Original*%
%TF.FileFunction,Soldermask,Bot*%
%TF.FilePolarity,Negative*%
%FSLAX46Y46*%
G04 Gerber Fmt 4.6, Leading zero omitted, Abs format (unit mm)*
G04 Created by KiCad (PCBNEW (5.1.6)-1) date 2021-03-15 19:33:02*
%MOMM*%
%LPD*%
G01*
G04 APERTURE LIST*
%ADD10C,1.800000*%
%ADD11C,2.200000*%
%ADD12R,2.200000X2.200000*%
%ADD13R,1.800000X1.800000*%
%ADD14O,1.800000X1.800000*%
%ADD15C,1.000000*%
G04 APERTURE END LIST*
%TO.C,J2*%
G36*
G01*
X254011000Y-113410706D02*
X254011000Y-114681294D01*
G75*
G02*
X253746294Y-114946000I-264706J0D01*
G01*
X252475706Y-114946000D01*
G75*
G02*
X252211000Y-114681294I0J264706D01*
G01*
X252211000Y-113410706D01*
G75*
G02*
X252475706Y-113146000I264706J0D01*
G01*
X253746294Y-113146000D01*
G75*
G02*
X254011000Y-113410706I0J-264706D01*
G01*
G37*
D10*
X253111000Y-111506000D03*
X253111000Y-108966000D03*
X253111000Y-106426000D03*
X253111000Y-103886000D03*
X253111000Y-101346000D03*
X253111000Y-98806000D03*
X253111000Y-96266000D03*
X253111000Y-93726000D03*
X253111000Y-91186000D03*
X253111000Y-88646000D03*
X253111000Y-86106000D03*
X253111000Y-83566000D03*
X250571000Y-114046000D03*
X250571000Y-111506000D03*
X250571000Y-108966000D03*
X250571000Y-106426000D03*
X250571000Y-103886000D03*
X250571000Y-101346000D03*
X250571000Y-98806000D03*
X250571000Y-96266000D03*
X250571000Y-93726000D03*
X250571000Y-91186000D03*
X250571000Y-88646000D03*
X250571000Y-86106000D03*
X250571000Y-83566000D03*
%TD*%
D11*
%TO.C,J6*%
X243045000Y-70993000D03*
X245585000Y-70993000D03*
X248125000Y-70993000D03*
D12*
X250665000Y-70993000D03*
%TD*%
D11*
%TO.C,J8*%
X262500000Y-99949000D03*
X262500000Y-102489000D03*
X262500000Y-105029000D03*
X262500000Y-107569000D03*
X262500000Y-110109000D03*
X262500000Y-112649000D03*
X262500000Y-115189000D03*
D12*
X262500000Y-117729000D03*
%TD*%
%TO.C,J7*%
X178308000Y-111125000D03*
D11*
X178308000Y-113665000D03*
X178308000Y-116205000D03*
X178308000Y-118745000D03*
X178308000Y-121285000D03*
X178308000Y-123825000D03*
%TD*%
D13*
%TO.C,J1*%
X199263000Y-94361000D03*
D14*
X201803000Y-94361000D03*
X199263000Y-96901000D03*
X201803000Y-96901000D03*
X199263000Y-99441000D03*
X201803000Y-99441000D03*
%TD*%
D15*
%TO.C,J3*%
X180446000Y-98302000D03*
X180446000Y-102702000D03*
%TD*%
D13*
%TO.C,J4*%
X242697000Y-114046000D03*
D14*
X240157000Y-114046000D03*
X242697000Y-111506000D03*
X240157000Y-111506000D03*
X242697000Y-108966000D03*
X240157000Y-108966000D03*
X242697000Y-106426000D03*
X240157000Y-106426000D03*
X242697000Y-103886000D03*
X240157000Y-103886000D03*
X242697000Y-101346000D03*
X240157000Y-101346000D03*
X242697000Y-98806000D03*
X240157000Y-98806000D03*
X242697000Y-96266000D03*
X240157000Y-96266000D03*
X242697000Y-93726000D03*
X240157000Y-93726000D03*
X242697000Y-91186000D03*
X240157000Y-91186000D03*
X242697000Y-88646000D03*
X240157000Y-88646000D03*
X242697000Y-86106000D03*
X240157000Y-86106000D03*
X242697000Y-83566000D03*
X240157000Y-83566000D03*
%TD*%
D12*
%TO.C,J5*%
X262509000Y-70866000D03*
D11*
X259969000Y-70866000D03*
%TD*%
D13*
%TO.C,JP1*%
X203454000Y-120269000D03*
D14*
X200914000Y-120269000D03*
%TD*%
D13*
%TO.C,JP2*%
X231902000Y-101854000D03*
D14*
X234442000Y-101854000D03*
%TD*%
%TO.C,JP3*%
X234442000Y-97663000D03*
D13*
X231902000Y-97663000D03*
%TD*%
%TO.C,JP4*%
X188976000Y-113411000D03*
D14*
X188976000Y-115951000D03*
X188976000Y-118491000D03*
%TD*%
M02*
